<?xml version="1.0" encoding="utf-8"?>
<!-- Generator: Adobe Illustrator 27.9.0, SVG Export Plug-In . SVG Version: 6.00 Build 0)  -->
<svg version="1.1" id="Layer_1" xmlns="http://www.w3.org/2000/svg" xmlns:xlink="http://www.w3.org/1999/xlink" x="0px" y="0px"
	 width="1000px" height="1000px" viewBox="0 0 1000 1000" enable-background="new 0 0 1000 1000" xml:space="preserve">
<path opacity="0.1" fill="#F8ADD2" d="M902.193,807.434H97.807c-28.67,0-52.126-23.457-52.126-52.126V88.198
	c0-28.67,23.457-52.126,52.126-52.126h804.385c28.669,0,52.126,23.457,52.126,52.126v667.11
	C954.319,783.977,930.862,807.434,902.193,807.434z"/>
<g id="pink_x5F_box">
	<g id="pink_x5F_backround">
		<g>
			<path fill="#F8ADD2" d="M172.561,736.725c0,9.274,7.967,16.792,17.798,16.792h624.886c9.829,0,17.798-7.517,17.798-16.792
				V109.642c0-9.274-7.967-16.792-17.798-16.792H190.359c-9.829,0-17.798,7.517-17.798,16.792V736.725z"/>
		</g>
	</g>
	<g id="pink_x5F_outline" display="none">
		<g display="inline">
			<path fill="#F8ADD2" d="M815.245,754.451H190.359c-10.358,0-18.785-7.951-18.785-17.725V109.642
				c0-9.774,8.428-17.725,18.785-17.725h624.886c10.358,0,18.785,7.951,18.785,17.725v627.085
				C834.031,746.499,825.603,754.451,815.245,754.451z M190.359,93.783c-9.267,0-16.809,7.115-16.809,15.86v627.085
				c0,8.745,7.542,15.86,16.809,15.86h624.886c9.267,0,16.809-7.115,16.809-15.86V109.642c0-8.745-7.542-15.86-16.809-15.86H190.359
				z"/>
		</g>
	</g>
</g>
<g>
	<rect x="62.687" y="873.87" fill="none" width="874.625" height="231.198"/>
	<path fill="#F8ADD2" d="M404.647,877.921c4.77-0.72,10.439-1.26,16.649-1.26c11.249,0,19.259,2.61,24.568,7.56
		c5.4,4.95,8.55,11.97,8.55,21.779c0,9.899-3.06,17.999-8.729,23.579c-5.67,5.67-15.029,8.729-26.818,8.729
		c-5.58,0-10.26-0.27-14.22-0.72V877.921z M412.477,931.559c1.98,0.36,4.86,0.45,7.92,0.45c16.739,0,25.829-9.359,25.829-25.738
		c0.09-14.31-8.01-23.399-24.569-23.399c-4.05,0-7.109,0.36-9.18,0.81V931.559z"/>
	<path fill="#F8ADD2" d="M468.455,894.211l9.54,25.738c0.99,2.88,2.07,6.3,2.79,8.91h0.18c0.811-2.61,1.71-5.94,2.79-9.09
		l8.64-25.559h8.369l-11.879,31.049c-5.67,14.938-9.54,22.589-14.939,27.269c-3.87,3.42-7.74,4.77-9.72,5.13l-1.979-6.66
		c1.979-0.63,4.59-1.89,6.93-3.87c2.159-1.709,4.859-4.77,6.659-8.819c0.36-0.81,0.63-1.439,0.63-1.89s-0.18-1.08-0.54-2.07
		l-16.109-40.138H468.455z M493.385,875.401l-10.979,12.869h-5.67l7.92-12.869H493.385z"/>
	<path fill="#F8ADD2" d="M507.965,907.8c0-5.13-0.09-9.539-0.359-13.589h6.93l0.27,8.549h0.36c1.979-5.85,6.75-9.539,12.06-9.539
		c0.899,0,1.529,0.09,2.25,0.27v7.47c-0.811-0.18-1.62-0.27-2.7-0.27c-5.58,0-9.54,4.229-10.619,10.17
		c-0.181,1.079-0.36,2.34-0.36,3.689v23.219h-7.83V907.8z"/>
	<path fill="#F8ADD2" d="M546.574,881.971c0.09,2.7-1.891,4.86-5.04,4.86c-2.79,0-4.77-2.16-4.77-4.86
		c0-2.789,2.069-4.949,4.949-4.949C544.684,877.021,546.574,879.182,546.574,881.971z M537.754,937.769v-43.558h7.92v43.558H537.754
		z"/>
	<path fill="#F8ADD2" d="M558.813,906c0-4.5-0.09-8.189-0.359-11.789h7.02l0.45,7.199h0.18c2.16-4.14,7.2-8.189,14.399-8.189
		c6.03,0,15.39,3.6,15.39,18.539v26.009h-7.92V912.66c0-7.021-2.609-12.87-10.079-12.87c-5.221,0-9.271,3.69-10.62,8.1
		c-0.36,0.99-0.54,2.34-0.54,3.69v26.188h-7.92V906z"/>
</g>
<path fill="#FFFFFF" stroke="#F8ADD2" stroke-miterlimit="10" d="M625.812,494.145c0,60.825-36.918,73.984-111.975,73.984
	s-113.853-15.401-113.853-76.226s41.801-150.21,116.859-150.21S625.812,433.32,625.812,494.145z"/>
<path fill="#FFFFFF" stroke="#F8ADD2" stroke-miterlimit="10" d="M431.518,324.294c19.03,13.666-0.349,21.661-13.773,38.875
	c-13.424,17.214-15.809,37.129-34.839,23.462c-19.03-13.666-35.699-48.481-22.275-65.695
	C374.054,303.722,412.488,310.628,431.518,324.294z"/>
<path fill="#FFFFFF" stroke="#F8ADD2" stroke-miterlimit="10" d="M556.528,316.063c-0.97,24.645-18.214,13.092-39.873,12.307
	c-21.659-0.785-39.532,9.495-38.562-15.15s20.827-60.353,42.486-59.568C542.238,254.437,557.498,291.418,556.528,316.063z"/>
<path fill="#FFFFFF" stroke="#F8ADD2" stroke-miterlimit="10" d="M638.282,386.495c-19.506,13.033-21.316-7.135-34.119-24.779
	c-12.803-17.645-31.75-26.084-12.244-39.117c19.506-13.033,59.188-17.261,71.991,0.384S657.788,373.462,638.282,386.495z"/>
</svg>
