<?xml version="1.0" encoding="utf-8"?>
<!-- Generator: Adobe Illustrator 27.7.0, SVG Export Plug-In . SVG Version: 6.00 Build 0)  -->
<svg version="1.1" id="Layer_1" xmlns="http://www.w3.org/2000/svg" xmlns:xlink="http://www.w3.org/1999/xlink" x="0px" y="0px"
	 width="1000px" height="1000px" viewBox="0 0 1000 1000" enable-background="new 0 0 1000 1000" xml:space="preserve">
<g opacity="0.65">
	<path fill="#C7E1DF" d="M886.24,799.183h-765.8c-6.6,0-12-5.4-12-12V69.312c0-6.6,5.4-12,12-12h765.8c6.6,0,12,5.4,12,12v717.871
		C898.24,793.783,892.84,799.183,886.24,799.183z"/>
</g>
<g>
	<path fill="#B8DEDD" d="M327.498,846.696h-25.609v-8.88h62.337v8.88h-25.734v71.997h-10.993V846.696z"/>
	<path fill="#B8DEDD" d="M419.067,889.175c0,21.479-15.49,30.839-30.106,30.839c-16.365,0-28.982-11.52-28.982-29.879
		c0-19.439,13.242-30.839,29.982-30.839C407.324,859.296,419.067,871.415,419.067,889.175z M371.096,889.774
		c0,12.72,7.621,22.319,18.364,22.319c10.494,0,18.364-9.479,18.364-22.56c0-9.839-5.122-22.318-18.114-22.318
		S371.096,878.735,371.096,889.774z M371.596,844.177c0-3.36,2.873-6.12,6.371-6.12c3.498,0,6.121,2.64,6.121,6.12
		c0,3.239-2.499,6.119-6.121,6.119C374.219,850.296,371.596,847.416,371.596,844.177z M394.832,844.177
		c0-3.36,2.749-6.12,6.247-6.12c3.498,0,6.121,2.64,6.121,6.12c0,3.239-2.499,6.119-6.121,6.119
		C397.33,850.296,394.832,847.416,394.832,844.177z"/>
	<path fill="#B8DEDD" d="M432.933,833.497h10.993v85.196h-10.993V833.497z"/>
	<path fill="#B8DEDD" d="M513.008,902.854c0,5.999,0.125,11.279,0.5,15.839h-9.744l-0.624-9.479h-0.25
		c-2.873,4.68-9.244,10.8-19.988,10.8c-9.494,0-20.862-5.04-20.862-25.439v-33.958h10.993v32.158
		c0,11.039,3.498,18.479,13.492,18.479c7.371,0,12.493-4.92,14.491-9.6c0.625-1.561,0.999-3.48,0.999-5.4v-35.638h10.993V902.854z"
		/>
	<path fill="#B8DEDD" d="M531.247,878.735c0-6.84-0.125-12.72-0.499-18.119h9.619l0.374,11.399h0.5
		c2.748-7.8,9.369-12.72,16.74-12.72c1.249,0,2.123,0.12,3.123,0.359v9.96c-1.125-0.24-2.249-0.36-3.748-0.36
		c-7.745,0-13.242,5.641-14.741,13.56c-0.25,1.44-0.499,3.12-0.499,4.92v30.959h-10.869V878.735z"/>
	<path fill="#B8DEDD" d="M572.596,876.335c0-6-0.125-10.92-0.499-15.719h9.744l0.624,9.6h0.25c2.998-5.521,9.994-10.92,19.987-10.92
		c8.37,0,21.362,4.8,21.362,24.719v34.679h-10.993v-33.479c0-9.359-3.623-17.159-13.991-17.159c-7.246,0-12.867,4.92-14.741,10.799
		c-0.5,1.32-0.75,3.12-0.75,4.92v34.919h-10.993V876.335z"/>
	<path fill="#B8DEDD" d="M675.407,918.693l-0.874-7.319h-0.375c-3.373,4.56-9.869,8.64-18.488,8.64
		c-12.243,0-18.489-8.28-18.489-16.68c0-14.039,12.992-21.719,36.354-21.599v-1.2c0-4.8-1.375-13.439-13.742-13.439
		c-5.621,0-11.493,1.68-15.74,4.319l-2.498-6.959c4.996-3.12,12.242-5.16,19.862-5.16c18.489,0,22.986,12.119,22.986,23.759v21.72
		c0,5.039,0.25,9.959,0.999,13.919H675.407z M673.783,889.055c-11.992-0.24-25.609,1.8-25.609,13.079
		c0,6.84,4.747,10.08,10.369,10.08c7.87,0,12.867-4.8,14.616-9.72c0.375-1.08,0.624-2.28,0.624-3.36V889.055z"/>
	<path fill="#B8DEDD" d="M702.141,878.735c0-6.84-0.125-12.72-0.499-18.119h9.619l0.374,11.399h0.5
		c2.748-7.8,9.369-12.72,16.74-12.72c1.249,0,2.123,0.12,3.123,0.359v9.96c-1.125-0.24-2.249-0.36-3.748-0.36
		c-7.745,0-13.242,5.641-14.741,13.56c-0.25,1.44-0.5,3.12-0.5,4.92v30.959h-10.868V878.735z"/>
</g>
<g>
	<path fill="#76C0EB" d="M358.544,228.741h-1.266l-71.504,45.999l-10.757-50.523l89.854-57.309h47.458v490.148h-53.786
		L358.544,228.741L358.544,228.741z"/>
</g>
<g>
	<g>
		<path fill="#BA90AB" d="M584.261,306.618v-12.871l21.771-15.97c52.376-37.661,76.04-57.683,76.355-81.042
			c0-15.731-10.097-30.271-40.702-30.271c-18.615,0-34.076,7.151-43.542,13.11l-8.834-14.778
			c14.198-9.058,34.392-15.731,58.056-15.731c44.173,0,62.789,22.882,62.789,45.049c0,28.603-27.451,51.724-70.677,83.187
			l-16.407,11.441v0.477h92.132v17.4H584.261z"/>
	</g>
	<g>
		<path fill="#83C1BA" d="M564.323,619.64c11.104,4.974,36.863,12.746,63.955,12.746c50.188,0,65.732-22.384,65.288-39.173
			c-0.443-28.292-36.863-40.417-74.614-40.417h-21.763v-20.519h21.763c28.425,0,64.399-10.26,64.399-34.199
			c0-16.167-14.656-30.468-50.632-30.468c-23.095,0-45.302,7.15-57.737,13.369l-10.216-19.897
			c15.101-7.772,44.414-15.545,75.504-15.545c56.85,0,82.609,23.628,82.609,48.189c0,20.83-17.766,38.552-53.297,47.567v0.622
			c35.531,4.975,64.4,23.628,64.4,51.92c0,32.333-35.976,60.625-105.261,60.625c-32.422,0-60.847-7.15-75.06-13.68L564.323,619.64z"
			/>
	</g>
</g>
<g>
</g>
<g>
</g>
<g>
</g>
<g>
</g>
<g>
</g>
<g>
</g>
</svg>
