<?xml version="1.0" encoding="utf-8"?>
<!-- Generator: Adobe Illustrator 27.7.0, SVG Export Plug-In . SVG Version: 6.00 Build 0)  -->
<svg version="1.1" id="Layer_1" xmlns="http://www.w3.org/2000/svg" xmlns:xlink="http://www.w3.org/1999/xlink" x="0px" y="0px"
	 width="1000px" height="1000px" viewBox="0 0 1000 1000" enable-background="new 0 0 1000 1000" xml:space="preserve">
<g id="blue_x5F_box" opacity="0.7">
	<g id="Blue" opacity="0.8">
		<g>
			<path fill="#D7EAC3" d="M60.43,802.465c0,12.665,10.396,22.93,23.226,22.93h815.475c12.829,0,23.226-10.265,23.226-22.93V71.268
				c0-12.665-10.396-22.93-23.226-22.93H83.656c-12.829,0-23.226,10.265-23.226,22.93V802.465z"/>
		</g>
	</g>
	<g id="Blue_x5F_outline" display="none">
		<g display="inline">
			<path fill="#D7EAC3" d="M899.131,826.668H83.656c-13.517,0-24.515-10.859-24.515-24.203V71.268c0-13.345,11-24.203,24.515-24.203
				h815.475c13.517,0,24.516,10.859,24.516,24.203v731.196C923.647,815.809,912.647,826.668,899.131,826.668z M83.656,49.613
				c-12.095,0-21.936,9.714-21.936,21.656v731.196c0,11.941,9.84,21.656,21.936,21.656h815.475c12.095,0,21.936-9.714,21.936-21.656
				V71.268c0-11.941-9.84-21.656-21.936-21.656H83.656V49.613z"/>
		</g>
	</g>
</g>
<g>
	<g>
		<path fill="#FDE8B7" d="M405.019,299.167H226.548c-6.249,0-11.362-5.041-11.362-11.201V132.701
			c0-6.161,5.113-11.201,11.362-11.201h178.471c6.249,0,11.362,5.041,11.362,11.201v155.265
			C416.38,294.126,411.268,299.167,405.019,299.167z"/>
	</g>
	<g>
		<path fill="#FDE8B7" d="M721.483,518.676H546.712c-6.119,0-11.126-4.801-11.126-10.669V356.726
			c0-5.868,5.007-10.669,11.126-10.669h174.772c6.119,0,11.126,4.801,11.126,10.669v151.282
			C732.61,513.875,727.603,518.676,721.483,518.676z"/>
	</g>
	<g>
		<path fill="#BADEB5" d="M255.265,904.382c-0.6-11.834-1.32-26.062-1.2-36.638h-0.36c-2.76,9.947-6.12,20.523-10.2,32.231
			l-14.279,41.169h-7.919l-13.08-40.414c-3.84-11.961-7.08-22.915-9.359-32.986h-0.24c-0.24,10.576-0.84,24.804-1.56,37.519
			l-2.16,36.386h-9.96l5.64-84.858h13.319l13.799,41.044c3.36,10.449,6.12,19.766,8.16,28.579h0.36
			c2.04-8.561,4.92-17.878,8.52-28.579l14.399-41.044h13.319l5.04,84.858h-10.199L255.265,904.382z"/>
		<path fill="#BADEB5" d="M296.424,863.592c0.12,3.777-2.52,6.798-6.72,6.798c-3.72,0-6.36-3.022-6.36-6.798
			c0-3.904,2.76-6.926,6.6-6.926C293.904,856.666,296.424,859.687,296.424,863.592z M284.664,941.649v-60.937h10.56v60.937H284.664z
			"/>
		<path fill="#BADEB5" d="M312.744,897.207c0-6.295-0.12-11.456-0.48-16.494h9.359l0.6,10.073h0.24
			c2.88-5.792,9.6-11.456,19.199-11.456c8.04,0,20.519,5.036,20.519,25.936v36.386h-10.56v-35.127c0-9.82-3.48-18.004-13.439-18.004
			c-6.96,0-12.36,5.162-14.16,11.332c-0.48,1.384-0.72,3.273-0.72,5.161v36.638h-10.56v-44.444H312.744z"/>
		<path fill="#BADEB5" d="M379.343,897.207c0-6.295-0.12-11.456-0.48-16.494h9.359l0.6,10.073h0.24
			c2.88-5.792,9.6-11.456,19.199-11.456c8.039,0,20.519,5.036,20.519,25.936v36.386h-10.56v-35.127
			c0-9.82-3.479-18.004-13.439-18.004c-6.96,0-12.36,5.162-14.16,11.332c-0.48,1.384-0.72,3.273-0.72,5.161v36.638h-10.56v-44.444
			H379.343z"/>
		<path fill="#BADEB5" d="M457.701,863.592c0.12,3.777-2.521,6.798-6.72,6.798c-3.721,0-6.36-3.022-6.36-6.798
			c0-3.904,2.76-6.926,6.6-6.926C455.182,856.666,457.701,859.687,457.701,863.592z M445.942,941.649v-60.937h10.56v60.937H445.942z
			"/>
		<path fill="#BADEB5" d="M472.581,930.318c3.12,2.14,8.64,4.407,13.92,4.407c7.68,0,11.279-4.029,11.279-9.065
			c0-5.288-3-8.184-10.8-11.206c-10.439-3.903-15.359-9.946-15.359-17.248c0-9.82,7.561-17.878,20.039-17.878
			c5.88,0,11.04,1.763,14.28,3.777l-2.641,8.058c-2.279-1.51-6.479-3.524-11.879-3.524c-6.24,0-9.72,3.777-9.72,8.309
			c0,5.036,3.479,7.303,11.039,10.324c10.08,4.029,15.24,9.317,15.24,18.382c0,10.701-7.92,18.255-21.72,18.255
			c-6.359,0-12.239-1.638-16.319-4.155L472.581,930.318z"/>
		<path fill="#BADEB5" d="M546.979,852.26h10.56v89.389h-10.56V852.26z"/>
		<path fill="#BADEB5" d="M581.178,913.196c0.239,14.982,9.359,21.151,19.919,21.151c7.56,0,12.119-1.384,16.079-3.148l1.8,7.932
			c-3.72,1.764-10.079,3.778-19.318,3.778c-17.88,0-28.56-12.339-28.56-30.72s10.319-32.86,27.239-32.86
			c18.959,0,23.999,17.5,23.999,28.705c0,2.266-0.24,4.029-0.36,5.162L581.178,913.196L581.178,913.196z M612.136,905.263
			c0.12-7.051-2.76-18.004-14.639-18.004c-10.68,0-15.359,10.324-16.199,18.004H612.136z"/>
		<path fill="#BADEB5" d="M647.177,863.592c0.119,3.777-2.521,6.798-6.72,6.798c-3.72,0-6.36-3.022-6.36-6.798
			c0-3.904,2.76-6.926,6.6-6.926C644.656,856.666,647.177,859.687,647.177,863.592z M635.417,941.649v-60.937h10.56v60.937H635.417z
			"/>
		<path fill="#BADEB5" d="M673.936,908.664h0.24c1.439-2.14,3.479-4.784,5.159-6.925l17.04-21.026h12.719l-22.438,25.055
			l25.559,35.881h-12.84l-20.039-29.209l-5.399,6.295v22.914h-10.439V852.26h10.439L673.936,908.664L673.936,908.664z"/>
		<path fill="#BADEB5" d="M768.854,925.03c0,6.295,0.12,11.835,0.48,16.62h-9.359l-0.601-9.946h-0.24
			c-2.76,4.91-8.879,11.332-19.199,11.332c-9.119,0-20.039-5.288-20.039-26.691v-35.63h10.56v33.742
			c0,11.583,3.36,19.389,12.96,19.389c7.079,0,11.999-5.162,13.919-10.073c0.601-1.638,0.96-3.651,0.96-5.666v-37.393h10.56
			L768.854,925.03L768.854,925.03z"/>
		<path fill="#C3E0A8" d="M786.375,899.725c0-7.177-0.12-13.346-0.48-19.012h9.24l0.359,11.961h0.48
			c2.64-8.184,9-13.346,16.079-13.346c1.2,0,2.04,0.126,3,0.378v10.449c-1.08-0.252-2.16-0.377-3.6-0.377
			c-7.44,0-12.72,5.918-14.159,14.226c-0.24,1.511-0.48,3.274-0.48,5.162v32.483h-10.439V899.725z"/>
	</g>
	<g>
		<path fill="#BADEB5" d="M405.469,527.676h-179.37c-6.28,0-11.419-5.153-11.419-11.451V357.507c0-6.298,5.138-11.451,11.419-11.451
			h179.37c6.28,0,11.419,5.153,11.419,11.451v158.719C416.888,522.523,411.749,527.676,405.469,527.676z"/>
	</g>
	<g>
		<path fill="#BADEB5" d="M721.483,751.912H546.712c-6.119,0-11.126-4.92-11.126-10.934V585.934c0-6.014,5.007-10.934,11.126-10.934
			h174.772c6.119,0,11.126,4.92,11.126,10.934v155.044C732.61,746.991,727.603,751.912,721.483,751.912z"/>
	</g>
	<g>
		<path fill="#BBE4EB" d="M728.025,300.667H553.254c-6.119,0-11.126-5.126-11.126-11.391V131.391
			c0-6.265,5.007-11.391,11.126-11.391h174.772c6.119,0,11.126,5.126,11.126,11.391v157.887
			C739.151,295.541,734.145,300.667,728.025,300.667z"/>
	</g>
	<g>
		<path fill="#BBE4EB" d="M404.65,756.405H220.384c-6.452,0-11.73-5.147-11.73-11.437V586.437c0-6.29,5.279-11.437,11.73-11.437
			H404.65c6.452,0,11.73,5.147,11.73,11.437v158.532C416.38,751.258,411.102,756.405,404.65,756.405z"/>
	</g>
</g>
</svg>
