<?xml version="1.0" encoding="utf-8"?>
<!-- Generator: Adobe Illustrator 27.7.0, SVG Export Plug-In . SVG Version: 6.00 Build 0)  -->
<svg version="1.1" id="Layer_1" xmlns="http://www.w3.org/2000/svg" xmlns:xlink="http://www.w3.org/1999/xlink" x="0px" y="0px"
	 width="1000px" height="1000px" viewBox="0 0 1000 1000" enable-background="new 0 0 1000 1000" xml:space="preserve">
<g opacity="0.65">
	<path fill="#F3DDD7" d="M886.24,799.183h-765.8c-6.6,0-12-5.4-12-12V69.312c0-6.6,5.4-12,12-12h765.8c6.6,0,12,5.4,12,12v717.871
		C898.24,793.783,892.84,799.183,886.24,799.183z"/>
</g>
<g>
	<path fill="#DBCAE0" d="M311.508,837.816h45.347v8.76h-34.479v26.879h31.855v8.64h-31.855v36.599h-10.869V837.816z"/>
	<path fill="#DBCAE0" d="M422.816,889.175c0,21.479-15.49,30.839-30.106,30.839c-16.365,0-28.982-11.52-28.982-29.879
		c0-19.439,13.242-30.839,29.982-30.839C411.074,859.296,422.816,871.415,422.816,889.175z M374.846,889.774
		c0,12.72,7.621,22.319,18.364,22.319c10.494,0,18.364-9.479,18.364-22.56c0-9.839-5.122-22.318-18.114-22.318
		S374.846,878.735,374.846,889.774z"/>
	<path fill="#DBCAE0" d="M436.683,878.735c0-6.84-0.125-12.72-0.5-18.119h9.619l0.375,11.399h0.5c2.749-7.8,9.369-12.72,16.74-12.72
		c1.25,0,2.124,0.12,3.123,0.359v9.96c-1.124-0.24-2.249-0.36-3.748-0.36c-7.745,0-13.242,5.641-14.741,13.56
		c-0.25,1.44-0.5,3.12-0.5,4.92v30.959h-10.868V878.735z"/>
	<path fill="#DBCAE0" d="M478.032,876.335c0-6-0.125-10.92-0.5-15.719h9.619l0.5,9.359h0.375c3.373-5.52,8.995-10.68,18.988-10.68
		c8.245,0,14.491,4.8,17.114,11.64h0.25c1.874-3.24,4.248-5.76,6.746-7.56c3.623-2.641,7.62-4.08,13.367-4.08
		c7.995,0,19.862,5.04,19.862,25.199v34.198H553.61v-32.879c0-11.159-4.247-17.879-13.117-17.879c-6.246,0-11.118,4.439-12.992,9.6
		c-0.499,1.439-0.874,3.359-0.874,5.279v35.879h-10.744v-34.799c0-9.239-4.247-15.959-12.617-15.959
		c-6.87,0-11.867,5.279-13.616,10.56c-0.625,1.56-0.875,3.359-0.875,5.16v35.038h-10.743V876.335z"/>
	<path fill="#DBCAE0" d="M594.461,844.296c0.125,3.601-2.624,6.48-6.996,6.48c-3.873,0-6.621-2.88-6.621-6.48
		c0-3.72,2.873-6.6,6.871-6.6C591.837,837.696,594.461,840.576,594.461,844.296z M582.218,918.693v-58.077h10.993v58.077H582.218z"
		/>
	<path fill="#DBCAE0" d="M611.45,876.335c0-6-0.125-10.92-0.499-15.719h9.744l0.624,9.6h0.25c2.998-5.521,9.994-10.92,19.987-10.92
		c8.37,0,21.362,4.8,21.362,24.719v34.679h-10.993v-33.479c0-9.359-3.623-17.159-13.991-17.159c-7.246,0-12.867,4.92-14.741,10.799
		c-0.5,1.32-0.75,3.12-0.75,4.92v34.919H611.45V876.335z"/>
</g>
<path fill="#D9ADC4" d="M436.863,346.163h-188.5c-6.6,0-12-5.4-12-12V167.829c0-6.6,5.4-12,12-12h188.5c6.6,0,12,5.4,12,12v166.335
	C448.863,340.763,443.463,346.163,436.863,346.163z"/>
<circle opacity="0.65" fill="#FFB6A9" cx="335.719" cy="563.431" r="113.144"/>
<polygon fill="#DBCAE0" points="675.551,138.574 821.079,675.546 530.023,675.546 "/>
<g>
</g>
<g>
</g>
<g>
</g>
<g>
</g>
<g>
</g>
<g>
</g>
</svg>
