<?xml version="1.0" encoding="utf-8"?>
<!-- Generator: Adobe Illustrator 27.7.0, SVG Export Plug-In . SVG Version: 6.00 Build 0)  -->
<svg version="1.1" id="Layer_1" xmlns="http://www.w3.org/2000/svg" xmlns:xlink="http://www.w3.org/1999/xlink" x="0px" y="0px"
	 width="1000px" height="1000px" viewBox="0 0 1000 1000" enable-background="new 0 0 1000 1000" xml:space="preserve">
<path fill="#DD6D48" d="M460.757,32.64L202.852,479.344c0.465,1.177,0.968,2.337,1.411,3.516l508.834-2.895l0.218-0.517
	c0.305-0.594,0.689-1.146,1.06-1.7L460.757,32.64z"/>
<path fill="#DD6D48" d="M714.166,476.853l-509.924-0.004c-0.043,0.09-0.085,0.181-0.127,0.271c-0.137,0.362-0.282,0.722-0.424,1.082
	c-0.2,0.505-0.463,0.949-0.752,1.362c0.139,0.348,0.281,0.694,0.424,1.04c0.346,0.478,0.608,1.006,0.772,1.591
	c0.022,0.166,0.045,0.332,0.067,0.499c0.091,0.239,0.181,0.478,0.266,0.719l240.86,445.47l269.158-451.508
	C714.366,477.208,714.263,477.032,714.166,476.853z"/>
</svg>
