<?xml version="1.0" encoding="utf-8"?>
<!-- Generator: Adobe Illustrator 27.7.0, SVG Export Plug-In . SVG Version: 6.00 Build 0)  -->
<svg version="1.1" id="Layer_1" xmlns="http://www.w3.org/2000/svg" xmlns:xlink="http://www.w3.org/1999/xlink" x="0px" y="0px"
	 width="1000px" height="1000px" viewBox="0 0 1000 1000" enable-background="new 0 0 1000 1000" xml:space="preserve">
<g opacity="0.75">
	<path fill="#F4E4EC" d="M886.24,799.183h-765.8c-6.6,0-12-5.4-12-12V69.312c0-6.6,5.4-12,12-12h765.8c6.6,0,12,5.4,12,12v717.871
		C898.24,793.783,892.84,799.183,886.24,799.183z"/>
</g>
<g>
	<path fill="#DC6DAA" d="M386.454,841.365h45.347v8.76h-34.479v26.879h31.855v8.64h-31.855v36.599h-10.869V841.365z"/>
	<path fill="#DC6DAA" d="M497.763,892.724c0,21.479-15.49,30.839-30.106,30.839c-16.365,0-28.982-11.52-28.982-29.879
		c0-19.439,13.242-30.839,29.982-30.839C486.02,862.845,497.763,874.964,497.763,892.724z M449.792,893.323
		c0,12.72,7.621,22.319,18.364,22.319c10.494,0,18.364-9.479,18.364-22.56c0-9.839-5.122-22.318-18.114-22.318
		S449.792,882.284,449.792,893.323z"/>
	<path fill="#DC6DAA" d="M511.629,882.284c0-6.84-0.125-12.72-0.5-18.119h9.619l0.375,11.399h0.499
		c2.749-7.8,9.369-12.72,16.74-12.72c1.249,0,2.124,0.12,3.123,0.359v9.96c-1.124-0.24-2.249-0.36-3.748-0.36
		c-7.745,0-13.241,5.641-14.741,13.56c-0.249,1.44-0.499,3.12-0.499,4.92v30.959h-10.868V882.284z"/>
	<path fill="#DC6DAA" d="M552.978,879.884c0-6-0.125-10.92-0.5-15.719h9.619l0.5,9.359h0.375c3.373-5.52,8.994-10.68,18.988-10.68
		c8.245,0,14.491,4.8,17.114,11.64h0.25c1.874-3.24,4.248-5.76,6.746-7.56c3.623-2.641,7.62-4.08,13.367-4.08
		c7.995,0,19.862,5.04,19.862,25.199v34.198h-10.743v-32.879c0-11.159-4.247-17.879-13.117-17.879c-6.246,0-11.118,4.439-12.992,9.6
		c-0.499,1.439-0.874,3.359-0.874,5.279v35.879h-10.744v-34.799c0-9.239-4.247-15.959-12.617-15.959
		c-6.87,0-11.867,5.279-13.616,10.56c-0.625,1.56-0.875,3.359-0.875,5.16v35.038h-10.743V879.884z"/>
</g>
<rect x="237.473" y="168.969" fill="#DC6DAA" width="229.897" height="220.619"/>
<polygon fill="#8572A7" points="774.507,704.462 687.54,658.201 600.277,703.592 617.228,606.614 546.972,537.524 644.415,523.849 
	688.258,435.758 731.53,524.284 828.882,538.932 758.183,607.318 "/>
<line fill="none" x1="723.67" y1="176.186" x2="639.3" y2="354.536"/>
<line fill="none" x1="728.421" y1="174.124" x2="843.885" y2="356.598"/>
<polygon fill="#74C0EB" points="817.955,386.013 551.573,380.13 689.858,152.378 "/>
<circle fill="#78C1B5" cx="344.804" cy="567.073" r="122.566"/>
<g>
</g>
<g>
</g>
<g>
</g>
<g>
</g>
<g>
</g>
<g>
</g>
</svg>
