<?xml version="1.0" encoding="utf-8"?>
<!-- Generator: Adobe Illustrator 27.7.0, SVG Export Plug-In . SVG Version: 6.00 Build 0)  -->
<svg version="1.1" id="Layer_1" xmlns="http://www.w3.org/2000/svg" xmlns:xlink="http://www.w3.org/1999/xlink" x="0px" y="0px"
	 width="1000px" height="1000px" viewBox="0 0 1000 1000" style="enable-background:new 0 0 1000 1000;" xml:space="preserve">
<style type="text/css">
	.st0{fill:#AAA9AA;}
</style>
<g>
	<path class="st0" d="M460.8,32.6L202.9,479.3c0.5,1.2,1,2.3,1.4,3.5l508.8-2.9l0.2-0.5c0.3-0.6,0.7-1.1,1.1-1.7L460.8,32.6z"/>
	<path class="st0" d="M714.2,476.9l-509.9,0c0,0.1-0.1,0.2-0.1,0.3c-0.1,0.4-0.3,0.7-0.4,1.1c-0.2,0.5-0.5,0.9-0.8,1.4
		c0.1,0.3,0.3,0.7,0.4,1c0.3,0.5,0.6,1,0.8,1.6c0,0.2,0,0.3,0.1,0.5c0.1,0.2,0.2,0.5,0.3,0.7l240.9,445.5l269.2-451.5
		C714.4,477.2,714.3,477,714.2,476.9z"/>
</g>
</svg>
