<?xml version="1.0" encoding="utf-8"?>
<!-- Generator: Adobe Illustrator 27.7.0, SVG Export Plug-In . SVG Version: 6.00 Build 0)  -->
<svg version="1.1" id="Layer_1" xmlns="http://www.w3.org/2000/svg" xmlns:xlink="http://www.w3.org/1999/xlink" x="0px" y="0px"
	 width="1000px" height="1000px" viewBox="0 0 1000 1000" enable-background="new 0 0 1000 1000" xml:space="preserve">
<g opacity="0.75">
	<path fill="#E3F2FA" d="M886.24,799.183h-765.8c-6.6,0-12-5.4-12-12V69.312c0-6.6,5.4-12,12-12h765.8c6.6,0,12,5.4,12,12v717.871
		C898.24,793.783,892.84,799.183,886.24,799.183z"/>
</g>
<g>
	<path fill="#7BB3CC" d="M212.855,905.257c3.248,2.04,8.995,4.2,14.491,4.2c7.995,0,11.743-3.84,11.743-8.64
		c0-5.04-3.123-7.8-11.243-10.68c-10.869-3.72-15.99-9.479-15.99-16.439c0-9.359,7.87-17.039,20.862-17.039
		c6.121,0,11.493,1.68,14.866,3.6l-2.749,7.68c-2.374-1.439-6.746-3.359-12.367-3.359c-6.496,0-10.119,3.6-10.119,7.919
		c0,4.8,3.623,6.96,11.493,9.84c10.494,3.84,15.865,8.88,15.865,17.52c0,10.199-8.245,17.399-22.611,17.399
		c-6.621,0-12.742-1.561-16.99-3.96L212.855,905.257z"/>
	<path fill="#7BB3CC" d="M297.304,916.057l-0.875-7.319h-0.375c-3.373,4.56-9.869,8.64-18.489,8.64
		c-12.242,0-18.488-8.28-18.488-16.68c0-14.039,12.992-21.719,36.353-21.599v-1.2c0-4.8-1.374-13.439-13.742-13.439
		c-5.622,0-11.493,1.68-15.74,4.319l-2.499-6.959c4.997-3.12,12.243-5.16,19.863-5.16c18.489,0,22.986,12.119,22.986,23.759v21.72
		c0,5.039,0.25,9.959,1,13.919H297.304z M295.68,886.418c-11.993-0.24-25.609,1.8-25.609,13.079c0,6.84,4.747,10.08,10.369,10.08
		c7.87,0,12.867-4.8,14.616-9.72c0.375-1.08,0.625-2.28,0.625-3.36V886.418z"/>
	<path fill="#7BB3CC" d="M324.037,873.698c0-6-0.125-10.92-0.5-15.719h9.619l0.5,9.359h0.375c3.373-5.52,8.995-10.68,18.988-10.68
		c8.245,0,14.491,4.8,17.115,11.64h0.25c1.874-3.24,4.247-5.76,6.746-7.56c3.623-2.641,7.621-4.08,13.367-4.08
		c7.995,0,19.863,5.04,19.863,25.199v34.198h-10.744v-32.879c0-11.159-4.248-17.879-13.117-17.879c-6.246,0-11.118,4.439-12.992,9.6
		c-0.5,1.439-0.875,3.359-0.875,5.279v35.879h-10.744v-34.799c0-9.239-4.247-15.959-12.617-15.959
		c-6.871,0-11.868,5.279-13.617,10.56c-0.625,1.56-0.875,3.359-0.875,5.16v35.038h-10.743V873.698z"/>
	<path fill="#7BB3CC" d="M428.223,830.86h10.993v85.196h-10.993V830.86z"/>
	<path fill="#7BB3CC" d="M491.184,916.057l-0.874-7.319h-0.375c-3.373,4.56-9.869,8.64-18.488,8.64
		c-12.243,0-18.489-8.28-18.489-16.68c0-14.039,12.992-21.719,36.354-21.599v-1.2c0-4.8-1.375-13.439-13.742-13.439
		c-5.621,0-11.493,1.68-15.74,4.319l-2.498-6.959c4.996-3.12,12.242-5.16,19.862-5.16c18.489,0,22.986,12.119,22.986,23.759v21.72
		c0,5.039,0.25,9.959,1,13.919H491.184z M489.56,886.418c-11.992-0.24-25.609,1.8-25.609,13.079c0,6.84,4.747,10.08,10.369,10.08
		c7.87,0,12.867-4.8,14.616-9.72c0.375-1.08,0.624-2.28,0.624-3.36V886.418z"/>
	<path fill="#7BB3CC" d="M570.012,857.979c-0.25,4.199-0.5,8.879-0.5,15.959v33.719c0,13.319-2.748,21.479-8.62,26.519
		c-5.871,5.28-14.366,6.96-21.986,6.96c-7.245,0-15.24-1.68-20.112-4.8l2.748-8.04c3.998,2.4,10.244,4.561,17.739,4.561
		c11.243,0,19.488-5.641,19.488-20.279v-6.48h-0.25c-3.373,5.4-9.869,9.72-19.238,9.72c-14.991,0-25.734-12.239-25.734-28.318
		c0-19.68,13.367-30.839,27.233-30.839c10.493,0,16.24,5.279,18.863,10.079h0.25l0.5-8.759H570.012z M558.644,880.898
		c0-1.8-0.125-3.36-0.625-4.8c-1.999-6.12-7.37-11.16-15.365-11.16c-10.494,0-17.989,8.52-17.989,21.959
		c0,11.4,5.996,20.88,17.864,20.88c6.746,0,12.867-4.08,15.24-10.8c0.625-1.8,0.875-3.84,0.875-5.64V880.898z"/>
	<path fill="#7BB3CC" d="M587,873.698c0-6-0.125-10.92-0.499-15.719h9.744l0.624,9.6h0.25c2.998-5.521,9.994-10.92,19.987-10.92
		c8.37,0,21.362,4.8,21.362,24.719v34.679h-10.993v-33.479c0-9.359-3.623-17.159-13.991-17.159c-7.246,0-12.867,4.92-14.741,10.799
		c-0.5,1.32-0.75,3.12-0.75,4.92v34.919H587V873.698z"/>
	<path fill="#7BB3CC" d="M668.575,841.659c0.125,3.601-2.624,6.48-6.996,6.48c-3.873,0-6.621-2.88-6.621-6.48
		c0-3.72,2.873-6.6,6.871-6.6C665.951,835.06,668.575,837.939,668.575,841.659z M656.332,916.057v-58.077h10.993v58.077H656.332z"/>
	<path fill="#7BB3CC" d="M685.563,873.698c0-6-0.125-10.92-0.499-15.719h9.744l0.624,9.6h0.25c2.998-5.521,9.994-10.92,19.987-10.92
		c8.37,0,21.362,4.8,21.362,24.719v34.679h-10.993v-33.479c0-9.359-3.623-17.159-13.991-17.159c-7.246,0-12.867,4.92-14.741,10.799
		c-0.5,1.32-0.75,3.12-0.75,4.92v34.919h-10.993V873.698z"/>
	<path fill="#7BB3CC" d="M806.989,857.979c-0.25,4.199-0.5,8.879-0.5,15.959v33.719c0,13.319-2.748,21.479-8.62,26.519
		c-5.871,5.28-14.366,6.96-21.986,6.96c-7.245,0-15.24-1.68-20.112-4.8l2.748-8.04c3.998,2.4,10.244,4.561,17.739,4.561
		c11.243,0,19.488-5.641,19.488-20.279v-6.48h-0.25c-3.373,5.4-9.869,9.72-19.238,9.72c-14.991,0-25.734-12.239-25.734-28.318
		c0-19.68,13.367-30.839,27.233-30.839c10.493,0,16.24,5.279,18.863,10.079h0.25l0.5-8.759H806.989z M795.621,880.898
		c0-1.8-0.125-3.36-0.625-4.8c-1.999-6.12-7.37-11.16-15.365-11.16c-10.494,0-17.989,8.52-17.989,21.959
		c0,11.4,5.996,20.88,17.864,20.88c6.746,0,12.867-4.08,15.24-10.8c0.625-1.8,0.875-3.84,0.875-5.64V880.898z"/>
</g>
<line fill="none" x1="723.67" y1="176.186" x2="639.3" y2="354.536"/>
<line fill="none" x1="728.421" y1="174.124" x2="843.885" y2="356.598"/>
<g>
	<g>
		<path fill="#7BB3CC" d="M532.489,250.3v137.326h116.887v35.062H532.489v138.495h-33.1V422.688H382.503v-35.062h116.886V250.3
			H532.489z"/>
	</g>
</g>
<g>
</g>
<g>
</g>
<g>
</g>
<g>
</g>
<g>
</g>
<g>
</g>
</svg>
