<?xml version="1.0" encoding="utf-8"?>
<!-- Generator: Adobe Illustrator 27.9.0, SVG Export Plug-In . SVG Version: 6.00 Build 0)  -->
<svg version="1.1" id="Layer_1" xmlns="http://www.w3.org/2000/svg" xmlns:xlink="http://www.w3.org/1999/xlink" x="0px" y="0px"
	 width="1000px" height="1000px" viewBox="0 0 1000 1000" enable-background="new 0 0 1000 1000" xml:space="preserve">
<path opacity="0.2" fill="#BCE3A9" enable-background="new    " d="M932,822H59c-6.6,0-12-5.4-12-12V52c0-6.6,5.4-12,12-12h873
	c6.6,0,12,5.4,12,12v758C944,816.6,938.6,822,932,822z"/>
<g>
	<rect x="58.188" y="880.205" fill="none" width="874.625" height="231.198"/>
	<path fill="#BCE3A9" d="M81.206,930.002l-7,21.201h-9l22.901-67.404h10.501l23.001,67.404h-9.301l-7.201-21.201H81.206z
		 M103.309,923.201l-6.601-19.4c-1.5-4.4-2.5-8.4-3.5-12.301h-0.2c-1,4-2.1,8.101-3.4,12.2l-6.601,19.501L103.309,923.201
		L103.309,923.201z M108.109,868.498l-12.701,11.701h-7.201l9.301-11.701H108.109z"/>
	<path fill="#BCE3A9" d="M132.507,902.801l9.5,27.201c1.6,4.4,2.9,8.4,3.9,12.4h0.3c1.1-4,2.5-8,4.101-12.4l9.4-27.201h9.201
		l-19.001,48.402h-8.4l-18.401-48.402L132.507,902.801L132.507,902.801z"/>
	<path fill="#BCE3A9" d="M181.106,928.602c0.2,11.901,7.801,16.802,16.601,16.802c6.3,0,10.101-1.101,13.401-2.5l1.5,6.3
		c-3.1,1.4-8.4,3-16.101,3c-14.901,0-23.801-9.801-23.801-24.401s8.601-26.102,22.701-26.102c15.801,0,20.001,13.901,20.001,22.802
		c0,1.8-0.2,3.2-0.3,4.1L181.106,928.602L181.106,928.602z M206.908,922.302c0.1-5.601-2.3-14.301-12.201-14.301
		c-8.901,0-12.801,8.2-13.501,14.301H206.908z"/>
	<path fill="#BCE3A9" d="M230.107,902.801l6.9,10.4c1.8,2.7,3.3,5.2,4.9,7.9h0.3c1.6-2.9,3.2-5.4,4.8-8.001l6.8-10.3h9.5
		l-16.501,23.401l17.003,25.002h-10l-7.1-10.9c-1.9-2.8-3.5-5.5-5.201-8.4h-0.2c-1.6,2.9-3.3,5.5-5.101,8.4l-7,10.9h-9.701
		l17.201-24.701l-16.401-23.701L230.107,902.801L230.107,902.801z"/>
	<path fill="#BCE3A9" d="M284.204,888.9v13.901h12.601v6.7h-12.601v26.102c0,6,1.7,9.4,6.601,9.4c2.3,0,4-0.3,5.101-0.6l0.4,6.6
		c-1.7,0.7-4.4,1.2-7.801,1.2c-4.1,0-7.4-1.3-9.5-3.7c-2.5-2.6-3.4-6.9-3.4-12.601v-26.401h-7.5v-6.7h7.5v-11.602L284.204,888.9z"/>
	<path fill="#BCE3A9" d="M316.504,889.199c0.1,3.001-2.1,5.4-5.601,5.4c-3.1,0-5.3-2.399-5.3-5.4c0-3.1,2.3-5.5,5.5-5.5
		C314.404,883.699,316.504,886.1,316.504,889.199z M306.703,951.203v-48.402h8.801v48.402H306.703z"/>
	<path fill="#BCE3A9" d="M330.103,917.902c0-5.7-0.1-10.601-0.4-15.101h7.701l0.3,9.5h0.4c2.2-6.5,7.5-10.601,13.401-10.601
		c1,0,1.7,0.101,2.5,0.3v8.301c-0.9-0.2-1.8-0.3-3-0.3c-6.2,0-10.601,4.7-11.801,11.301c-0.2,1.2-0.4,2.6-0.4,4.1v25.801h-8.701
		V917.902z"/>
	<path fill="#BCE3A9" d="M427.805,926.602c0,17.901-12.4,25.702-24.102,25.702c-13.101,0-23.201-9.601-23.201-24.901
		c0-16.201,10.601-25.702,24.001-25.702C418.404,901.7,427.805,911.801,427.805,926.602z M389.401,927.102
		c0,10.601,6.101,18.602,14.701,18.602c8.4,0,14.701-7.9,14.701-18.801c0-8.201-4.101-18.602-14.501-18.602
		C393.901,908.301,389.401,917.902,389.401,927.102z"/>
	<path fill="#BCE3A9" d="M480.603,902.801c-0.2,3.5-0.4,7.4-0.4,13.301v28.101c0,11.101-2.199,17.901-6.9,22.102
		c-4.7,4.399-11.5,5.8-17.601,5.8c-5.801,0-12.201-1.4-16.101-4l2.199-6.7c3.2,2,8.201,3.8,14.201,3.8
		c9.001,0,15.602-4.7,15.602-16.901v-5.399h-0.2c-2.7,4.5-7.9,8.1-15.401,8.1c-12.001,0-20.602-10.2-20.602-23.601
		c0-16.401,10.701-25.702,21.802-25.702c8.4,0,13.001,4.4,15.101,8.4h0.2l0.4-7.3L480.603,902.801L480.603,902.801z
		 M471.504,921.902c0-1.5-0.1-2.8-0.5-4c-1.6-5.101-5.9-9.301-12.301-9.301c-8.4,0-14.4,7.101-14.4,18.302
		c0,9.5,4.8,17.4,14.301,17.4c5.4,0,10.301-3.4,12.2-9c0.5-1.5,0.7-3.2,0.7-4.7L471.504,921.902L471.504,921.902z"/>
	<path fill="#BCE3A9" d="M567.602,948.203c-3.9,1.4-11.601,3.7-20.701,3.7c-10.2,0-18.601-2.6-25.201-8.9
		c-5.801-5.601-9.4-14.601-9.4-25.102c0.1-20.102,13.9-34.802,36.502-34.802c7.801,0,13.9,1.699,16.801,3.1l-2.1,7.101
		c-3.601-1.6-8.101-2.9-14.901-2.9c-16.401,0-27.102,10.201-27.102,27.102c0,17.102,10.301,27.202,26.002,27.202
		c5.7,0,9.601-0.8,11.601-1.8v-20.102h-13.701v-7.001h22.201v32.402H567.602z"/>
	<path fill="#BCE3A9" d="M580.599,917.902c0-5.7-0.101-10.601-0.4-15.101h7.7l0.301,9.5h0.399c2.2-6.5,7.501-10.601,13.401-10.601
		c1,0,1.7,0.101,2.5,0.3v8.301c-0.9-0.2-1.801-0.3-3-0.3c-6.201,0-10.601,4.7-11.801,11.301c-0.2,1.2-0.4,2.6-0.4,4.1v25.801h-8.7
		L580.599,917.902L580.599,917.902z"/>
	<path fill="#BCE3A9" d="M646.503,927.903c-0.301,11.5,6.3,17.601,15.4,17.601c6.7,0,10.501-1.5,13.201-2.8l1.6,6.2
		c-3.9,2.1-9.5,3.4-15.9,3.4c-8.201,0-15.602-3.9-18.401-10.701h-0.2c-3.1,6.7-9.7,10.701-18.001,10.701
		c-10.101,0-15.101-6.801-15.101-13.801c0-11.201,10.4-17.701,29.201-17.501v-2.001c0-2.399-1.5-10.8-11.301-10.8
		c-4.6,0-9.5,1.699-12.4,3.7l-2.101-5.801c4.301-2.7,10.301-4.4,15.102-4.4c8.7,0,13.601,4.101,15.601,10.301h0.2
		c3.3-6.4,9.301-10.301,16.901-10.301c14.801,0,18.9,14.301,18.9,22.302c0,1.5-0.1,3-0.3,3.9L646.503,927.903L646.503,927.903z
		 M638.401,926.903c-9.301-0.2-20.602,1.399-20.602,10.9c0,5.101,3.8,8,8.4,8c6.301,0,10.301-3.9,11.701-8.3
		c0.399-1.101,0.5-2.301,0.5-3.501L638.401,926.903L638.401,926.903z M670.703,921.602c0.3-4.9-2.4-13.601-11.301-13.601
		c-8.7,0-12.701,8.101-13.001,13.601H670.703z"/>
	<path fill="#BCE3A9" d="M690.099,915.902c0-5-0.101-9.101-0.4-13.101h7.801l0.5,8h0.2c2.399-4.601,8-9.101,16.001-9.101
		c6.7,0,17.101,4,17.101,20.602v28.901h-8.801v-27.901c0-7.801-2.899-14.301-11.2-14.301c-5.801,0-10.301,4.1-11.801,9
		c-0.4,1.101-0.601,2.601-0.601,4.101v29.101h-8.8L690.099,915.902L690.099,915.902z"/>
	<path fill="#BCE3A9" d="M745.599,915.902c0-5-0.101-9.101-0.4-13.101h7.7l0.4,7.8h0.3c2.7-4.6,7.2-8.9,15.201-8.9
		c6.601,0,11.601,4,13.701,9.701h0.199c1.5-2.7,3.4-4.801,5.4-6.301c2.9-2.2,6.101-3.4,10.701-3.4c6.4,0,15.9,4.2,15.9,21.001
		v28.501h-8.601v-27.401c0-9.301-3.399-14.901-10.5-14.901c-5.001,0-8.9,3.7-10.4,8.001c-0.4,1.2-0.7,2.8-0.7,4.4v29.901h-8.601
		v-29.002c0-7.7-3.4-13.301-10.101-13.301c-5.501,0-9.501,4.4-10.901,8.801c-0.5,1.3-0.699,2.801-0.699,4.301v29.201h-8.601v-35.301
		H745.599z"/>
	<path fill="#BCE3A9" d="M833.899,928.602c0.199,11.901,7.8,16.802,16.601,16.802c6.301,0,10.101-1.101,13.4-2.5l1.501,6.3
		c-3.101,1.4-8.401,3-16.102,3c-14.9,0-23.802-9.801-23.802-24.401s8.601-26.102,22.702-26.102
		c15.801,0,20.001,13.901,20.001,22.802c0,1.8-0.2,3.2-0.3,4.1L833.899,928.602L833.899,928.602z M859.701,922.302
		c0.101-5.601-2.3-14.301-12.2-14.301c-8.9,0-12.801,8.2-13.501,14.301H859.701z"/>
	<path fill="#BCE3A9" d="M889.7,888.9v13.901h12.601v6.7H889.7v26.102c0,6,1.7,9.4,6.601,9.4c2.3,0,4-0.3,5.1-0.6l0.4,6.6
		c-1.7,0.7-4.4,1.2-7.801,1.2c-4.1,0-7.4-1.3-9.5-3.7c-2.501-2.6-3.4-6.9-3.4-12.601v-26.401h-7.501v-6.7h7.501v-11.602L889.7,888.9
		z"/>
	<path fill="#BCE3A9" d="M921.998,889.199c0.101,3.001-2.1,5.4-5.6,5.4c-3.101,0-5.301-2.399-5.301-5.4c0-3.1,2.301-5.5,5.501-5.5
		C919.898,883.699,921.998,886.1,921.998,889.199z M912.198,951.203v-48.402h8.8v48.402H912.198z"/>
</g>
<g>
	<g id="green_x5F_box">
		<g id="green_x5F_backround">
			<path fill="#BCE3A9" d="M202.747,112.386h598.507c6.251,0,11.319,5.068,11.319,11.319v598.592
				c0,6.251-5.068,11.319-11.319,11.319H202.747c-6.251,0-11.319-5.068-11.319-11.319V123.705
				C191.427,117.454,196.495,112.386,202.747,112.386z"/>
		</g>
		<g id="green_x5F_outline">
			<path fill="#BCE3A9" d="M802.181,734.5H201.819c-6.251,0-11.319-5.068-11.319-11.319V122.819c0-6.251,5.068-11.319,11.319-11.319
				h600.362c6.251,0,11.319,5.068,11.319,11.319v600.362C813.5,729.432,808.432,734.5,802.181,734.5z M203.674,732.73h596.649
				c6.251,0,11.319-5.068,11.319-11.319V124.589c0-6.251-5.068-11.319-11.319-11.319H203.674c-6.251,0-11.319,5.068-11.319,11.319
				v596.822C192.355,727.662,197.422,732.73,203.674,732.73z"/>
		</g>
	</g>
	<path fill="#FFFFFF" d="M554.507,254.774h-23.665c-5.484,0-9.833-4.759-9.481-10.383c1.266-20.237,4.219-41.191,18.804-47.311
		c7.107-2.981,4.068-17.682-3.096-14.677c-11.433,4.797-18.756,16.906-22.835,31.257c-0.021,0.076-0.043,0.151-0.064,0.227
		c-1.893,6.74-9.707,9.29-15.102,4.992c-1.474-1.175-3.087-2.208-4.852-3.081c-7.016-3.469-10.048,11.239-3.096,14.677
		c4.229,2.091,6.937,6.268,8.724,11.312c2.238,6.317-2.427,12.986-8.968,12.986h-30.969c-18.664,0-32.619,22.412-28.831,46.303
		l47.299,298.308c6.486,40.905,51.176,40.905,57.661,0l47.299-298.308C587.126,277.186,573.171,254.774,554.507,254.774z"/>
</g>
</svg>
