<?xml version="1.0" encoding="utf-8"?>
<!-- Generator: Adobe Illustrator 27.7.0, SVG Export Plug-In . SVG Version: 6.00 Build 0)  -->
<svg version="1.1" id="Layer_1" xmlns="http://www.w3.org/2000/svg" xmlns:xlink="http://www.w3.org/1999/xlink" x="0px" y="0px"
	 width="1000px" height="1000px" viewBox="0 0 1000 1000" enable-background="new 0 0 1000 1000" xml:space="preserve">
<g opacity="0.75">
	<path fill="#B8D5AD" d="M886.24,799.183h-765.8c-6.6,0-12-5.4-12-12V69.312c0-6.6,5.4-12,12-12h765.8c6.6,0,12,5.4,12,12v717.871
		C898.24,793.783,892.84,799.183,886.24,799.183z"/>
</g>
<g>
	<path fill="#A7CC9A" d="M351.868,845.488h10.869v72.117h35.978v8.76h-46.847V845.488z"/>
	<path fill="#A7CC9A" d="M422.698,851.968c0.125,3.601-2.623,6.48-6.996,6.48c-3.873,0-6.621-2.88-6.621-6.48
		c0-3.72,2.874-6.6,6.871-6.6C420.075,845.368,422.698,848.248,422.698,851.968z M410.456,926.365v-58.077h10.993v58.077H410.456z"
		/>
	<path fill="#A7CC9A" d="M452.929,851.608v16.68h15.74v8.039h-15.74v31.318c0,7.2,2.124,11.28,8.245,11.28
		c2.873,0,4.997-0.36,6.371-0.72l0.5,7.919c-2.124,0.84-5.497,1.44-9.744,1.44c-5.122,0-9.244-1.561-11.868-4.44
		c-3.123-3.119-4.248-8.279-4.248-15.119v-31.679h-9.369v-8.039h9.369v-13.92L452.929,851.608z"/>
	<path fill="#A7CC9A" d="M493.279,851.968c0.125,3.601-2.623,6.48-6.996,6.48c-3.873,0-6.621-2.88-6.621-6.48
		c0-3.72,2.874-6.6,6.871-6.6C490.656,845.368,493.279,848.248,493.279,851.968z M481.037,926.365v-58.077h10.993v58.077H481.037z"
		/>
	<path fill="#A7CC9A" d="M510.268,886.407c0-6.84-0.125-12.72-0.5-18.119h9.619l0.375,11.399h0.5
		c2.748-7.8,9.369-12.72,16.739-12.72c1.25,0,2.124,0.12,3.123,0.359v9.96c-1.124-0.24-2.248-0.36-3.747-0.36
		c-7.745,0-13.242,5.641-14.741,13.56c-0.25,1.44-0.5,3.12-0.5,4.92v30.959h-10.868V886.407z"/>
	<path fill="#A7CC9A" d="M551.617,884.007c0-6-0.125-10.92-0.5-15.719h9.744l0.625,9.6h0.249c2.999-5.521,9.994-10.92,19.988-10.92
		c8.37,0,21.362,4.8,21.362,24.719v34.679h-10.994v-33.479c0-9.359-3.622-17.159-13.991-17.159c-7.245,0-12.867,4.92-14.741,10.799
		c-0.499,1.32-0.749,3.12-0.749,4.92v34.919h-10.993V884.007z"/>
	<path fill="#A7CC9A" d="M633.192,851.968c0.125,3.601-2.624,6.48-6.996,6.48c-3.873,0-6.621-2.88-6.621-6.48
		c0-3.72,2.873-6.6,6.871-6.6C630.568,845.368,633.192,848.248,633.192,851.968z M620.949,926.365v-58.077h10.993v58.077H620.949z"
		/>
	<path fill="#A7CC9A" d="M650.181,886.407c0-6.84-0.125-12.72-0.499-18.119h9.619l0.374,11.399h0.5
		c2.748-7.8,9.369-12.72,16.74-12.72c1.249,0,2.123,0.12,3.123,0.359v9.96c-1.125-0.24-2.249-0.36-3.748-0.36
		c-7.745,0-13.242,5.641-14.741,13.56c-0.25,1.44-0.5,3.12-0.5,4.92v30.959h-10.868V886.407z"/>
</g>
<line fill="none" x1="723.67" y1="176.186" x2="639.3" y2="354.536"/>
<path fill="#FFFEF9" d="M616.241,344.091c-1.252-7.336-3.166-14.586-4.495-21.907c-1.543-8.498-2.2-17.049-3.207-25.59
	c-1.67-9.3-5.944-17.691-9.194-26.544c0.033,0.076,0.065,0.151,0.098,0.227c-0.74-1.804-1.398-3.628-1.827-5.561
	c-0.707-3.186-1.069-6.453-1.438-9.687c-0.357-3.127-0.513-6.271-0.81-9.403c-0.213-1.096-0.474-2.178-0.803-3.245
	c-0.592-1.085-1.243-2.133-1.949-3.152c-6.507-7.481-14.511-13.615-19.435-22.405c-2.914-5.201-4.509-10.632-5.621-16.394
	c-0.486-2.521-0.92-5.058-1.672-7.51c-0.109-0.188-0.221-0.374-0.336-0.559c-1.073-1.114-2.227-2.146-3.436-3.126
	c-0.066-0.05-0.133-0.099-0.199-0.149c-0.076-0.055-0.155-0.105-0.232-0.159c-6.736,2.592-13.712,4.225-21.145,4.984
	c-27.068,2.764-49.298-14.604-74.91-19.025c-3.772-0.344-7.557-0.369-11.331-0.066c-2.77,0.553-5.455,1.371-8.095,2.362
	c-7.266,3.223-14.35,6.989-22.032,9.163c-9.315,2.636-19.076,3.905-28.758,4.148c-9.189,0.231-18.397-0.494-27.596-0.876
	c-0.87,0.687-1.752,1.368-2.666,2.037c-8.493,6.214-18.594,9.601-28.278,13.51c-3.647,1.688-7.149,3.608-10.439,5.928
	c-4.717,3.838-8.931,8.236-12.764,12.965c-4.893,6.773-9.076,14.034-12.499,21.674c-2.336,6.089-4.164,12.353-5.287,18.784
	c-0.345,3.786-0.408,7.579-0.121,11.367c0.577,2.937,1.396,5.803,2.494,8.599c0.447,0.847,0.931,1.669,1.463,2.467
	c4.128,5.118,8.305,10.015,10.902,16.243c3.761,9.02,4.599,18.98,2.331,28.525c-1.464,6.162-4.63,11.9-8.323,16.963
	c-2.282,3.128-4.595,6.202-6.484,9.568c-0.264,0.915-0.492,1.837-0.692,2.767c-0.087,1.892-0.058,3.775,0.075,5.664
	c1.807,9.793,5.45,19.442,9.206,28.682c0.778,1.745,1.628,3.452,2.609,5.082c0.132,0.076,0.268,0.144,0.401,0.218
	c5.767,1.887,11.853,2.571,17.715,4.14c8.248,2.207,16.075,5.645,22.826,10.924c0.914,0.715,1.785,1.454,2.622,2.211
	c7.071,2.676,13.387,6.855,19.347,11.672c12.666,10.236,20.415,24.938,29.865,37.983c1.619,1.976,3.336,3.859,5.207,5.588
	c0.688,0.449,1.391,0.871,2.11,1.266c0.784,0.242,1.574,0.456,2.372,0.639c2.506,0.135,5.011,0.064,7.512-0.157
	c5.859-1.102,11.604-2.961,17.378-4.411c7.31-1.836,14.633-3.072,22.114-3.992c7.086-0.871,14.155-0.806,21.276-0.979
	c6.426-0.156,12.837-0.612,19.219-1.367c13.196-2.051,26.088-5.54,38.494-10.539c-0.027-3.428,0.949-7.036,2.571-9.756
	c2.424-4.065,6.63-7.136,11.206-8.457c3.863-1.116,7.744-2.215,11.518-3.599c1.052-0.505,2.077-1.056,3.07-1.663
	c0.154-0.145,0.305-0.292,0.454-0.441c0.17-0.277,0.336-0.557,0.494-0.841c0.845-2.671,1.333-5.413,1.973-8.16
	c0.977-4.19,2.211-8.316,3.652-12.374c2.536-7.144,5.652-14.073,8.556-21.076c3.172-7.649,6.226-14.009,12.082-20.086
	c5.973-6.198,13.652-10.025,20.626-14.879c0.649-0.558,1.267-1.147,1.863-1.757c0.065-0.107,0.134-0.212,0.197-0.319
	c0.111-0.377,0.213-0.757,0.305-1.138C616.44,347.426,616.386,345.757,616.241,344.091z"/>
<path fill="#FFEA84" d="M616.241,553.653c-1.252-7.336-3.166-14.586-4.495-21.907c-1.543-8.498-2.2-17.049-3.207-25.59
	c-1.67-9.3-5.944-17.691-9.194-26.544c0.033,0.076,0.065,0.151,0.098,0.227c-0.74-1.804-1.398-3.628-1.827-5.561
	c-0.707-3.186-1.069-6.453-1.438-9.687c-0.357-3.127-0.513-6.271-0.81-9.403c-0.213-1.096-0.474-2.178-0.803-3.245
	c-0.592-1.085-1.243-2.133-1.949-3.152c-6.507-7.481-14.511-13.615-19.435-22.405c-2.914-5.201-4.509-10.632-5.621-16.394
	c-0.486-2.521-0.92-5.058-1.672-7.51c-0.109-0.188-0.221-0.374-0.336-0.559c-1.073-1.114-2.227-2.146-3.436-3.126
	c-0.066-0.05-0.133-0.099-0.199-0.149c-0.076-0.055-0.155-0.105-0.232-0.159c-6.736,2.592-13.712,4.225-21.145,4.984
	c-27.068,2.764-49.298-14.604-74.91-19.025c-3.772-0.344-7.557-0.369-11.331-0.066c-2.77,0.553-5.455,1.371-8.095,2.362
	c-7.266,3.223-14.35,6.989-22.032,9.163c-9.315,2.636-19.076,3.905-28.758,4.148c-9.189,0.231-18.397-0.494-27.596-0.876
	c-0.87,0.687-1.752,1.368-2.666,2.037c-8.493,6.214-18.594,9.601-28.278,13.51c-3.647,1.688-7.149,3.608-10.439,5.928
	c-4.717,3.838-8.931,8.236-12.764,12.965c-4.893,6.773-9.076,14.034-12.499,21.674c-2.336,6.089-4.164,12.353-5.287,18.784
	c-0.345,3.786-0.408,7.579-0.121,11.367c0.577,2.937,1.396,5.803,2.494,8.599c0.447,0.847,0.931,1.669,1.463,2.467
	c4.128,5.118,8.305,10.015,10.902,16.243c3.761,9.02,4.599,18.98,2.331,28.525c-1.464,6.162-4.63,11.9-8.323,16.963
	c-2.282,3.128-4.595,6.202-6.484,9.568c-0.264,0.915-0.492,1.837-0.692,2.767c-0.087,1.892-0.058,3.775,0.075,5.664
	c1.807,9.793,5.45,19.442,9.206,28.682c0.778,1.745,1.628,3.452,2.609,5.082c0.132,0.076,0.268,0.144,0.401,0.218
	c5.767,1.887,11.853,2.571,17.715,4.14c8.248,2.207,16.075,5.645,22.826,10.924c0.914,0.715,1.785,1.454,2.622,2.211
	c7.071,2.676,13.387,6.855,19.347,11.672c12.666,10.236,20.415,24.938,29.865,37.983c1.619,1.976,3.336,3.859,5.207,5.588
	c0.688,0.449,1.391,0.871,2.11,1.266c0.784,0.242,1.574,0.456,2.372,0.639c2.506,0.135,5.011,0.064,7.512-0.157
	c5.859-1.102,11.604-2.961,17.378-4.411c7.31-1.836,14.633-3.072,22.114-3.992c7.086-0.871,14.155-0.806,21.276-0.979
	c6.426-0.156,12.837-0.612,19.219-1.367c13.196-2.051,26.088-5.54,38.494-10.539c-0.027-3.428,0.949-7.036,2.571-9.756
	c2.424-4.065,6.63-7.136,11.206-8.457c3.863-1.116,7.744-2.215,11.518-3.599c1.052-0.505,2.077-1.056,3.07-1.663
	c0.154-0.145,0.305-0.292,0.454-0.441c0.17-0.277,0.336-0.557,0.494-0.841c0.845-2.671,1.333-5.413,1.973-8.16
	c0.977-4.19,2.211-8.316,3.652-12.374c2.536-7.144,5.652-14.073,8.556-21.076c3.172-7.649,6.226-14.009,12.082-20.086
	c5.973-6.198,13.652-10.025,20.626-14.879c0.649-0.558,1.267-1.147,1.863-1.757c0.065-0.107,0.134-0.212,0.197-0.319
	c0.111-0.377,0.213-0.756,0.305-1.138C616.44,556.989,616.386,555.32,616.241,553.653z"/>
<path fill="#168258" d="M797.871,414.478c-1.252-7.336-3.166-14.586-4.495-21.907c-1.543-8.498-2.2-17.049-3.207-25.59
	c-1.67-9.3-5.944-17.691-9.194-26.544c0.033,0.076,0.065,0.151,0.098,0.227c-0.74-1.804-1.398-3.628-1.827-5.561
	c-0.707-3.186-1.069-6.453-1.438-9.687c-0.357-3.127-0.513-6.271-0.81-9.403c-0.213-1.096-0.474-2.178-0.803-3.245
	c-0.592-1.085-1.243-2.133-1.949-3.152c-6.507-7.481-14.511-13.615-19.435-22.405c-2.914-5.201-4.509-10.632-5.621-16.394
	c-0.486-2.521-0.92-5.058-1.672-7.51c-0.109-0.188-0.221-0.374-0.336-0.559c-1.073-1.114-2.227-2.146-3.436-3.126
	c-0.066-0.05-0.133-0.099-0.199-0.149c-0.076-0.055-0.155-0.105-0.232-0.159c-6.736,2.592-13.712,4.225-21.145,4.984
	c-27.068,2.764-49.298-14.604-74.91-19.025c-3.772-0.344-7.557-0.369-11.331-0.066c-2.77,0.553-5.455,1.371-8.095,2.362
	c-7.266,3.223-14.35,6.989-22.031,9.163c-9.315,2.636-19.076,3.905-28.758,4.148c-9.189,0.231-18.397-0.494-27.596-0.876
	c-0.87,0.687-1.752,1.368-2.666,2.037c-8.493,6.214-18.594,9.601-28.278,13.51c-3.647,1.688-7.149,3.608-10.439,5.928
	c-4.717,3.838-8.931,8.236-12.764,12.965c-4.893,6.773-9.076,14.034-12.499,21.674c-2.336,6.089-4.164,12.353-5.287,18.784
	c-0.345,3.786-0.408,7.579-0.121,11.367c0.577,2.937,1.396,5.803,2.494,8.599c0.447,0.847,0.931,1.669,1.463,2.467
	c4.128,5.118,8.305,10.015,10.902,16.243c3.761,9.02,4.599,18.98,2.331,28.525c-1.464,6.162-4.63,11.9-8.323,16.963
	c-2.282,3.128-4.595,6.202-6.484,9.568c-0.264,0.915-0.492,1.837-0.692,2.767c-0.087,1.892-0.058,3.775,0.075,5.664
	c1.807,9.793,5.45,19.442,9.206,28.682c0.778,1.745,1.628,3.452,2.609,5.082c0.132,0.076,0.268,0.144,0.401,0.218
	c5.767,1.887,11.853,2.571,17.715,4.14c8.248,2.207,16.075,5.645,22.826,10.924c0.914,0.715,1.785,1.454,2.622,2.211
	c7.071,2.676,13.386,6.855,19.347,11.672c12.666,10.236,20.415,24.938,29.865,37.983c1.619,1.976,3.336,3.859,5.207,5.588
	c0.688,0.449,1.391,0.871,2.11,1.266c0.784,0.242,1.574,0.456,2.372,0.639c2.506,0.135,5.011,0.064,7.512-0.157
	c5.859-1.102,11.604-2.961,17.378-4.411c7.31-1.836,14.633-3.072,22.114-3.992c7.086-0.871,14.155-0.806,21.276-0.979
	c6.426-0.156,12.837-0.612,19.219-1.367c13.196-2.051,26.088-5.54,38.495-10.539c-0.027-3.428,0.949-7.036,2.571-9.756
	c2.424-4.065,6.63-7.136,11.206-8.457c3.863-1.115,7.744-2.215,11.518-3.599c1.052-0.505,2.077-1.056,3.07-1.663
	c0.154-0.145,0.305-0.292,0.454-0.441c0.17-0.277,0.336-0.557,0.494-0.841c0.845-2.671,1.333-5.413,1.973-8.16
	c0.977-4.19,2.211-8.316,3.652-12.374c2.536-7.144,5.652-14.073,8.556-21.076c3.172-7.649,6.226-14.009,12.082-20.086
	c5.973-6.198,13.652-10.025,20.626-14.879c0.649-0.558,1.267-1.147,1.863-1.757c0.065-0.107,0.134-0.212,0.197-0.319
	c0.111-0.377,0.213-0.756,0.305-1.138C798.07,417.814,798.016,416.145,797.871,414.478z"/>
<g>
</g>
<g>
</g>
<g>
</g>
<g>
</g>
<g>
</g>
<g>
</g>
</svg>
