<?xml version="1.0" encoding="utf-8"?>
<!-- Generator: Adobe Illustrator 27.9.0, SVG Export Plug-In . SVG Version: 6.00 Build 0)  -->
<svg version="1.1" id="Layer_1" xmlns="http://www.w3.org/2000/svg" xmlns:xlink="http://www.w3.org/1999/xlink" x="0px" y="0px"
	 width="1000px" height="1000px" viewBox="0 0 1000 1000" enable-background="new 0 0 1000 1000" xml:space="preserve">
<g id="yellow_x5F_box">
	<g id="yellow_x5F_backround">
		<g>
			<path fill="#FFE37C" d="M163.613,322.291c0,4.976,4.155,9.009,9.282,9.009h325.883c5.126,0,9.282-4.033,9.282-9.009V35.011
				c0-4.976-4.155-9.009-9.282-9.009H172.894c-5.126,0-9.282,4.033-9.282,9.009v287.28H163.613z"/>
		</g>
	</g>
	<g id="Yellow_x5F_outline" display="none">
		<g display="inline">
			<path fill="#FFE37C" d="M498.777,331.8H172.894c-5.402,0-9.797-4.266-9.797-9.51V35.011c0-5.244,4.395-9.51,9.797-9.51h325.883
				c5.402,0,9.797,4.266,9.797,9.51v287.28C508.574,327.534,504.179,331.8,498.777,331.8z M172.894,26.502
				c-4.834,0-8.766,3.817-8.766,8.509v287.28c0,4.692,3.932,8.509,8.766,8.509h325.883c4.833,0,8.766-3.817,8.766-8.509V35.011
				c0-4.692-3.933-8.509-8.766-8.509H172.894z"/>
		</g>
	</g>
</g>
<g id="pink_x5F_box">
	<g id="pink_x5F_backround">
		<g>
			<path fill="#F8ADD2" d="M535.903,371.443c0,4.976,4.155,9.009,9.282,9.009h325.883c5.126,0,9.282-4.033,9.282-9.009V35.011
				c0-4.976-4.155-9.009-9.282-9.009H545.185c-5.126,0-9.282,4.033-9.282,9.009V371.443z"/>
		</g>
	</g>
	<g id="pink_x5F_outline" display="none">
		<g display="inline">
			<path fill="#F8ADD2" d="M871.068,380.953H545.185c-5.402,0-9.797-4.266-9.797-9.51V35.011c0-5.244,4.395-9.51,9.797-9.51h325.883
				c5.402,0,9.797,4.266,9.797,9.51v336.434C880.865,376.687,876.469,380.953,871.068,380.953z M545.185,26.502
				c-4.833,0-8.766,3.817-8.766,8.509v336.434c0,4.692,3.933,8.509,8.766,8.509h325.883c4.833,0,8.766-3.817,8.766-8.509V35.011
				c0-4.692-3.933-8.509-8.766-8.509H545.185z"/>
		</g>
	</g>
</g>
<g id="blue_x5F_box">
	<g id="Blue">
		<g>
			<path fill="#7BD3FC" d="M535.903,695.154c0,4.976,4.155,9.009,9.282,9.009h325.883c5.126,0,9.282-4.033,9.282-9.009v-287.28
				c0-4.976-4.155-9.009-9.282-9.009H545.185c-5.126,0-9.282,4.033-9.282,9.009V695.154z"/>
		</g>
	</g>
	<g id="Blue_x5F_outline" display="none">
		<g display="inline">
			<path fill="#7BD3FC" d="M871.068,704.664H545.185c-5.402,0-9.797-4.266-9.797-9.51v-287.28c0-5.244,4.395-9.51,9.797-9.51
				h325.883c5.402,0,9.797,4.266,9.797,9.51v287.28C880.865,700.398,876.469,704.664,871.068,704.664z M545.185,399.366
				c-4.833,0-8.766,3.817-8.766,8.509v287.28c0,4.691,3.933,8.509,8.766,8.509h325.883c4.833,0,8.766-3.817,8.766-8.509V407.874
				c0-4.692-3.933-8.509-8.766-8.509H545.185V399.366z"/>
		</g>
	</g>
</g>
<g id="green_x5F_box">
	<g id="green_x5F_backround">
		<rect x="163.355" y="353.321" fill="#BCE3A9" width="344.962" height="351.343"/>
	</g>
	<g id="green_x5F_outline">
		<path fill="#BCE3A9" d="M508.832,705.164H162.839V352.82h345.993V705.164z M163.87,704.163H507.8V353.821H163.87V704.163z"/>
	</g>
</g>
<g>
	<rect x="84.539" y="741.802" fill="none" width="874.625" height="231.198"/>
	<path fill="#BCE3A9" d="M308.565,796.581l-7.7,23.32h-9.9l25.19-74.141h11.55l25.3,74.141h-10.23l-7.92-23.32H308.565z
		 M332.875,789.101l-7.26-21.34c-1.65-4.84-2.75-9.24-3.85-13.53h-0.22c-1.1,4.4-2.31,8.91-3.74,13.42l-7.26,21.45H332.875z
		 M338.156,728.931l-13.97,12.87h-7.92l10.23-12.87H338.156z"/>
	<path fill="#BCE3A9" d="M364.996,766.661l10.45,29.92c1.76,4.84,3.19,9.24,4.29,13.64h0.33c1.21-4.399,2.75-8.8,4.51-13.64
		l10.34-29.92h10.12l-20.9,53.24h-9.24l-20.24-53.24H364.996z"/>
	<path fill="#BCE3A9" d="M418.455,795.041c0.22,13.09,8.58,18.48,18.261,18.48c6.93,0,11.109-1.21,14.739-2.75l1.65,6.93
		c-3.41,1.54-9.24,3.3-17.71,3.3c-16.391,0-26.18-10.78-26.18-26.84c0-16.061,9.459-28.71,24.97-28.71c17.38,0,22,15.29,22,25.08
		c0,1.979-0.22,3.52-0.33,4.51H418.455z M446.834,788.111c0.11-6.16-2.529-15.73-13.42-15.73c-9.79,0-14.08,9.021-14.85,15.73
		H446.834z"/>
	<path fill="#BCE3A9" d="M472.355,766.661l7.59,11.439c1.98,2.971,3.63,5.721,5.391,8.69h0.33c1.76-3.19,3.52-5.94,5.279-8.8
		l7.48-11.33h10.45l-18.15,25.74l18.7,27.5h-11l-7.811-11.99c-2.09-3.08-3.85-6.05-5.72-9.24h-0.22c-1.76,3.19-3.63,6.05-5.61,9.24
		l-7.7,11.99h-10.67l18.92-27.17l-18.04-26.07H472.355z"/>
	<path fill="#BCE3A9" d="M531.863,751.371v15.29h13.859v7.37h-13.859v28.71c0,6.6,1.87,10.34,7.26,10.34c2.53,0,4.4-0.33,5.61-0.66
		l0.439,7.26c-1.87,0.771-4.84,1.32-8.58,1.32c-4.51,0-8.14-1.43-10.45-4.07c-2.75-2.859-3.739-7.59-3.739-13.859v-29.04h-8.25
		v-7.37h8.25V753.9L531.863,751.371z"/>
	<path fill="#BCE3A9" d="M567.393,751.701c0.109,3.3-2.311,5.939-6.16,5.939c-3.41,0-5.83-2.64-5.83-5.939
		c0-3.41,2.529-6.051,6.05-6.051C565.082,745.65,567.393,748.291,567.393,751.701z M556.612,819.901v-53.24h9.68v53.24H556.612z"/>
	<path fill="#BCE3A9" d="M582.352,783.271c0-6.27-0.11-11.659-0.44-16.609h8.471l0.329,10.45h0.44c2.42-7.15,8.25-11.66,14.74-11.66
		c1.1,0,1.87,0.109,2.75,0.33v9.13c-0.99-0.221-1.98-0.33-3.3-0.33c-6.82,0-11.66,5.17-12.98,12.43
		c-0.22,1.32-0.439,2.86-0.439,4.51v28.381h-9.57V783.271z"/>
	<path fill="#BCE3A9" d="M689.82,792.841c0,19.69-13.64,28.271-26.51,28.271c-14.41,0-25.521-10.561-25.521-27.391
		c0-17.82,11.66-28.27,26.4-28.27C679.48,765.451,689.82,776.561,689.82,792.841z M647.58,793.391
		c0,11.66,6.71,20.461,16.171,20.461c9.239,0,16.17-8.69,16.17-20.681c0-9.02-4.511-20.46-15.95-20.46
		C652.53,772.711,647.58,783.271,647.58,793.391z"/>
	<path fill="#BCE3A9" d="M747.9,766.661c-0.22,3.85-0.44,8.14-0.44,14.63v30.91c0,12.21-2.42,19.69-7.59,24.31
		c-5.17,4.841-12.65,6.381-19.36,6.381c-6.38,0-13.42-1.54-17.71-4.4l2.42-7.37c3.521,2.2,9.021,4.18,15.62,4.18
		c9.9,0,17.16-5.17,17.16-18.59v-5.939h-0.22c-2.97,4.949-8.69,8.909-16.94,8.909c-13.2,0-22.66-11.22-22.66-25.96
		c0-18.04,11.771-28.27,23.98-28.27c9.24,0,14.3,4.84,16.61,9.239h0.22l0.44-8.029H747.9z M737.891,787.671
		c0-1.65-0.11-3.08-0.551-4.4c-1.76-5.609-6.489-10.229-13.529-10.229c-9.24,0-15.841,7.81-15.841,20.13
		c0,10.45,5.28,19.141,15.73,19.141c5.94,0,11.33-3.74,13.42-9.9c0.55-1.65,0.771-3.521,0.771-5.17V787.671z"/>
	<path fill="#BCE3A9" d="M355.864,948.602c-4.29,1.539-12.76,4.069-22.771,4.069c-11.22,0-20.46-2.859-27.72-9.79
		c-6.38-6.16-10.34-16.06-10.34-27.61c0.11-22.109,15.29-38.28,40.15-38.28c8.58,0,15.29,1.87,18.48,3.41l-2.31,7.811
		c-3.96-1.76-8.91-3.19-16.39-3.19c-18.04,0-29.81,11.221-29.81,29.811c0,18.81,11.33,29.92,28.6,29.92
		c6.27,0,10.56-0.88,12.76-1.979v-22.11h-15.07v-7.7h24.42V948.602z"/>
	<path fill="#BCE3A9" d="M370.164,915.271c0-6.27-0.11-11.659-0.44-16.609h8.47l0.33,10.45h0.44c2.42-7.15,8.25-11.66,14.74-11.66
		c1.1,0,1.87,0.109,2.75,0.33v9.13c-0.99-0.221-1.98-0.33-3.3-0.33c-6.82,0-11.66,5.17-12.98,12.43c-0.22,1.32-0.44,2.86-0.44,4.51
		v28.381h-9.57V915.271z"/>
	<path fill="#BCE3A9" d="M442.655,926.271c-0.33,12.65,6.93,19.36,16.939,19.36c7.37,0,11.551-1.649,14.521-3.08l1.76,6.82
		c-4.29,2.31-10.45,3.74-17.49,3.74c-9.02,0-17.16-4.29-20.24-11.771h-0.22c-3.41,7.37-10.67,11.771-19.8,11.771
		c-11.11,0-16.61-7.48-16.61-15.181c0-12.319,11.44-19.47,32.12-19.25v-2.2c0-2.64-1.649-11.88-12.43-11.88
		c-5.061,0-10.45,1.87-13.64,4.07l-2.31-6.38c4.729-2.97,11.33-4.84,16.61-4.84c9.569,0,14.96,4.51,17.16,11.33h0.22
		c3.63-7.04,10.229-11.33,18.59-11.33c16.28,0,20.79,15.729,20.79,24.529c0,1.65-0.11,3.301-0.33,4.29H442.655z M433.745,925.171
		c-10.23-0.22-22.66,1.54-22.66,11.99c0,5.61,4.18,8.8,9.24,8.8c6.93,0,11.33-4.29,12.87-9.13c0.439-1.21,0.55-2.53,0.55-3.85
		V925.171z M469.275,919.341c0.33-5.39-2.641-14.96-12.431-14.96c-9.569,0-13.97,8.91-14.3,14.96H469.275z"/>
	<path fill="#BCE3A9" d="M490.614,913.071c0-5.5-0.11-10.011-0.44-14.41h8.58l0.55,8.8h0.221c2.639-5.061,8.799-10.01,17.599-10.01
		c7.37,0,18.811,4.399,18.811,22.66v31.79h-9.681v-30.69c0-8.58-3.189-15.73-12.319-15.73c-6.381,0-11.33,4.511-12.98,9.9
		c-0.44,1.21-0.66,2.86-0.66,4.51v32.011h-9.679V913.071z"/>
	<path fill="#BCE3A9" d="M551.662,913.071c0-5.5-0.11-10.011-0.44-14.41h8.471l0.439,8.58h0.33c2.97-5.061,7.92-9.79,16.72-9.79
		c7.261,0,12.761,4.399,15.07,10.67h0.22c1.65-2.971,3.74-5.28,5.94-6.931c3.19-2.42,6.71-3.739,11.771-3.739
		c7.04,0,17.489,4.62,17.489,23.1v31.351h-9.46v-30.141c0-10.229-3.739-16.39-11.55-16.39c-5.5,0-9.79,4.069-11.44,8.8
		c-0.439,1.32-0.77,3.08-0.77,4.84v32.891h-9.46v-31.9c0-8.47-3.74-14.63-11.11-14.63c-6.05,0-10.45,4.84-11.99,9.68
		c-0.55,1.43-0.77,3.08-0.77,4.73v32.12h-9.46V913.071z"/>
	<path fill="#BCE3A9" d="M648.792,927.041c0.22,13.09,8.58,18.48,18.261,18.48c6.93,0,11.109-1.21,14.739-2.75l1.65,6.93
		c-3.41,1.54-9.24,3.3-17.71,3.3c-16.391,0-26.181-10.78-26.181-26.84c0-16.061,9.46-28.71,24.971-28.71c17.38,0,22,15.29,22,25.08
		c0,1.979-0.22,3.52-0.33,4.51H648.792z M677.172,920.111c0.11-6.16-2.529-15.73-13.42-15.73c-9.79,0-14.08,9.021-14.85,15.73
		H677.172z"/>
	<path fill="#BCE3A9" d="M710.172,883.371v15.29h13.859v7.37h-13.859v28.71c0,6.6,1.87,10.34,7.26,10.34c2.53,0,4.4-0.33,5.61-0.66
		l0.439,7.26c-1.87,0.771-4.84,1.32-8.58,1.32c-4.51,0-8.14-1.43-10.45-4.07c-2.75-2.859-3.739-7.59-3.739-13.859v-29.04h-8.25
		v-7.37h8.25V885.9L710.172,883.371z"/>
	<path fill="#BCE3A9" d="M745.701,883.701c0.109,3.3-2.311,5.939-6.16,5.939c-3.41,0-5.83-2.64-5.83-5.939
		c0-3.41,2.529-6.051,6.05-6.051C743.391,877.65,745.701,880.291,745.701,883.701z M734.921,951.901v-53.24h9.68v53.24H734.921z"/>
</g>
<path fill="#FFFFFF" d="M708.126,106.428c-1.302,0-2.596,0.049-3.886,0.123c-1.659-9.231-6.628-17.831-14.548-23.958
	c-7.023-5.433-17.114,4.065-10.026,9.548c5.72,4.425,9.435,10.244,10.635,16.658c-45.718,12.209-80.365,69.576-80.365,122.947
	c0,60.12,43.96,85.323,98.19,85.323c54.229,0,98.192-25.203,98.192-85.323C806.317,171.626,762.355,106.428,708.126,106.428z"/>
<path fill="#FFFFFF" d="M361.858,425.98h-22.309c0.761-15.023,1.488-33.129,12.816-37.839c4.704-1.955,2.693-11.597-2.049-9.626
	c-7.568,3.146-12.415,11.088-15.115,20.5c-1.421,4.953-2.04,10.114-2.423,15.337c-2.006-6.123-5.278-11.217-10.827-13.935
	c-4.644-2.275-6.651,7.371-2.049,9.626c5.013,2.456,6.797,9.299,7.633,15.936h-28.295c-12.354,0-21.591,14.699-19.084,30.368
	l31.308,195.647c4.293,26.828,33.874,26.828,38.167,0l31.308-195.647C383.449,440.678,374.212,425.98,361.858,425.98z"/>
</svg>
