<?xml version="1.0" encoding="utf-8"?>
<!-- Generator: Adobe Illustrator 27.9.0, SVG Export Plug-In . SVG Version: 6.00 Build 0)  -->
<svg version="1.1" id="Layer_1" xmlns="http://www.w3.org/2000/svg" xmlns:xlink="http://www.w3.org/1999/xlink" x="0px" y="0px"
	 width="1000px" height="1000px" viewBox="0 0 1000 1000" enable-background="new 0 0 1000 1000" xml:space="preserve">
<path opacity="0.1" fill="#FEE37D" enable-background="new    " d="M907,822.1H77.9c-18.7,0-34-15.3-34-34V74c0-18.7,15.3-34,34-34
	H907c18.7,0,34,15.3,34,34v714.1C940.9,806.8,925.6,822.1,907,822.1z"/>
<g>
	<rect x="55.1" y="868.6" fill="none" width="874.6" height="231.2"/>
	<path fill="#FEE37D" d="M359.1,872.2v39.9c0,15.1,6.7,21.5,15.7,21.5c10,0,16.4-6.6,16.4-21.5v-39.9h8.8v39.3
		c0,20.7-10.9,29.2-25.5,29.2c-13.8,0-24.2-7.9-24.2-28.8v-39.7H359.1z M390.1,856.9l-12.8,11.7h-7.1l9.2-11.7H390.1z"/>
	<path fill="#FEE37D" d="M425.8,877.3v13.9h12.6v6.7h-12.6V924c0,6,1.7,9.4,6.6,9.4c2.3,0,4-0.3,5.1-0.6l0.4,6.6
		c-1.7,0.7-4.4,1.2-7.8,1.2c-4.1,0-7.4-1.3-9.5-3.7c-2.5-2.6-3.4-6.9-3.4-12.6v-26.4h-7.5v-6.7h7.5v-11.6L425.8,877.3z"/>
	<path fill="#FEE37D" d="M458.1,877.6c0.1,3-2.1,5.4-5.6,5.4c-3.1,0-5.3-2.4-5.3-5.4c0-3.1,2.3-5.5,5.5-5.5
		C456,872.1,458.1,874.5,458.1,877.6z M448.3,939.6v-48.4h8.8v48.4H448.3z"/>
	<path fill="#FEE37D" d="M475.1,891.2l9.5,27.2c1.6,4.4,2.9,8.4,3.9,12.4h0.3c1.1-4,2.5-8,4.1-12.4l9.4-27.2h9.2l-19,48.4h-8.4
		l-18.4-48.4H475.1z"/>
	<path fill="#FEE37D" d="M523.7,917c0.2,11.9,7.8,16.8,16.6,16.8c6.3,0,10.1-1.1,13.4-2.5l1.5,6.3c-3.1,1.4-8.4,3-16.1,3
		c-14.9,0-23.8-9.8-23.8-24.4s8.6-26.1,22.7-26.1c15.8,0,20,13.9,20,22.8c0,1.8-0.2,3.2-0.3,4.1L523.7,917L523.7,917z M549.5,910.7
		c0.1-5.6-2.3-14.3-12.2-14.3c-8.9,0-12.8,8.2-13.5,14.3H549.5z"/>
	<path fill="#FEE37D" d="M568.9,906.3c0-5.7-0.1-10.6-0.4-15.1h7.7l0.3,9.5h0.4c2.2-6.5,7.5-10.6,13.4-10.6c1,0,1.7,0.1,2.5,0.3v8.3
		c-0.9-0.2-1.8-0.3-3-0.3c-6.2,0-10.6,4.7-11.8,11.3c-0.2,1.2-0.4,2.6-0.4,4.1v25.8h-8.7V906.3L568.9,906.3z"/>
	<path fill="#FEE37D" d="M627.9,939.6l-0.7-6.1h-0.3c-2.7,3.8-7.9,7.2-14.8,7.2c-9.8,0-14.8-6.9-14.8-13.9c0-11.7,10.4-18.1,29.1-18
		v-1c0-4-1.1-11.2-11-11.2c-4.5,0-9.2,1.4-12.6,3.6l-2-5.8c4-2.6,9.8-4.3,15.9-4.3c14.8,0,18.4,10.1,18.4,19.8V928
		c0,4.2,0.2,8.3,0.8,11.6H627.9L627.9,939.6z M626.6,914.9c-9.6-0.2-20.5,1.5-20.5,10.9c0,5.7,3.8,8.4,8.3,8.4
		c6.3,0,10.3-4,11.7-8.1c0.3-0.9,0.5-1.9,0.5-2.8V914.9L626.6,914.9z"/>
</g>
<g id="yellow_x5F_box">
	<g id="yellow_x5F_backround">
		<g>
			<path fill="#FEE37D" d="M171.958,733.461c0,10.81,8.047,19.458,17.819,19.458h624.445c9.772,0,17.819-8.648,17.819-19.458
				V112.539c0-10.81-8.047-19.458-17.819-19.458H189.777c-9.772,0-17.819,8.648-17.819,19.458V733.461L171.958,733.461z"/>
		</g>
	</g>
	<g id="Yellow_x5F_outline" display="none">
		<g display="inline">
			<path fill="#FEE37D" d="M814.223,754H189.777C179.431,754,171,744.703,171,733.461V112.539C171,101.297,179.431,92,189.777,92
				h624.445C824.569,92,833,101.297,833,112.539v620.922C833,744.92,824.569,754,814.223,754z M189.777,94.162
				c-9.197,0-16.861,8.216-16.861,18.377v620.922c0,10.161,7.473,18.377,16.861,18.377h624.445c9.197,0,16.861-8.216,16.861-18.377
				V112.539c0-10.161-7.473-18.377-16.861-18.377H189.777L189.777,94.162z"/>
		</g>
	</g>
</g>
<ellipse fill="#FFFFFF" stroke="#FFFFFF" stroke-width="5" stroke-miterlimit="10" cx="511.223" cy="403.06" rx="77.851" ry="74.927"/>
<g>
	
		<line fill="none" stroke="#FFFFFF" stroke-width="11" stroke-miterlimit="10" x1="567.766" y1="314.09" x2="615.056" y2="221.329"/>
	
		<line fill="none" stroke="#FFFFFF" stroke-width="11" stroke-miterlimit="10" x1="607.345" y1="350.431" x2="693.529" y2="289.53"/>
	<line fill="none" stroke="#FFFFFF" stroke-width="11" stroke-miterlimit="10" x1="616.255" y1="410.667" x2="723" y2="410.667"/>
	
		<line fill="none" stroke="#FFFFFF" stroke-width="11" stroke-miterlimit="10" x1="689.76" y1="520.354" x2="602.719" y2="460.449"/>
	
		<line fill="none" stroke="#FFFFFF" stroke-width="11" stroke-miterlimit="10" x1="511.223" y1="302.142" x2="511.223" y2="198.761"/>
	
		<line fill="none" stroke="#FFFFFF" stroke-width="11" stroke-miterlimit="10" x1="609.401" y1="588.887" x2="555.943" y2="499.279"/>
	
		<line fill="none" stroke="#FFFFFF" stroke-width="11" stroke-miterlimit="10" x1="511.223" y1="610.626" x2="511.223" y2="507.245"/>
</g>
<g>
	
		<line fill="none" stroke="#FFFFFF" stroke-width="11" stroke-miterlimit="10" x1="455.363" y1="495.297" x2="408.643" y2="587.892"/>
	
		<line fill="none" stroke="#FFFFFF" stroke-width="11" stroke-miterlimit="10" x1="416.43" y1="458.956" x2="331.115" y2="519.856"/>
	<line fill="none" stroke="#FFFFFF" stroke-width="11" stroke-miterlimit="10" x1="407.458" y1="398.719" x2="302" y2="398.719"/>
	
		<line fill="none" stroke="#FFFFFF" stroke-width="11" stroke-miterlimit="10" x1="335.009" y1="289.033" x2="420.831" y2="348.937"/>
	
		<line fill="none" stroke="#FFFFFF" stroke-width="11" stroke-miterlimit="10" x1="511.223" y1="507.245" x2="511.223" y2="610.626"/>
	
		<line fill="none" stroke="#FFFFFF" stroke-width="11" stroke-miterlimit="10" x1="414.229" y1="220.499" x2="467.043" y2="310.107"/>
	
		<line fill="none" stroke="#FFFFFF" stroke-width="11" stroke-miterlimit="10" x1="511.223" y1="198.761" x2="511.223" y2="302.142"/>
</g>
</svg>
