<?xml version="1.0" encoding="utf-8"?>
<!-- Generator: Adobe Illustrator 27.9.0, SVG Export Plug-In . SVG Version: 6.00 Build 0)  -->
<svg version="1.1" id="Layer_1" xmlns="http://www.w3.org/2000/svg" xmlns:xlink="http://www.w3.org/1999/xlink" x="0px" y="0px"
	 width="1000px" height="1000px" viewBox="0 0 1000 1000" enable-background="new 0 0 1000 1000" xml:space="preserve">
<path opacity="0.2" fill="#BCE3A9" d="M932,822H59c-6.6,0-12-5.4-12-12V52c0-6.6,5.4-12,12-12h873c6.6,0,12,5.4,12,12v758
	C944,816.6,938.6,822,932,822z"/>
<g id="yellow_x5F_box">
	<g id="yellow_x5F_backround">
		<g>
			<path fill="#FFE37C" d="M141.761,387.959c0,4.976,4.155,9.009,9.282,9.009h325.883c5.126,0,9.282-4.033,9.282-9.009v-287.28
				c0-4.976-4.155-9.009-9.282-9.009H151.042c-5.126,0-9.282,4.033-9.282,9.009v287.28H141.761z"/>
		</g>
	</g>
	<g id="Yellow_x5F_outline" display="none">
		<g display="inline">
			<path fill="#FFE37C" d="M476.925,397.467H151.042c-5.402,0-9.797-4.266-9.797-9.51V100.678c0-5.244,4.395-9.51,9.797-9.51
				h325.883c5.402,0,9.797,4.266,9.797,9.51v287.28C486.722,393.202,482.327,397.467,476.925,397.467z M151.042,92.169
				c-4.834,0-8.766,3.817-8.766,8.509v287.28c0,4.692,3.932,8.509,8.766,8.509h325.883c4.833,0,8.766-3.817,8.766-8.509v-287.28
				c0-4.692-3.933-8.509-8.766-8.509H151.042z"/>
		</g>
	</g>
</g>
<g id="pink_x5F_box">
	<g id="pink_x5F_backround">
		<g>
			<path fill="#F8ADD2" d="M514.051,437.111c0,4.976,4.155,9.009,9.282,9.009h325.883c5.126,0,9.282-4.033,9.282-9.009V100.678
				c0-4.976-4.155-9.009-9.282-9.009H523.333c-5.126,0-9.282,4.033-9.282,9.009V437.111z"/>
		</g>
	</g>
	<g id="pink_x5F_outline" display="none">
		<g display="inline">
			<path fill="#F8ADD2" d="M849.216,446.62H523.333c-5.402,0-9.797-4.266-9.797-9.51V100.678c0-5.244,4.395-9.51,9.797-9.51h325.883
				c5.402,0,9.797,4.266,9.797,9.51v336.434C859.013,442.355,854.617,446.62,849.216,446.62z M523.333,92.169
				c-4.833,0-8.766,3.817-8.766,8.509v336.434c0,4.692,3.933,8.509,8.766,8.509h325.883c4.833,0,8.766-3.817,8.766-8.509V100.678
				c0-4.692-3.933-8.509-8.766-8.509H523.333z"/>
		</g>
	</g>
</g>
<g id="blue_x5F_box">
	<g id="Blue">
		<g>
			<path fill="#7BD3FC" d="M514.051,760.822c0,4.976,4.155,9.009,9.282,9.009h325.883c5.126,0,9.282-4.033,9.282-9.009v-287.28
				c0-4.976-4.155-9.009-9.282-9.009H523.333c-5.126,0-9.282,4.033-9.282,9.009V760.822z"/>
		</g>
	</g>
	<g id="Blue_x5F_outline" display="none">
		<g display="inline">
			<path fill="#7BD3FC" d="M849.216,770.332H523.333c-5.402,0-9.797-4.266-9.797-9.51v-287.28c0-5.244,4.395-9.51,9.797-9.51
				h325.883c5.402,0,9.797,4.266,9.797,9.51v287.28C859.013,766.066,854.617,770.332,849.216,770.332z M523.333,465.034
				c-4.833,0-8.766,3.817-8.766,8.509v287.28c0,4.691,3.933,8.509,8.766,8.509h325.883c4.833,0,8.766-3.817,8.766-8.509V473.541
				c0-4.692-3.933-8.509-8.766-8.509H523.333V465.034z"/>
		</g>
	</g>
</g>
<g id="green_x5F_box">
	<g id="green_x5F_backround">
		<rect x="141.503" y="418.989" fill="#BCE3A9" width="344.962" height="351.343"/>
	</g>
	<g id="green_x5F_outline">
		<path fill="#BCE3A9" d="M486.98,770.832H140.988V418.488H486.98V770.832z M142.018,769.831h343.93V419.489h-343.93V769.831z"/>
	</g>
</g>
<g>
	<rect x="84.539" y="845.902" fill="none" width="874.625" height="231.198"/>
	<path fill="#BCE3A9" d="M107.558,895.699l-7,21.201h-9l22.901-67.404h10.501l23.001,67.404h-9.301l-7.201-21.201H107.558z
		 M129.66,888.898l-6.601-19.4c-1.5-4.4-2.5-8.4-3.5-12.301h-0.2c-1,4-2.1,8.101-3.4,12.2l-6.601,19.501H129.66z M134.46,834.195
		l-12.701,11.701h-7.201l9.301-11.701H134.46z"/>
	<path fill="#BCE3A9" d="M158.858,868.498l9.5,27.201c1.6,4.4,2.9,8.4,3.9,12.4h0.3c1.1-4,2.5-8,4.101-12.4l9.4-27.201h9.201
		L176.259,916.9h-8.4l-18.401-48.402H158.858z"/>
	<path fill="#BCE3A9" d="M207.458,894.299c0.2,11.901,7.801,16.802,16.601,16.802c6.3,0,10.101-1.101,13.401-2.5l1.5,6.3
		c-3.1,1.4-8.4,3-16.101,3c-14.901,0-23.801-9.801-23.801-24.401s8.601-26.102,22.701-26.102c15.801,0,20.001,13.901,20.001,22.802
		c0,1.8-0.2,3.2-0.3,4.1H207.458z M233.259,887.999c0.1-5.601-2.3-14.301-12.201-14.301c-8.901,0-12.801,8.2-13.501,14.301H233.259z
		"/>
	<path fill="#BCE3A9" d="M256.458,868.498l6.9,10.4c1.8,2.7,3.3,5.2,4.9,7.9h0.3c1.6-2.9,3.2-5.4,4.8-8.001l6.8-10.3h9.5
		l-16.501,23.401L290.16,916.9h-10l-7.1-10.9c-1.9-2.8-3.5-5.5-5.201-8.4h-0.2c-1.6,2.9-3.3,5.5-5.101,8.4l-7,10.9h-9.701
		l17.201-24.701l-16.401-23.701H256.458z"/>
	<path fill="#BCE3A9" d="M310.556,854.597v13.901h12.601v6.7h-12.601V901.3c0,6,1.7,9.4,6.601,9.4c2.3,0,4-0.3,5.101-0.6l0.4,6.6
		c-1.7,0.7-4.4,1.2-7.801,1.2c-4.1,0-7.4-1.3-9.5-3.7c-2.5-2.6-3.4-6.9-3.4-12.601v-26.401h-7.5v-6.7h7.5v-11.602L310.556,854.597z"
		/>
	<path fill="#BCE3A9" d="M342.855,854.896c0.1,3.001-2.1,5.4-5.601,5.4c-3.1,0-5.3-2.399-5.3-5.4c0-3.1,2.3-5.5,5.5-5.5
		C340.755,849.396,342.855,851.797,342.855,854.896z M333.055,916.9v-48.402h8.801V916.9H333.055z"/>
	<path fill="#BCE3A9" d="M356.454,883.599c0-5.7-0.1-10.601-0.4-15.101h7.701l0.3,9.5h0.4c2.2-6.5,7.5-10.601,13.401-10.601
		c1,0,1.7,0.101,2.5,0.3v8.301c-0.9-0.2-1.8-0.3-3-0.3c-6.2,0-10.601,4.7-11.801,11.301c-0.2,1.2-0.4,2.6-0.4,4.1V916.9h-8.701
		V883.599z"/>
	<path fill="#BCE3A9" d="M454.156,892.299c0,17.901-12.4,25.702-24.102,25.702c-13.101,0-23.201-9.601-23.201-24.901
		c0-16.201,10.601-25.702,24.001-25.702C444.755,867.397,454.156,877.498,454.156,892.299z M415.753,892.799
		c0,10.601,6.101,18.602,14.701,18.602c8.4,0,14.701-7.9,14.701-18.801c0-8.201-4.101-18.602-14.501-18.602
		C420.253,873.998,415.753,883.599,415.753,892.799z"/>
	<path fill="#BCE3A9" d="M506.955,868.498c-0.2,3.5-0.4,7.4-0.4,13.301V909.9c0,11.101-2.199,17.901-6.9,22.102
		c-4.7,4.399-11.5,5.8-17.601,5.8c-5.801,0-12.201-1.4-16.101-4l2.199-6.7c3.2,2,8.201,3.8,14.201,3.8
		c9.001,0,15.602-4.7,15.602-16.901v-5.399h-0.2c-2.7,4.5-7.9,8.1-15.401,8.1c-12.001,0-20.602-10.2-20.602-23.601
		c0-16.401,10.701-25.702,21.802-25.702c8.4,0,13.001,4.4,15.101,8.4h0.2l0.4-7.3H506.955z M497.855,887.599c0-1.5-0.1-2.8-0.5-4
		c-1.6-5.101-5.9-9.301-12.301-9.301c-8.4,0-14.4,7.101-14.4,18.302c0,9.5,4.8,17.4,14.301,17.4c5.4,0,10.301-3.4,12.2-9
		c0.5-1.5,0.7-3.2,0.7-4.7V887.599z"/>
	<path fill="#BCE3A9" d="M593.954,913.9c-3.9,1.4-11.601,3.7-20.701,3.7c-10.2,0-18.601-2.6-25.201-8.9
		c-5.801-5.601-9.4-14.601-9.4-25.102c0.1-20.102,13.9-34.802,36.502-34.802c7.801,0,13.9,1.699,16.801,3.1l-2.1,7.101
		c-3.601-1.6-8.101-2.9-14.901-2.9c-16.401,0-27.102,10.201-27.102,27.102c0,17.102,10.301,27.202,26.002,27.202
		c5.7,0,9.601-0.8,11.601-1.8v-20.102h-13.701v-7.001h22.201V913.9z"/>
	<path fill="#BCE3A9" d="M606.951,883.599c0-5.7-0.101-10.601-0.4-15.101h7.7l0.301,9.5h0.399c2.2-6.5,7.501-10.601,13.401-10.601
		c1,0,1.7,0.101,2.5,0.3v8.301c-0.9-0.2-1.801-0.3-3-0.3c-6.201,0-10.601,4.7-11.801,11.301c-0.2,1.2-0.4,2.6-0.4,4.1V916.9h-8.7
		V883.599z"/>
	<path fill="#BCE3A9" d="M672.854,893.6c-0.301,11.5,6.3,17.601,15.4,17.601c6.7,0,10.501-1.5,13.201-2.8l1.6,6.2
		c-3.9,2.1-9.5,3.4-15.9,3.4c-8.201,0-15.602-3.9-18.401-10.701h-0.2c-3.1,6.7-9.7,10.701-18.001,10.701
		c-10.101,0-15.101-6.801-15.101-13.801c0-11.201,10.4-17.701,29.201-17.501v-2.001c0-2.399-1.5-10.8-11.301-10.8
		c-4.6,0-9.5,1.699-12.4,3.7l-2.101-5.801c4.301-2.7,10.301-4.4,15.102-4.4c8.7,0,13.601,4.101,15.601,10.301h0.2
		c3.3-6.4,9.301-10.301,16.901-10.301c14.801,0,18.9,14.301,18.9,22.302c0,1.5-0.1,3-0.3,3.9H672.854z M664.753,892.6
		c-9.301-0.2-20.602,1.399-20.602,10.9c0,5.101,3.8,8,8.4,8c6.301,0,10.301-3.9,11.701-8.3c0.399-1.101,0.5-2.301,0.5-3.501V892.6z
		 M697.055,887.299c0.3-4.9-2.4-13.601-11.301-13.601c-8.7,0-12.701,8.101-13.001,13.601H697.055z"/>
	<path fill="#BCE3A9" d="M716.451,881.599c0-5-0.101-9.101-0.4-13.101h7.801l0.5,8h0.2c2.399-4.601,8-9.101,16.001-9.101
		c6.7,0,17.101,4,17.101,20.602V916.9h-8.801v-27.901c0-7.801-2.899-14.301-11.2-14.301c-5.801,0-10.301,4.1-11.801,9
		c-0.4,1.101-0.601,2.601-0.601,4.101V916.9h-8.8V881.599z"/>
	<path fill="#BCE3A9" d="M771.95,881.599c0-5-0.101-9.101-0.4-13.101h7.7l0.4,7.8h0.3c2.7-4.6,7.2-8.9,15.201-8.9
		c6.601,0,11.601,4,13.701,9.701h0.199c1.5-2.7,3.4-4.801,5.4-6.301c2.9-2.2,6.101-3.4,10.701-3.4c6.4,0,15.9,4.2,15.9,21.001V916.9
		h-8.601v-27.401c0-9.301-3.399-14.901-10.5-14.901c-5.001,0-8.9,3.7-10.4,8.001c-0.4,1.2-0.7,2.8-0.7,4.4V916.9h-8.601v-29.002
		c0-7.7-3.4-13.301-10.101-13.301c-5.501,0-9.501,4.4-10.901,8.801c-0.5,1.3-0.699,2.801-0.699,4.301V916.9h-8.601V881.599z"/>
	<path fill="#BCE3A9" d="M860.251,894.299c0.199,11.901,7.8,16.802,16.601,16.802c6.301,0,10.101-1.101,13.4-2.5l1.501,6.3
		c-3.101,1.4-8.401,3-16.102,3c-14.9,0-23.802-9.801-23.802-24.401s8.601-26.102,22.702-26.102
		c15.801,0,20.001,13.901,20.001,22.802c0,1.8-0.2,3.2-0.3,4.1H860.251z M886.052,887.999c0.101-5.601-2.3-14.301-12.2-14.301
		c-8.9,0-12.801,8.2-13.501,14.301H886.052z"/>
	<path fill="#BCE3A9" d="M916.051,854.597v13.901h12.601v6.7h-12.601V901.3c0,6,1.7,9.4,6.601,9.4c2.3,0,4-0.3,5.1-0.6l0.4,6.6
		c-1.7,0.7-4.4,1.2-7.801,1.2c-4.1,0-7.4-1.3-9.5-3.7c-2.501-2.6-3.4-6.9-3.4-12.601v-26.401h-7.501v-6.7h7.501v-11.602
		L916.051,854.597z"/>
	<path fill="#BCE3A9" d="M948.35,854.896c0.101,3.001-2.1,5.4-5.6,5.4c-3.101,0-5.301-2.399-5.301-5.4c0-3.1,2.301-5.5,5.501-5.5
		C946.25,849.396,948.35,851.797,948.35,854.896z M938.55,916.9v-48.402h8.8V916.9H938.55z"/>
</g>
<path fill="#FFFFFF" d="M686.274,172.095c-1.302,0-2.596,0.049-3.886,0.123c-1.659-9.231-6.628-17.831-14.548-23.958
	c-7.023-5.433-17.114,4.065-10.026,9.548c5.72,4.425,9.435,10.244,10.635,16.658c-45.718,12.209-80.365,69.576-80.365,122.947
	c0,60.12,43.96,85.323,98.19,85.323c54.229,0,98.192-25.203,98.192-85.323C784.465,237.294,740.503,172.095,686.274,172.095z"/>
<path fill="#FFFFFF" d="M340.006,491.647h-22.309c0.761-15.023,1.488-33.129,12.816-37.839c4.704-1.955,2.693-11.597-2.049-9.626
	c-7.568,3.146-12.415,11.088-15.115,20.5c-1.421,4.953-2.04,10.114-2.423,15.337c-2.006-6.123-5.278-11.216-10.827-13.935
	c-4.644-2.275-6.651,7.371-2.049,9.626c5.013,2.456,6.797,9.299,7.633,15.936H277.39c-12.354,0-21.591,14.699-19.084,30.368
	l31.308,195.647c4.293,26.828,33.874,26.828,38.167,0l31.308-195.647C361.597,506.346,352.36,491.647,340.006,491.647z"/>
</svg>
