<?xml version="1.0" encoding="utf-8"?>
<!-- Generator: Adobe Illustrator 27.9.0, SVG Export Plug-In . SVG Version: 6.00 Build 0)  -->
<svg version="1.1" id="Layer_1" xmlns="http://www.w3.org/2000/svg" xmlns:xlink="http://www.w3.org/1999/xlink" x="0px" y="0px"
	 width="1000px" height="1000px" viewBox="0 0 1000 1000" enable-background="new 0 0 1000 1000" xml:space="preserve">
<path opacity="0.1" fill="#F8ADD2" d="M902.193,807.434H97.807c-28.67,0-52.126-23.457-52.126-52.126V88.198
	c0-28.67,23.457-52.126,52.126-52.126h804.385c28.669,0,52.126,23.457,52.126,52.126v667.11
	C954.319,783.977,930.862,807.434,902.193,807.434z"/>
<g id="pink_x5F_box">
	<g id="pink_x5F_backround">
		<g>
			<path fill="#F8ADD2" d="M172.561,736.725c0,9.274,7.967,16.792,17.798,16.792h624.886c9.829,0,17.798-7.517,17.798-16.792
				V109.642c0-9.274-7.967-16.792-17.798-16.792H190.359c-9.829,0-17.798,7.517-17.798,16.792V736.725z"/>
		</g>
	</g>
	<g id="pink_x5F_outline" display="none">
		<g display="inline">
			<path fill="#F8ADD2" d="M815.245,754.451H190.359c-10.358,0-18.785-7.951-18.785-17.725V109.642
				c0-9.774,8.428-17.725,18.785-17.725h624.886c10.358,0,18.785,7.951,18.785,17.725v627.085
				C834.031,746.499,825.603,754.451,815.245,754.451z M190.359,93.783c-9.267,0-16.809,7.115-16.809,15.86v627.085
				c0,8.745,7.542,15.86,16.809,15.86h624.886c9.267,0,16.809-7.115,16.809-15.86V109.642c0-8.745-7.542-15.86-16.809-15.86H190.359
				z"/>
		</g>
	</g>
</g>
<g>
	<rect x="62.687" y="855.593" fill="none" width="874.625" height="231.198"/>
	<path fill="#F8ADD2" d="M404.647,859.645c4.77-0.72,10.439-1.26,16.649-1.26c11.249,0,19.259,2.609,24.568,7.56
		c5.4,4.949,8.55,11.97,8.55,21.779c0,9.899-3.06,17.999-8.729,23.579c-5.67,5.669-15.029,8.729-26.818,8.729
		c-5.58,0-10.26-0.271-14.22-0.721V859.645z M412.477,913.282c1.98,0.36,4.86,0.45,7.92,0.45c16.739,0,25.829-9.359,25.829-25.739
		c0.09-14.31-8.01-23.399-24.569-23.399c-4.05,0-7.109,0.36-9.18,0.811V913.282z"/>
	<path fill="#F8ADD2" d="M468.455,875.934l9.54,25.739c0.99,2.88,2.07,6.3,2.79,8.909h0.18c0.811-2.609,1.71-5.939,2.79-9.089
		l8.64-25.56h8.369l-11.879,31.049c-5.67,14.939-9.54,22.589-14.939,27.269c-3.87,3.42-7.74,4.771-9.72,5.13l-1.979-6.659
		c1.979-0.63,4.59-1.891,6.93-3.87c2.159-1.71,4.859-4.77,6.659-8.819c0.36-0.811,0.63-1.44,0.63-1.891
		c0-0.449-0.18-1.079-0.54-2.069l-16.109-40.139H468.455z M493.385,857.124l-10.979,12.87h-5.67l7.92-12.87H493.385z"/>
	<path fill="#F8ADD2" d="M507.965,889.523c0-5.13-0.09-9.54-0.359-13.59h6.93l0.27,8.55h0.36c1.979-5.85,6.75-9.54,12.06-9.54
		c0.899,0,1.529,0.091,2.25,0.271v7.47c-0.811-0.18-1.62-0.271-2.7-0.271c-5.58,0-9.54,4.23-10.619,10.17
		c-0.181,1.08-0.36,2.34-0.36,3.689v23.22h-7.83V889.523z"/>
	<path fill="#F8ADD2" d="M546.574,863.694c0.09,2.7-1.891,4.859-5.04,4.859c-2.79,0-4.77-2.159-4.77-4.859
		c0-2.79,2.069-4.95,4.949-4.95C544.684,858.744,546.574,860.904,546.574,863.694z M537.754,919.492v-43.559h7.92v43.559H537.754z"
		/>
	<path fill="#F8ADD2" d="M558.813,887.724c0-4.5-0.09-8.19-0.359-11.79h7.02l0.45,7.2h0.18c2.16-4.141,7.2-8.19,14.399-8.19
		c6.03,0,15.39,3.601,15.39,18.54v26.009h-7.92v-25.109c0-7.02-2.609-12.869-10.079-12.869c-5.221,0-9.271,3.689-10.62,8.1
		c-0.36,0.99-0.54,2.34-0.54,3.689v26.189h-7.92V887.724z"/>
</g>
<path fill="#FFFFFF" stroke="#F8ADD2" stroke-miterlimit="10" d="M625.812,494.145c0,60.825-36.918,73.984-111.975,73.984
	s-113.853-15.401-113.853-76.226s41.801-150.21,116.859-150.21S625.812,433.32,625.812,494.145z"/>
<path fill="#FFFFFF" stroke="#F8ADD2" stroke-miterlimit="10" d="M431.518,324.294c19.03,13.666-0.349,21.661-13.773,38.875
	c-13.424,17.214-15.809,37.129-34.839,23.462c-19.03-13.666-35.699-48.481-22.275-65.695
	C374.054,303.722,412.488,310.628,431.518,324.294z"/>
<path fill="#FFFFFF" stroke="#F8ADD2" stroke-miterlimit="10" d="M556.528,316.063c-0.97,24.645-18.214,13.092-39.873,12.307
	c-21.659-0.785-39.532,9.495-38.562-15.15s20.827-60.353,42.486-59.568C542.238,254.437,557.498,291.418,556.528,316.063z"/>
<path fill="#FFFFFF" stroke="#F8ADD2" stroke-miterlimit="10" d="M638.282,386.495c-19.506,13.033-21.316-7.135-34.119-24.779
	c-12.803-17.645-31.75-26.084-12.244-39.117c19.506-13.033,59.188-17.261,71.991,0.384S657.788,373.462,638.282,386.495z"/>
</svg>
