<?xml version="1.0" encoding="utf-8"?>
<!-- Generator: Adobe Illustrator 27.7.0, SVG Export Plug-In . SVG Version: 6.00 Build 0)  -->
<svg version="1.1" id="Layer_1" xmlns="http://www.w3.org/2000/svg" xmlns:xlink="http://www.w3.org/1999/xlink" x="0px" y="0px"
	 width="1000px" height="1000px" viewBox="0 0 1000 1000" enable-background="new 0 0 1000 1000" xml:space="preserve">
<g opacity="0.75">
	<path fill="#FFFDEB" d="M886.24,799.183h-765.8c-6.6,0-12-5.4-12-12V69.312c0-6.6,5.4-12,12-12h765.8c6.6,0,12,5.4,12,12v717.871
		C898.24,793.783,892.84,799.183,886.24,799.183z"/>
</g>
<g>
	<path fill="#FFF8A1" d="M238.518,890.67c-0.625-11.279-1.374-24.839-1.249-34.919h-0.375c-2.873,9.479-6.371,19.56-10.618,30.719
		l-14.866,39.239h-8.245l-13.617-38.519c-3.998-11.399-7.371-21.84-9.744-31.439h-0.25c-0.25,10.08-0.875,23.64-1.624,35.759
		l-2.249,34.679h-10.369l5.872-80.877h13.866l14.366,39.118c3.498,9.96,6.371,18.84,8.495,27.239h0.375
		c2.124-8.159,5.122-17.039,8.87-27.239l14.991-39.118h13.867l5.247,80.877h-10.618L238.518,890.67z"/>
	<path fill="#FFF8A1" d="M323.09,896.67c0,21.479-15.49,30.839-30.106,30.839c-16.365,0-28.982-11.52-28.982-29.879
		c0-19.439,13.242-30.839,29.982-30.839C311.347,866.791,323.09,878.91,323.09,896.67z M275.119,897.27
		c0,12.72,7.621,22.319,18.364,22.319c10.494,0,18.364-9.479,18.364-22.56c0-9.839-5.122-22.318-18.114-22.318
		S275.119,886.23,275.119,897.27z"/>
	<path fill="#FFF8A1" d="M336.957,886.23c0-6.84-0.125-12.72-0.5-18.119h9.619l0.375,11.399h0.5c2.749-7.8,9.369-12.72,16.74-12.72
		c1.25,0,2.124,0.12,3.123,0.359v9.96c-1.124-0.24-2.249-0.36-3.748-0.36c-7.745,0-13.242,5.641-14.741,13.56
		c-0.25,1.44-0.5,3.12-0.5,4.92v30.959h-10.868V886.23z"/>
	<path fill="#FFF8A1" d="M428.9,868.111c-0.25,4.199-0.5,8.879-0.5,15.959v33.719c0,13.319-2.748,21.479-8.62,26.519
		c-5.871,5.28-14.366,6.96-21.986,6.96c-7.245,0-15.24-1.68-20.112-4.8l2.748-8.04c3.998,2.4,10.244,4.561,17.739,4.561
		c11.243,0,19.488-5.641,19.488-20.279v-6.48h-0.25c-3.373,5.4-9.869,9.72-19.238,9.72c-14.991,0-25.734-12.239-25.734-28.318
		c0-19.68,13.367-30.839,27.233-30.839c10.493,0,16.24,5.279,18.863,10.079h0.25l0.5-8.759H428.9z M417.532,891.03
		c0-1.8-0.125-3.36-0.625-4.8c-1.999-6.12-7.37-11.16-15.365-11.16c-10.494,0-17.989,8.52-17.989,21.959
		c0,11.4,5.996,20.88,17.864,20.88c6.746,0,12.867-4.08,15.24-10.8c0.625-1.8,0.875-3.84,0.875-5.64V891.03z"/>
	<path fill="#FFF8A1" d="M497.233,910.35c0,5.999,0.125,11.279,0.499,15.839h-9.744l-0.624-9.479h-0.25
		c-2.873,4.68-9.244,10.8-19.988,10.8c-9.494,0-20.861-5.04-20.861-25.439v-33.958h10.993v32.158
		c0,11.039,3.497,18.479,13.491,18.479c7.371,0,12.492-4.92,14.491-9.6c0.625-1.561,1-3.48,1-5.4v-35.638h10.993V910.35z"/>
	<path fill="#FFF8A1" d="M515.471,883.83c0-6-0.125-10.92-0.499-15.719h9.744l0.624,9.6h0.25c2.998-5.521,9.994-10.92,19.987-10.92
		c8.37,0,21.362,4.8,21.362,24.719v34.679h-10.993V892.71c0-9.359-3.623-17.159-13.991-17.159c-7.246,0-12.867,4.92-14.741,10.799
		c-0.5,1.32-0.75,3.12-0.75,4.92v34.919h-10.993V883.83z"/>
	<path fill="#FFF8A1" d="M584.803,886.23c0-6.84-0.125-12.72-0.499-18.119h9.619l0.374,11.399h0.5
		c2.748-7.8,9.369-12.72,16.74-12.72c1.249,0,2.123,0.12,3.123,0.359v9.96c-1.125-0.24-2.249-0.36-3.748-0.36
		c-7.745,0-13.242,5.641-14.741,13.56c-0.25,1.44-0.499,3.12-0.499,4.92v30.959h-10.869V886.23z"/>
	<path fill="#FFF8A1" d="M676.247,910.35c0,5.999,0.125,11.279,0.499,15.839h-9.744l-0.624-9.479h-0.25
		c-2.873,4.68-9.244,10.8-19.988,10.8c-9.494,0-20.861-5.04-20.861-25.439v-33.958h10.993v32.158
		c0,11.039,3.497,18.479,13.491,18.479c7.371,0,12.492-4.92,14.491-9.6c0.625-1.561,1-3.48,1-5.4v-35.638h10.993V910.35z
		 M668.751,843.032l-15.24,17.159h-7.87l10.993-17.159H668.751z"/>
	<path fill="#FFF8A1" d="M707.728,851.432v16.68h15.74v8.039h-15.74v31.318c0,7.2,2.124,11.28,8.245,11.28
		c2.873,0,4.997-0.36,6.371-0.72l0.5,7.919c-2.124,0.84-5.497,1.44-9.744,1.44c-5.122,0-9.245-1.561-11.868-4.44
		c-3.123-3.119-4.247-8.279-4.247-15.119V876.15h-9.369v-8.039h9.369v-13.92L707.728,851.432z"/>
	<path fill="#FFF8A1" d="M758.195,843.032l-15.24,17.159h-7.87l10.993-17.159H758.195z M735.834,926.188v-58.077h10.993v58.077
		H735.834z"/>
	<path fill="#FFF8A1" d="M765.066,883.83c0-6-0.125-10.92-0.499-15.719h9.744l0.624,9.6h0.25c2.998-5.521,9.994-10.92,19.987-10.92
		c8.37,0,21.362,4.8,21.362,24.719v34.679h-10.993V892.71c0-9.359-3.623-17.159-13.991-17.159c-7.246,0-12.867,4.92-14.741,10.799
		c-0.5,1.32-0.75,3.12-0.75,4.92v34.919h-10.993V883.83z"/>
	<path fill="#FFF8A1" d="M867.878,926.188l-0.874-7.319h-0.375c-3.373,4.56-9.869,8.64-18.488,8.64
		c-12.243,0-18.489-8.28-18.489-16.68c0-14.039,12.992-21.719,36.354-21.599v-1.2c0-4.8-1.375-13.439-13.742-13.439
		c-5.621,0-11.493,1.68-15.74,4.319l-2.498-6.959c4.996-3.12,12.242-5.16,19.862-5.16c18.489,0,22.986,12.119,22.986,23.759v21.72
		c0,5.039,0.25,9.959,0.999,13.919H867.878z M866.254,896.55c-11.992-0.24-25.609,1.8-25.609,13.079
		c0,6.84,4.747,10.08,10.369,10.08c7.87,0,12.867-4.8,14.616-9.72c0.375-1.08,0.624-2.28,0.624-3.36V896.55z"/>
</g>
<ellipse fill="#FFF8A1" cx="503.34" cy="429.653" rx="93.299" ry="97.423"/>
<line fill="#FFFEF9" stroke="#FFF8A1" stroke-width="24" stroke-miterlimit="10" x1="500" y1="309.742" x2="500" y2="158.304"/>
<line fill="#FFFEF9" stroke="#FFF8A1" stroke-width="24" stroke-miterlimit="10" x1="596.531" y1="344.227" x2="720.243" y2="264.845"/>
<line fill="#FFFEF9" stroke="#FFF8A1" stroke-width="24" stroke-miterlimit="10" x1="416.701" y1="347.985" x2="320.919" y2="237.636"/>
<line fill="#FFFEF9" stroke="#FFF8A1" stroke-width="24" stroke-miterlimit="10" x1="386.102" y1="428.247" x2="241.713" y2="428.247"/>
<line fill="#FFFEF9" stroke="#FFF8A1" stroke-width="24" stroke-miterlimit="10" x1="500" y1="547.784" x2="500" y2="682.835"/>
<line fill="#FFFEF9" stroke="#FFF8A1" stroke-width="24" stroke-miterlimit="10" x1="418.455" y1="509.732" x2="303.409" y2="598.825"/>
<line fill="#FFFEF9" stroke="#FFF8A1" stroke-width="24" stroke-miterlimit="10" x1="593.584" y1="515.079" x2="700.801" y2="607.347"/>
<line fill="#FFFEF9" stroke="#FFF8A1" stroke-width="24" stroke-miterlimit="10" x1="631.394" y1="437.01" x2="772.846" y2="437.01"/>
<g>
</g>
<g>
</g>
<g>
</g>
<g>
</g>
<g>
</g>
<g>
</g>
</svg>
