<?xml version="1.0" encoding="utf-8"?>
<!-- Generator: Adobe Illustrator 27.7.0, SVG Export Plug-In . SVG Version: 6.00 Build 0)  -->
<svg version="1.1" id="Layer_1" xmlns="http://www.w3.org/2000/svg" xmlns:xlink="http://www.w3.org/1999/xlink" x="0px" y="0px"
	 width="1000px" height="1000px" viewBox="0 0 1000 1000" enable-background="new 0 0 1000 1000" xml:space="preserve">
<g id="islensku_dyrin">
	<g id="blue_x5F_box" opacity="0.7">
		<g id="Blue" opacity="0.8">
			<g>
				<path fill="#97CE85" d="M102.055,819.329c0,12.906,9.823,23.365,21.943,23.365h770.449c12.12,0,21.943-10.459,21.943-23.365
					V74.248c0-12.906-9.823-23.365-21.943-23.365H123.998c-12.12,0-21.943,10.459-21.943,23.365V819.329z"/>
			</g>
		</g>
		<g id="Blue_x5F_outline" display="none">
			<g display="inline">
				<path fill="#97CE85" d="M894.446,843.992H123.998c-12.77,0-23.162-11.065-23.162-24.663V74.248
					c0-13.598,10.392-24.663,23.162-24.663h770.449c12.77,0,23.162,11.065,23.162,24.663v745.081
					C917.609,832.927,907.217,843.992,894.446,843.992z M123.998,52.181c-11.428,0-20.724,9.899-20.724,22.067v745.081
					c0,12.168,9.297,22.067,20.724,22.067h770.449c11.428,0,20.724-9.899,20.724-22.067V74.248c0-12.168-9.297-22.067-20.724-22.067
					H123.998z"/>
			</g>
		</g>
	</g>
	<g opacity="0.9">
		<g>
			<path fill="#97CE85" d="M336.13,935.423l-8.868,26.766h-11.401l29.009-85.094h13.301l29.136,85.094h-11.781l-9.121-26.766H336.13
				z M364.126,926.838l-8.361-24.492c-1.9-5.556-3.167-10.605-4.434-15.529h-0.253c-1.267,5.05-2.661,10.227-4.307,15.402
				l-8.361,24.619H364.126z M370.207,857.778l-16.088,14.771h-9.121l11.781-14.771H370.207z"/>
			<path fill="#97CE85" d="M401.114,901.083l12.034,34.34c2.027,5.556,3.674,10.605,4.94,15.655h0.38
				c1.394-5.05,3.167-10.1,5.194-15.655l11.908-34.34h11.654l-24.069,61.105h-10.641l-23.309-61.105H401.114z"/>
			<path fill="#97CE85" d="M462.677,933.655c0.253,15.024,9.881,21.211,21.029,21.211c7.98,0,12.795-1.389,16.975-3.156l1.9,7.953
				c-3.927,1.768-10.641,3.788-20.396,3.788c-18.875,0-30.149-12.373-30.149-30.806s10.894-32.951,28.755-32.951
				c20.016,0,25.336,17.549,25.336,28.785c0,2.272-0.253,4.04-0.38,5.176H462.677z M495.36,925.702
				c0.127-7.07-2.913-18.054-15.455-18.054c-11.274,0-16.214,10.353-17.101,18.054H495.36z"/>
			<path fill="#97CE85" d="M524.748,901.083l8.741,13.13c2.279,3.409,4.18,6.565,6.207,9.974h0.38
				c2.026-3.661,4.054-6.817,6.08-10.1l8.614-13.004h12.035l-20.902,29.543l21.535,31.562h-12.668l-8.994-13.762
				c-2.406-3.535-4.434-6.943-6.587-10.604h-0.254c-2.026,3.661-4.18,6.943-6.46,10.604l-8.868,13.762H511.32l21.788-31.184
				l-20.774-29.922H524.748z"/>
			<path fill="#97CE85" d="M593.277,883.534v17.549h15.961v8.459h-15.961v32.951c0,7.575,2.153,11.868,8.36,11.868
				c2.914,0,5.067-0.379,6.461-0.758l0.507,8.332c-2.154,0.884-5.574,1.516-9.881,1.516c-5.194,0-9.375-1.642-12.035-4.672
				c-3.167-3.282-4.307-8.711-4.307-15.907v-33.33h-9.501v-8.459h9.501v-14.646L593.277,883.534z"/>
			<path fill="#97CE85" d="M634.192,883.913c0.127,3.787-2.66,6.817-7.094,6.817c-3.928,0-6.714-3.03-6.714-6.817
				c0-3.914,2.913-6.944,6.967-6.944C631.532,876.969,634.192,879.999,634.192,883.913z M621.777,962.188v-61.105h11.148v61.105
				H621.777z"/>
			<path fill="#97CE85" d="M651.418,920.146c0-7.196-0.126-13.382-0.506-19.063h9.754l0.38,11.994h0.507
				c2.787-8.207,9.501-13.383,16.975-13.383c1.267,0,2.154,0.126,3.167,0.379v10.479c-1.14-0.253-2.28-0.379-3.8-0.379
				c-7.854,0-13.428,5.934-14.948,14.267c-0.254,1.515-0.507,3.282-0.507,5.176v32.573h-11.021V920.146z"/>
		</g>
		<path opacity="0.9" fill="#BE1E2D" d="M342.891,711.808H288.83c-47.715,0-86.755-39.04-86.755-86.755v-65.259
			c0-47.715,39.04-86.755,86.755-86.755h54.061c47.715,0,86.755,39.04,86.755,86.755v65.259
			C429.646,672.768,390.606,711.808,342.891,711.808z"/>
		
			<line fill="#754C29" stroke="#754C29" stroke-width="6" stroke-miterlimit="10" x1="315.861" y1="474.484" x2="330.513" y2="431.136"/>
		<path fill="#88206E" stroke="#7F3F98" stroke-width="3" stroke-miterlimit="10" d="M538.556,392.989h-1.335c-6.6,0-12-5.4-12-12
			v-1.249c0-6.6,5.4-12,12-12h1.335c6.6,0,12,5.4,12,12v1.249C550.556,387.589,545.156,392.989,538.556,392.989z"/>
		<path fill="#88206E" stroke="#7F3F98" stroke-width="3" stroke-miterlimit="10" d="M525.888,372.24h-1.335c-6.6,0-12-5.4-12-12
			v-1.249c0-6.6,5.4-12,12-12h1.335c6.6,0,12,5.4,12,12v1.249C537.888,366.84,532.488,372.24,525.888,372.24z"/>
		<path fill="#88206E" stroke="#7F3F98" stroke-width="3" stroke-miterlimit="10" d="M551.223,372.24h-1.335c-6.6,0-12-5.4-12-12
			v-1.249c0-6.6,5.4-12,12-12h1.335c6.6,0,12,5.4,12,12v1.249C563.223,366.84,557.823,372.24,551.223,372.24z"/>
		<path fill="#88206E" stroke="#7F3F98" stroke-width="3" stroke-miterlimit="10" d="M506.622,352.502h-1.335c-6.6,0-12-5.4-12-12
			v-1.249c0-6.6,5.4-12,12-12h1.335c6.6,0,12,5.4,12,12v1.249C518.622,347.102,513.222,352.502,506.622,352.502z"/>
		<path fill="#88206E" stroke="#7F3F98" stroke-width="3" stroke-miterlimit="10" d="M531.957,352.502h-1.335c-6.6,0-12-5.4-12-12
			v-1.249c0-6.6,5.4-12,12-12h1.335c6.6,0,12,5.4,12,12v1.249C543.957,347.102,538.557,352.502,531.957,352.502z"/>
		<path fill="#88206E" stroke="#7F3F98" stroke-width="3" stroke-miterlimit="10" d="M551.223,352.502h-1.335c-6.6,0-12-5.4-12-12
			v-1.249c0-6.6,5.4-12,12-12h1.335c6.6,0,12,5.4,12,12v1.249C563.223,347.102,557.823,352.502,551.223,352.502z"/>
		<path fill="#88206E" stroke="#7F3F98" stroke-width="3" stroke-miterlimit="10" d="M544.624,327.253h-1.335c-6.6,0-12-5.4-12-12
			v-1.249c0-6.6,5.4-12,12-12h1.335c6.6,0,12,5.4,12,12v1.249C556.624,321.853,551.224,327.253,544.624,327.253z"/>
		<path fill="#88206E" stroke="#7F3F98" stroke-width="3" stroke-miterlimit="10" d="M569.959,339.878h-1.335c-6.6,0-12-5.4-12-12
			v-1.249c0-6.6,5.4-12,12-12h1.335c6.6,0,12,5.4,12,12v1.249C581.959,334.478,576.559,339.878,569.959,339.878z"/>
		<path fill="#88206E" stroke="#7F3F98" stroke-width="3" stroke-miterlimit="10" d="M519.289,331.57h-1.335c-6.6,0-12-5.4-12-12
			v-1.249c0-6.6,5.4-12,12-12h1.335c6.6,0,12,5.4,12,12v1.249C531.289,326.17,525.889,331.57,519.289,331.57z"/>
		<path fill="#88206E" stroke="#7F3F98" stroke-width="3" stroke-miterlimit="10" d="M492.619,306.321h1.335c6.6,0,12,5.4,12,12
			v1.249c0,6.6-5.4,12-12,12h-1.335c-6.6,0-12-5.4-12-12v-1.249C480.619,311.721,486.019,306.321,492.619,306.321z"/>
		<path fill="#88206E" stroke="#7F3F98" stroke-width="3" stroke-miterlimit="10" d="M507.152,351.814h-1.335c-6.6,0-12-5.4-12-12
			v-1.249c0-6.6,5.4-12,12-12h1.335c6.6,0,12,5.4,12,12v1.249C519.152,346.414,513.752,351.814,507.152,351.814z"/>
		<path fill="#88206E" stroke="#7F3F98" stroke-width="3" stroke-miterlimit="10" d="M494.484,331.065h-1.335c-6.6,0-12-5.4-12-12
			v-1.249c0-6.6,5.4-12,12-12h1.335c6.6,0,12,5.4,12,12v1.249C506.484,325.664,501.084,331.065,494.484,331.065z"/>
		<path fill="#88206E" stroke="#7F3F98" stroke-width="3" stroke-miterlimit="10" d="M519.819,331.065h-1.335c-6.6,0-12-5.4-12-12
			v-1.249c0-6.6,5.4-12,12-12h1.335c6.6,0,12,5.4,12,12v1.249C531.819,325.664,526.419,331.065,519.819,331.065z"/>
		<path fill="#88206E" stroke="#7F3F98" stroke-width="3" stroke-miterlimit="10" d="M474.387,308.136h-1.335c-6.6,0-12-5.4-12-12
			v-1.249c0-6.6,5.4-12,12-12h1.335c6.6,0,12,5.4,12,12v1.249C486.387,302.736,480.987,308.136,474.387,308.136z"/>
		<path fill="#88206E" stroke="#7F3F98" stroke-width="3" stroke-miterlimit="10" d="M500.553,311.327h-1.335c-6.6,0-12-5.4-12-12
			v-1.249c0-6.6,5.4-12,12-12h1.335c6.6,0,12,5.4,12,12v1.249C512.553,305.927,507.153,311.327,500.553,311.327z"/>
		<path fill="#88206E" stroke="#7F3F98" stroke-width="3" stroke-miterlimit="10" d="M519.819,311.327h-1.335c-6.6,0-12-5.4-12-12
			v-1.249c0-6.6,5.4-12,12-12h1.335c6.6,0,12,5.4,12,12v1.249C531.819,305.927,526.419,311.327,519.819,311.327z"/>
		<path fill="#88206E" stroke="#7F3F98" stroke-width="3" stroke-miterlimit="10" d="M513.221,286.078h-1.335c-6.6,0-12-5.4-12-12
			v-1.249c0-6.6,5.4-12,12-12h1.335c6.6,0,12,5.4,12,12v1.249C525.221,280.678,519.821,286.078,513.221,286.078z"/>
		<path fill="#88206E" stroke="#7F3F98" stroke-width="3" stroke-miterlimit="10" d="M538.556,298.703h-1.335c-6.6,0-12-5.4-12-12
			v-1.249c0-6.6,5.4-12,12-12h1.335c6.6,0,12,5.4,12,12v1.249C550.556,293.303,545.156,298.703,538.556,298.703z"/>
		<path fill="#88206E" stroke="#7F3F98" stroke-width="3" stroke-miterlimit="10" d="M487.886,290.395h-1.335c-6.6,0-12-5.4-12-12
			v-1.249c0-6.6,5.4-12,12-12h1.335c6.6,0,12,5.4,12,12v1.249C499.886,284.995,494.486,290.395,487.886,290.395z"/>
		<path fill="#88206E" stroke="#7F3F98" stroke-width="3" stroke-miterlimit="10" d="M460.384,261.955h1.335c6.6,0,12,5.4,12,12
			v1.249c0,6.6-5.4,12-12,12h-1.335c-6.6,0-12-5.4-12-12v-1.249C448.384,267.355,453.784,261.955,460.384,261.955z"/>
		<path fill="#88206E" stroke="#7F3F98" stroke-width="3" stroke-miterlimit="10" d="M570.489,344.195h-1.335c-6.6,0-12-5.4-12-12
			v-1.249c0-6.6,5.4-12,12-12h1.335c6.6,0,12,5.4,12,12v1.249C582.489,338.795,577.089,344.195,570.489,344.195z"/>
		<path fill="#88206E" stroke="#7F3F98" stroke-width="3" stroke-miterlimit="10" d="M557.822,323.952h-1.335c-6.6,0-12-5.4-12-12
			v-1.249c0-6.6,5.4-12,12-12h1.335c6.6,0,12,5.4,12,12v1.249C569.822,318.552,564.422,323.952,557.822,323.952z"/>
		<path fill="#88206E" stroke="#7F3F98" stroke-width="3" stroke-miterlimit="10" d="M583.157,323.446h-1.335c-6.6,0-12-5.4-12-12
			v-1.249c0-6.6,5.4-12,12-12h1.335c6.6,0,12,5.4,12,12v1.249C595.157,318.046,589.757,323.446,583.157,323.446z"/>
		<path fill="#88206E" stroke="#7F3F98" stroke-width="3" stroke-miterlimit="10" d="M538.556,303.709h-1.335c-6.6,0-12-5.4-12-12
			v-1.249c0-6.6,5.4-12,12-12h1.335c6.6,0,12,5.4,12,12v1.249C550.556,298.309,545.156,303.709,538.556,303.709z"/>
		<path fill="#88206E" stroke="#7F3F98" stroke-width="3" stroke-miterlimit="10" d="M563.891,303.709h-1.335c-6.6,0-12-5.4-12-12
			v-1.249c0-6.6,5.4-12,12-12h1.335c6.6,0,12,5.4,12,12v1.249C575.891,298.309,570.491,303.709,563.891,303.709z"/>
		<path fill="#88206E" stroke="#7F3F98" stroke-width="3" stroke-miterlimit="10" d="M583.157,303.709h-1.335c-6.6,0-12-5.4-12-12
			v-1.249c0-6.6,5.4-12,12-12h1.335c6.6,0,12,5.4,12,12v1.249C595.157,298.309,589.757,303.709,583.157,303.709z"/>
		<path fill="#88206E" stroke="#7F3F98" stroke-width="3" stroke-miterlimit="10" d="M576.558,278.459h-1.335c-6.6,0-12-5.4-12-12
			v-1.249c0-6.6,5.4-12,12-12h1.335c6.6,0,12,5.4,12,12v1.249C588.558,273.059,583.158,278.459,576.558,278.459z"/>
		<path fill="#88206E" stroke="#7F3F98" stroke-width="3" stroke-miterlimit="10" d="M601.893,291.084h-1.335c-6.6,0-12-5.4-12-12
			v-1.249c0-6.6,5.4-12,12-12h1.335c6.6,0,12,5.4,12,12v1.249C613.893,285.684,608.493,291.084,601.893,291.084z"/>
		<path fill="#88206E" stroke="#7F3F98" stroke-width="3" stroke-miterlimit="10" d="M551.223,282.777h-1.335c-6.6,0-12-5.4-12-12
			v-1.249c0-6.6,5.4-12,12-12h1.335c6.6,0,12,5.4,12,12v1.249C563.223,277.377,557.823,282.777,551.223,282.777z"/>
		<path fill="#88206E" stroke="#7F3F98" stroke-width="3" stroke-miterlimit="10" d="M524.553,257.527h1.335c6.6,0,12,5.4,12,12
			v1.249c0,6.6-5.4,12-12,12h-1.335c-6.6,0-12-5.4-12-12v-1.249C512.553,262.927,517.953,257.527,524.553,257.527z"/>
		<path fill="#88206E" stroke="#7F3F98" stroke-width="3" stroke-miterlimit="10" d="M497.297,312.336l-1.334,0.054
			c-6.593,0.265-12.205-4.913-12.472-11.506l-0.05-1.248c-0.267-6.596,4.912-12.21,11.509-12.475l1.334-0.054
			c6.593-0.265,12.205,4.913,12.471,11.506l0.05,1.248C509.073,306.457,503.894,312.071,497.297,312.336z"/>
		<path fill="#88206E" stroke="#7F3F98" stroke-width="3" stroke-miterlimit="10" d="M483.802,292.112l-1.334,0.054
			c-6.593,0.265-12.205-4.913-12.471-11.506l-0.05-1.248c-0.267-6.596,4.912-12.21,11.509-12.475l1.334-0.054
			c6.593-0.265,12.205,4.913,12.471,11.506l0.05,1.248C495.578,286.233,490.399,291.847,483.802,292.112z"/>
		<path fill="#88206E" stroke="#7F3F98" stroke-width="3" stroke-miterlimit="10" d="M509.117,291.096l-1.334,0.054
			c-6.593,0.265-12.205-4.913-12.472-11.506l-0.05-1.248c-0.267-6.596,4.912-12.21,11.509-12.475l1.334-0.054
			c6.593-0.265,12.205,4.913,12.471,11.506l0.05,1.248C520.892,285.217,515.713,290.831,509.117,291.096z"/>
		<path fill="#88206E" stroke="#7F3F98" stroke-width="3" stroke-miterlimit="10" d="M501.755,278.417l-1.334,0.054
			c-6.593,0.265-12.205-4.913-12.471-11.506l-0.05-1.248c-0.267-6.596,4.912-12.21,11.509-12.475l1.334-0.054
			c6.593-0.265,12.205,4.913,12.472,11.506l0.05,1.248C513.531,272.539,508.352,278.153,501.755,278.417z"/>
		<path fill="#88206E" stroke="#7F3F98" stroke-width="3" stroke-miterlimit="10" d="M527.07,277.401l-1.334,0.054
			c-6.593,0.265-12.205-4.913-12.472-11.506l-0.05-1.248c-0.267-6.596,4.912-12.21,11.509-12.475l1.334-0.054
			c6.593-0.265,12.205,4.913,12.471,11.506l0.05,1.248C538.845,271.523,533.666,277.136,527.07,277.401z"/>
		<path fill="#88206E" stroke="#7F3F98" stroke-width="3" stroke-miterlimit="10" d="M508.32,271.374l-1.334,0.054
			c-6.593,0.265-12.205-4.913-12.472-11.506l-0.05-1.248c-0.267-6.596,4.912-12.21,11.509-12.475l1.334-0.054
			c6.593-0.265,12.205,4.913,12.471,11.506l0.05,1.248C520.095,265.496,514.916,271.109,508.32,271.374z"/>
		<path fill="#88206E" stroke="#7F3F98" stroke-width="3" stroke-miterlimit="10" d="M500.707,246.41l-1.334,0.054
			c-6.593,0.265-12.205-4.913-12.471-11.506l-0.05-1.248c-0.267-6.596,4.912-12.21,11.509-12.475l1.334-0.054
			c6.593-0.265,12.205,4.913,12.471,11.506l0.05,1.248C512.482,240.532,507.303,246.145,500.707,246.41z"/>
		<path fill="#88206E" stroke="#7F3F98" stroke-width="3" stroke-miterlimit="10" d="M526.531,258.008l-1.334,0.054
			c-6.593,0.265-12.205-4.913-12.471-11.506l-0.05-1.248c-0.267-6.596,4.912-12.21,11.509-12.475l1.334-0.054
			c6.593-0.265,12.205,4.913,12.471,11.506l0.05,1.248C538.306,252.13,533.127,257.744,526.531,258.008z"/>
		<path fill="#88206E" stroke="#7F3F98" stroke-width="3" stroke-miterlimit="10" d="M513.567,256.994l-1.334,0.054
			c-6.593,0.265-12.205-4.913-12.471-11.506l-0.05-1.248c-0.267-6.596,4.912-12.21,11.509-12.475l1.334-0.054
			c6.593-0.265,12.205,4.913,12.471,11.506l0.05,1.248C525.343,251.116,520.164,256.73,513.567,256.994z"/>
		<path fill="#88206E" stroke="#7F3F98" stroke-width="3" stroke-miterlimit="10" d="M485.906,232.835l1.334-0.054
			c6.593-0.265,12.205,4.913,12.472,11.506l0.05,1.248c0.267,6.596-4.912,12.21-11.509,12.475l-1.334,0.054
			c-6.593,0.265-12.205-4.913-12.471-11.506l-0.05-1.248C474.131,238.714,479.31,233.1,485.906,232.835z"/>
		<path fill="#88206E" stroke="#7F3F98" stroke-width="3" stroke-miterlimit="10" d="M545.154,306.321h-1.335c-6.6,0-12-5.4-12-12
			v-1.249c0-6.6,5.4-12,12-12h1.335c6.6,0,12,5.4,12,12v1.249C557.154,300.921,551.754,306.321,545.154,306.321z"/>
		<path fill="#88206E" stroke="#7F3F98" stroke-width="3" stroke-miterlimit="10" d="M519.819,314.123h-1.335c-6.6,0-12-5.4-12-12
			v-1.249c0-6.6,5.4-12,12-12h1.335c6.6,0,12,5.4,12,12v1.249C531.819,308.723,526.419,314.123,519.819,314.123z"/>
		<path fill="#88206E" stroke="#7F3F98" stroke-width="3" stroke-miterlimit="10" d="M557.822,285.572h-1.335c-6.6,0-12-5.4-12-12
			v-1.249c0-6.6,5.4-12,12-12h1.335c6.6,0,12,5.4,12,12v1.249C569.822,280.172,564.422,285.572,557.822,285.572z"/>
		<path fill="#88206E" stroke="#7F3F98" stroke-width="3" stroke-miterlimit="10" d="M513.221,265.835h-1.335c-6.6,0-12-5.4-12-12
			v-1.249c0-6.6,5.4-12,12-12h1.335c6.6,0,12,5.4,12,12v1.249C525.221,260.435,519.821,265.835,513.221,265.835z"/>
		<path fill="#88206E" stroke="#7F3F98" stroke-width="3" stroke-miterlimit="10" d="M538.556,265.835h-1.335c-6.6,0-12-5.4-12-12
			v-1.249c0-6.6,5.4-12,12-12h1.335c6.6,0,12,5.4,12,12v1.249C550.556,260.435,545.156,265.835,538.556,265.835z"/>
		<path fill="#88206E" stroke="#7F3F98" stroke-width="3" stroke-miterlimit="10" d="M557.822,265.835h-1.335c-6.6,0-12-5.4-12-12
			v-1.249c0-6.6,5.4-12,12-12h1.335c6.6,0,12,5.4,12,12v1.249C569.822,260.435,564.422,265.835,557.822,265.835z"/>
		<path fill="#88206E" stroke="#7F3F98" stroke-width="3" stroke-miterlimit="10" d="M551.223,240.586h-1.335c-6.6,0-12-5.4-12-12
			v-1.249c0-6.6,5.4-12,12-12h1.335c6.6,0,12,5.4,12,12v1.249C563.223,235.186,557.823,240.586,551.223,240.586z"/>
		<path fill="#88206E" stroke="#7F3F98" stroke-width="3" stroke-miterlimit="10" d="M576.558,253.21h-1.335c-6.6,0-12-5.4-12-12
			v-1.249c0-6.6,5.4-12,12-12h1.335c6.6,0,12,5.4,12,12v1.249C588.558,247.81,583.158,253.21,576.558,253.21z"/>
		<path fill="#88206E" stroke="#7F3F98" stroke-width="3" stroke-miterlimit="10" d="M525.888,244.903h-1.335c-6.6,0-12-5.4-12-12
			v-1.249c0-6.6,5.4-12,12-12h1.335c6.6,0,12,5.4,12,12v1.249C537.888,239.503,532.488,244.903,525.888,244.903z"/>
		<path fill="#88206E" stroke="#7F3F98" stroke-width="3" stroke-miterlimit="10" d="M499.218,219.654h1.335c6.6,0,12,5.4,12,12
			v1.249c0,6.6-5.4,12-12,12h-1.335c-6.6,0-12-5.4-12-12v-1.249C487.218,225.054,492.618,219.654,499.218,219.654z"/>
		<path fill="#88206E" stroke="#7F3F98" stroke-width="3" stroke-miterlimit="10" d="M602.423,303.02h-1.335c-6.6,0-12-5.4-12-12
			v-1.249c0-6.6,5.4-12,12-12h1.335c6.6,0,12,5.4,12,12v1.249C614.423,297.62,609.023,303.02,602.423,303.02z"/>
		<path fill="#88206E" stroke="#7F3F98" stroke-width="3" stroke-miterlimit="10" d="M589.755,282.271h-1.335c-6.6,0-12-5.4-12-12
			v-1.249c0-6.6,5.4-12,12-12h1.335c6.6,0,12,5.4,12,12v1.249C601.755,276.871,596.356,282.271,589.755,282.271z"/>
		<path fill="#88206E" stroke="#7F3F98" stroke-width="3" stroke-miterlimit="10" d="M615.09,282.271h-1.335c-6.6,0-12-5.4-12-12
			v-1.249c0-6.6,5.4-12,12-12h1.335c6.6,0,12,5.4,12,12v1.249C627.09,276.871,621.69,282.271,615.09,282.271z"/>
		<path fill="#88206E" stroke="#7F3F98" stroke-width="3" stroke-miterlimit="10" d="M570.489,262.533h-1.335c-6.6,0-12-5.4-12-12
			v-1.249c0-6.6,5.4-12,12-12h1.335c6.6,0,12,5.4,12,12v1.249C582.489,257.133,577.089,262.533,570.489,262.533z"/>
		<path fill="#88206E" stroke="#7F3F98" stroke-width="3" stroke-miterlimit="10" d="M595.824,262.533h-1.335c-6.6,0-12-5.4-12-12
			v-1.249c0-6.6,5.4-12,12-12h1.335c6.6,0,12,5.4,12,12v1.249C607.824,257.133,602.424,262.533,595.824,262.533z"/>
		<path fill="#88206E" stroke="#7F3F98" stroke-width="3" stroke-miterlimit="10" d="M615.09,262.533h-1.335c-6.6,0-12-5.4-12-12
			v-1.249c0-6.6,5.4-12,12-12h1.335c6.6,0,12,5.4,12,12v1.249C627.09,257.133,621.69,262.533,615.09,262.533z"/>
		<path fill="#88206E" stroke="#7F3F98" stroke-width="3" stroke-miterlimit="10" d="M608.492,237.284h-1.335c-6.6,0-12-5.4-12-12
			v-1.249c0-6.6,5.4-12,12-12h1.335c6.6,0,12,5.4,12,12v1.249C620.492,231.884,615.092,237.284,608.492,237.284z"/>
		<path fill="#88206E" stroke="#7F3F98" stroke-width="3" stroke-miterlimit="10" d="M556.019,214.404h-1.335c-6.6,0-12-5.4-12-12
			v-1.249c0-6.6,5.4-12,12-12h1.335c6.6,0,12,5.4,12,12v1.249C568.019,209.004,562.619,214.404,556.019,214.404z"/>
		<path fill="#88206E" stroke="#7F3F98" stroke-width="3" stroke-miterlimit="10" d="M583.157,241.602h-1.335c-6.6,0-12-5.4-12-12
			v-1.249c0-6.6,5.4-12,12-12h1.335c6.6,0,12,5.4,12,12v1.249C595.157,236.202,589.757,241.602,583.157,241.602z"/>
		<path fill="#88206E" stroke="#7F3F98" stroke-width="3" stroke-miterlimit="10" d="M556.487,216.352h1.335c6.6,0,12,5.4,12,12
			v1.249c0,6.6-5.4,12-12,12h-1.335c-6.6,0-12-5.4-12-12v-1.249C544.487,221.752,549.887,216.352,556.487,216.352z"/>
		<path fill="#88206E" stroke="#7F3F98" stroke-width="3" stroke-miterlimit="10" d="M468.506,285.257h-1.335c-6.6,0-12-5.4-12-12
			v-1.249c0-6.6,5.4-12,12-12h1.335c6.6,0,12,5.4,12,12v1.249C480.506,279.857,475.106,285.257,468.506,285.257z"/>
		<path fill="#88206E" stroke="#7F3F98" stroke-width="3" stroke-miterlimit="10" d="M494.671,272.953h-1.335c-6.6,0-12-5.4-12-12
			v-1.249c0-6.6,5.4-12,12-12h1.335c6.6,0,12,5.4,12,12v1.249C506.671,267.553,501.271,272.953,494.671,272.953z"/>
		<path fill="#88206E" stroke="#7F3F98" stroke-width="3" stroke-miterlimit="10" d="M538.556,295.584h-1.335c-6.6,0-12-5.4-12-12
			v-1.249c0-6.6,5.4-12,12-12h1.335c6.6,0,12,5.4,12,12v1.249C550.556,290.184,545.156,295.584,538.556,295.584z"/>
		<path fill="#88206E" stroke="#7F3F98" stroke-width="3" stroke-miterlimit="10" d="M474.573,250.024h-1.335c-6.6,0-12-5.4-12-12
			v-1.249c0-6.6,5.4-12,12-12h1.335c6.6,0,12,5.4,12,12v1.249C486.573,244.624,481.173,250.024,474.573,250.024z"/>
		<path fill="#88206E" stroke="#7F3F98" stroke-width="3" stroke-miterlimit="10" d="M500.74,253.215h-1.335c-6.6,0-12-5.4-12-12
			v-1.249c0-6.6,5.4-12,12-12h1.335c6.6,0,12,5.4,12,12v1.249C512.74,247.815,507.34,253.215,500.74,253.215z"/>
		<path fill="#88206E" stroke="#7F3F98" stroke-width="3" stroke-miterlimit="10" d="M520.006,253.215h-1.335c-6.6,0-12-5.4-12-12
			v-1.249c0-6.6,5.4-12,12-12h1.335c6.6,0,12,5.4,12,12v1.249C532.006,247.815,526.606,253.215,520.006,253.215z"/>
		<path fill="#88206E" stroke="#7F3F98" stroke-width="3" stroke-miterlimit="10" d="M459.834,240.416L459.834,240.416
			c-5.4-4.388-6.216-12.381-1.814-17.762v0c4.402-5.382,12.423-6.195,17.822-1.807l0,0c5.4,4.388,6.216,12.38,1.814,17.762l0,0
			C473.254,243.991,465.234,244.804,459.834,240.416z"/>
		<path fill="#88206E" stroke="#7F3F98" stroke-width="3" stroke-miterlimit="10" d="M500.741,235.336h-1.335c-6.6,0-12-5.4-12-12
			v-1.249c0-6.6,5.4-12,12-12h1.335c6.6,0,12,5.4,12,12v1.249C512.741,229.936,507.341,235.336,500.741,235.336z"/>
		<path fill="#88206E" stroke="#7F3F98" stroke-width="3" stroke-miterlimit="10" d="M480.814,230.717h-1.335c-6.6,0-12-5.4-12-12
			v-1.249c0-6.6,5.4-12,12-12h1.335c6.6,0,12,5.4,12,12v1.249C492.814,225.317,487.414,230.717,480.814,230.717z"/>
		<path fill="#88206E" stroke="#7F3F98" stroke-width="3" stroke-miterlimit="10" d="M473.052,249.331h1.335c6.6,0,12,5.4,12,12
			v1.249c0,6.6-5.4,12-12,12h-1.335c-6.6,0-12-5.4-12-12v-1.249C461.052,254.731,466.452,249.331,473.052,249.331z"/>
		<path fill="#88206E" stroke="#7F3F98" stroke-width="3" stroke-miterlimit="10" d="M532.487,336.576h-1.335c-6.6,0-12-5.4-12-12
			v-1.249c0-6.6,5.4-12,12-12h1.335c6.6,0,12,5.4,12,12v1.249C544.487,331.176,539.087,336.576,532.487,336.576z"/>
		<path fill="#88206E" stroke="#7F3F98" stroke-width="3" stroke-miterlimit="10" d="M518.016,263.079h-1.335c-6.6,0-12-5.4-12-12
			v-1.249c0-6.6,5.4-12,12-12h1.335c6.6,0,12,5.4,12,12v1.249C530.016,257.679,524.616,263.079,518.016,263.079z"/>
		<path fill="#88206E" stroke="#7F3F98" stroke-width="3" stroke-miterlimit="10" d="M543.351,263.079h-1.335c-6.6,0-12-5.4-12-12
			v-1.249c0-6.6,5.4-12,12-12h1.335c6.6,0,12,5.4,12,12v1.249C555.351,257.679,549.951,263.079,543.351,263.079z"/>
		<path fill="#88206E" stroke="#7F3F98" stroke-width="3" stroke-miterlimit="10" d="M496.635,226.688L496.635,226.688
			c4.773,5.059,4.525,13.089-0.551,17.845l0,0c-5.076,4.756-13.133,4.509-17.906-0.549v0c-4.773-5.059-4.524-13.089,0.551-17.845
			l0,0C483.805,221.383,491.862,221.63,496.635,226.688z"/>
		<path fill="#88206E" stroke="#7F3F98" stroke-width="3" stroke-miterlimit="10" d="M524.085,243.342h-1.335c-6.6,0-12-5.4-12-12
			v-1.249c0-6.6,5.4-12,12-12h1.335c6.6,0,12,5.4,12,12v1.249C536.085,237.942,530.685,243.342,524.085,243.342z"/>
		<path fill="#88206E" stroke="#7F3F98" stroke-width="3" stroke-miterlimit="10" d="M543.351,243.342h-1.335c-6.6,0-12-5.4-12-12
			v-1.249c0-6.6,5.4-12,12-12h1.335c6.6,0,12,5.4,12,12v1.249C555.351,237.942,549.951,243.342,543.351,243.342z"/>
		<path fill="#88206E" stroke="#7F3F98" stroke-width="3" stroke-miterlimit="10" d="M536.752,218.092h-1.335c-6.6,0-12-5.4-12-12
			v-1.249c0-6.6,5.4-12,12-12h1.335c6.6,0,12,5.4,12,12v1.249C548.752,212.692,543.352,218.092,536.752,218.092z"/>
		<path fill="#88206E" stroke="#7F3F98" stroke-width="3" stroke-miterlimit="10" d="M562.087,230.717h-1.335c-6.6,0-12-5.4-12-12
			v-1.249c0-6.6,5.4-12,12-12h1.335c6.6,0,12,5.4,12,12v1.249C574.087,225.317,568.687,230.717,562.087,230.717z"/>
		<path fill="#88206E" stroke="#7F3F98" stroke-width="3" stroke-miterlimit="10" d="M511.417,222.41h-1.335c-6.6,0-12-5.4-12-12
			v-1.249c0-6.6,5.4-12,12-12h1.335c6.6,0,12,5.4,12,12v1.249C523.417,217.01,518.017,222.41,511.417,222.41z"/>
		<path fill="#88206E" stroke="#7F3F98" stroke-width="3" stroke-miterlimit="10" d="M460.572,244.513h1.335c6.6,0,12,5.4,12,12
			v1.249c0,6.6-5.4,12-12,12h-1.335c-6.6,0-12-5.4-12-12v-1.249C448.572,249.913,453.972,244.513,460.572,244.513z"/>
		<path fill="#88206E" stroke="#7F3F98" stroke-width="3" stroke-miterlimit="10" d="M562.617,274.469h-1.335c-6.6,0-12-5.4-12-12
			v-1.249c0-6.6,5.4-12,12-12h1.335c6.6,0,12,5.4,12,12v1.249C574.617,269.069,569.217,274.469,562.617,274.469z"/>
		<path fill="#88206E" stroke="#7F3F98" stroke-width="3" stroke-miterlimit="10" d="M549.95,253.72h-1.335c-6.6,0-12-5.4-12-12
			v-1.249c0-6.6,5.4-12,12-12h1.335c6.6,0,12,5.4,12,12v1.249C561.95,248.32,556.55,253.72,549.95,253.72z"/>
		<path fill="#88206E" stroke="#7F3F98" stroke-width="3" stroke-miterlimit="10" d="M595.824,249.909h-1.335c-6.6,0-12-5.4-12-12
			v-1.249c0-6.6,5.4-12,12-12h1.335c6.6,0,12,5.4,12,12v1.249C607.824,244.509,602.424,249.909,595.824,249.909z"/>
		<path fill="#88206E" stroke="#7F3F98" stroke-width="3" stroke-miterlimit="10" d="M530.684,233.983h-1.335c-6.6,0-12-5.4-12-12
			v-1.249c0-6.6,5.4-12,12-12h1.335c6.6,0,12,5.4,12,12v1.249C542.684,228.583,537.284,233.983,530.684,233.983z"/>
		<path fill="#88206E" stroke="#7F3F98" stroke-width="3" stroke-miterlimit="10" d="M556.019,233.983h-1.335c-6.6,0-12-5.4-12-12
			v-1.249c0-6.6,5.4-12,12-12h1.335c6.6,0,12,5.4,12,12v1.249C568.019,228.583,562.619,233.983,556.019,233.983z"/>
		<path fill="#88206E" stroke="#7F3F98" stroke-width="3" stroke-miterlimit="10" d="M575.285,233.983h-1.335c-6.6,0-12-5.4-12-12
			v-1.249c0-6.6,5.4-12,12-12h1.335c6.6,0,12,5.4,12,12v1.249C587.285,228.583,581.885,233.983,575.285,233.983z"/>
		<path fill="#88206E" stroke="#7F3F98" stroke-width="3" stroke-miterlimit="10" d="M575.285,214.404h-1.335c-6.6,0-12-5.4-12-12
			v-1.249c0-6.6,5.4-12,12-12h1.335c6.6,0,12,5.4,12,12v1.249C587.285,209.004,581.885,214.404,575.285,214.404z"/>
		<path fill="#88206E" stroke="#7F3F98" stroke-width="3" stroke-miterlimit="10" d="M594.021,221.358h-1.335c-6.6,0-12-5.4-12-12
			v-1.249c0-6.6,5.4-12,12-12h1.335c6.6,0,12,5.4,12,12v1.249C606.021,215.958,600.621,221.358,594.021,221.358z"/>
		<path fill="#88206E" stroke="#7F3F98" stroke-width="3" stroke-miterlimit="10" d="M557.822,331.57h-1.335c-6.6,0-12-5.4-12-12
			v-1.249c0-6.6,5.4-12,12-12h1.335c6.6,0,12,5.4,12,12v1.249C569.822,326.17,564.422,331.57,557.822,331.57z"/>
		<path fill="#88206E" stroke="#7F3F98" stroke-width="3" stroke-miterlimit="10" d="M516.681,187.802h1.335c6.6,0,12,5.4,12,12
			v1.249c0,6.6-5.4,12-12,12h-1.335c-6.6,0-12-5.4-12-12v-1.249C504.681,193.202,510.081,187.802,516.681,187.802z"/>
		<line fill="none" stroke="#754C29" stroke-width="6" stroke-miterlimit="10" x1="533.592" y1="191.44" x2="526.44" y2="140.896"/>
		<path fill="#FFDE17" stroke="#FFF200" stroke-width="3" stroke-miterlimit="10" d="M759.809,698.565h-63.257
			c-35.616,0-64.756-29.14-64.756-64.756V495.892c0-35.616,29.14-64.756,64.756-64.756h63.257c35.616,0,64.756,29.14,64.756,64.756
			v137.917C824.565,669.425,795.425,698.565,759.809,698.565z"/>
		
			<line fill="#009444" stroke="#009444" stroke-width="17" stroke-miterlimit="10" x1="721.589" y1="437.024" x2="790.9" y2="380.364"/>
		
			<line fill="#009444" stroke="#009444" stroke-width="17" stroke-miterlimit="10" x1="730.006" y1="411.915" x2="785.781" y2="341.392"/>
		
			<line fill="#009444" stroke="#009444" stroke-width="17" stroke-miterlimit="10" x1="731.843" y1="400.544" x2="762.241" y2="318.686"/>
		
			<line fill="#009444" stroke="#009444" stroke-width="17" stroke-miterlimit="10" x1="662.006" y1="372.24" x2="727.068" y2="430.215"/>
		
			<line fill="#009444" stroke="#009444" stroke-width="17" stroke-miterlimit="10" x1="670.331" y1="336.576" x2="735.603" y2="416.731"/>
		
			<line fill="#009444" stroke="#009444" stroke-width="17" stroke-miterlimit="10" x1="688.256" y1="314.123" x2="733.621" y2="392.302"/>
	</g>
</g>
<g>
</g>
<g>
</g>
<g>
</g>
<g>
</g>
<g>
</g>
<g>
</g>
</svg>
