<?xml version="1.0" encoding="utf-8"?>
<!-- Generator: Adobe Illustrator 27.7.0, SVG Export Plug-In . SVG Version: 6.00 Build 0)  -->
<svg version="1.1" id="Layer_1" xmlns="http://www.w3.org/2000/svg" xmlns:xlink="http://www.w3.org/1999/xlink" x="0px" y="0px"
	 width="1000px" height="1000px" viewBox="0 0 1000 1000" enable-background="new 0 0 1000 1000" xml:space="preserve">
<g opacity="0.75">
	<path fill="#82D1F4" d="M874.777,787.603h-765.8c-6.6,0-12-5.4-12-12V57.732c0-6.6,5.4-12,12-12h765.8c6.6,0,12,5.4,12,12v717.871
		C886.777,782.203,881.377,787.603,874.777,787.603z"/>
</g>
<rect x="112.567" y="820.654" fill="none" width="774.783" height="120"/>
<path fill="#C0DEA7" d="M263.58,185.445c-1.753-0.298-3.447-0.666-5.063-1.095c0.578-0.155,1.169-0.298,1.765-0.433
	C261.439,184.402,262.542,184.913,263.58,185.445z"/>
<path fill="#C0DEA7" d="M313.859,183.992c-0.514,0.477-1.028,0.965-1.521,1.474c-0.319-0.13-0.648-0.271-0.966-0.401
	C312.214,184.718,313.047,184.36,313.859,183.992z"/>
<path fill="#E9BBBD" d="M275.58,618.254h14.441c6.6,0,12-5.4,12-12V259.32c0-6.6-5.4-12-12-12H275.58c-6.6,0-12,5.4-12,12v346.935
	C263.58,612.854,268.98,618.254,275.58,618.254z"/>
<path fill="#FFFFFF" d="M283.171,333.918h-0.742c-6.6,0-12-5.4-12-12v-56.412c0-6.6,5.4-12,12-12h0.742c6.6,0,12,5.4,12,12v56.412
	C295.171,328.518,289.771,333.918,283.171,333.918z"/>
<path fill="#FFFFFF" d="M369.553,609.116L332.872,342.09c-0.594-4.321,2.764-8.172,7.126-8.172h73.361
	c4.362,0,7.72,3.851,7.126,8.172l-36.681,267.026C382.667,617.401,370.691,617.401,369.553,609.116z"/>
<path fill="#FFFFFF" d="M382.978,338.041H370.38c-6.6,0-12-5.4-12-12v-33.106c0-6.6,5.4-12,12-12h12.598c6.6,0,12,5.4,12,12v33.106
	C394.978,332.641,389.578,338.041,382.978,338.041z"/>
<path fill="#EAF6F7" d="M534.713,582.635l83.918,66.197c9.009,7.106,22.193,5.55,29.299-3.459l157.906-200.178
	c7.106-9.009,5.55-22.193-3.459-29.299l-83.918-66.197c-9.009-7.106-22.193-5.55-29.299,3.459L531.254,553.335
	C524.148,562.344,525.704,575.529,534.713,582.635z"/>
<path fill="#EAF6F7" d="M794.972,398.276l-57.653-45.478c-5.903-4.657-6.923-13.297-2.267-19.2l25.526-32.359
	c4.657-5.903,13.297-6.923,19.2-2.267l57.653,45.478c5.903,4.657,6.923,13.297,2.266,19.2l-25.526,32.359
	C809.516,401.913,800.876,402.933,794.972,398.276z"/>
<line stroke="#0095A3" stroke-width="0.75" stroke-miterlimit="10" x1="334.346" y1="352.817" x2="419.028" y2="352.7"/>
<line fill="none" stroke="#0095A3" stroke-width="0.75" stroke-miterlimit="10" x1="337.136" y1="373.13" x2="416.258" y2="372.866"/>
<line fill="#D9E8E9" stroke="#0095A3" stroke-width="0.75" stroke-miterlimit="10" x1="339.659" y1="390.936" x2="413.862" y2="390.936"/>
<line fill="#0095A3" stroke="#D3E8EA" stroke-width="0.75" stroke-miterlimit="10" x1="361.762" y1="284.617" x2="362.055" y2="334.663"/>
<line fill="none" stroke="#D3E8EA" stroke-width="0.75" stroke-miterlimit="10" x1="366.345" y1="281.639" x2="366.315" y2="337.327"/>
<line fill="none" stroke="#D3E8EA" stroke-width="0.75" stroke-miterlimit="10" x1="370.38" y1="280.935" x2="370.38" y2="338.041"/>
<line fill="none" stroke="#D3E8EA" stroke-width="0.75" stroke-miterlimit="10" x1="374.783" y1="280.935" x2="374.45" y2="338.041"/>
<line fill="none" stroke="#D3E8EA" stroke-width="0.75" stroke-miterlimit="10" x1="378.94" y1="280.934" x2="378.94" y2="338.042"/>
<line fill="none" stroke="#D3E8EA" stroke-width="0.75" stroke-miterlimit="10" x1="382.978" y1="280.935" x2="382.978" y2="338.041"/>
<line fill="none" stroke="#D3E8EA" stroke-width="0.75" stroke-miterlimit="10" x1="387.377" y1="281.779" x2="386.923" y2="337.368"/>
<line fill="none" stroke="#D3E8EA" stroke-width="0.75" stroke-miterlimit="10" x1="392.002" y1="285.063" x2="391.997" y2="333.918"/>
<path opacity="0.75" fill="#D3E8EA" d="M278.013,263.985c-3.217,0-3.223,5,0,5C281.231,268.985,281.236,263.985,278.013,263.985z"/>
<path opacity="0.75" fill="#D3E8EA" d="M287.325,263.985c-3.217,0-3.223,5,0,5C290.542,268.985,290.547,263.985,287.325,263.985z"/>
<path opacity="0.75" fill="#D3E8EA" d="M278.145,273.579c-3.217,0-3.223,5,0,5C281.362,278.579,281.367,273.579,278.145,273.579z"/>
<path opacity="0.75" fill="#D3E8EA" d="M287.456,273.579c-3.217,0-3.223,5,0,5C290.673,278.579,290.678,273.579,287.456,273.579z"/>
<path opacity="0.75" fill="#D3E8EA" d="M278.145,283.174c-3.217,0-3.223,5,0,5C281.362,288.174,281.367,283.174,278.145,283.174z"/>
<path opacity="0.75" fill="#D3E8EA" d="M287.456,283.174c-3.217,0-3.223,5,0,5C290.673,288.174,290.678,283.174,287.456,283.174z"/>
<path opacity="0.75" fill="#D3E8EA" d="M278.145,292.768c-3.217,0-3.223,5,0,5C281.362,297.768,281.367,292.768,278.145,292.768z"/>
<path opacity="0.75" fill="#D3E8EA" d="M287.456,292.768c-3.217,0-3.223,5,0,5C290.673,297.768,290.678,292.768,287.456,292.768z"/>
<path opacity="0.75" fill="#D3E8EA" d="M278.145,302.362c-3.217,0-3.223,5,0,5C281.362,307.362,281.367,302.362,278.145,302.362z"/>
<path opacity="0.75" fill="#D3E8EA" d="M287.456,302.362c-3.217,0-3.223,5,0,5C290.673,307.362,290.678,302.362,287.456,302.362z"/>
<path opacity="0.75" fill="#D3E8EA" d="M278.145,311.956c-3.217,0-3.223,5,0,5C281.362,316.956,281.367,311.956,278.145,311.956z"/>
<path opacity="0.75" fill="#D3E8EA" d="M287.456,311.956c-3.217,0-3.223,5,0,5C290.673,316.956,290.678,311.956,287.456,311.956z"/>
<path opacity="0.75" fill="#D3E8EA" d="M278.145,321.551c-3.217,0-3.223,5,0,5C281.362,326.551,281.367,321.551,278.145,321.551z"/>
<path opacity="0.75" fill="#D3E8EA" d="M287.456,321.551c-3.217,0-3.223,5,0,5C290.673,326.551,290.678,321.551,287.456,321.551z"/>
<line fill="#B3D8DE" stroke="#41A2AE" stroke-width="2" stroke-miterlimit="10" x1="718.459" y1="349.699" x2="529.856" y2="580.858"/>
<line fill="#B3D8DE" stroke="#41A2AE" stroke-width="2" stroke-miterlimit="10" x1="733.046" y1="361.205" x2="546.163" y2="590.943"/>
<line fill="#B3D8DE" stroke="#41A2AE" stroke-width="2" stroke-miterlimit="10" x1="746.747" y1="372.013" x2="560.729" y2="602.874"/>
<line fill="#B3D8DE" stroke="#41A2AE" stroke-width="2" stroke-miterlimit="10" x1="780.137" y1="474.913" x2="707.188" y2="421.109"/>
<line fill="#B3D8DE" stroke="#41A2AE" stroke-width="2" stroke-miterlimit="10" x1="764.968" y1="495.48" x2="692.018" y2="441.676"/>
<line fill="#B3D8DE" stroke="#41A2AE" stroke-width="2" stroke-miterlimit="10" x1="797.793" y1="454.607" x2="724.844" y2="400.803"/>
<line fill="#B3D8DE" stroke="#41A2AE" stroke-width="2" stroke-miterlimit="10" x1="733.207" y1="535.486" x2="658.2" y2="480.024"/>
<line fill="#B3D8DE" stroke="#41A2AE" stroke-width="2" stroke-miterlimit="10" x1="718.062" y1="556.073" x2="643.055" y2="500.611"/>
<line fill="#B3D8DE" stroke="#41A2AE" stroke-width="2" stroke-miterlimit="10" x1="750.886" y1="515.198" x2="675.879" y2="459.736"/>
<line fill="#B3D8DE" stroke="#41A2AE" stroke-width="2" stroke-miterlimit="10" x1="810.21" y1="434.159" x2="740.495" y2="382.741"/>
<line fill="#B3D8DE" stroke="#41A2AE" stroke-width="2" stroke-miterlimit="10" x1="659.243" y1="512.58" x2="576.035" y2="614.869"/>
<line fill="#B3D8DE" stroke="#41A2AE" stroke-width="2" stroke-miterlimit="10" x1="677.257" y1="524.695" x2="594.05" y2="626.984"/>
<line fill="#B3D8DE" stroke="#41A2AE" stroke-width="2" stroke-miterlimit="10" x1="696.805" y1="540.597" x2="613.598" y2="642.885"/>
<g>
	<path fill="#82D1F4" d="M323.353,853.644c5.497-1.08,13.367-1.68,20.862-1.68c11.618,0,19.113,2.04,24.36,6.6
		c4.247,3.6,6.621,9.12,6.621,15.359c0,10.68-6.996,17.759-15.865,20.64v0.359c6.496,2.16,10.369,7.92,12.368,16.319
		c2.748,11.279,4.747,19.079,6.496,22.199h-11.243c-1.375-2.28-3.248-9.239-5.622-19.319c-2.499-11.159-6.996-15.359-16.865-15.719
		h-10.244v35.038h-10.869V853.644z M334.222,890.482h11.118c11.618,0,18.988-6.12,18.988-15.359c0-10.439-7.87-15-19.363-15.119
		c-5.247,0-8.995,0.479-10.743,0.959V890.482z"/>
	<path fill="#82D1F4" d="M440.781,917.602c0,5.999,0.125,11.279,0.5,15.839h-9.744l-0.625-9.479h-0.25
		c-2.873,4.68-9.244,10.8-19.988,10.8c-9.494,0-20.862-5.04-20.862-25.439v-33.958h10.993v32.158
		c0,11.039,3.498,18.479,13.492,18.479c7.371,0,12.493-4.92,14.491-9.6c0.625-1.561,1-3.48,1-5.4v-35.638h10.993V917.602z
		 M433.286,850.284l-15.241,17.159h-7.87l10.993-17.159H433.286z"/>
	<path fill="#82D1F4" d="M472.261,858.684v16.68h15.74v8.039h-15.74v31.318c0,7.2,2.124,11.28,8.245,11.28
		c2.873,0,4.997-0.36,6.371-0.72l0.5,7.919c-2.124,0.84-5.497,1.44-9.744,1.44c-5.122,0-9.244-1.561-11.868-4.44
		c-3.123-3.119-4.248-8.279-4.248-15.119v-31.679h-9.369v-8.039h9.369v-13.92L472.261,858.684z"/>
	<path fill="#82D1F4" d="M522.729,850.284l-15.24,17.159h-7.87l10.993-17.159H522.729z M500.369,933.44v-58.077h10.993v58.077
		H500.369z"/>
	<path fill="#82D1F4" d="M529.6,891.082c0-6-0.125-10.92-0.5-15.719h9.744l0.625,9.6h0.249c2.999-5.521,9.994-10.92,19.988-10.92
		c8.37,0,21.362,4.8,21.362,24.719v34.679h-10.994v-33.479c0-9.359-3.622-17.159-13.991-17.159c-7.245,0-12.867,4.92-14.741,10.799
		c-0.499,1.32-0.749,3.12-0.749,4.92v34.919H529.6V891.082z"/>
	<path fill="#82D1F4" d="M632.411,933.44l-0.874-7.319h-0.375c-3.373,4.56-9.869,8.64-18.488,8.64
		c-12.243,0-18.489-8.28-18.489-16.68c0-14.039,12.992-21.719,36.354-21.599v-1.2c0-4.8-1.375-13.439-13.742-13.439
		c-5.621,0-11.493,1.68-15.74,4.319l-2.498-6.959c4.996-3.12,12.242-5.16,19.862-5.16c18.489,0,22.986,12.119,22.986,23.759v21.72
		c0,5.039,0.25,9.959,0.999,13.919H632.411z M630.787,903.802c-11.992-0.24-25.609,1.8-25.609,13.079
		c0,6.84,4.747,10.08,10.369,10.08c7.87,0,12.867-4.8,14.616-9.72c0.375-1.08,0.624-2.28,0.624-3.36V903.802z"/>
</g>
<g>
</g>
<g>
</g>
<g>
</g>
<g>
</g>
<g>
</g>
<g>
</g>
</svg>
