<?xml version="1.0" encoding="utf-8"?>
<!-- Generator: Adobe Illustrator 27.9.0, SVG Export Plug-In . SVG Version: 6.00 Build 0)  -->
<svg version="1.1" id="Layer_1" xmlns="http://www.w3.org/2000/svg" xmlns:xlink="http://www.w3.org/1999/xlink" x="0px" y="0px"
	 width="1000px" height="1000px" viewBox="0 0 1000 1000" enable-background="new 0 0 1000 1000" xml:space="preserve">
<g id="yellow_x5F_box">
	<g id="yellow_x5F_backround">
		<g>
			<path fill="#FFE37C" d="M169.732,392.845c0,4.767,3.93,8.631,8.779,8.631h308.228c4.848,0,8.779-3.864,8.779-8.631V117.611
				c0-4.767-3.93-8.631-8.779-8.631H178.51c-4.848,0-8.779,3.864-8.779,8.631v275.234H169.732z"/>
		</g>
	</g>
	<g id="Yellow_x5F_outline" display="none">
		<g display="inline">
			<path fill="#FFE37C" d="M486.738,401.955H178.51c-5.109,0-9.266-4.087-9.266-9.111V117.611c0-5.024,4.157-9.111,9.266-9.111
				h308.228c5.109,0,9.266,4.087,9.266,9.111v275.234C496.004,397.868,491.847,401.955,486.738,401.955z M178.51,109.459
				c-4.572,0-8.291,3.657-8.291,8.152v275.234c0,4.495,3.719,8.152,8.291,8.152h308.228c4.571,0,8.291-3.657,8.291-8.152V117.611
				c0-4.495-3.72-8.152-8.291-8.152H178.51z"/>
		</g>
	</g>
</g>
<g id="pink_x5F_box">
	<g id="pink_x5F_backround">
		<g>
			<path fill="#F8ADD2" d="M521.852,439.936c0,4.767,3.93,8.631,8.779,8.631h308.228c4.848,0,8.779-3.864,8.779-8.631V117.611
				c0-4.767-3.93-8.631-8.779-8.631H530.631c-4.848,0-8.779,3.864-8.779,8.631V439.936z"/>
		</g>
	</g>
	<g id="pink_x5F_outline" display="none">
		<g display="inline">
			<path fill="#F8ADD2" d="M838.859,449.047H530.631c-5.109,0-9.266-4.087-9.266-9.111V117.611c0-5.024,4.157-9.111,9.266-9.111
				h308.228c5.109,0,9.266,4.087,9.266,9.111v322.326C848.125,444.96,843.968,449.047,838.859,449.047z M530.631,109.459
				c-4.571,0-8.291,3.657-8.291,8.152v322.326c0,4.495,3.72,8.152,8.291,8.152h308.228c4.571,0,8.291-3.657,8.291-8.152V117.611
				c0-4.495-3.72-8.152-8.291-8.152H530.631z"/>
		</g>
	</g>
</g>
<g id="blue_x5F_box">
	<g id="Blue">
		<g>
			<path fill="#7BD3FC" d="M521.852,750.073c0,4.767,3.93,8.631,8.779,8.631h308.228c4.848,0,8.779-3.864,8.779-8.631V474.839
				c0-4.767-3.93-8.631-8.779-8.631H530.631c-4.848,0-8.779,3.864-8.779,8.631V750.073z"/>
		</g>
	</g>
	<g id="Blue_x5F_outline" display="none">
		<g display="inline">
			<path fill="#7BD3FC" d="M838.859,759.184H530.631c-5.109,0-9.266-4.087-9.266-9.111V474.839c0-5.024,4.157-9.111,9.266-9.111
				h308.228c5.109,0,9.266,4.087,9.266,9.111v275.234C848.125,755.097,843.968,759.184,838.859,759.184z M530.631,466.688
				c-4.571,0-8.291,3.657-8.291,8.152v275.234c0,4.494,3.72,8.152,8.291,8.152h308.228c4.571,0,8.291-3.657,8.291-8.152V474.839
				c0-4.495-3.72-8.152-8.291-8.152H530.631V466.688z"/>
		</g>
	</g>
</g>
<g id="green_x5F_box">
	<g id="green_x5F_backround">
		<rect x="169.488" y="422.574" fill="#BCE3A9" width="326.273" height="336.61"/>
	</g>
	<g id="green_x5F_outline">
		<path fill="#BCE3A9" d="M496.248,759.663H169V422.094h327.248V759.663z M169.975,758.704h325.297V423.053H169.975V758.704z"/>
	</g>
</g>
<g>
	<rect x="84.539" y="837.07" fill="none" width="874.625" height="231.198"/>
	<path fill="#BCE3A9" d="M148.986,881.89l-6.3,19.079h-8.1l20.609-60.657h9.45l20.699,60.657h-8.37l-6.48-19.079H148.986z
		 M168.875,875.77l-5.94-17.459c-1.35-3.96-2.25-7.56-3.15-11.069h-0.18c-0.9,3.6-1.89,7.29-3.06,10.979l-5.94,17.549H168.875z
		 M173.195,826.542l-11.43,10.529h-6.479l8.37-10.529H173.195z"/>
	<path fill="#BCE3A9" d="M195.156,857.411l8.55,24.479c1.44,3.96,2.61,7.56,3.51,11.159h0.27c0.99-3.6,2.25-7.199,3.69-11.159
		l8.459-24.479h8.28l-17.099,43.558h-7.56l-16.56-43.558H195.156z"/>
	<path fill="#BCE3A9" d="M238.896,880.63c0.18,10.71,7.02,15.119,14.939,15.119c5.67,0,9.09-0.99,12.06-2.25l1.35,5.67
		c-2.79,1.26-7.56,2.7-14.49,2.7c-13.409,0-21.419-8.82-21.419-21.959c0-13.14,7.74-23.489,20.429-23.489
		c14.219,0,17.999,12.51,17.999,20.52c0,1.619-0.18,2.88-0.27,3.689H238.896z M262.115,874.96c0.09-5.04-2.07-12.869-10.979-12.869
		c-8.01,0-11.52,7.38-12.15,12.869H262.115z"/>
	<path fill="#BCE3A9" d="M282.997,857.411l6.209,9.359c1.62,2.43,2.97,4.68,4.41,7.109h0.27c1.44-2.609,2.88-4.859,4.32-7.199
		l6.12-9.27h8.549l-14.849,21.059l15.299,22.499h-9l-6.39-9.81c-1.71-2.52-3.15-4.949-4.68-7.56h-0.18
		c-1.44,2.61-2.97,4.95-4.59,7.56l-6.3,9.81h-8.73l15.479-22.229l-14.759-21.329H282.997z"/>
	<path fill="#BCE3A9" d="M331.685,844.901v12.51h11.339v6.029h-11.339v23.489c0,5.399,1.53,8.46,5.94,8.46
		c2.07,0,3.6-0.271,4.59-0.54l0.36,5.939c-1.53,0.63-3.96,1.08-7.02,1.08c-3.689,0-6.66-1.17-8.549-3.33
		c-2.25-2.34-3.06-6.21-3.06-11.34V863.44h-6.75v-6.029h6.75v-10.44L331.685,844.901z"/>
	<path fill="#BCE3A9" d="M360.754,845.171c0.09,2.7-1.89,4.86-5.04,4.86c-2.79,0-4.77-2.16-4.77-4.86c0-2.789,2.07-4.949,4.95-4.949
		C358.864,840.222,360.754,842.382,360.754,845.171z M351.935,900.969v-43.558h7.919v43.558H351.935z"/>
	<path fill="#BCE3A9" d="M372.994,871c0-5.13-0.09-9.539-0.36-13.589h6.93l0.27,8.549h0.36c1.98-5.85,6.75-9.539,12.06-9.539
		c0.9,0,1.53,0.09,2.25,0.27v7.47c-0.81-0.18-1.62-0.27-2.7-0.27c-5.58,0-9.54,4.229-10.62,10.17c-0.18,1.079-0.36,2.34-0.36,3.689
		v23.219h-7.83V871z"/>
	<path fill="#BCE3A9" d="M460.921,878.83c0,16.109-11.16,23.129-21.689,23.129c-11.789,0-20.879-8.64-20.879-22.409
		c0-14.579,9.54-23.129,21.599-23.129C452.461,856.421,460.921,865.511,460.921,878.83z M426.363,879.28
		c0,9.539,5.489,16.739,13.229,16.739c7.56,0,13.229-7.11,13.229-16.92c0-7.38-3.69-16.739-13.05-16.739S426.363,871,426.363,879.28
		z"/>
	<path fill="#BCE3A9" d="M508.44,857.411c-0.181,3.149-0.36,6.659-0.36,11.969v25.289c0,9.99-1.98,16.109-6.21,19.89
		c-4.229,3.96-10.349,5.22-15.838,5.22c-5.22,0-10.979-1.26-14.49-3.6l1.98-6.03c2.88,1.8,7.38,3.42,12.779,3.42
		c8.1,0,14.039-4.229,14.039-15.209v-4.86h-0.18c-2.429,4.05-7.109,7.29-13.859,7.29c-10.8,0-18.539-9.18-18.539-21.239
		c0-14.76,9.63-23.129,19.619-23.129c7.56,0,11.699,3.96,13.589,7.56h0.18l0.36-6.569H508.44z M500.25,874.6
		c0-1.35-0.09-2.52-0.449-3.6c-1.44-4.59-5.311-8.369-11.07-8.369c-7.56,0-12.959,6.39-12.959,16.469
		c0,8.55,4.319,15.659,12.869,15.659c4.86,0,9.27-3.06,10.979-8.1c0.45-1.35,0.629-2.88,0.629-4.229V874.6z"/>
	<path fill="#BCE3A9" d="M586.738,898.27c-3.51,1.26-10.439,3.329-18.629,3.329c-9.18,0-16.739-2.34-22.68-8.01
		c-5.22-5.039-8.459-13.139-8.459-22.589c0.09-18.089,12.509-31.318,32.849-31.318c7.02,0,12.509,1.529,15.119,2.79l-1.89,6.39
		c-3.24-1.44-7.29-2.61-13.41-2.61c-14.759,0-24.389,9.18-24.389,24.39c0,15.389,9.27,24.479,23.399,24.479
		c5.13,0,8.64-0.72,10.439-1.62V875.41h-12.33v-6.3h19.979V898.27z"/>
	<path fill="#BCE3A9" d="M598.439,871c0-5.13-0.09-9.539-0.359-13.589h6.93l0.27,8.549h0.36c1.979-5.85,6.75-9.539,12.06-9.539
		c0.899,0,1.529,0.09,2.25,0.27v7.47c-0.811-0.18-1.62-0.27-2.7-0.27c-5.58,0-9.54,4.229-10.619,10.17
		c-0.181,1.079-0.36,2.34-0.36,3.689v23.219h-7.83V871z"/>
	<path fill="#BCE3A9" d="M657.749,880c-0.27,10.35,5.67,15.839,13.859,15.839c6.03,0,9.45-1.35,11.88-2.52l1.439,5.58
		c-3.51,1.89-8.55,3.06-14.31,3.06c-7.379,0-14.039-3.51-16.559-9.63h-0.181c-2.789,6.03-8.729,9.63-16.199,9.63
		c-9.09,0-13.589-6.12-13.589-12.42c0-10.079,9.359-15.929,26.278-15.749v-1.8c0-2.16-1.35-9.72-10.169-9.72
		c-4.141,0-8.55,1.53-11.16,3.33l-1.89-5.22c3.87-2.43,9.27-3.96,13.59-3.96c7.829,0,12.239,3.689,14.039,9.27h0.18
		c2.97-5.76,8.37-9.27,15.21-9.27c13.319,0,17.009,12.869,17.009,20.069c0,1.35-0.09,2.699-0.27,3.51H657.749z M650.459,879.1
		c-8.369-0.18-18.539,1.26-18.539,9.81c0,4.59,3.42,7.2,7.56,7.2c5.67,0,9.27-3.51,10.53-7.47c0.359-0.99,0.449-2.07,0.449-3.15
		V879.1z M679.528,874.33c0.27-4.41-2.16-12.239-10.17-12.239c-7.829,0-11.43,7.289-11.699,12.239H679.528z"/>
	<path fill="#BCE3A9" d="M696.989,869.2c0-4.5-0.09-8.189-0.359-11.789h7.02l0.45,7.199h0.18c2.16-4.14,7.2-8.189,14.399-8.189
		c6.03,0,15.39,3.6,15.39,18.539v26.009h-7.92V875.86c0-7.021-2.609-12.87-10.079-12.87c-5.221,0-9.271,3.69-10.62,8.1
		c-0.36,0.99-0.54,2.34-0.54,3.69v26.188h-7.92V869.2z"/>
	<path fill="#BCE3A9" d="M746.938,869.2c0-4.5-0.09-8.189-0.359-11.789h6.93l0.359,7.02h0.271c2.43-4.14,6.479-8.01,13.68-8.01
		c5.939,0,10.439,3.6,12.329,8.729h0.18c1.351-2.43,3.061-4.319,4.86-5.67c2.609-1.979,5.489-3.06,9.63-3.06
		c5.76,0,14.309,3.779,14.309,18.899v25.648h-7.739V876.31c0-8.369-3.06-13.409-9.449-13.409c-4.5,0-8.01,3.33-9.36,7.2
		c-0.359,1.08-0.63,2.52-0.63,3.96v26.908h-7.739V874.87c0-6.93-3.061-11.97-9.09-11.97c-4.95,0-8.55,3.96-9.81,7.92
		c-0.45,1.17-0.63,2.52-0.63,3.87v26.278h-7.74V869.2z"/>
	<path fill="#BCE3A9" d="M826.408,880.63c0.18,10.71,7.02,15.119,14.939,15.119c5.67,0,9.09-0.99,12.06-2.25l1.35,5.67
		c-2.79,1.26-7.56,2.7-14.489,2.7c-13.409,0-21.419-8.82-21.419-21.959c0-13.14,7.739-23.489,20.429-23.489
		c14.22,0,18,12.51,18,20.52c0,1.619-0.181,2.88-0.271,3.689H826.408z M849.627,874.96c0.091-5.04-2.069-12.869-10.979-12.869
		c-8.01,0-11.52,7.38-12.149,12.869H849.627z"/>
	<path fill="#BCE3A9" d="M876.627,844.901v12.51h11.34v6.029h-11.34v23.489c0,5.399,1.53,8.46,5.939,8.46
		c2.07,0,3.601-0.271,4.59-0.54l0.36,5.939c-1.53,0.63-3.96,1.08-7.02,1.08c-3.69,0-6.66-1.17-8.55-3.33
		c-2.25-2.34-3.06-6.21-3.06-11.34V863.44h-6.75v-6.029h6.75v-10.44L876.627,844.901z"/>
	<path fill="#BCE3A9" d="M905.696,845.171c0.09,2.7-1.891,4.86-5.04,4.86c-2.79,0-4.77-2.16-4.77-4.86
		c0-2.789,2.069-4.949,4.949-4.949C903.806,840.222,905.696,842.382,905.696,845.171z M896.876,900.969v-43.558h7.92v43.558H896.876
		z"/>
</g>
<path fill="#FFFFFF" d="M684.745,186.033c-1.232,0-2.455,0.047-3.675,0.118c-1.569-8.844-6.268-17.083-13.76-22.953
	c-6.642-5.205-16.187,3.894-9.483,9.148c5.41,4.239,8.924,9.814,10.058,15.96c-43.241,11.697-76.011,66.658-76.011,117.791
	c0,57.599,41.578,81.745,92.87,81.745c51.291,0,92.872-24.146,92.872-81.745C777.616,248.498,736.036,186.033,684.745,186.033z"/>
<path fill="#FFFFFF" d="M357.237,492.185h-21.101c0.719-14.393,1.407-31.74,12.122-36.252c4.449-1.873,2.547-11.11-1.938-9.222
	c-7.158,3.014-11.742,10.623-14.296,19.641c-1.344,4.745-1.929,9.69-2.292,14.694c-1.897-5.867-4.992-10.746-10.24-13.351
	c-4.392-2.18-6.291,7.062-1.938,9.222c4.741,2.353,6.428,8.909,7.22,15.268h-26.762c-11.685,0-20.421,14.082-18.05,29.095
	l29.612,187.443c4.06,25.703,32.039,25.703,36.099,0l29.612-187.443C377.658,506.268,368.922,492.185,357.237,492.185z"/>
</svg>
