<?xml version="1.0" encoding="utf-8"?>
<!-- Generator: Adobe Illustrator 27.7.0, SVG Export Plug-In . SVG Version: 6.00 Build 0)  -->
<svg version="1.1" id="Layer_1" xmlns="http://www.w3.org/2000/svg" xmlns:xlink="http://www.w3.org/1999/xlink" x="0px" y="0px"
	 width="595.276px" height="841.89px" viewBox="0 0 595.276 841.89" enable-background="new 0 0 595.276 841.89"
	 xml:space="preserve">
<g opacity="0.8">
	<rect y="799.247" fill="#BDDEA9" width="595.276" height="42.643"/>
	<rect y="755.207" fill="#DFEFD6" width="595.276" height="44.04"/>
	<rect x="0" y="721.78" fill="#EEF6EA" width="595.276" height="44.04"/>
	<rect x="6.4" y="690.6" fill="#DFEFD6" width="7.2" height="108.647"/>
	<rect x="137.6" y="690.6" fill="#DFEFD6" width="6.4" height="108.647"/>
	<rect x="498.4" y="600.2" fill="#DFEFD6" width="6.4" height="199.047"/>
	<rect x="544.8" y="647.4" fill="#DFEFD6" width="8.8" height="151.847"/>
	<rect x="42.4" y="528.2" fill="#DFEFD6" width="12" height="267.2"/>
	<rect x="90.4" y="600.2" fill="#DFEFD6" width="12.8" height="190.4"/>
	<rect x="316.8" y="666.6" fill="#DFEFD6" width="12" height="128.8"/>
	<rect x="376.8" y="604.292" fill="#BDDEA9" width="9.6" height="201.327"/>
	<rect x="420.8" y="647.4" fill="#BDDEA9" width="12.8" height="173.168"/>
	<rect x="208.8" y="708.2" fill="#BDDEA9" width="12.8" height="116.8"/>
	<rect x="68.8" y="630.6" fill="#BDDEA9" width="11.991" height="194.4"/>
	<rect x="20" y="501.8" fill="#BDDEA9" width="7.2" height="312"/>
	<rect x="576.8" y="690.6" fill="#BDDEA9" width="8" height="123.2"/>
	<rect x="516" y="474.6" fill="#EDF6E8" width="6.4" height="259.384"/>
	<rect x="349.6" y="553" fill="#EDF6E8" width="9.6" height="203.2"/>
	<rect x="257.6" y="666.6" fill="#EDF6E8" width="7.2" height="88.8"/>
	<rect x="171.2" y="594.505" fill="#EDF6E8" width="16.277" height="150.419"/>
	<rect x="563.2" y="549.653" fill="#EDF6E8" width="8.138" height="181.347"/>
	<rect x="281.6" y="687.762" fill="#EDF6E8" width="5.6" height="50.038"/>
	<rect x="462.8" y="558.6" fill="#EDF6E8" width="13.486" height="183.692"/>
	<rect x="234.4" y="563.153" fill="#DFEFD6" width="6.4" height="202.17"/>
</g>
<path opacity="0.8" fill="#80D1F5" d="M595.276,53.8H0c0-3.004,0-6.008,0-9.012C0,29.859,0,14.929,0,0
	c198.425,0,396.851,0,595.276,0V53.8z"/>
<polygon opacity="0.8" fill="#AADDF8" points="34.733,40.142 28.421,38.682 24.298,42.71 22.977,36.653 17.114,33.576 
	22.609,31.293 23.109,25.363 27.827,30.009 33.998,29.421 31.419,34.576 "/>
<polygon opacity="0.8" fill="#AADDF8" points="429.191,52.639 422.259,54.821 419.378,62.675 416.024,55.71 409.016,55.515 
	413.876,49.029 412.425,41.055 418.782,44.011 424.893,39.277 423.963,47.591 "/>
<polygon opacity="0.8" fill="#AADDF8" points="546.25,33.349 552.396,36.023 557.623,32.608 557.511,39.127 562.801,43.395 
	556.585,44.75 554.628,50.803 550.899,45.121 544.399,44.594 548.31,39.727 "/>
<g opacity="0.8">
	<path fill="#AADDF8" d="M595.373,106.722H0.097c0-12.473,0-24.946,0-37.419c0-5.454,0-10.908,0-16.363h595.276V106.722z"/>
	<polygon fill="#F4FAFE" points="595.018,106.722 -0.021,106.722 595.018,133.867 	"/>
	<polygon fill="#F4FAFE" points="591.297,113.312 0.302,104.811 0.025,143.723 	"/>
</g>
<circle opacity="0.8" fill="#FFF4D5" cx="438.985" cy="225.201" r="19.12"/>
<rect x="436.835" y="145.86" opacity="0.8" fill="#FFF4D5" width="4.8" height="47.481"/>
<rect x="436.835" y="257.06" opacity="0.8" fill="#FFF4D5" width="4.8" height="47.481"/>
<rect x="491.693" y="199.72" transform="matrix(6.123234e-17 -1 1 6.123234e-17 270.6323 717.5527)" opacity="0.8" fill="#FFF4D5" width="4.8" height="47.481"/>
<rect x="381.478" y="197.32" transform="matrix(6.123234e-17 -1 1 6.123234e-17 162.8174 604.9377)" opacity="0.8" fill="#FFF4D5" width="4.8" height="47.481"/>
<rect x="400.929" y="242.21" transform="matrix(0.6632 0.7484 -0.7484 0.6632 329.3099 -214.805)" opacity="0.8" fill="#FFF4D5" width="4.8" height="32.579"/>
<rect x="474.462" y="177.052" transform="matrix(0.6632 0.7484 -0.7484 0.6632 305.308 -291.7847)" opacity="0.8" fill="#FFF4D5" width="4.8" height="32.579"/>
<rect x="400.929" y="177.052" transform="matrix(-0.6394 0.7689 -0.7689 -0.6394 809.8728 6.8548)" opacity="0.8" fill="#FFF4D5" width="4.8" height="32.579"/>
<rect x="474.462" y="242.21" transform="matrix(-0.6664 0.7456 -0.7456 -0.6664 987.3873 75.2437)" opacity="0.8" fill="#FFF4D5" width="4.8" height="32.579"/>
<polygon opacity="0.8" fill="#AADDF8" points="137.6,51.232 131.288,49.772 127.165,53.8 125.844,47.743 119.982,44.666 
	125.477,42.383 125.977,36.453 130.694,41.099 136.865,40.511 134.286,45.666 "/>
<polygon opacity="0.8" fill="#AADDF8" points="270.009,38.713 263.698,37.253 259.575,41.281 258.253,35.224 252.391,32.147 
	257.886,29.864 258.386,23.934 263.103,28.58 269.274,27.992 266.695,33.147 "/>
<polygon opacity="0.8" fill="#EDF7FD" points="0.119,107.41 595.157,107.41 0.119,80.265 "/>
</svg>
