<?xml version="1.0" encoding="utf-8"?>
<!-- Generator: Adobe Illustrator 27.7.0, SVG Export Plug-In . SVG Version: 6.00 Build 0)  -->
<svg version="1.1" id="Layer_1" xmlns="http://www.w3.org/2000/svg" xmlns:xlink="http://www.w3.org/1999/xlink" x="0px" y="0px"
	 width="1000px" height="1000px" viewBox="0 0 1000 1000" enable-background="new 0 0 1000 1000" xml:space="preserve">
<g id="blue_x5F_box" opacity="0.7">
	<g id="Blue" opacity="0.8">
		<g>
			<path fill="#80D2F5" d="M461.09,318.39v75.13c0,6.6-5.4,12-12,12h-75.13c-6.6,0-12-5.4-12-12v-75.13c0-6.6,5.4-12,12-12h75.13
				C455.69,306.39,461.09,311.79,461.09,318.39z"/>
			<path fill="#80D2F5" d="M609.46,318.39v75.13c0,6.6-5.4,12-12,12h-75.13c-6.6,0-12-5.4-12-12v-75.13c0-6.6,5.4-12,12-12h75.13
				C604.06,306.39,609.46,311.79,609.46,318.39z"/>
			<path fill="#80D2F5" d="M909.51,75.52H105.92c-12.64,0-22.88,10.18-22.88,22.76v725.79c0,12.57,10.24,22.76,22.88,22.76h803.59
				c12.64,0,22.89-10.19,22.89-22.76V98.28C932.4,85.7,922.15,75.52,909.51,75.52z M792.39,623.75c0,6.6-5.4,12-12,12h-48.37
				c0.81,3.89,1.24,7.95,1.24,12.1v12.37c0,30.46-23.02,55.37-51.15,55.37h-17.88c-28.13,0-51.15-24.91-51.15-55.37v-12.37
				c0-4.15,0.43-8.21,1.24-12.1H421.76c0.7,3.44,1.07,6.99,1.07,10.63v12.78c0,29.64-24.48,53.89-54.4,53.89h-12.89
				c-29.91,0-54.39-24.25-54.39-53.89v-12.78c0-3.64,0.37-7.19,1.07-10.63h-61.96c-6.6,0-12-5.4-12-12V451.43c0-6.6,5.4-12,12-12
				h61.04v-159.3c0-6.6,5.4-12,12-12h388.83c6.6,0,12,5.4,12,12v28.7c0-6.6-5.4-12-12-12h-24.45c-6.6,0-12,5.4-12,12v94.26
				c0,6.6,5.4,12,12,12h24.45c6.6,0,12-5.4,12-12v36.34h66.26c6.6,0,12,5.4,12,12V623.75z"/>
		</g>
	</g>
	<g id="Blue_x5F_outline" display="none">
		<g display="inline">
			<path fill="#80D2F5" d="M909.51,74.25H105.92c-13.32,0-24.15,10.78-24.15,24.03v725.79c0,13.25,10.83,24.03,24.15,24.03h803.59
				c13.32,0,24.16-10.78,24.16-24.03V98.28C933.67,85.03,922.83,74.25,909.51,74.25z M931.13,824.07c0,11.86-9.7,21.5-21.62,21.5
				H105.92c-11.92,0-21.61-9.64-21.61-21.5V98.28c0-11.86,9.69-21.5,21.61-21.5h803.59c11.92,0,21.62,9.64,21.62,21.5V824.07z"/>
		</g>
	</g>
</g>
<g>
	<g>
		<path fill="#80D2F5" d="M297.463,880.43h43.558v8.76h-33.119v26.879h30.599v8.64h-30.599v36.599h-10.439V880.43z"/>
		<path fill="#80D2F5" d="M382.302,961.307l-0.84-7.319h-0.36c-3.24,4.56-9.479,8.64-17.759,8.64
			c-11.759,0-17.759-8.28-17.759-16.68c0-14.039,12.479-21.719,34.918-21.6v-1.199c0-4.8-1.32-13.439-13.199-13.439
			c-5.4,0-11.04,1.68-15.119,4.319l-2.4-6.96c4.8-3.119,11.76-5.159,19.08-5.159c17.759,0,22.079,12.119,22.079,23.759v21.719
			c0,5.04,0.24,9.96,0.96,13.92H382.302z M380.742,931.668c-11.52-0.24-24.599,1.8-24.599,13.079c0,6.84,4.56,10.08,9.959,10.08
			c7.56,0,12.36-4.8,14.04-9.72c0.36-1.08,0.6-2.28,0.6-3.36V931.668z"/>
		<path fill="#80D2F5" d="M407.983,921.349c0-6.84-0.12-12.72-0.48-18.12h9.239l0.36,11.4h0.48c2.64-7.8,9-12.72,16.079-12.72
			c1.2,0,2.04,0.12,3,0.36v9.959c-1.08-0.24-2.16-0.359-3.6-0.359c-7.439,0-12.719,5.64-14.159,13.559
			c-0.24,1.44-0.48,3.12-0.48,4.92v30.959h-10.439V921.349z"/>
		<path fill="#80D2F5" d="M478.783,961.307l-0.84-7.319h-0.36c-3.24,4.56-9.479,8.64-17.759,8.64
			c-11.759,0-17.759-8.28-17.759-16.68c0-14.039,12.479-21.719,34.918-21.6v-1.199c0-4.8-1.32-13.439-13.199-13.439
			c-5.4,0-11.04,1.68-15.119,4.319l-2.4-6.96c4.8-3.119,11.76-5.159,19.08-5.159c17.759,0,22.079,12.119,22.079,23.759v21.719
			c0,5.04,0.24,9.96,0.96,13.92H478.783z M477.223,931.668c-11.52-0.24-24.599,1.8-24.599,13.079c0,6.84,4.56,10.08,9.959,10.08
			c7.56,0,12.36-4.8,14.04-9.72c0.36-1.08,0.6-2.28,0.6-3.36V931.668z"/>
		<path fill="#80D2F5" d="M516.702,886.55v16.679h15.12v8.04h-15.12v31.319c0,7.199,2.04,11.279,7.92,11.279
			c2.76,0,4.8-0.36,6.12-0.721l0.479,7.92c-2.04,0.84-5.279,1.44-9.359,1.44c-4.92,0-8.88-1.561-11.399-4.44
			c-3-3.119-4.08-8.279-4.08-15.119v-31.679h-8.999v-8.04h8.999V889.31L516.702,886.55z"/>
		<path fill="#80D2F5" d="M584.141,933.348c-0.36,13.8,7.56,21.119,18.479,21.119c8.039,0,12.6-1.8,15.839-3.359l1.92,7.439
			c-4.68,2.52-11.399,4.08-19.079,4.08c-9.84,0-18.719-4.68-22.079-12.84h-0.24c-3.72,8.04-11.639,12.84-21.599,12.84
			c-12.119,0-18.119-8.16-18.119-16.56c0-13.439,12.479-21.239,35.038-20.999v-2.4c0-2.88-1.8-12.959-13.56-12.959
			c-5.52,0-11.399,2.04-14.879,4.439l-2.52-6.96c5.159-3.239,12.359-5.279,18.119-5.279c10.439,0,16.319,4.92,18.719,12.359h0.24
			c3.96-7.68,11.159-12.359,20.279-12.359c17.759,0,22.679,17.159,22.679,26.759c0,1.8-0.12,3.6-0.359,4.68H584.141z
			 M574.421,932.147c-11.159-0.239-24.719,1.681-24.719,13.08c0,6.119,4.56,9.6,10.079,9.6c7.561,0,12.36-4.68,14.04-9.96
			c0.479-1.32,0.6-2.76,0.6-4.199V932.147z M613.18,925.788c0.359-5.88-2.88-16.319-13.56-16.319c-10.439,0-15.239,9.72-15.6,16.319
			H613.18z"/>
		<path fill="#80D2F5" d="M646.901,929.868h0.24c1.439-2.04,3.479-4.56,5.159-6.6l17.039-20.04h12.72l-22.438,23.88l25.559,34.198
			h-12.84l-20.039-27.839l-5.399,6v21.839h-10.439V876.11h10.439V929.868z"/>
		<path fill="#80D2F5" d="M706.54,886.91c0.12,3.6-2.52,6.479-6.72,6.479c-3.72,0-6.359-2.88-6.359-6.479
			c0-3.721,2.76-6.601,6.6-6.601C704.021,880.31,706.54,883.189,706.54,886.91z M694.781,961.307v-58.078h10.56v58.078H694.781z"/>
	</g>
</g>
<path fill="#80D2F5" stroke="#0098CF" stroke-width="3" stroke-miterlimit="10" d="M780.39,439.43h-66.26v-36.34c0,6.6-5.4,12-12,12
	h-24.45c-6.6,0-12-5.4-12-12v-94.26c0-6.6,5.4-12,12-12h24.45c6.6,0,12,5.4,12,12v-28.7c0-6.6-5.4-12-12-12H313.3
	c-6.6,0-12,5.4-12,12v159.3h-61.04c-6.6,0-12,5.4-12,12v172.32c0,6.6,5.4,12,12,12h61.96c1.6-7.85,4.94-15.1,9.59-21.33
	c9.93-13.29,25.86-21.94,43.73-21.94h12.89c17.87,0,33.81,8.65,43.73,21.94c4.66,6.23,8,13.48,9.6,21.33h192.56
	c1.42-6.85,4.03-13.23,7.57-18.88c9.23-14.7,24.78-24.39,42.34-24.39h17.88c17.56,0,33.11,9.69,42.34,24.39
	c3.55,5.65,6.15,12.03,7.57,18.88h48.37c6.6,0,12-5.4,12-12V451.43C792.39,444.83,786.99,439.43,780.39,439.43z M461.09,393.52
	c0,6.6-5.4,12-12,12h-75.13c-6.6,0-12-5.4-12-12v-75.13c0-6.6,5.4-12,12-12h75.13c6.6,0,12,5.4,12,12V393.52z M609.46,393.52
	c0,6.6-5.4,12-12,12h-75.13c-6.6,0-12-5.4-12-12v-75.13c0-6.6,5.4-12,12-12h75.13c6.6,0,12,5.4,12,12V393.52z"/>
<path display="none" fill="#80D2F5" stroke="#0098CF" stroke-width="5" stroke-miterlimit="10" d="M461.09,318.39v75.13
	c0,6.6-5.4,12-12,12h-75.13c-6.6,0-12-5.4-12-12v-75.13c0-6.6,5.4-12,12-12h75.13C455.69,306.39,461.09,311.79,461.09,318.39z"/>
<path display="none" fill="#80D2F5" stroke="#0098CF" stroke-width="5" stroke-miterlimit="10" d="M609.46,318.39v75.13
	c0,6.6-5.4,12-12,12h-75.13c-6.6,0-12-5.4-12-12v-75.13c0-6.6,5.4-12,12-12h75.13C604.06,306.39,609.46,311.79,609.46,318.39z"/>
<path fill="#80D2F5" stroke="#0098CF" stroke-width="5" stroke-miterlimit="10" d="M714.13,308.83v94.26c0,6.6-5.4,12-12,12h-24.45
	c-6.6,0-12-5.4-12-12v-94.26c0-6.6,5.4-12,12-12h24.45C708.73,296.83,714.13,302.23,714.13,308.83z"/>
<path fill="#80D2F5" stroke="#0098CF" stroke-width="3" stroke-miterlimit="10" d="M422.83,646.38v12.78
	c0,29.64-24.48,53.89-54.4,53.89h-12.89c-29.91,0-54.39-24.25-54.39-53.89v-12.78c0-3.64,0.37-7.19,1.07-10.63
	c1.6-7.85,4.94-15.1,9.59-21.33c9.93-13.29,25.86-21.94,43.73-21.94h12.89c17.87,0,33.81,8.65,43.73,21.94
	c4.66,6.23,8,13.48,9.6,21.33C422.46,639.19,422.83,642.74,422.83,646.38z"/>
<path fill="#80D2F5" stroke="#0098CF" stroke-width="3" stroke-miterlimit="10" d="M733.26,647.85v12.37
	c0,30.46-23.02,55.37-51.15,55.37h-17.88c-28.13,0-51.15-24.91-51.15-55.37v-12.37c0-4.15,0.43-8.21,1.24-12.1
	c1.42-6.85,4.03-13.23,7.57-18.88c9.23-14.7,24.78-24.39,42.34-24.39h17.88c17.56,0,33.11,9.69,42.34,24.39
	c3.55,5.65,6.15,12.03,7.57,18.88C732.83,639.64,733.26,643.7,733.26,647.85z"/>
<path fill="#A9D5EB" stroke="#0098CF" stroke-width="3" stroke-miterlimit="10" d="M609.46,318.39v75.13c0,6.6-5.4,12-12,12h-75.13
	c-6.6,0-12-5.4-12-12v-75.13c0-6.6,5.4-12,12-12h75.13C604.06,306.39,609.46,311.79,609.46,318.39z"/>
<path fill="#A9D5EB" stroke="#0098CF" stroke-width="3" stroke-miterlimit="10" d="M714.13,301.897v108.125
	c0,7.571-6.784,13.765-15.076,13.765h-30.717c-8.292,0-15.076-6.194-15.076-13.765V301.897c0-7.571,6.784-13.765,15.076-13.765
	h30.717C707.346,288.132,714.13,294.327,714.13,301.897z"/>
<path fill="#A9D5EB" stroke="#0098CF" stroke-width="3" stroke-miterlimit="10" d="M461.09,318.39v75.13c0,6.6-5.4,12-12,12h-75.13
	c-6.6,0-12-5.4-12-12v-75.13c0-6.6,5.4-12,12-12h75.13C455.69,306.39,461.09,311.79,461.09,318.39z"/>
<g>
</g>
<g>
</g>
<g>
</g>
<g>
</g>
<g>
</g>
<g>
</g>
</svg>
