<?xml version="1.0" encoding="utf-8"?>
<!-- Generator: Adobe Illustrator 27.7.0, SVG Export Plug-In . SVG Version: 6.00 Build 0)  -->
<svg version="1.1" id="Layer_1" xmlns="http://www.w3.org/2000/svg" xmlns:xlink="http://www.w3.org/1999/xlink" x="0px" y="0px"
	 width="1000px" height="1000px" viewBox="0 0 1000 1000" enable-background="new 0 0 1000 1000" xml:space="preserve">
<g opacity="0.75">
	<path fill="#B8D5AD" d="M886.24,799.183h-765.8c-6.6,0-12-5.4-12-12V69.312c0-6.6,5.4-12,12-12h765.8c6.6,0,12,5.4,12,12v717.871
		C898.24,793.783,892.84,799.183,886.24,799.183z"/>
</g>
<g>
	<path fill="#A7CC9A" d="M351.868,845.488h10.869v72.117h35.978v8.76h-46.847V845.488z"/>
	<path fill="#A7CC9A" d="M422.698,851.968c0.125,3.601-2.623,6.48-6.996,6.48c-3.873,0-6.621-2.88-6.621-6.48
		c0-3.72,2.874-6.6,6.871-6.6C420.075,845.368,422.698,848.248,422.698,851.968z M410.456,926.365v-58.077h10.993v58.077H410.456z"
		/>
	<path fill="#A7CC9A" d="M452.929,851.608v16.68h15.74v8.039h-15.74v31.318c0,7.2,2.124,11.28,8.245,11.28
		c2.873,0,4.997-0.36,6.371-0.72l0.5,7.919c-2.124,0.84-5.497,1.44-9.744,1.44c-5.122,0-9.244-1.561-11.868-4.44
		c-3.123-3.119-4.248-8.279-4.248-15.119v-31.679h-9.369v-8.039h9.369v-13.92L452.929,851.608z"/>
	<path fill="#A7CC9A" d="M493.279,851.968c0.125,3.601-2.623,6.48-6.996,6.48c-3.873,0-6.621-2.88-6.621-6.48
		c0-3.72,2.874-6.6,6.871-6.6C490.656,845.368,493.279,848.248,493.279,851.968z M481.037,926.365v-58.077h10.993v58.077H481.037z"
		/>
	<path fill="#A7CC9A" d="M510.268,886.407c0-6.84-0.125-12.72-0.5-18.119h9.619l0.375,11.399h0.5
		c2.748-7.8,9.369-12.72,16.739-12.72c1.25,0,2.124,0.12,3.123,0.359v9.96c-1.124-0.24-2.248-0.36-3.747-0.36
		c-7.745,0-13.242,5.641-14.741,13.56c-0.25,1.44-0.5,3.12-0.5,4.92v30.959h-10.868V886.407z"/>
	<path fill="#A7CC9A" d="M551.617,884.007c0-6-0.125-10.92-0.5-15.719h9.744l0.625,9.6h0.249c2.999-5.521,9.994-10.92,19.988-10.92
		c8.37,0,21.362,4.8,21.362,24.719v34.679h-10.994v-33.479c0-9.359-3.622-17.159-13.991-17.159c-7.245,0-12.867,4.92-14.741,10.799
		c-0.499,1.32-0.749,3.12-0.749,4.92v34.919h-10.993V884.007z"/>
	<path fill="#A7CC9A" d="M633.192,851.968c0.125,3.601-2.624,6.48-6.996,6.48c-3.873,0-6.621-2.88-6.621-6.48
		c0-3.72,2.873-6.6,6.871-6.6C630.568,845.368,633.192,848.248,633.192,851.968z M620.949,926.365v-58.077h10.993v58.077H620.949z"
		/>
	<path fill="#A7CC9A" d="M650.181,886.407c0-6.84-0.125-12.72-0.499-18.119h9.619l0.374,11.399h0.5
		c2.748-7.8,9.369-12.72,16.74-12.72c1.249,0,2.123,0.12,3.123,0.359v9.96c-1.125-0.24-2.249-0.36-3.748-0.36
		c-7.745,0-13.242,5.641-14.741,13.56c-0.25,1.44-0.5,3.12-0.5,4.92v30.959h-10.868V886.407z"/>
</g>
<line fill="none" x1="723.67" y1="176.186" x2="639.3" y2="354.536"/>
<path fill="#FFFEF9" d="M851.425,446.769c-2.505-14.948-6.333-29.722-8.991-44.64c-3.085-17.317-4.4-34.742-6.414-52.146
	c-3.34-18.952-11.887-36.049-18.389-54.089c0.065,0.154,0.13,0.308,0.195,0.462c-1.48-3.676-2.797-7.392-3.654-11.332
	c-1.413-6.491-2.138-13.15-2.877-19.74c-0.715-6.373-1.026-12.779-1.619-19.162c-0.427-2.233-0.947-4.439-1.605-6.612
	c-1.184-2.211-2.487-4.347-3.899-6.422c-13.014-15.245-29.021-27.743-38.87-45.655c-5.828-10.599-9.019-21.665-11.241-33.406
	c-0.972-5.137-1.84-10.307-3.343-15.303c-0.218-0.383-0.442-0.762-0.671-1.139c-2.146-2.269-4.454-4.373-6.873-6.369
	c-0.133-0.101-0.266-0.202-0.398-0.303c-0.153-0.111-0.31-0.214-0.464-0.323c-13.471,5.281-27.425,8.61-42.291,10.157
	c-54.136,5.633-98.596-29.759-149.819-38.768c-7.545-0.7-15.114-0.752-22.663-0.134c-5.54,1.128-10.909,2.794-16.19,4.814
	c-14.532,6.569-28.7,14.242-44.063,18.672c-18.63,5.372-38.151,7.957-57.516,8.453c-18.377,0.47-36.794-1.008-55.193-1.785
	c-1.74,1.4-3.504,2.788-5.333,4.151c-16.985,12.662-37.188,19.564-56.556,27.531c-7.294,3.439-14.298,7.353-20.878,12.08
	c-9.435,7.82-17.861,16.783-25.529,26.419c-9.787,13.801-18.151,28.597-24.997,44.166c-4.672,12.407-8.328,25.173-10.573,38.277
	c-0.69,7.715-0.817,15.444-0.242,23.164c1.154,5.984,2.793,11.825,4.989,17.522c0.894,1.725,1.862,3.4,2.926,5.027
	c8.256,10.43,16.61,20.408,21.803,33.099c7.521,18.38,9.198,38.677,4.663,58.126c-2.928,12.556-9.26,24.249-16.647,34.566
	c-4.563,6.373-9.19,12.639-12.969,19.497c-0.527,1.864-0.983,3.743-1.384,5.638c-0.173,3.855-0.115,7.693,0.15,11.541
	c3.614,19.956,10.9,39.617,18.412,58.447c1.556,3.555,3.256,7.034,5.219,10.356c0.263,0.155,0.536,0.293,0.802,0.444
	c11.533,3.845,23.706,5.239,35.43,8.435c16.496,4.498,32.15,11.503,45.652,22.261c1.829,1.457,3.57,2.962,5.245,4.505
	c14.142,5.453,26.773,13.97,38.693,23.785c25.332,20.859,40.83,50.817,59.729,77.399c3.239,4.027,6.672,7.864,10.414,11.387
	c1.375,0.915,2.782,1.775,4.22,2.581c1.567,0.492,3.148,0.929,4.745,1.302c5.012,0.276,10.021,0.13,15.023-0.32
	c11.718-2.246,23.207-6.033,34.757-8.989c14.619-3.742,29.267-6.26,44.228-8.134c14.173-1.775,28.309-1.643,42.553-1.996
	c12.852-0.318,25.674-1.246,38.438-2.786c26.392-4.179,52.177-11.289,76.989-21.475c-0.055-6.985,1.898-14.338,5.141-19.88
	c4.847-8.283,13.26-14.541,22.411-17.234c7.726-2.273,15.488-4.513,23.036-7.333c2.104-1.029,4.154-2.151,6.139-3.388
	c0.307-0.295,0.609-0.595,0.908-0.899c0.34-0.565,0.671-1.135,0.988-1.713c1.691-5.442,2.665-11.03,3.946-16.627
	c1.954-8.538,4.422-16.946,7.303-25.216c5.072-14.557,11.305-28.676,17.113-42.946c6.344-15.587,12.451-28.547,24.164-40.931
	c11.946-12.63,27.304-20.429,41.252-30.32c1.298-1.137,2.533-2.337,3.725-3.58c0.13-0.218,0.268-0.431,0.394-0.651
	c0.223-0.768,0.426-1.542,0.611-2.32C851.824,453.566,851.716,450.165,851.425,446.769z"/>
<g>
</g>
<g>
</g>
<g>
</g>
<g>
</g>
<g>
</g>
<g>
</g>
</svg>
