<?xml version="1.0" encoding="utf-8"?>
<!-- Generator: Adobe Illustrator 27.7.0, SVG Export Plug-In . SVG Version: 6.00 Build 0)  -->
<svg version="1.1" id="Layer_1" xmlns="http://www.w3.org/2000/svg" xmlns:xlink="http://www.w3.org/1999/xlink" x="0px" y="0px"
	 width="1000px" height="1000px" viewBox="0 0 1000 1000" enable-background="new 0 0 1000 1000" xml:space="preserve">
<path fill="#FCD8D1" d="M916.035,844.395H92.399c-6.6,0-12-5.4-12-12V75.986c0-6.6,5.4-12,12-12h823.636c6.6,0,12,5.4,12,12v756.409
	C928.035,838.995,922.635,844.395,916.035,844.395z"/>
<g>
	<g>
		<path fill="#FCD8D1" d="M406.42,872.684c6.36-0.96,13.919-1.68,22.199-1.68c15,0,25.679,3.479,32.758,10.079
			c7.2,6.601,11.4,15.96,11.4,29.039c0,13.199-4.08,23.999-11.64,31.438c-7.56,7.561-20.039,11.64-35.758,11.64
			c-7.44,0-13.68-0.359-18.959-0.96L406.42,872.684L406.42,872.684z M416.859,944.201c2.64,0.479,6.48,0.6,10.56,0.6
			c22.319,0,34.439-12.479,34.439-34.318c0.12-19.079-10.68-31.199-32.759-31.199c-5.4,0-9.479,0.48-12.24,1.08V944.201z"/>
		<path fill="#FCD8D1" d="M539.016,922.962c0,21.479-14.879,30.839-28.918,30.839c-15.72,0-27.839-11.52-27.839-29.879
			c0-19.439,12.719-30.839,28.799-30.839C527.736,893.083,539.016,905.202,539.016,922.962z M492.938,923.562
			c0,12.72,7.32,22.319,17.64,22.319c10.08,0,17.64-9.479,17.64-22.56c0-9.839-4.92-22.318-17.399-22.318
			C498.337,901.003,492.938,912.522,492.938,923.562z M526.417,869.324l-14.64,17.159h-7.56l10.56-17.159H526.417z"/>
		<path fill="#FCD8D1" d="M565.057,877.724v16.679h15.12v8.04h-15.12v31.319c0,7.199,2.04,11.279,7.92,11.279
			c2.76,0,4.8-0.36,6.12-0.721l0.479,7.92c-2.04,0.84-5.279,1.44-9.359,1.44c-4.92,0-8.88-1.561-11.399-4.44
			c-3-3.119-4.08-8.279-4.08-15.119v-31.679h-8.999v-8.04h8.999v-13.919L565.057,877.724z"/>
	</g>
</g>
<path fill="#A0688E" d="M665.34,466.858c1.312-33.059-19.871-60.74-47.315-61.83c-27.444-1.089-50.754,24.827-52.066,57.885
	c-1.069,26.937,12.799,50.299,32.817,58.619c-5.348,3.474-9.365,9.046-10.895,15.453c-0.528,2.21,0.471,3.883,2.372,4.805
	c3.555,1.728,7.168,3.315,10.848,4.733c0.994,0.383,2.035,0.893,3.09,1.06c1.343,0.213,2.042-0.34,3.16-0.944
	c0.838-0.452,1.805-0.581,2.691-0.172c1.431,0.664,2.378,2.025,3.922,2.583c1.798,0.649,3.715,0.324,5.328-0.679
	c1.07-0.665,1.91-1.839,3.075-2.306c1.229-0.492,2.39-0.201,3.539,0.347c3.457,1.648,6.152-3.658,3.817-6.25
	c-4.191-4.655-7.564-9.9-10.155-15.661C644.195,521.754,664.13,497.354,665.34,466.858z M599.007,536.653
	c-0.001,0.274,0.028,0.551,0.088,0.823c-0.561-0.237-1.12-0.481-1.676-0.725C597.951,536.74,598.48,536.701,599.007,536.653z"/>
<path fill="#BE4D49" d="M460.09,552.72c16.411-7.004,28.274-27.202,28.274-51.039c0-29.647-18.343-53.681-40.972-53.681
	c-22.629,0-40.972,24.034-40.972,53.681c0,25,13.045,46.008,30.703,51.98c-4.615,7.564-8.158,15.659-10.468,24.046
	c-0.796,2.893,2.615,5.276,5.493,3.83c3.369-1.693,6.737-3.387,10.107-5.08c0.329,1.4,0.699,2.791,1.206,4.107
	c1.147,2.97,4.63,4.576,7.835,3.019c2.363-1.148,3.665-3.182,4.366-5.511c1.071,0.997,2.208,1.908,3.427,2.646
	c4.465,2.699,9.988,0.201,11.24-4.323c1.285-4.639-2.41-9.397-4.577-13.351C463.864,559.605,461.976,556.162,460.09,552.72z"/>
<path fill="#E57E99" d="M555.271,189.183c0-35.63-21.758-64.515-48.597-64.515c-26.84,0-48.597,28.885-48.597,64.515
	c0,26.532,12.073,49.301,29.318,59.209c-0.116,1.485,0.229,2.859,0.871,4.123c-0.054,0.572-0.109,1.145-0.163,1.716l-9.415,22.289
	c-0.919,2.174,1.974,4.864,4.464,3.968c1.695-0.61,3.391-1.221,5.085-1.83c0.848-0.305,1.694-0.614,2.543-0.915
	c0.058-0.022,0.119-0.04,0.177-0.062c0.152,0.392,0.295,0.791,0.395,1.035c0.47,1.139,0.941,2.279,1.411,3.418
	c0.862,2.088,4.137,3.415,6.065,1.423c1.334-1.378,2.669-2.756,4.004-4.134c0.309,0.315,0.618,0.63,0.928,0.944
	c1.07,1.089,2.143,2.209,3.805,2.573c2.565,0.563,4.519-0.774,5.806-2.563c0.125,0.115,0.248,0.225,0.363,0.314
	c1.842,1.43,4.149,2.468,6.535,1.292c3.253-1.604,2.013-5.252,1.568-7.912c-0.472-2.823-1.164-5.619-2.064-8.36
	c-1.447-4.405-3.445-8.671-5.869-12.725C537.313,248.348,555.271,221.551,555.271,189.183z"/>
<path fill="#B78F8A" d="M611.802,546.217c-0.512-2.034-2.136-0.263-1.625,1.763c4.985,19.779,3.353,44.169-3.603,61.64
	c-8.121,20.396-22.258,24.583-33.649,35.981c-5.221,5.224-10.206,12.138-13.308,21.698c-2.907,8.956-3.558,19.432-3.896,29.665
	c-0.334,10.163-0.188,21.119-2.436,30.629c-2.787,11.786-9.204,16.189-15.699,17.463c-10.283,2.017-21.565-2.847-31.787,0.897
	c3.637-7.062,6.398-15.694,8.053-25.028c3.12-17.585,1.74-35.57-3.067-51.606c-5.327-17.773-13.456-32.171-18.04-50.779
	c-4.37-17.739-5.712-38.107-3.982-57.316c1.814-20.133,6.975-37.47,14.811-51.673c4.14-7.503,8.57-14.563,11.883-23.452
	c2.656-7.129,4.605-15.18,5.827-23.536c2.422-16.577,2.01-34.749-1.723-50.55c-4.022-17.021-11.782-27.12-19.995-36.71
	c-8.062-9.414-17.094-20.365-18.561-39.334c-1.25-16.161,2.913-33.883,10.256-42.965c1.865-2.307,3.891-3.97,6.057-5.034
	c1.17-0.575,0.673-3.944-0.5-3.366c-8.224,4.037-14.341,16.826-16.77,31.671c-2.571,15.722-0.562,31.763,5.483,43.739
	c6.821,13.515,16.465,20.315,23.922,32.38c7.594,12.286,11.425,30.196,11.464,48.726c0.039,18.832-3.655,37.23-10.529,51.122
	c-4.171,8.431-9.064,15.571-12.976,24.458c-3.12,7.09-5.596,15.024-7.436,23.511c-3.736,17.245-4.668,36.425-3.035,54.715
	c0.827,9.261,2.349,18.303,4.528,26.776c2.329,9.048,5.501,17.197,8.724,25.204c6.464,16.063,13.478,32.88,13.52,53.883
	c0.036,17.834-4.391,35.54-11.72,47.08c-2.073,1.288-4.095,2.978-6.033,5.327c-0.473,0.573-0.509,1.536-0.318,2.277
	c-0.119,0.106-0.234,0.226-0.353,0.33c-1.097,0.955-0.142,3.967,0.951,3.014c2.391-2.081,4.599-4.729,6.613-7.8
	c10.521-6.364,22.688-0.634,33.542-2.26c6.095-0.914,12.588-3.785,16.515-13.186c3.298-7.892,4.001-18.153,4.36-27.813
	c0.399-10.739,0.247-21.949,2.282-32.193c2.388-12.018,7.933-20.396,13.808-26.422c11.447-11.744,25.536-15.848,34.055-35.85
	C615.397,594.537,617.268,567.912,611.802,546.217z"/>
<path fill="#B78F8A" d="M498.224,731.44c-0.989-8.471-3.193-13.786-5.503-17.212c-2.771-4.109-5.792-5.694-8.52-10.189
	c-2.701-4.454-4.595-11.996-5.575-21.953c-0.905-9.202-1.106-19.081-1.141-28.759c-0.035-9.803,0.108-20.562-1.566-28.973
	c-3.148-15.816-9.375-14.106-14.121-12.337c-3.399,1.266-7.348,2.787-10.319-4.531c-2.299-5.658-4.13-16.76-2.593-26.353
	c0.287-1.79-0.491-3.403-0.778-1.613c-2.461,15.359,1.878,32.077,5.996,35.414c5.813,4.71,11.862-5.714,17.57,2.017
	c2.947,3.991,4.515,12.48,4.809,23.482c0.259,9.706,0.037,19.439,0.411,29.14c0.341,8.857,1.051,17.818,2.565,25.102
	c1.635,7.875,4.041,12.313,6.608,15.343c3.052,3.602,6.409,5.5,9.038,12.521c2.398,6.405,4.009,20.227,1.597,29.012
	c-0.405,1.475,0.231,3.735,0.637,2.26C498.987,747.811,499.096,738.914,498.224,731.44z"/>
</svg>
