<?xml version="1.0" encoding="utf-8"?>
<!-- Generator: Adobe Illustrator 27.9.0, SVG Export Plug-In . SVG Version: 6.00 Build 0)  -->
<svg version="1.1" id="Layer_1" xmlns="http://www.w3.org/2000/svg" xmlns:xlink="http://www.w3.org/1999/xlink" x="0px" y="0px"
	 width="1000px" height="1000px" viewBox="0 0 1000 1000" enable-background="new 0 0 1000 1000" xml:space="preserve">
<path opacity="0.1" fill="#F8ADD2" d="M924.045,816.16H119.659c-28.67,0-52.126-23.457-52.126-52.126V96.924
	c0-28.669,23.457-52.126,52.126-52.126h804.385c28.669,0,52.126,23.457,52.126,52.126v667.11
	C976.171,792.703,952.714,816.16,924.045,816.16z"/>
<g id="yellow_x5F_box">
	<path fill="#FFE37C" d="M169.732,392.845c0,4.767,3.93,8.631,8.779,8.631h308.228c4.848,0,8.779-3.864,8.779-8.631V117.611
		c0-4.767-3.93-8.631-8.779-8.631H178.51c-4.848,0-8.779,3.864-8.779,8.631v275.234H169.732z"/>
	<g id="Yellow_x5F_outline" display="none">
		<g display="inline">
			<path fill="#FFE37C" d="M486.738,401.955H178.51c-5.109,0-9.266-4.087-9.266-9.111V117.611c0-5.024,4.157-9.111,9.266-9.111
				h308.228c5.109,0,9.266,4.087,9.266,9.111v275.234C496.004,397.868,491.847,401.955,486.738,401.955z M178.51,109.459
				c-4.572,0-8.291,3.657-8.291,8.152v275.234c0,4.495,3.719,8.152,8.291,8.152h308.228c4.571,0,8.291-3.657,8.291-8.152V117.611
				c0-4.495-3.72-8.152-8.291-8.152H178.51z"/>
		</g>
	</g>
</g>
<g id="pink_x5F_box">
	<g id="pink_x5F_backround">
		<g>
			<path fill="#F8ADD2" d="M520.186,439.936c0,4.767,3.93,8.631,8.779,8.631h308.228c4.848,0,8.779-3.864,8.779-8.631V117.611
				c0-4.767-3.93-8.631-8.779-8.631H528.965c-4.848,0-8.779,3.864-8.779,8.631V439.936z"/>
		</g>
	</g>
	<g id="pink_x5F_outline" display="none">
		<g display="inline">
			<path fill="#F8ADD2" d="M837.193,449.047H528.965c-5.109,0-9.266-4.087-9.266-9.111V117.611c0-5.024,4.157-9.111,9.266-9.111
				h308.228c5.109,0,9.266,4.087,9.266,9.111v322.326C846.459,444.96,842.302,449.047,837.193,449.047z M528.965,109.459
				c-4.571,0-8.291,3.657-8.291,8.152v322.326c0,4.495,3.72,8.152,8.291,8.152h308.228c4.571,0,8.291-3.657,8.291-8.152V117.611
				c0-4.495-3.72-8.152-8.291-8.152H528.965z"/>
		</g>
	</g>
</g>
<g id="blue_x5F_box">
	<g id="Blue">
		<g>
			<path fill="#7BD3FC" d="M521.852,750.073c0,4.767,3.93,8.631,8.779,8.631h308.228c4.848,0,8.779-3.864,8.779-8.631V474.839
				c0-4.767-3.93-8.631-8.779-8.631H530.631c-4.848,0-8.779,3.864-8.779,8.631V750.073z"/>
		</g>
	</g>
	<g id="Blue_x5F_outline" display="none">
		<g display="inline">
			<path fill="#7BD3FC" d="M838.859,759.184H530.631c-5.109,0-9.266-4.087-9.266-9.111V474.839c0-5.024,4.157-9.111,9.266-9.111
				h308.228c5.109,0,9.266,4.087,9.266,9.111v275.234C848.125,755.097,843.968,759.184,838.859,759.184z M530.631,466.688
				c-4.571,0-8.291,3.657-8.291,8.152v275.234c0,4.494,3.72,8.152,8.291,8.152h308.228c4.571,0,8.291-3.657,8.291-8.152V474.839
				c0-4.495-3.72-8.152-8.291-8.152H530.631V466.688z"/>
		</g>
	</g>
</g>
<g id="green_x5F_box">
	<g id="green_x5F_backround">
		<path fill="#BCE3A9" stroke="#BCE3A9" stroke-miterlimit="10" d="M186.457,416.857h292.335c9.372,0,16.969,7.597,16.969,16.969
			v302.672c0,9.372-7.597,16.969-16.969,16.969H186.457c-9.372,0-16.969-7.597-16.969-16.969V433.826
			C169.489,424.454,177.086,416.857,186.457,416.857z"/>
	</g>
	<g id="green_x5F_outline">
		<path fill="#BCE3A9" stroke="#BCE3A9" stroke-miterlimit="10" d="M471.044,753.946H194.205c-13.92,0-25.205-11.285-25.205-25.205
			v-287.16c0-13.92,11.285-25.205,25.205-25.205h276.838c13.92,0,25.205,11.285,25.205,25.205v287.16
			C496.248,742.661,484.964,753.946,471.044,753.946z M195.18,752.987h274.887c13.92,0,25.205-11.285,25.205-25.205V442.541
			c0-13.92-11.285-25.205-25.205-25.205H195.18c-13.92,0-25.205,11.285-25.205,25.205v285.241
			C169.976,741.702,181.26,752.987,195.18,752.987z"/>
	</g>
</g>
<g>
	<rect x="72.621" y="857.307" fill="none" width="874.625" height="231.198"/>
	<path fill="#F8ADD2" d="M414.582,861.359c4.77-0.72,10.439-1.26,16.649-1.26c11.249,0,19.259,2.609,24.568,7.56
		c5.4,4.949,8.55,11.97,8.55,21.779c0,9.899-3.06,17.999-8.729,23.579c-5.67,5.669-15.029,8.729-26.818,8.729
		c-5.58,0-10.26-0.271-14.22-0.721V861.359z M422.411,914.997c1.98,0.36,4.86,0.45,7.92,0.45c16.739,0,25.829-9.359,25.829-25.739
		c0.09-14.31-8.01-23.399-24.569-23.399c-4.05,0-7.109,0.36-9.18,0.811V914.997z"/>
	<path fill="#F8ADD2" d="M478.389,877.648l9.54,25.739c0.99,2.88,2.07,6.3,2.79,8.909h0.18c0.811-2.609,1.71-5.939,2.79-9.089
		l8.639-25.56h8.369l-11.878,31.049c-5.67,14.939-9.54,22.589-14.939,27.269c-3.87,3.42-7.74,4.771-9.72,5.13l-1.979-6.659
		c1.979-0.63,4.59-1.891,6.93-3.87c2.159-1.71,4.859-4.77,6.659-8.819c0.36-0.811,0.63-1.44,0.63-1.891
		c0-0.449-0.18-1.079-0.54-2.069l-16.109-40.139H478.389z M503.318,858.839l-10.979,12.87h-5.67l7.92-12.87H503.318z"/>
	<path fill="#F8ADD2" d="M517.898,891.238c0-5.13-0.09-9.54-0.359-13.59h6.93l0.27,8.55h0.36c1.979-5.85,6.75-9.54,12.06-9.54
		c0.899,0,1.529,0.091,2.25,0.271v7.47c-0.811-0.18-1.62-0.271-2.7-0.271c-5.58,0-9.54,4.23-10.619,10.17
		c-0.181,1.08-0.36,2.34-0.36,3.689v23.22h-7.83V891.238z"/>
	<path fill="#F8ADD2" d="M556.508,865.409c0.09,2.7-1.891,4.859-5.04,4.859c-2.79,0-4.77-2.159-4.77-4.859
		c0-2.79,2.069-4.95,4.949-4.95C554.617,860.459,556.508,862.619,556.508,865.409z M547.688,921.207v-43.559h7.92v43.559H547.688z"
		/>
	<path fill="#F8ADD2" d="M568.747,889.438c0-4.5-0.09-8.19-0.359-11.79h7.02l0.45,7.2h0.18c2.16-4.141,7.2-8.19,14.399-8.19
		c6.03,0,15.39,3.601,15.39,18.54v26.009h-7.92v-25.109c0-7.02-2.609-12.869-10.079-12.869c-5.221,0-9.271,3.689-10.62,8.1
		c-0.36,0.99-0.54,2.34-0.54,3.689v26.189h-7.92V889.438z"/>
</g>
<ellipse fill="#FFFFFF" stroke="#BCE3A9" stroke-miterlimit="10" cx="331.907" cy="596.522" rx="79.568" ry="83.213"/>
<path fill="#FFFFFF" stroke="#BCE3A9" stroke-miterlimit="10" d="M430.778,508.191l-9.794,50.632
	c-2.199,11.367-16.023,15.904-24.53,8.051l-37.03-34.187c-8.185-7.556-5.383-21.107,5.127-24.798l46.825-16.445
	C422.139,487.663,432.945,496.99,430.778,508.191z"/>
<path fill="#FFFFFF" stroke="#BCE3A9" stroke-miterlimit="10" d="M255.585,491.726l46.286,18.036
	c10.373,4.042,12.72,17.669,4.296,24.948l-38.079,32.903c-8.753,7.563-22.409,2.59-24.249-8.83l-8.207-50.939
	C233.815,496.564,244.939,487.578,255.585,491.726z"/>
<ellipse fill="#FFFFFF" stroke="#BCE3A9" stroke-miterlimit="10" cx="330.322" cy="613.145" rx="4.05" ry="4.235"/>
<g>
	<line fill="none" stroke="#BCE3A9" stroke-miterlimit="10" x1="340.806" y1="606.689" x2="371.021" y2="588.084"/>
	<line fill="none" stroke="#BCE3A9" stroke-miterlimit="10" x1="341.271" y1="612.592" x2="370.556" y2="612.592"/>
	<line fill="none" stroke="#BCE3A9" stroke-miterlimit="10" x1="341.271" y1="618.496" x2="370.556" y2="634.762"/>
</g>
<g>
	<line fill="none" stroke="#BCE3A9" stroke-miterlimit="10" x1="319.279" y1="618.745" x2="288.071" y2="634.386"/>
	<line fill="none" stroke="#BCE3A9" stroke-miterlimit="10" x1="319.33" y1="612.822" x2="290.633" y2="610.025"/>
	<line fill="none" stroke="#BCE3A9" stroke-miterlimit="10" x1="319.838" y1="606.943" x2="292.538" y2="587.948"/>
</g>
<path fill="#FFFFFF" stroke="#F8ADD2" stroke-miterlimit="10" d="M743.754,315.248c0,31.265-18.21,38.028-55.232,38.028
	s-56.159-7.916-56.159-39.181s20.619-77.209,57.641-77.209C727.026,236.887,743.754,283.983,743.754,315.248z"/>
<path fill="#FFFFFF" stroke="#F8ADD2" stroke-miterlimit="10" d="M647.917,227.943c9.387,7.024-0.172,11.134-6.794,19.982
	s-7.798,19.084-17.185,12.06c-9.387-7.024-17.608-24.92-10.987-33.768C619.573,217.369,638.531,220.919,647.917,227.943z"/>
<path fill="#FFFFFF" stroke="#F8ADD2" stroke-miterlimit="10" d="M709.579,223.713c-0.478,12.668-8.984,6.73-19.667,6.326
	c-10.683-0.404-19.499,4.88-19.021-7.787c0.479-12.668,10.273-31.022,20.957-30.618
	C702.531,192.036,710.057,211.045,709.579,223.713z"/>
<path fill="#FFFFFF" stroke="#F8ADD2" stroke-miterlimit="10" d="M749.905,259.915c-9.621,6.699-10.514-3.667-16.829-12.737
	s-15.661-13.407-6.039-20.107c9.621-6.699,29.195-8.872,35.51,0.197C768.861,236.339,759.526,253.216,749.905,259.915z"/>
</svg>
