<?xml version="1.0" encoding="utf-8"?>
<!-- Generator: Adobe Illustrator 27.7.0, SVG Export Plug-In . SVG Version: 6.00 Build 0)  -->
<svg version="1.1" id="Layer_1" xmlns="http://www.w3.org/2000/svg" xmlns:xlink="http://www.w3.org/1999/xlink" x="0px" y="0px"
	 width="1000px" height="1000px" viewBox="0 0 1000 1000" enable-background="new 0 0 1000 1000" xml:space="preserve">
<path fill="#C7EAFB" d="M911.818,835.854H88.182c-6.6,0-12-5.4-12-12V67.445c0-6.6,5.4-12,12-12h823.636c6.6,0,12,5.4,12,12v756.409
	C923.818,830.454,918.418,835.854,911.818,835.854z"/>
<g>
	<rect x="130.616" y="856.618" fill="none" width="738.768" height="152.998"/>
	<path fill="#C7EAFB" d="M296.241,860.94h43.558v8.76h-33.119v26.879h30.599v8.64h-30.599v36.599h-10.439V860.94z"/>
	<path fill="#C7EAFB" d="M381.08,941.817l-0.84-7.319h-0.36c-3.24,4.56-9.479,8.64-17.759,8.64c-11.759,0-17.759-8.28-17.759-16.68
		c0-14.039,12.479-21.719,34.918-21.599v-1.2c0-4.8-1.32-13.439-13.199-13.439c-5.4,0-11.04,1.68-15.119,4.319l-2.4-6.959
		c4.8-3.12,11.76-5.16,19.08-5.16c17.759,0,22.079,12.119,22.079,23.759v21.72c0,5.039,0.24,9.959,0.96,13.919H381.08z
		 M379.52,912.179c-11.52-0.24-24.599,1.8-24.599,13.079c0,6.84,4.56,10.08,9.959,10.08c7.56,0,12.36-4.8,14.04-9.72
		c0.36-1.08,0.6-2.28,0.6-3.36V912.179z"/>
	<path fill="#C7EAFB" d="M406.761,901.859c0-6.84-0.12-12.72-0.48-18.119h9.239l0.36,11.399h0.48c2.64-7.8,9-12.72,16.079-12.72
		c1.2,0,2.04,0.12,3,0.359v9.96c-1.08-0.24-2.16-0.36-3.6-0.36c-7.439,0-12.719,5.641-14.159,13.56c-0.24,1.44-0.48,3.12-0.48,4.92
		v30.959h-10.439V901.859z"/>
	<path fill="#C7EAFB" d="M477.56,941.817l-0.84-7.319h-0.36c-3.24,4.56-9.479,8.64-17.759,8.64c-11.759,0-17.759-8.28-17.759-16.68
		c0-14.039,12.479-21.719,34.919-21.599v-1.2c0-4.8-1.32-13.439-13.2-13.439c-5.4,0-11.04,1.68-15.12,4.319l-2.399-6.959
		c4.8-3.12,11.759-5.16,19.079-5.16c17.759,0,22.079,12.119,22.079,23.759v21.72c0,5.039,0.24,9.959,0.96,13.919H477.56z
		 M476,912.179c-11.52-0.24-24.599,1.8-24.599,13.079c0,6.84,4.56,10.08,9.96,10.08c7.56,0,12.359-4.8,14.039-9.72
		c0.36-1.08,0.6-2.28,0.6-3.36V912.179z"/>
	<path fill="#C7EAFB" d="M515.48,867.061v16.68H530.6v8.039H515.48v31.318c0,7.2,2.04,11.28,7.919,11.28c2.76,0,4.8-0.36,6.12-0.72
		l0.479,7.919c-2.039,0.84-5.279,1.44-9.359,1.44c-4.92,0-8.879-1.561-11.399-4.44c-3-3.119-4.08-8.279-4.08-15.119v-31.679h-8.999
		v-8.039h8.999v-13.92L515.48,867.061z"/>
	<path fill="#C7EAFB" d="M582.918,913.858c-0.36,13.8,7.56,21.119,18.479,21.119c8.039,0,12.599-1.8,15.839-3.359l1.92,7.439
		c-4.68,2.52-11.399,4.08-19.079,4.08c-9.84,0-18.72-4.681-22.079-12.84h-0.24c-3.72,8.04-11.64,12.84-21.599,12.84
		c-12.12,0-18.119-8.16-18.119-16.56c0-13.439,12.479-21.239,35.038-20.999v-2.4c0-2.88-1.8-12.959-13.56-12.959
		c-5.52,0-11.399,2.04-14.879,4.439l-2.521-6.96c5.16-3.239,12.359-5.279,18.119-5.279c10.44,0,16.319,4.92,18.72,12.359h0.24
		c3.959-7.68,11.159-12.359,20.279-12.359c17.759,0,22.679,17.159,22.679,26.759c0,1.8-0.12,3.6-0.36,4.68H582.918z
		 M573.198,912.658c-11.16-0.239-24.719,1.681-24.719,13.08c0,6.119,4.56,9.6,10.079,9.6c7.56,0,12.359-4.68,14.04-9.96
		c0.479-1.319,0.6-2.76,0.6-4.2V912.658z M611.956,906.299c0.36-5.88-2.879-16.319-13.559-16.319c-10.439,0-15.24,9.72-15.6,16.319
		H611.956z"/>
	<path fill="#C7EAFB" d="M645.679,910.379h0.24c1.439-2.04,3.479-4.561,5.159-6.6l17.04-20.039h12.719l-22.438,23.879l25.559,34.198
		h-12.839l-20.04-27.839l-5.399,6v21.839h-10.439v-85.196h10.439V910.379z"/>
	<path fill="#C7EAFB" d="M705.318,867.42c0.12,3.601-2.521,6.48-6.72,6.48c-3.721,0-6.36-2.88-6.36-6.48c0-3.72,2.76-6.6,6.6-6.6
		C702.798,860.82,705.318,863.7,705.318,867.42z M693.559,941.817V883.74h10.56v58.077H693.559z"/>
</g>
<g>
	<rect x="953.922" y="910.784" fill="none" width="3.922" height="0"/>
</g>
<g>
</g>
<circle fill="#FFFFFF" cx="430.905" cy="486.836" r="43.994"/>
<circle fill="#FFFFFF" cx="604.855" cy="482.353" r="44.18"/>
<line fill="none" stroke="#FFFFFF" stroke-width="12" stroke-miterlimit="10" x1="289.052" y1="500" x2="381.229" y2="500"/>
<line fill="none" stroke="#FFFFFF" stroke-width="12" stroke-miterlimit="10" x1="480.582" y1="500" x2="551.475" y2="500"/>
<line fill="none" stroke="#FFFFFF" stroke-width="12" stroke-miterlimit="10" x1="680.458" y1="410.303" x2="718.627" y2="411.679"/>
<line fill="none" stroke="#FFFFFF" stroke-width="12" stroke-miterlimit="10" x1="296.24" y1="407.822" x2="296.24" y2="500"/>
<line fill="none" stroke="#FFFFFF" stroke-width="12" stroke-miterlimit="10" x1="718.627" y1="507.218" x2="718.627" y2="411.679"/>
<line fill="none" stroke="#FFFFFF" stroke-width="12" stroke-miterlimit="10" x1="346.419" y1="412.745" x2="296.24" y2="412.745"/>
<line fill="none" stroke="#FFFFFF" stroke-width="12" stroke-miterlimit="10" x1="420.963" y1="318.473" x2="341.496" y2="411.937"/>
<line fill="none" stroke="#FFFFFF" stroke-width="13" stroke-miterlimit="10" x1="610.407" y1="320.108" x2="413.725" y2="320.589"/>
<line fill="none" stroke="#FFFFFF" stroke-width="12" stroke-miterlimit="10" x1="610.407" y1="320.107" x2="680.458" y2="410.303"/>
<line fill="none" stroke="#FFFFFF" stroke-width="12" stroke-miterlimit="10" x1="718.627" y1="500" x2="658.234" y2="500"/>
<path fill="#FFFFFF" d="M614.753,316.002c-0.174-0.346-0.443-0.661-0.683-0.953c-0.119-0.144-0.254-0.272-0.4-0.389
	c-0.293-0.237-0.602-0.498-0.945-0.669c-0.346-0.173-0.718-0.344-1.098-0.437c-0.782-0.191-1.605-0.206-2.383,0.016
	c-0.608,0.174-1.173,0.601-1.494,1.149c-0.183,0.287-0.282,0.597-0.297,0.93c-0.074,0.332-0.06,0.665,0.045,0.997
	c0.196,0.605,0.571,1.189,1.149,1.494c0.035,0.019,0.073,0.03,0.109,0.047c-0.004,0.015-0.013,0.028-0.017,0.044
	c-0.104,0.332-0.119,0.665-0.045,0.997c0.015,0.333,0.114,0.643,0.297,0.93c0.157,0.291,0.372,0.525,0.644,0.701
	c0.241,0.221,0.525,0.37,0.85,0.447c0.64,0.146,1.358,0.114,1.926-0.252c0.124-0.08,0.24-0.17,0.352-0.265
	c0.018,0,0.034,0.007,0.052,0.007c0.451-0.001,0.872-0.115,1.262-0.341c0.376-0.222,0.675-0.521,0.897-0.897
	c0.226-0.39,0.34-0.811,0.341-1.262C615.357,317.488,615.11,316.712,614.753,316.002z"/>
<path fill="#FFFFFF" d="M685.606,413.09c-0.196-0.605-0.571-1.189-1.149-1.494c-0.44-0.233-0.873-0.319-1.333-0.309l-0.48-0.371
	c-0.336-0.195-0.699-0.289-1.081-0.317c-0.357-0.059-0.704-0.154-1.043-0.275c-0.114-0.056-0.219-0.13-0.329-0.193
	c-0.01-0.039-0.009-0.077-0.021-0.116c-0.16-0.58-0.608-1.208-1.149-1.494c-0.489-0.258-1.064-0.394-1.618-0.31
	c-0.536-0.063-1.143,0.029-1.577,0.309c-0.534,0.344-1.004,0.857-1.149,1.494c-0.141,0.617-0.138,1.392,0.252,1.926
	c0.09,0.124,0.187,0.242,0.28,0.364c0.041,0.196,0.085,0.391,0.157,0.575c0.278,0.712,0.578,1.212,1.075,1.799
	c0.323,0.381,0.745,0.699,1.161,0.968c0.934,0.605,2.124,0.838,3.219,0.867c1.017,0.027,2.042-0.168,3.04-0.348
	c0.585-0.105,1.205-0.654,1.494-1.149C685.668,414.481,685.8,413.691,685.606,413.09z"/>
<path fill="#FFFFFF" d="M724.361,412.039c-0.164-1.245-0.328-2.489-0.493-3.733c-0.03-0.222-0.06-0.443-0.089-0.665
	c-0.077-0.325-0.227-0.609-0.447-0.85c-0.319-0.413-0.775-0.777-1.299-0.896c-0.44-0.1-0.89-0.1-1.329,0
	c-0.001,0-0.001,0-0.002,0.001c-0.266-0.138-0.546-0.25-0.847-0.319c-0.462-0.105-0.941-0.151-1.413-0.124
	c-0.126,0.007-0.252,0.016-0.377,0.021c-0.34-0.173-0.711-0.281-1.105-0.281c-0.613,0-1.346,0.272-1.768,0.732
	c-0.437,0.476-0.762,1.102-0.732,1.768c0.029,0.646,0.241,1.318,0.732,1.768c0.743,0.681,1.629,1.012,2.633,1.021
	c0.123,0.001,0.246-0.009,0.369-0.016c-0.104,0.685-0.179,1.376-0.172,2.065c0.006,0.617,0.268,1.342,0.732,1.768
	c0.413,0.379,0.877,0.613,1.435,0.688c0.533,0.072,1.128,0.003,1.594-0.297c0.078-0.05,0.15-0.111,0.224-0.168
	c0.6-0.053,1.205-0.261,1.622-0.715C724.043,413.355,724.446,412.677,724.361,412.039z"/>
<path fill="#FFFFFF" d="M722.618,503.503c-20.733,0.401-41.478-0.029-62.177-1.291c-3.214-0.196-3.202,4.805,0,5
	c20.699,1.261,41.443,1.692,62.177,1.291C725.831,508.441,725.842,503.44,722.618,503.503z"/>
<path fill="#FFFFFF" d="M300.729,407.24c-0.466-0.428-1.113-0.786-1.768-0.732c-1.85,0.151-3.708,0.107-5.55-0.122
	c-0.038-0.006-0.076-0.011-0.114-0.017c-0.688-0.106-1.302-0.113-1.926,0.252c-0.519,0.304-1.013,0.898-1.149,1.494
	c-0.146,0.64-0.114,1.358,0.252,1.926c0.329,0.511,0.866,1.052,1.494,1.149c2.323,0.359,4.647,0.508,6.993,0.317
	c0.673-0.055,1.277-0.242,1.768-0.732c0.434-0.434,0.76-1.145,0.732-1.768C301.432,408.361,301.22,407.69,300.729,407.24z"/>
<path fill="#FFFFFF" d="M294.369,480.871c-0.092-1.302-1.084-2.563-2.5-2.5c-1.276,0.057-2.599,1.103-2.5,2.5
	c0.336,4.758,0.391,9.529,0.166,14.294c-0.062,1.308,1.194,2.558,2.5,2.5c1.407-0.063,2.434-1.099,2.5-2.5
	C294.76,490.401,294.705,485.629,294.369,480.871z"/>
<path fill="#FFFFFF" d="M417.104,314.475c-0.877-0.877-2.683-1.056-3.536,0c-10.713,13.276-21.426,26.552-32.139,39.829
	c-3.083,3.821-6.167,7.642-9.25,11.463c-0.847,1.05-1.026,2.509,0,3.536c0.877,0.877,2.683,1.056,3.536,0l32.139-39.829
	c3.083-3.821,6.167-7.642,9.25-11.463C417.951,316.96,418.13,315.501,417.104,314.475z"/>
<path fill="#FFFFFF" d="M386.169,362.238c-1.072-0.627-2.861-0.339-3.42,0.897c-3.392,7.493-8.766,14.065-13.651,20.622
	c-5.045,6.771-10.216,13.448-15.51,20.027c-3.015,3.747-6.07,7.462-9.161,11.147c-0.867,1.034-1.013,2.522,0,3.536
	c0.891,0.891,2.664,1.039,3.536,0c11.096-13.228,21.737-26.853,31.82-40.87c2.728-3.792,5.353-7.669,7.285-11.937
	C387.623,364.429,387.419,362.969,386.169,362.238z"/>
<g>
</g>
<g>
</g>
<g>
</g>
<g>
</g>
<g>
</g>
<g>
</g>
</svg>
