<?xml version="1.0" encoding="utf-8"?>
<!-- Generator: Adobe Illustrator 27.7.0, SVG Export Plug-In . SVG Version: 6.00 Build 0)  -->
<svg version="1.1" id="Layer_1" xmlns="http://www.w3.org/2000/svg" xmlns:xlink="http://www.w3.org/1999/xlink" x="0px" y="0px"
	 width="1000px" height="1000px" viewBox="0 0 1000 1000" enable-background="new 0 0 1000 1000" xml:space="preserve">
<g opacity="0.65">
	<path fill="#FAF3F7" d="M886.24,799.183h-765.8c-6.6,0-12-5.4-12-12V69.312c0-6.6,5.4-12,12-12h765.8c6.6,0,12,5.4,12,12v717.871
		C898.24,793.783,892.84,799.183,886.24,799.183z"/>
</g>
<g>
	<path fill="#C59CBF" d="M375.927,837.816h45.347v8.76h-34.479v26.879h31.855v8.64h-31.855v36.599h-10.869V837.816z"/>
	<path fill="#C59CBF" d="M487.236,889.175c0,21.479-15.49,30.839-30.106,30.839c-16.365,0-28.982-11.52-28.982-29.879
		c0-19.439,13.242-30.839,29.982-30.839C475.493,859.296,487.236,871.415,487.236,889.175z M439.265,889.774
		c0,12.72,7.621,22.319,18.364,22.319c10.494,0,18.364-9.479,18.364-22.56c0-9.839-5.122-22.318-18.114-22.318
		S439.265,878.735,439.265,889.774z"/>
	<path fill="#C59CBF" d="M501.102,878.735c0-6.84-0.125-12.72-0.5-18.119h9.619l0.375,11.399h0.5
		c2.748-7.8,9.369-12.72,16.739-12.72c1.25,0,2.124,0.12,3.123,0.359v9.96c-1.124-0.24-2.248-0.36-3.747-0.36
		c-7.745,0-13.242,5.641-14.741,13.56c-0.25,1.44-0.5,3.12-0.5,4.92v30.959h-10.868V878.735z"/>
	<path fill="#C59CBF" d="M542.451,876.335c0-6-0.125-10.92-0.5-15.719h9.619l0.5,9.359h0.374c3.373-5.52,8.995-10.68,18.988-10.68
		c8.245,0,14.491,4.8,17.114,11.64h0.25c1.874-3.24,4.248-5.76,6.746-7.56c3.623-2.641,7.62-4.08,13.367-4.08
		c7.995,0,19.862,5.04,19.862,25.199v34.198h-10.743v-32.879c0-11.159-4.247-17.879-13.117-17.879c-6.246,0-11.118,4.439-12.992,9.6
		c-0.499,1.439-0.874,3.359-0.874,5.279v35.879h-10.743v-34.799c0-9.239-4.247-15.959-12.617-15.959
		c-6.871,0-11.868,5.279-13.617,10.56c-0.624,1.56-0.874,3.359-0.874,5.16v35.038h-10.743V876.335z"/>
</g>
<path fill="#CBBCD0" d="M447.173,329.668h-188.5c-6.6,0-12-5.4-12-12V151.334c0-6.6,5.4-12,12-12h188.5c6.6,0,12,5.4,12,12v166.335
	C459.173,324.268,453.773,329.668,447.173,329.668z"/>
<circle fill="#AED5E9" cx="665.489" cy="234.501" r="99.358"/>
<polygon fill="#F6DEDA" points="363.758,416.344 495.876,671.868 231.64,671.868 "/>
<polygon fill="#FFED96" points="757.161,671.798 666.797,624.434 577.431,671.868 593.536,571.47 520.084,500.401 620.402,485.715 
	664.372,394.358 710.267,485.68 810.894,500.287 738.941,571.413 "/>
<g>
</g>
<g>
</g>
<g>
</g>
<g>
</g>
<g>
</g>
<g>
</g>
</svg>
