<?xml version="1.0" encoding="utf-8"?>
<!-- Generator: Adobe Illustrator 27.7.0, SVG Export Plug-In . SVG Version: 6.00 Build 0)  -->
<svg version="1.1" id="Layer_1" xmlns="http://www.w3.org/2000/svg" xmlns:xlink="http://www.w3.org/1999/xlink" x="0px" y="0px"
	 width="1000px" height="1000px" viewBox="0 0 1000 1000" enable-background="new 0 0 1000 1000" xml:space="preserve">
<g id="blue_x5F_box" opacity="0.65">
	<g id="Blue" opacity="0.8">
		<g>
			<path fill="#A583A2" d="M76.003,797.006c0,12.646,10.185,22.896,22.754,22.896h798.907c12.568,0,22.754-10.25,22.754-22.896
				V66.876c0-12.646-10.185-22.896-22.754-22.896H98.757c-12.568,0-22.754,10.25-22.754,22.896v730.13H76.003z"/>
		</g>
	</g>
	<g id="Blue_x5F_outline" display="none">
		<g display="inline">
			<path fill="#A583A2" d="M897.664,821.174H98.757c-13.242,0-24.017-10.843-24.017-24.168V66.876
				c0-13.325,10.776-24.168,24.017-24.168h798.907c13.242,0,24.017,10.843,24.017,24.168v730.129
				C921.681,810.33,910.906,821.174,897.664,821.174z M98.757,45.253c-11.849,0-21.49,9.7-21.49,21.625v730.129
				c0,11.923,9.64,21.624,21.49,21.624h798.907c11.849,0,21.49-9.7,21.49-21.624V66.876c0-11.923-9.64-21.625-21.49-21.625H98.757
				V45.253z"/>
		</g>
	</g>
</g>
<g>
</g>
<g>
	<path fill="#A583A2" d="M408.451,864.165l45.985-0.056l0.011,9.217l-34.963,0.043l0.035,28.28l32.304-0.04l0.011,9.09l-32.303,0.04
		l0.047,38.507l-11.021,0.013L408.451,864.165z"/>
	<path fill="#A583A2" d="M521.388,918.063c0.028,22.599-15.668,32.465-30.49,32.483c-16.596,0.021-29.404-12.084-29.428-31.4
		c-0.025-20.453,13.388-32.463,30.362-32.483C509.441,886.642,521.365,899.378,521.388,918.063z M472.744,918.754
		c0.017,13.383,7.757,23.474,18.65,23.46c10.642-0.013,18.61-9.997,18.593-23.758c-0.013-10.353-5.223-23.477-18.398-23.461
		C478.415,895.012,472.73,907.139,472.744,918.754z M473.192,870.777c-0.004-3.535,2.905-6.442,6.452-6.446s6.211,2.77,6.216,6.431
		c0.004,3.409-2.526,6.442-6.2,6.447C475.86,877.214,473.196,874.187,473.192,870.777z M496.753,870.749
		c-0.004-3.535,2.779-6.442,6.327-6.446c3.547-0.005,6.211,2.77,6.216,6.431c0.004,3.409-2.526,6.442-6.2,6.447
		C499.295,877.185,496.757,874.158,496.753,870.749z"/>
	<path fill="#A583A2" d="M548.817,870.433l0.021,17.549l15.961-0.02l0.01,8.459l-15.961,0.02l0.041,32.951
		c0.009,7.575,2.168,11.865,8.375,11.858c2.914-0.004,5.066-0.386,6.46-0.766l0.517,8.331c-2.153,0.887-5.572,1.522-9.879,1.527
		c-5.194,0.007-9.377-1.63-12.041-4.657c-3.171-3.278-4.317-8.705-4.326-15.901l-0.041-33.33l-9.501,0.012l-0.01-8.459l9.501-0.012
		l-0.019-14.646L548.817,870.433z"/>
</g>
<g>
</g>
<polygon fill="#D2929C" points="650.063,675.899 576.332,689.87 497.554,455.332 494.548,446.37 496.407,440.951 493.783,440.445 
	492.636,440.664 494.548,446.37 491.47,455.332 411.052,689.856 337.413,675.611 416.919,443.756 416.919,399.435 571.34,399.435 
	571.34,441.498 "/>
<polygon fill="#D2929C" points="531.556,442.81 530.085,448.814 528.571,442.492 529.479,442.249 "/>
<polygon fill="#D2929C" points="531.943,442.21 526.856,451.238 521.619,441.731 524.761,441.366 "/>
<rect x="411.089" y="163.401" fill="#4A53A4" width="167.826" height="210.11"/>
<polygon fill="#4A53A4" points="383.677,293.876 344.911,247.042 413.557,164.108 452.323,210.942 "/>
<polygon fill="#4A53A4" points="643.698,241.666 605.654,287.629 540.602,209.038 578.646,163.076 "/>
<g>
</g>
<g>
</g>
<g>
</g>
<g>
</g>
<g>
</g>
<g>
</g>
</svg>
