<?xml version="1.0" encoding="utf-8"?>
<!-- Generator: Adobe Illustrator 27.7.0, SVG Export Plug-In . SVG Version: 6.00 Build 0)  -->
<svg version="1.1" id="Layer_1" xmlns="http://www.w3.org/2000/svg" xmlns:xlink="http://www.w3.org/1999/xlink" x="0px" y="0px"
	 width="1000px" height="1000px" viewBox="0 0 1000 1000" enable-background="new 0 0 1000 1000" xml:space="preserve">
<g opacity="0.65">
	<path fill="#CEB1C0" d="M918.626,792.112H81.292c-6.6,0-12-5.4-12-12V58.025c0-6.6,5.4-12,12-12h837.334c6.6,0,12,5.4,12,12
		v722.087C930.626,786.712,925.226,792.112,918.626,792.112z"/>
</g>
<rect x="112.567" y="821.138" fill="none" width="774.783" height="120"/>
<g>
	<path opacity="0.65" fill="#F8C1D9" d="M351.165,907.654c-4.681,1.68-13.92,4.439-24.84,4.439c-12.239,0-22.318-3.12-30.238-10.68
		c-6.96-6.72-11.279-17.519-11.279-30.118c0.12-24.119,16.679-41.759,43.798-41.759c9.359,0,16.68,2.04,20.159,3.72l-2.52,8.52
		c-4.32-1.92-9.72-3.479-17.88-3.479c-19.679,0-32.519,12.239-32.519,32.519c0,20.52,12.359,32.639,31.199,32.639
		c6.84,0,11.52-0.96,13.919-2.16v-24.119h-16.439v-8.399h26.64V907.654z"/>
	<path opacity="0.65" fill="#F8C1D9" d="M408.164,883.295c-0.359,13.8,7.56,21.119,18.479,21.119c8.04,0,12.6-1.8,15.84-3.359
		l1.92,7.439c-4.681,2.52-11.4,4.08-19.08,4.08c-9.839,0-18.719-4.681-22.079-12.84h-0.239c-3.721,8.04-11.64,12.84-21.6,12.84
		c-12.119,0-18.119-8.16-18.119-16.56c0-13.439,12.479-21.239,35.039-20.999v-2.4c0-2.88-1.801-12.959-13.56-12.959
		c-5.521,0-11.399,2.04-14.88,4.439l-2.52-6.96c5.159-3.239,12.359-5.279,18.119-5.279c10.439,0,16.319,4.92,18.719,12.359h0.24
		c3.96-7.68,11.16-12.359,20.279-12.359c17.76,0,22.679,17.159,22.679,26.759c0,1.8-0.12,3.6-0.359,4.68H408.164z M398.444,882.095
		c-11.159-0.239-24.719,1.681-24.719,13.08c0,6.119,4.56,9.6,10.08,9.6c7.56,0,12.359-4.68,14.039-9.96c0.48-1.319,0.6-2.76,0.6-4.2
		V882.095z M437.203,875.735c0.36-5.88-2.88-16.319-13.56-16.319c-10.439,0-15.239,9.72-15.6,16.319H437.203z"/>
	<path opacity="0.65" fill="#F8C1D9" d="M460.485,826.058h10.56v85.196h-10.56V826.058z"/>
	<path opacity="0.65" fill="#F8C1D9" d="M537.402,895.415c0,5.999,0.12,11.279,0.48,15.839h-9.36l-0.6-9.479h-0.24
		c-2.76,4.68-8.879,10.8-19.199,10.8c-9.119,0-20.039-5.04-20.039-25.439v-33.958h10.56v32.158c0,11.039,3.36,18.479,12.96,18.479
		c7.079,0,11.999-4.92,13.919-9.6c0.601-1.561,0.96-3.48,0.96-5.4v-35.638h10.56V895.415z"/>
	<path opacity="0.65" fill="#F8C1D9" d="M605.082,826.058v70.197c0,5.159,0.12,11.039,0.479,14.999h-9.479l-0.479-10.079h-0.24
		c-3.24,6.479-10.32,11.399-19.8,11.399c-14.039,0-24.839-11.88-24.839-29.52c-0.12-19.319,11.88-31.198,26.039-31.198
		c8.88,0,14.88,4.199,17.52,8.88h0.24v-34.679H605.082z M594.522,876.815c0-1.32-0.12-3.12-0.48-4.439
		c-1.56-6.721-7.319-12.24-15.239-12.24c-10.92,0-17.399,9.6-17.399,22.439c0,11.76,5.76,21.479,17.159,21.479
		c7.08,0,13.56-4.68,15.479-12.599c0.36-1.44,0.48-2.88,0.48-4.561V876.815z"/>
	<path opacity="0.65" fill="#F8C1D9" d="M626.443,853.177l12.72,34.318c1.319,3.84,2.76,8.399,3.72,11.879h0.239
		c1.08-3.479,2.28-7.919,3.721-12.119l11.52-34.078h11.159l-15.839,41.397c-7.561,19.92-12.72,30.119-19.92,36.358
		c-5.159,4.561-10.319,6.36-12.959,6.84l-2.641-8.879c2.641-0.84,6.12-2.521,9.24-5.16c2.88-2.28,6.479-6.359,8.88-11.76
		c0.479-1.08,0.84-1.92,0.84-2.52s-0.24-1.44-0.72-2.76l-21.479-53.518H626.443z M659.682,828.098l-14.64,17.159h-7.56l10.56-17.159
		H659.682z"/>
	<path opacity="0.65" fill="#F8C1D9" d="M679.122,871.296c0-6.84-0.12-12.72-0.48-18.119h9.24l0.359,11.399h0.48
		c2.64-7.8,9-12.72,16.079-12.72c1.2,0,2.04,0.12,3,0.359v9.96c-1.08-0.24-2.16-0.36-3.6-0.36c-7.44,0-12.72,5.641-14.159,13.56
		c-0.24,1.44-0.48,3.12-0.48,4.92v30.959h-10.439V871.296z"/>
</g>
<g id="dog">
	<g id="pig_00000036939212004047249030000006446360800853371058_">
		<path fill="#FDE8A0" d="M737.951,548.612v15.898c0,44.731-38.345,81.327-85.214,81.327H365.702
			c-46.869,0-85.214-36.595-85.214-81.327v-15.898c0-19.816,7.525-38.036,19.992-52.183c9.763-11.1,22.577-19.692,37.172-24.584
			c8.796-2.954,18.233-4.56,28.05-4.56h287.035c10.914,0,21.371,1.99,30.982,5.607C715.385,484.769,737.951,514.296,737.951,548.612
			z"/>
	</g>
	<g id="pig_00000155138013911743557600000014247457681268823705_">
		<path fill="#FDE8A0" d="M673.883,346.612v101.544c0,6.313-0.41,12.533-1.2,18.639c-8.85,68.471-65.71,121.709-133.97,121.709
			h-50.96c-52.25-0.145-97.79-31.484-120.13-76.945c-6.93-14.091-11.63-29.521-13.62-45.814c-0.7-5.763-1.06-11.63-1.06-17.59
			V346.612c0-74.722,57-136.298,128.07-140.161c2.35-0.135,4.72-0.197,7.1-0.197h50.6
			C613.053,206.253,673.883,269.418,673.883,346.612z"/>
	</g>
	<path fill="#F9C4D2" d="M512.414,605.305L512.414,605.305c-14.584,0-26.517-11.932-26.517-26.517v-29.51
		c0-14.584,11.932-11.255,26.517-11.255l0,0c14.584,0,26.517-3.329,26.517,11.255v29.51
		C538.93,593.373,526.998,605.305,512.414,605.305z"/>
	<path fill="#C3996C" d="M558.516,509.49c0,12.767-20.641,31.207-46.102,31.207s-46.102-18.44-46.102-31.207
		c0-12.767,20.641-14.953,46.102-14.953S558.516,496.723,558.516,509.49z"/>
	<path fill="#C3996C" d="M575.872,538.176c-1.501,13.894-13.363,25.55-27.444,26.023c-6.96,0.234-13.981-1.832-19.501-6.14
		c-5.662-4.418-11.908-12.643-13.548-19.731c-1.449-6.267-11.094-3.615-9.643,2.658c2.187,9.457,9.975,19.575,17.617,25.343
		c7.47,5.638,17.192,8.501,26.534,7.79c19.331-1.471,33.937-16.989,35.984-35.943C586.562,531.786,576.557,531.835,575.872,538.176z
		"/>
	<path fill="#C3996C" d="M502.38,539.218c-1.501,13.894-13.363,25.55-27.444,26.023c-6.96,0.234-13.981-1.832-19.501-6.14
		c-5.662-4.418-11.908-12.643-13.548-19.731c-1.449-6.267-11.094-3.615-9.643,2.658c2.187,9.457,9.975,19.575,17.617,25.343
		c7.47,5.638,17.192,8.501,26.534,7.79c19.331-1.471,33.937-16.989,35.984-35.943C513.07,532.828,503.065,532.876,502.38,539.218z"
		/>
	<path fill="#FDE8A0" d="M549.656,544.673c0-3.935-3.434-7.666-7.5-7.5c-2.787,0.114-5.567,0.341-8.335,0.664
		c1.447-0.419,2.894-0.839,4.336-1.275c0.281-0.085,1.447-0.396,1.321-0.865c-0.121-0.45-1.348-0.158-1.577-0.089
		c-3.119,0.943-6.249,1.847-9.391,2.707c-0.966,0.264-1.934,0.518-2.902,0.774c-0.211,0.039-0.423,0.07-0.633,0.11
		c-0.423,0.081-0.817,0.217-1.196,0.375c-0.691,0.179-1.382,0.357-2.074,0.531c-0.013,0.003-0.028,0.008-0.041,0.012
		c-0.086-0.044-0.172-0.088-0.258-0.131c-0.23-0.079-0.466-0.108-0.709-0.088h-0.252c-0.204,0.01-0.398,0.055-0.583,0.137
		c-0.185,0.055-0.354,0.143-0.507,0.264c-0.033,0.022-0.047,0.059-0.077,0.084c-0.232-0.111-0.745-0.111-1.275-0.015
		c-1.004-0.275-2.63,0.427-2.242,1.282c1.228,2.703,2.645,5.339,4.304,7.807c0.356,0.852,0.879,1.635,1.6,2.277
		c0.037,0.033,0.075,0.062,0.112,0.095c0.887,1.134,1.834,2.221,2.858,3.241c1.828,1.822,3.875,3.449,6.125,4.72
		c2.801,1.581,5.87,2.53,8.94,3.435c0.67,0.197,1.58-0.014,2.049-0.549c0.423-0.483,0.303-1.087-0.342-1.277
		c-0.444-0.131-0.888-0.263-1.332-0.397c4.822-0.304,7.421-5.766,6.083-10.084C548.238,549.595,549.656,547.343,549.656,544.673z"/>
	<path fill="#FDE8A0" d="M502.363,539.746c-0.006-0.036,0.003-0.074-0.006-0.109c-0.034-0.073-0.09-0.114-0.167-0.123
		c-0.106-0.043-0.218-0.06-0.335-0.051c-0.164-0.002-0.327,0.012-0.489,0.041c-0.012,0.001-0.024,0.006-0.036,0.007l-3.735-0.824
		c-0.015-0.057-0.042-0.112-0.094-0.161c-0.208-0.194-0.509-0.224-0.778-0.24c-0.044-0.002-0.087-0.005-0.131-0.008
		c-0.049-0.005-0.099-0.011-0.145-0.017c-0.161-0.022-0.322-0.05-0.481-0.083c-0.16-0.033-0.318-0.071-0.475-0.114
		c-0.048-0.013-0.096-0.027-0.144-0.042c0.04,0.012,0.081,0.024,0.121,0.036c-0.086-0.002-0.203-0.069-0.284-0.098
		c-0.351-0.127-0.753-0.129-1.135-0.056c-0.23-0.173-0.457-0.348-0.65-0.563c-0.173-0.192-0.546-0.234-0.778-0.239
		c-0.367-0.008-0.801,0.079-1.135,0.229c-0.318,0.142-1.062,0.567-0.853,1.009c-0.722,0.157-1.44,0.421-2.135,0.8
		c-4.684,2.554-7.79,6.693-9.686,11.586c-0.662,1.708-0.132,4.261,0.756,5.779c0.91,1.556,2.694,3.039,4.482,3.447
		c0.585,0.133,1.153,0.201,1.703,0.217c-0.541,0.273-1.091,0.531-1.655,0.763c-0.574,0.236-1.062,0.952-0.673,1.535
		c0.421,0.631,1.398,0.477,1.975,0.24c8.894-3.655,15.473-12.167,16.671-21.716c0.013-0.107,0.007-0.202-0.01-0.29
		c0.055-0.047,0.122-0.082,0.165-0.142c0.067-0.115,0.102-0.239,0.128-0.366C502.557,540.028,502.677,539.839,502.363,539.746z"/>
	<path fill="#F3A469" d="M545.747,338.022c0,49.396-18.225,94.126-47.712,126.597c-29.726,32.734-70.916,52.998-116.419,52.998
		c-8.121,0-16.099-0.642-23.898-1.896c-20.53-3.275-39.817-10.711-57.147-21.486c10.737-11.28,24.829-20.011,40.88-24.982
		c-0.836-5.845-1.266-11.796-1.266-17.842V348.417c0-75.79,68.074-138.246,152.951-142.164
		C525.492,239.05,545.747,285.95,545.747,338.022z"/>
	<circle fill="#A97D51" cx="460.5" cy="433.757" r="11.755"/>
	<circle fill="#A97D51" cx="563.153" cy="433.757" r="11.755"/>
	<path fill="#A97D51" d="M728.173,355.62l-115.239,45.666c-14.906,5.907-30.362-7.227-26.939-22.89l29.551-135.238
		c3.423-15.664,22.949-21.153,34.032-9.567l85.687,89.571C745.09,333.433,741.386,350.384,728.173,355.62z"/>
	<path fill="#A97D51" d="M408.895,390.976l-122.778-45.492c-15.708-5.82-19.21-26.47-6.301-37.144l101.163-83.646
		c12.91-10.674,32.533-3.354,35.299,13.167L437.893,367C440.651,383.479,424.563,396.782,408.895,390.976z"/>
</g>
<g>
</g>
<g>
</g>
<g>
</g>
<g>
</g>
<g>
</g>
<g>
</g>
</svg>
