<?xml version="1.0" encoding="utf-8"?>
<!-- Generator: Adobe Illustrator 27.9.0, SVG Export Plug-In . SVG Version: 6.00 Build 0)  -->
<svg version="1.1" id="Layer_1" xmlns="http://www.w3.org/2000/svg" xmlns:xlink="http://www.w3.org/1999/xlink" x="0px" y="0px"
	 width="1000px" height="1000px" viewBox="0 0 1000 1000" enable-background="new 0 0 1000 1000" xml:space="preserve">
<path opacity="0.1" fill="#80D1F5" d="M896.353,810.883H91.968c-28.669,0-52.126-23.457-52.126-52.126V91.647
	c0-28.67,23.457-52.126,52.126-52.126h804.385c28.669,0,52.126,23.457,52.126,52.126v667.11
	C948.479,787.426,925.023,810.883,896.353,810.883z"/>
<g>
	<rect x="56.848" y="877.319" fill="none" width="874.625" height="231.198"/>
	<path fill="#80D1F5" d="M225.874,938.519c-3.51,1.26-10.439,3.329-18.629,3.329c-9.179,0-16.739-2.34-22.679-8.01
		c-5.22-5.039-8.46-13.139-8.46-22.589c0.09-18.089,12.51-31.318,32.849-31.318c7.02,0,12.51,1.529,15.12,2.79l-1.89,6.39
		c-3.24-1.44-7.29-2.61-13.409-2.61c-14.76,0-24.389,9.18-24.389,24.39c0,15.389,9.27,24.479,23.399,24.479
		c5.13,0,8.64-0.72,10.44-1.62v-18.089h-12.33v-6.3h19.979V938.519z"/>
	<path fill="#80D1F5" d="M242.434,920.879c0.18,10.71,7.02,15.119,14.939,15.119c5.67,0,9.09-0.99,12.06-2.25l1.35,5.67
		c-2.79,1.26-7.56,2.7-14.49,2.7c-13.409,0-21.419-8.82-21.419-21.959c0-13.14,7.74-23.489,20.429-23.489
		c14.219,0,17.999,12.51,17.999,20.52c0,1.619-0.18,2.88-0.27,3.689H242.434z M265.653,915.209c0.09-5.04-2.07-12.869-10.979-12.869
		c-8.01,0-11.52,7.38-12.15,12.869H265.653z"/>
	<path fill="#80D1F5" d="M292.653,885.15v12.51h11.339v6.029h-11.339v23.489c0,5.399,1.53,8.46,5.94,8.46
		c2.07,0,3.6-0.271,4.59-0.54l0.36,5.939c-1.53,0.63-3.96,1.08-7.02,1.08c-3.689,0-6.66-1.17-8.549-3.33
		c-2.25-2.34-3.06-6.21-3.06-11.34v-23.759h-6.75v-6.029h6.75v-10.44L292.653,885.15z"/>
	<path fill="#80D1F5" d="M322.443,885.15v12.51h11.339v6.029h-11.339v23.489c0,5.399,1.53,8.46,5.94,8.46
		c2.07,0,3.6-0.271,4.589-0.54l0.36,5.939c-1.53,0.63-3.96,1.08-7.02,1.08c-3.689,0-6.66-1.17-8.549-3.33
		c-2.25-2.34-3.06-6.21-3.06-11.34v-23.759h-6.75v-6.029h6.75v-10.44L322.443,885.15z"/>
	<path fill="#80D1F5" d="M379.141,929.339c0,4.499,0.09,8.459,0.36,11.879h-7.02l-0.45-7.109h-0.18c-2.07,3.51-6.66,8.1-14.399,8.1
		c-6.84,0-15.029-3.78-15.029-19.079V897.66h7.919v24.118c0,8.28,2.52,13.86,9.72,13.86c5.31,0,9-3.69,10.439-7.2
		c0.45-1.17,0.72-2.609,0.72-4.05V897.66h7.919V929.339z"/>
	<path fill="#80D1F5" d="M414.421,897.66l8.55,24.479c1.439,3.96,2.609,7.56,3.51,11.159h0.27c0.99-3.6,2.25-7.199,3.69-11.159
		l8.459-24.479h8.28l-17.1,43.558h-7.56l-16.56-43.558H414.421z"/>
	<path fill="#80D1F5" d="M458.161,920.879c0.18,10.71,7.02,15.119,14.939,15.119c5.67,0,9.09-0.99,12.06-2.25l1.35,5.67
		c-2.79,1.26-7.56,2.7-14.489,2.7c-13.409,0-21.419-8.82-21.419-21.959c0-13.14,7.739-23.489,20.429-23.489
		c14.22,0,18,12.51,18,20.52c0,1.619-0.181,2.88-0.271,3.689H458.161z M481.379,915.209c0.091-5.04-2.069-12.869-10.979-12.869
		c-8.01,0-11.52,7.38-12.149,12.869H481.379z"/>
	<path fill="#80D1F5" d="M501,891.72l10.439-4.949c-2.699-1.98-6.029-3.78-9.359-5.4l3.42-4.949c4.319,1.979,8.819,4.5,12.689,7.289
		l11.52-5.489l1.89,3.96l-9.539,4.5c4.949,4.05,8.909,8.909,11.52,14.309c2.43,5.04,3.779,10.8,3.779,17.46
		c0.09,16.739-10.619,23.759-21.059,23.759c-11.79,0-20.609-8.64-20.609-22.229c0-14.129,9.899-22.318,20.249-22.318
		c3.33,0,6.569,0.63,9.989,3.869l0.181-0.27c-2.61-4.32-6.03-8.189-10.62-11.609l-12.779,5.939L501,891.72z M529.258,919.349
		c0-5.67-0.81-9.27-3.06-12.06c-1.98-2.25-4.95-4.229-9.54-4.229c-9.359,0-12.959,9.63-12.959,16.829c0,9.18,5.31,16.38,12.6,16.38
		C524.218,936.269,529.258,929.248,529.258,919.349z"/>
	<path fill="#80D1F5" d="M547.527,911.249c0-5.13-0.09-9.539-0.359-13.589h6.93l0.27,8.549h0.36c1.979-5.85,6.75-9.539,12.06-9.539
		c0.899,0,1.529,0.09,2.25,0.27v7.47c-0.811-0.18-1.62-0.27-2.7-0.27c-5.58,0-9.54,4.229-10.619,10.17
		c-0.181,1.079-0.36,2.34-0.36,3.689v23.219h-7.83V911.249z"/>
	<path fill="#80D1F5" d="M600.627,941.218l-0.63-5.489h-0.27c-2.431,3.42-7.11,6.479-13.319,6.479c-8.82,0-13.32-6.21-13.32-12.51
		c0-10.529,9.36-16.289,26.189-16.199V912.6c0-3.601-0.99-10.08-9.899-10.08c-4.05,0-8.28,1.26-11.34,3.24l-1.8-5.22
		c3.6-2.34,8.819-3.87,14.31-3.87c13.319,0,16.56,9.09,16.56,17.819v16.289c0,3.78,0.18,7.47,0.72,10.439H600.627z M599.457,918.989
		c-8.64-0.181-18.449,1.35-18.449,9.81c0,5.13,3.42,7.56,7.47,7.56c5.67,0,9.27-3.6,10.529-7.29c0.271-0.81,0.45-1.71,0.45-2.52
		V918.989z M603.417,878.851l-10.979,12.869h-5.67l7.92-12.869H603.417z"/>
	<path fill="#80D1F5" d="M629.067,885.15v12.51h11.34v6.029h-11.34v23.489c0,5.399,1.53,8.46,5.939,8.46
		c2.07,0,3.601-0.271,4.59-0.54l0.36,5.939c-1.53,0.63-3.96,1.08-7.02,1.08c-3.69,0-6.66-1.17-8.55-3.33
		c-2.25-2.34-3.06-6.21-3.06-11.34v-23.759h-6.75v-6.029h6.75v-10.44L629.067,885.15z"/>
	<path fill="#80D1F5" d="M658.856,885.15v12.51h11.34v6.029h-11.34v23.489c0,5.399,1.53,8.46,5.939,8.46
		c2.07,0,3.601-0.271,4.59-0.54l0.36,5.939c-1.53,0.63-3.96,1.08-7.02,1.08c-3.69,0-6.66-1.17-8.55-3.33
		c-2.25-2.34-3.06-6.21-3.06-11.34v-23.759h-6.75v-6.029h6.75v-10.44L658.856,885.15z"/>
	<path fill="#80D1F5" d="M715.555,929.339c0,4.499,0.09,8.459,0.359,11.879h-7.02l-0.45-7.109h-0.18c-2.07,3.51-6.66,8.1-14.399,8.1
		c-6.84,0-15.029-3.78-15.029-19.079V897.66h7.92v24.118c0,8.28,2.52,13.86,9.72,13.86c5.31,0,8.999-3.69,10.439-7.2
		c0.449-1.17,0.72-2.609,0.72-4.05V897.66h7.92V929.339z"/>
	<path fill="#80D1F5" d="M728.695,909.449c0-4.5-0.09-8.189-0.359-11.789h7.02l0.45,7.199h0.18c2.16-4.14,7.2-8.189,14.399-8.189
		c6.03,0,15.39,3.6,15.39,18.539v26.009h-7.92v-25.108c0-7.021-2.61-12.87-10.079-12.87c-5.221,0-9.271,3.69-10.62,8.1
		c-0.36,0.99-0.54,2.34-0.54,3.69v26.188h-7.92V909.449z"/>
	<path fill="#80D1F5" d="M802.764,941.218l-0.63-5.489h-0.27c-2.431,3.42-7.11,6.479-13.319,6.479c-8.82,0-13.32-6.21-13.32-12.51
		c0-10.529,9.36-16.289,26.189-16.199V912.6c0-3.601-0.99-10.08-9.899-10.08c-4.05,0-8.28,1.26-11.34,3.24l-1.8-5.22
		c3.6-2.34,8.819-3.87,14.31-3.87c13.319,0,16.56,9.09,16.56,17.819v16.289c0,3.78,0.18,7.47,0.72,10.439H802.764z M801.594,918.989
		c-8.64-0.181-18.449,1.35-18.449,9.81c0,5.13,3.42,7.56,7.47,7.56c5.67,0,9.27-3.6,10.529-7.29c0.271-0.81,0.45-1.71,0.45-2.52
		V918.989z"/>
</g>
<path fill="#CAEAFB" d="M645.864,600.518H364.847c-16.908,0-30.741-13.834-30.741-30.741V288.76
	c0-16.908,13.834-30.741,30.741-30.741h281.017c16.908,0,30.741,13.834,30.741,30.741v281.017
	C676.605,586.685,662.771,600.518,645.864,600.518z"/>
<g>
	<rect x="423.105" y="335.88" fill="none" width="178.405" height="186.778"/>
	<path fill="#80D1F5" d="M498.67,450.058l-0.44-5.72c-1.32-11.88,2.64-24.86,13.641-38.06c9.899-11.66,15.399-20.24,15.399-30.14
		c0-11.22-7.04-18.7-20.9-18.92c-7.92,0-16.72,2.64-22.22,6.82l-5.28-13.86c7.261-5.28,19.801-8.8,31.461-8.8
		c25.3,0,36.74,15.62,36.74,32.34c0,14.96-8.36,25.74-18.921,38.28c-9.68,11.44-13.2,21.12-12.54,32.34l0.221,5.72H498.67z
		 M493.829,480.858c0-8.14,5.501-13.86,13.2-13.86c7.7,0,12.98,5.72,12.98,13.86c0,7.7-5.061,13.64-13.2,13.64
		C499.109,494.498,493.829,488.558,493.829,480.858z"/>
</g>
<g>
</g>
<g>
</g>
<g>
</g>
<g>
</g>
<g>
</g>
<g>
</g>
</svg>
