<?xml version="1.0" encoding="utf-8"?>
<!-- Generator: Adobe Illustrator 27.9.0, SVG Export Plug-In . SVG Version: 6.00 Build 0)  -->
<svg version="1.1" id="Layer_1" xmlns="http://www.w3.org/2000/svg" xmlns:xlink="http://www.w3.org/1999/xlink" x="0px" y="0px"
	 width="1000px" height="1000px" viewBox="0 0 1000 1000" enable-background="new 0 0 1000 1000" xml:space="preserve">
<path opacity="0.1" fill="#80D1F5" d="M896.353,810.883H91.968c-28.669,0-52.126-23.457-52.126-52.126V91.647
	c0-28.67,23.457-52.126,52.126-52.126h804.385c28.669,0,52.126,23.457,52.126,52.126v667.11
	C948.479,787.426,925.023,810.883,896.353,810.883z"/>
<g>
	<rect x="56.848" y="877.319" fill="none" width="874.625" height="231.198"/>
	<path fill="#80D1F5" d="M334.862,938.519c-3.51,1.26-10.439,3.329-18.629,3.329c-9.18,0-16.739-2.34-22.679-8.01
		c-5.22-5.039-8.46-13.139-8.46-22.589c0.09-18.089,12.51-31.318,32.849-31.318c7.02,0,12.51,1.529,15.12,2.79l-1.89,6.39
		c-3.24-1.44-7.29-2.61-13.409-2.61c-14.76,0-24.389,9.18-24.389,24.39c0,15.389,9.27,24.479,23.399,24.479
		c5.13,0,8.64-0.72,10.439-1.62v-18.089h-12.329v-6.3h19.979V938.519z"/>
	<path fill="#80D1F5" d="M351.423,920.879c0.18,10.71,7.02,15.119,14.939,15.119c5.67,0,9.09-0.99,12.06-2.25l1.35,5.67
		c-2.79,1.26-7.56,2.7-14.49,2.7c-13.409,0-21.419-8.82-21.419-21.959c0-13.14,7.74-23.489,20.429-23.489
		c14.219,0,17.999,12.51,17.999,20.52c0,1.619-0.18,2.88-0.27,3.689H351.423z M374.642,915.209c0.09-5.04-2.07-12.869-10.979-12.869
		c-8.01,0-11.52,7.38-12.15,12.869H374.642z"/>
	<path fill="#80D1F5" d="M401.642,885.15v12.51h11.34v6.029h-11.34v23.489c0,5.399,1.53,8.46,5.939,8.46
		c2.07,0,3.601-0.271,4.59-0.54l0.36,5.939c-1.53,0.63-3.96,1.08-7.02,1.08c-3.69,0-6.66-1.17-8.55-3.33
		c-2.25-2.34-3.06-6.21-3.06-11.34v-23.759h-6.75v-6.029h6.75v-10.44L401.642,885.15z"/>
	<path fill="#80D1F5" d="M431.431,885.15v12.51h11.34v6.029h-11.34v23.489c0,5.399,1.53,8.46,5.939,8.46
		c2.07,0,3.601-0.271,4.59-0.54l0.36,5.939c-1.53,0.63-3.96,1.08-7.02,1.08c-3.69,0-6.66-1.17-8.55-3.33
		c-2.25-2.34-3.06-6.21-3.06-11.34v-23.759h-6.75v-6.029h6.75v-10.44L431.431,885.15z"/>
	<path fill="#80D1F5" d="M488.129,929.339c0,4.499,0.09,8.459,0.359,11.879h-7.02l-0.45-7.109h-0.18c-2.07,3.51-6.66,8.1-14.399,8.1
		c-6.84,0-15.029-3.78-15.029-19.079V897.66h7.92v24.118c0,8.28,2.52,13.86,9.72,13.86c5.31,0,8.999-3.69,10.439-7.2
		c0.449-1.17,0.72-2.609,0.72-4.05V897.66h7.92V929.339z"/>
	<path fill="#80D1F5" d="M557.968,877.32v52.648c0,3.869,0.09,8.279,0.359,11.249h-7.109l-0.36-7.56h-0.18
		c-2.43,4.86-7.739,8.55-14.85,8.55c-10.529,0-18.629-8.91-18.629-22.139c-0.09-14.49,8.909-23.399,19.529-23.399
		c6.659,0,11.159,3.149,13.14,6.659h0.18V877.32H557.968z M550.048,915.389c0-0.989-0.09-2.34-0.36-3.329
		c-1.17-5.04-5.489-9.18-11.43-9.18c-8.189,0-13.049,7.199-13.049,16.829c0,8.819,4.319,16.109,12.869,16.109
		c5.31,0,10.17-3.51,11.609-9.45c0.271-1.079,0.36-2.159,0.36-3.419V915.389z"/>
	<path fill="#80D1F5" d="M573.988,897.66l9.54,25.738c0.99,2.88,2.07,6.3,2.79,8.91h0.18c0.811-2.61,1.71-5.94,2.79-9.09
		l8.64-25.559h8.369l-11.879,31.049c-5.67,14.938-9.54,22.589-14.939,27.269c-3.87,3.42-7.74,4.77-9.72,5.13l-1.979-6.66
		c1.979-0.63,4.59-1.89,6.93-3.87c2.159-1.709,4.859-4.77,6.659-8.819c0.36-0.81,0.63-1.439,0.63-1.89s-0.18-1.08-0.54-2.07
		l-16.109-40.138H573.988z M598.918,878.851l-10.979,12.869h-5.67l7.92-12.869H598.918z"/>
	<path fill="#80D1F5" d="M613.498,911.249c0-5.13-0.09-9.539-0.359-13.589h6.93l0.27,8.549h0.36c1.979-5.85,6.75-9.539,12.06-9.539
		c0.899,0,1.529,0.09,2.25,0.27v7.47c-0.811-0.18-1.62-0.27-2.7-0.27c-5.58,0-9.54,4.229-10.619,10.17
		c-0.181,1.079-0.36,2.34-0.36,3.689v23.219h-7.83V911.249z"/>
	<path fill="#80D1F5" d="M652.107,885.42c0.09,2.7-1.891,4.86-5.04,4.86c-2.79,0-4.77-2.16-4.77-4.86
		c0-2.789,2.069-4.949,4.949-4.949C650.217,880.471,652.107,882.631,652.107,885.42z M643.287,941.218V897.66h7.92v43.558H643.287z"
		/>
	<path fill="#80D1F5" d="M666.507,891.72l10.439-4.949c-2.699-1.98-6.029-3.78-9.359-5.4l3.42-4.949
		c4.319,1.979,8.819,4.5,12.689,7.289l11.52-5.489l1.89,3.96l-9.539,4.5c4.949,4.05,8.909,8.909,11.52,14.309
		c2.43,5.04,3.779,10.8,3.779,17.46c0.09,16.739-10.619,23.759-21.059,23.759c-11.79,0-20.609-8.64-20.609-22.229
		c0-14.129,9.899-22.318,20.249-22.318c3.33,0,6.569,0.63,9.989,3.869l0.181-0.27c-2.61-4.32-6.03-8.189-10.62-11.609l-12.779,5.939
		L666.507,891.72z M694.766,919.349c0-5.67-0.81-9.27-3.06-12.06c-1.98-2.25-4.95-4.229-9.54-4.229
		c-9.359,0-12.959,9.63-12.959,16.829c0,9.18,5.31,16.38,12.6,16.38C689.726,936.269,694.766,929.248,694.766,919.349z"/>
</g>
<path fill="#CAEAFB" d="M645.864,600.518H364.847c-16.908,0-30.741-13.834-30.741-30.741V288.76
	c0-16.908,13.834-30.741,30.741-30.741h281.017c16.908,0,30.741,13.834,30.741,30.741v281.017
	C676.605,586.685,662.771,600.518,645.864,600.518z"/>
<g>
	<rect x="423.105" y="335.88" fill="none" width="178.405" height="186.778"/>
	<path fill="#80D1F5" d="M498.67,450.058l-0.44-5.72c-1.32-11.88,2.64-24.86,13.641-38.06c9.899-11.66,15.399-20.24,15.399-30.14
		c0-11.22-7.04-18.7-20.9-18.92c-7.92,0-16.72,2.64-22.22,6.82l-5.28-13.86c7.261-5.28,19.801-8.8,31.461-8.8
		c25.3,0,36.74,15.62,36.74,32.34c0,14.96-8.36,25.74-18.921,38.28c-9.68,11.44-13.2,21.12-12.54,32.34l0.221,5.72H498.67z
		 M493.829,480.858c0-8.14,5.501-13.86,13.2-13.86c7.7,0,12.98,5.72,12.98,13.86c0,7.7-5.061,13.64-13.2,13.64
		C499.109,494.498,493.829,488.558,493.829,480.858z"/>
</g>
<g>
</g>
<g>
</g>
<g>
</g>
<g>
</g>
<g>
</g>
<g>
</g>
</svg>
