<?xml version="1.0" encoding="utf-8"?>
<!-- Generator: Adobe Illustrator 27.7.0, SVG Export Plug-In . SVG Version: 6.00 Build 0)  -->
<svg version="1.1" id="Layer_1" xmlns="http://www.w3.org/2000/svg" xmlns:xlink="http://www.w3.org/1999/xlink" x="0px" y="0px"
	 width="1000px" height="1000px" viewBox="0 0 1000 1000" enable-background="new 0 0 1000 1000" xml:space="preserve">
<g id="blue_x5F_box" opacity="0.7">
	<g id="Blue" opacity="0.8">
		<g>
			<path fill="#FEE37E" d="M106.496,755.637c0,12.052,9.498,21.82,21.219,21.82h745.006c11.72,0,21.219-9.768,21.219-21.82V59.829
				c0-12.052-9.498-21.82-21.219-21.82H127.714c-11.72,0-21.219,9.768-21.219,21.82v695.808H106.496z"/>
		</g>
	</g>
	<g id="Blue_x5F_outline" display="none">
		<g display="inline">
			<path fill="#FEE37E" d="M872.72,778.669H127.714c-12.349,0-22.397-10.333-22.397-23.032V59.829
				c0-12.699,10.049-23.032,22.397-23.032H872.72c12.349,0,22.397,10.333,22.397,23.032v695.807
				C895.117,768.335,885.069,778.669,872.72,778.669z M127.714,39.222c-11.05,0-20.04,9.244-20.04,20.608v695.807
				c0,11.363,8.99,20.608,20.04,20.608H872.72c11.05,0,20.04-9.244,20.04-20.608V59.829c0-11.363-8.99-20.608-20.04-20.608
				L127.714,39.222L127.714,39.222z"/>
		</g>
	</g>
</g>
<g>
</g>
<path fill="#FDBB45" d="M348.687,536.531l-32.189-301.852c-0.589-5.519,3.737-10.331,9.288-10.331l64.379,0
	c5.551,0,9.877,4.812,9.288,10.331l-32.189,301.852C366.076,547.665,349.874,547.665,348.687,536.531z"/>
<path fill="#FFCE6F" d="M332.554,579.103l-107.05-352.37c-1.472-4.845,1.427-9.931,6.345-11.134l39.369-9.629
	c4.918-1.203,9.838,1.971,10.768,6.948l67.681,362C351.714,585.86,335.791,589.755,332.554,579.103z"/>
<path opacity="0.8" fill="#98CE86" enable-background="new    " d="M362.057,225.917h-8.163c-1.947,0-3.54-8.818-3.54-19.596
	v-40.112c0-10.777,1.593-19.596,3.54-19.596h8.163c1.947,0,3.54,8.818,3.54,19.596v40.112
	C365.597,217.098,364.004,225.917,362.057,225.917z"/>
<path opacity="0.8" fill="#98CE86" enable-background="new    " d="M240.876,202.746l-7.899-32.293
	c-1.884-7.702-1.601-14.45,0.628-14.995l8.297-2.029c2.229-0.545,5.595,5.311,7.479,13.013l7.899,32.293
	c1.884,7.702,1.601,14.45-0.628,14.995l-8.297,2.029C246.125,216.303,242.76,210.448,240.876,202.746z"/>
<g>
	<path fill="#FEE37E" d="M292.655,898.343c-4.938,1.773-14.689,4.689-26.217,4.703c-12.921,0.016-23.566-3.253-31.937-11.197
		c-7.356-7.061-11.93-18.418-11.947-31.675c0.096-25.376,17.555-43.957,46.184-43.992c9.881-0.012,17.611,2.125,21.287,3.889
		l-2.649,8.967c-4.563-2.014-10.266-3.648-18.879-3.638c-20.775,0.025-34.314,12.92-34.288,34.256
		c0.026,21.589,13.09,34.324,32.979,34.3c7.221-0.009,12.16-1.025,14.692-2.29l-0.031-25.377l-17.354,0.021l-0.011-8.838
		l28.123-0.035L292.655,898.343z"/>
	<path fill="#FEE37E" d="M309.074,860.068c-0.009-7.196-0.143-13.382-0.53-19.063l9.754-0.012l0.395,11.994l0.507-0.001
		c2.777-8.211,9.484-13.395,16.958-13.403c1.267-0.002,2.153,0.123,3.167,0.375l0.013,10.479c-1.14-0.252-2.281-0.377-3.801-0.375
		c-7.854,0.01-13.42,5.95-14.93,14.285c-0.251,1.515-0.503,3.283-0.5,5.177l0.04,32.573l-11.021,0.014L309.074,860.068z"/>
	<path fill="#FEE37E" d="M392.57,872.591c-0.362,14.52,8.008,22.211,19.536,22.196c8.487-0.01,13.299-1.909,16.717-3.556
		l2.036,7.826c-4.938,2.656-12.029,4.307-20.137,4.316c-10.388,0.013-19.768-4.899-23.325-13.48l-0.253,0.001
		c-3.917,8.464-12.272,13.523-22.786,13.536c-12.794,0.016-19.139-8.562-19.149-17.399c-0.018-14.14,13.147-22.361,36.962-22.139
		l-0.003-2.525c-0.004-3.029-1.917-13.633-14.331-13.617c-5.827,0.007-12.032,2.161-15.703,4.69l-2.669-7.319
		c5.442-3.415,13.041-5.57,19.122-5.578c11.021-0.014,17.234,5.154,19.778,12.979h0.253c4.17-8.086,11.765-13.019,21.393-13.03
		c18.749-0.023,23.964,18.024,23.977,28.124c0.002,1.895-0.122,3.788-0.374,4.924L392.57,872.591z M382.308,871.342
		c-11.782-0.239-26.094,1.799-26.079,13.792c0.008,6.439,4.826,10.095,10.653,10.088c7.98-0.01,13.042-4.939,14.809-10.498
		c0.504-1.389,0.629-2.903,0.627-4.418L382.308,871.342z M423.216,864.6c0.373-6.187-3.061-17.166-14.335-17.152
		c-11.021,0.014-16.076,10.245-16.447,17.19L423.216,864.6z"/>
	<path fill="#FEE37E" d="M447.78,857.373c-0.008-6.312-0.141-11.488-0.527-16.538l9.881-0.012l0.646,10.099h0.253
		c3.034-5.812,10.121-11.501,20.255-11.514c8.487-0.011,21.668,5.023,21.694,25.981l0.044,36.486l-11.147,0.014l-0.043-35.224
		c-0.012-9.848-3.695-18.05-14.21-18.037c-7.347,0.009-13.041,5.192-14.935,11.381c-0.505,1.39-0.756,3.283-0.754,5.177
		l0.045,36.739l-11.147,0.014L447.78,857.373z"/>
	<path fill="#FEE37E" d="M518.083,857.287c-0.008-6.312-0.141-11.489-0.526-16.538l9.754-0.012l0.519,9.847l0.38-0.001
		c3.413-5.812,9.107-11.247,19.241-11.26c8.361-0.01,14.701,5.032,17.37,12.225h0.253c1.896-3.411,4.301-6.064,6.831-7.962
		c3.671-2.782,7.723-4.302,13.55-4.309c8.107-0.011,20.148,5.277,20.174,26.487l0.044,35.981l-10.895,0.014l-0.042-34.593
		c-0.015-11.741-4.33-18.807-13.324-18.795c-6.334,0.008-11.269,4.685-13.162,10.116c-0.505,1.516-0.882,3.535-0.88,5.556
		l0.046,37.749l-10.895,0.014l-0.044-36.613c-0.013-9.721-4.328-16.786-12.815-16.775c-6.968,0.009-12.028,5.569-13.795,11.127
		c-0.631,1.642-0.882,3.536-0.88,5.43l0.045,36.865l-10.895,0.014L518.083,857.287z"/>
	<path fill="#FEE37E" d="M629.957,873.184c0.271,15.023,9.906,21.198,21.054,21.185c7.98-0.01,12.794-1.404,16.971-3.177l1.91,7.951
		c-3.924,1.772-10.636,3.801-20.391,3.812c-18.875,0.023-30.164-12.336-30.188-30.769c-0.022-18.433,10.854-32.965,28.716-32.986
		c20.016-0.024,25.357,17.518,25.371,28.754c0.003,2.272-0.248,4.04-0.373,5.177L629.957,873.184z M662.63,865.19
		c0.118-7.071-2.936-18.051-15.478-18.035c-11.274,0.014-16.202,10.372-17.079,18.075L662.63,865.19z"/>
	<path fill="#FEE37E" d="M700.579,822.976l0.021,17.549l15.961-0.02l0.01,8.459l-15.961,0.02l0.041,32.951
		c0.009,7.575,2.168,11.865,8.375,11.857c2.914-0.003,5.066-0.385,6.46-0.766l0.517,8.332c-2.153,0.886-5.572,1.522-9.879,1.527
		c-5.194,0.007-9.377-1.63-12.041-4.657c-3.171-3.278-4.317-8.705-4.326-15.901l-0.041-33.33l-9.501,0.012l-0.01-8.459l9.501-0.012
		l-0.019-14.646L700.579,822.976z"/>
	<path fill="#FEE37E" d="M741.494,823.305c0.132,3.786-2.651,6.82-7.085,6.825c-3.928,0.005-6.718-3.021-6.723-6.809
		c-0.005-3.914,2.904-6.948,6.958-6.953C738.825,816.363,741.489,819.391,741.494,823.305z M729.175,901.595l-0.074-61.105
		l11.148-0.014l0.074,61.105L729.175,901.595z"/>
</g>
<path fill="#C49A6C" d="M687.174,638.393L687.174,638.393c-6.217,0-11.304-5.087-11.304-11.304v-35.915
	c0-6.217,5.087-11.304,11.304-11.304h0c6.217,0,11.304,5.087,11.304,11.304v35.915C698.478,633.306,693.391,638.393,687.174,638.393
	z"/>
<path fill="#A97C50" d="M717.823,584.414h-64.777c-18.222,0-29.611-19.726-20.5-35.507l32.389-56.099
	c9.111-15.781,31.889-15.781,41,0l32.389,56.099C747.434,564.688,736.045,584.414,717.823,584.414z"/>
<path fill="#C49A6C" d="M600.652,556.204L600.652,556.204c-6.217,0-11.304-5.087-11.304-11.304v-35.915
	c0-6.217,5.087-11.304,11.304-11.304l0,0c6.217,0,11.304,5.087,11.304,11.304V544.9C611.957,551.117,606.87,556.204,600.652,556.204
	z"/>
<path fill="#A97C50" d="M631.302,502.225h-64.777c-18.222,0-29.611-19.726-20.5-35.507l32.388-56.099
	c9.111-15.781,31.889-15.781,41,0l32.389,56.099C660.912,482.499,649.524,502.225,631.302,502.225z"/>
<path fill="#C49A6C" d="M600.524,682.491L600.524,682.491c-5.759,0-10.471-4.712-10.471-10.471v-22.469
	c0-5.759,4.712-10.471,10.471-10.471l0,0c5.759,0,10.471,4.712,10.471,10.471v22.469
	C610.995,677.779,606.283,682.491,600.524,682.491z"/>
<path fill="#A97C50" d="M620.644,642.451h-43.462c-19.301,0-30.489-21.858-19.201-37.515l21.731-30.141
	c9.447-13.104,28.955-13.104,38.402,0l21.731,30.141C651.133,620.592,639.945,642.451,620.644,642.451z"/>
<path fill="#D2232A" d="M633.515,288.049h-3.786c-21.294,0-38.716-17.422-38.716-38.716v-3.786
	c0-21.294,17.422-38.716,38.716-38.716h3.786c21.294,0,38.716,17.422,38.716,38.716v3.786
	C672.231,270.627,654.809,288.049,633.515,288.049z"/>
<path fill="#D2232A" d="M673.453,288.049h-20.135c-15.666,0-28.483-12.817-28.483-28.483v-38.032
	c0-15.666,12.817-28.483,28.483-28.483h20.135c15.666,0,28.483,12.817,28.483,28.483v38.032
	C701.936,275.232,689.119,288.049,673.453,288.049z"/>
<path fill="#D2232A" d="M698.066,288.049h-3.786c-21.294,0-38.716-17.422-38.716-38.716v-3.786
	c0-21.294,17.422-38.716,38.716-38.716h3.786c21.294,0,38.716,17.422,38.716,38.716v3.786
	C736.782,270.627,719.36,288.049,698.066,288.049z"/>
<path opacity="0.8" fill="#98CE86" enable-background="new    " d="M671.165,193.045h-4.907c-1.17,0-2.128-3.834-2.128-8.52v-17.44
	c0-4.686,0.958-8.52,2.128-8.52h4.907c1.17,0,2.128,3.834,2.128,8.52v17.44C673.292,189.211,672.335,193.045,671.165,193.045z"/>
<path opacity="0.8" fill="#98CE86" enable-background="new    " d="M664.976,196.538l-4.07,2.1c-0.971,0.501-3-1.484-4.51-4.41
	l-5.619-10.891c-1.51-2.926-1.951-5.73-0.98-6.231l4.07-2.1c0.971-0.501,3,1.484,4.51,4.41l5.619,10.891
	C665.505,193.233,665.946,196.037,664.976,196.538z"/>
<path opacity="0.8" fill="#98CE86" enable-background="new    " d="M683.166,177.325l-14.386,8.306
	c-3.431,1.981-5.848,4.279-5.37,5.107l1.778,3.08c0.478,0.828,3.676-0.116,7.107-2.097l14.386-8.306
	c3.431-1.981,5.848-4.279,5.37-5.107l-1.778-3.08C689.795,174.401,686.597,175.344,683.166,177.325z"/>
<path fill="#D2232A" d="M535.24,336.042h-1.198c-13.606,0-24.738-11.132-24.738-24.738v0c0-13.606,11.132-24.738,24.738-24.738
	h1.198c13.606,0,24.738,11.132,24.738,24.738v0C559.978,324.91,548.846,336.042,535.24,336.042z"/>
<path fill="#D2232A" d="M554.46,336.042L554.46,336.042c-13.229,0-24.053-10.824-24.053-24.053v-9.765
	c0-13.229,10.824-24.053,24.053-24.053h0c13.229,0,24.053,10.824,24.053,24.053v9.765
	C578.512,325.219,567.688,336.042,554.46,336.042z"/>
<path fill="#D2232A" d="M575.515,336.042h-1.198c-13.606,0-24.738-11.132-24.738-24.738v0c0-13.606,11.132-24.738,24.738-24.738
	h1.198c13.606,0,24.738,11.132,24.738,24.738v0C600.253,324.91,589.121,336.042,575.515,336.042z"/>
<path opacity="0.8" fill="#98CE86" enable-background="new    " d="M559.313,278.169h-3.061c-0.73,0-1.328-2.336-1.328-5.19v-10.624
	c0-2.854,0.597-5.19,1.328-5.19h3.061c0.73,0,1.328,2.336,1.328,5.19v10.624C560.641,275.834,560.043,278.169,559.313,278.169z"/>
<path opacity="0.8" fill="#98CE86" enable-background="new    " d="M555.452,280.297l-2.539,1.279
	c-0.606,0.305-1.872-0.904-2.814-2.687l-3.506-6.635c-0.942-1.783-1.217-3.491-0.611-3.796l2.539-1.279
	c0.606-0.305,1.872,0.904,2.814,2.687l3.506,6.635C555.782,278.284,556.057,279.992,555.452,280.297z"/>
<path opacity="0.8" fill="#98CE86" enable-background="new    " d="M566.801,268.593l-8.976,5.06
	c-2.141,1.207-3.649,2.607-3.35,3.111l1.109,1.876c0.298,0.504,2.294-0.071,4.435-1.278l8.976-5.06
	c2.141-1.207,3.649-2.607,3.35-3.111l-1.109-1.876C570.937,266.812,568.942,267.386,566.801,268.593z"/>
<path opacity="0.9" fill="#FFF200" stroke="#F9ED32" stroke-width="6" stroke-miterlimit="10" d="M499.608,719.127
	c-0.618,6.07-121.482,29.109-225.641-21.723c-95.281-46.499-112.472-116.7-103.782-119.39c8.056-2.494,42.436,45.043,141.879,91.217
	C416.313,717.638,500.162,713.681,499.608,719.127z"/>
<line fill="none" stroke="#754C29" stroke-width="6" stroke-miterlimit="10" x1="169.256" y1="578.878" x2="155.953" y2="560.427"/>
<g>
</g>
<g>
</g>
<g>
</g>
<g>
</g>
<g>
</g>
<g>
</g>
</svg>
