<?xml version="1.0" encoding="utf-8"?>
<!-- Generator: Adobe Illustrator 27.7.0, SVG Export Plug-In . SVG Version: 6.00 Build 0)  -->
<svg version="1.1" id="Layer_1" xmlns="http://www.w3.org/2000/svg" xmlns:xlink="http://www.w3.org/1999/xlink" x="0px" y="0px"
	 width="1000px" height="1000px" viewBox="0 0 1000 1000" enable-background="new 0 0 1000 1000" xml:space="preserve">
<g opacity="0.65">
	<path fill="#8DD2D9" d="M918.841,795.121H81.507c-6.6,0-12-5.4-12-12V61.034c0-6.6,5.4-12,12-12h837.334c6.6,0,12,5.4,12,12
		v722.087C930.841,789.721,925.441,795.121,918.841,795.121z"/>
</g>
<rect x="112.782" y="824.147" fill="none" width="774.783" height="120"/>
<g>
	<path opacity="0.65" fill="#8DD2D9" d="M260.778,845.87v33.839h39.119V845.87h10.56v80.877h-10.56v-37.919h-39.119v37.919h-10.439
		V845.87H260.778z"/>
	<path opacity="0.65" fill="#8DD2D9" d="M376.815,910.908c0,5.999,0.12,11.279,0.48,15.839h-9.36l-0.6-9.479h-0.24
		c-2.76,4.68-8.879,10.8-19.199,10.8c-9.119,0-20.039-5.04-20.039-25.439V868.67h10.56v32.158c0,11.039,3.36,18.479,12.96,18.479
		c7.079,0,11.999-4.92,13.919-9.6c0.601-1.561,0.96-3.48,0.96-5.4V868.67h10.56V910.908z M369.616,843.591l-14.64,17.159h-7.56
		l10.56-17.159H369.616z"/>
	<path opacity="0.65" fill="#8DD2D9" d="M392.896,915.947c3.12,2.04,8.64,4.2,13.92,4.2c7.68,0,11.279-3.84,11.279-8.64
		c0-5.04-3-7.8-10.8-10.68c-10.439-3.72-15.359-9.479-15.359-16.439c0-9.359,7.56-17.039,20.04-17.039
		c5.879,0,11.039,1.68,14.279,3.6l-2.641,7.68c-2.279-1.439-6.479-3.359-11.879-3.359c-6.24,0-9.72,3.6-9.72,7.919
		c0,4.8,3.479,6.96,11.039,9.84c10.08,3.84,15.239,8.88,15.239,17.52c0,10.199-7.919,17.399-21.719,17.399
		c-6.359,0-12.239-1.561-16.319-3.96L392.896,915.947z"/>
	<path opacity="0.65" fill="#8DD2D9" d="M453.616,852.35c0.12,3.601-2.521,6.48-6.72,6.48c-3.721,0-6.36-2.88-6.36-6.48
		c0-3.72,2.76-6.6,6.6-6.6C451.096,845.75,453.616,848.63,453.616,852.35z M441.856,926.747V868.67h10.56v58.077H441.856z"/>
	<path opacity="0.65" fill="#8DD2D9" d="M472.815,860.75l13.919-6.6c-3.6-2.641-8.039-5.04-12.479-7.2l4.561-6.6
		c5.76,2.64,11.759,6,16.919,9.72l15.359-7.32l2.52,5.28l-12.719,6c6.6,5.399,11.879,11.879,15.359,19.079
		c3.239,6.72,5.039,14.399,5.039,23.279c0.12,22.318-14.159,31.679-28.078,31.679c-15.72,0-27.479-11.52-27.479-29.64
		c0-18.839,13.2-29.758,26.999-29.758c4.439,0,8.76,0.84,13.319,5.159l0.24-0.36c-3.479-5.76-8.04-10.919-14.159-15.479
		l-17.039,7.919L472.815,860.75z M510.494,897.588c0-7.56-1.08-12.359-4.08-16.079c-2.64-3-6.6-5.64-12.72-5.64
		c-12.479,0-17.279,12.84-17.279,22.439c0,12.239,7.08,21.839,16.8,21.839C503.774,920.147,510.494,910.788,510.494,897.588z"/>
	<path opacity="0.65" fill="#8DD2D9" d="M560.293,884.389c0-6-0.12-10.92-0.48-15.719h9.24l0.479,9.359h0.36
		c3.24-5.52,8.64-10.68,18.239-10.68c7.92,0,13.919,4.8,16.439,11.64h0.239c1.801-3.24,4.08-5.76,6.48-7.56
		c3.479-2.641,7.319-4.08,12.839-4.08c7.68,0,19.079,5.04,19.079,25.199v34.198H632.89v-32.879c0-11.159-4.079-17.879-12.6-17.879
		c-5.999,0-10.679,4.439-12.479,9.6c-0.479,1.439-0.84,3.359-0.84,5.279v35.879h-10.319v-34.799c0-9.239-4.08-15.959-12.119-15.959
		c-6.601,0-11.399,5.279-13.08,10.56c-0.6,1.56-0.84,3.359-0.84,5.16v35.038h-10.319V884.389z"/>
	<path opacity="0.65" fill="#8DD2D9" d="M672.133,852.35c0.119,3.601-2.521,6.48-6.72,6.48c-3.72,0-6.36-2.88-6.36-6.48
		c0-3.72,2.76-6.6,6.6-6.6C669.612,845.75,672.133,848.63,672.133,852.35z M660.373,926.747V868.67h10.56v58.077H660.373z"/>
	<path opacity="0.65" fill="#8DD2D9" d="M701.172,851.99v16.68h15.119v8.039h-15.119v31.318c0,7.2,2.039,11.28,7.919,11.28
		c2.761,0,4.8-0.36,6.12-0.72l0.48,7.919c-2.04,0.84-5.28,1.44-9.36,1.44c-4.92,0-8.88-1.561-11.399-4.44
		c-3-3.119-4.08-8.279-4.08-15.119v-31.679h-8.999v-8.039h8.999v-13.92L701.172,851.99z"/>
	<path opacity="0.65" fill="#8DD2D9" d="M740.891,851.99v16.68h15.119v8.039h-15.119v31.318c0,7.2,2.039,11.28,7.919,11.28
		c2.761,0,4.8-0.36,6.12-0.72l0.48,7.919c-2.04,0.84-5.28,1.44-9.36,1.44c-4.92,0-8.88-1.561-11.399-4.44
		c-3-3.119-4.08-8.279-4.08-15.119v-31.679h-8.999v-8.039h8.999v-13.92L740.891,851.99z"/>
</g>
<path fill="#C0DEA7" d="M263.794,188.938c-1.753-0.298-3.447-0.666-5.063-1.095c0.578-0.155,1.169-0.298,1.765-0.433
	C261.654,187.896,262.757,188.407,263.794,188.938z"/>
<path fill="#C0DEA7" d="M314.074,187.486c-0.514,0.477-1.028,0.965-1.521,1.474c-0.319-0.13-0.648-0.271-0.966-0.401
	C312.429,188.212,313.262,187.854,314.074,187.486z"/>
<path fill="#F2F1E6" d="M646.722,740.072H384.124c-6.6,0-12-5.4-12-12V456.196c0-6.6,5.4-12,12-12h262.598c6.6,0,12,5.4,12,12
	v271.876C658.722,734.672,653.322,740.072,646.722,740.072z"/>
<path fill="#F2F1E6" d="M680.131,436.979H342.467c-5.784,0-9.399-6.261-6.507-11.27l168.832-292.426
	c2.892-5.009,10.122-5.009,13.014,0l168.832,292.426C689.53,430.718,685.915,436.979,680.131,436.979z"/>
<g>
</g>
<g>
</g>
<g>
</g>
<g>
</g>
<g>
</g>
<g>
</g>
</svg>
