<?xml version="1.0" encoding="utf-8"?>
<!-- Generator: Adobe Illustrator 27.7.0, SVG Export Plug-In . SVG Version: 6.00 Build 0)  -->
<svg version="1.1" id="Layer_1" xmlns="http://www.w3.org/2000/svg" xmlns:xlink="http://www.w3.org/1999/xlink" x="0px" y="0px"
	 width="1000px" height="1000px" viewBox="0 0 1000 1000" enable-background="new 0 0 1000 1000" xml:space="preserve">
<g>
	<g id="blue_x5F_box" opacity="0.7">
		<g id="Blue" opacity="0.8">
			<g>
				<path fill="#80D2F5" d="M136.627,780.347c0,11.764,8.95,21.298,19.994,21.298h702.014c11.044,0,19.994-9.534,19.994-21.298
					V101.182c0-11.764-8.95-21.298-19.994-21.298H156.621c-11.044,0-19.994,9.534-19.994,21.298V780.347z"/>
			</g>
		</g>
		<g id="Blue_x5F_outline" display="none">
			<g display="inline">
				<path fill="#80D2F5" d="M858.636,802.828H156.621c-11.636,0-21.105-10.086-21.105-22.481V101.182
					c0-12.395,9.469-22.481,21.105-22.481h702.014c11.636,0,21.105,10.086,21.105,22.481v679.165
					C879.74,792.742,870.272,802.828,858.636,802.828z M156.621,81.068c-10.412,0-18.883,9.023-18.883,20.115v679.165
					c0,11.091,8.471,20.115,18.883,20.115h702.014c10.413,0,18.883-9.023,18.883-20.115V101.182
					c0-11.091-8.471-20.115-18.883-20.115H156.621z"/>
			</g>
		</g>
	</g>
	<g>
		<path fill="#82D1F4" d="M254.03,843.538l-12.801,11.701h-7.101l9.201-11.701H254.03z M243.73,858.838v67.404h-8.7v-67.404H243.73z
			"/>
		<path fill="#82D1F4" d="M257.429,917.242c2.6,1.7,7.2,3.501,11.601,3.501c6.4,0,9.4-3.2,9.4-7.201c0-4.2-2.5-6.5-9-8.9
			c-8.701-3.1-12.801-7.9-12.801-13.7c0-7.801,6.3-14.201,16.701-14.201c4.9,0,9.201,1.4,11.9,3l-2.2,6.4
			c-1.9-1.2-5.4-2.8-9.901-2.8c-5.2,0-8.101,3-8.101,6.601c0,4,2.9,5.8,9.201,8.2c8.4,3.2,12.701,7.4,12.701,14.601
			c0,8.501-6.6,14.501-18.101,14.501c-5.3,0-10.201-1.3-13.601-3.3L257.429,917.242z"/>
		<path fill="#82D1F4" d="M298.229,855.239h8.801v71.004h-8.801V855.239z"/>
		<path fill="#82D1F4" d="M326.728,903.641c0.2,11.901,7.801,16.801,16.601,16.801c6.3,0,10.101-1.1,13.401-2.5l1.5,6.301
			c-3.1,1.4-8.4,3-16.101,3c-14.901,0-23.801-9.801-23.801-24.401s8.601-26.102,22.701-26.102c15.801,0,20.001,13.9,20.001,22.802
			c0,1.8-0.2,3.2-0.3,4.1H326.728z M352.53,897.341c0.1-5.601-2.3-14.301-12.201-14.301c-8.901,0-12.801,8.2-13.501,14.301H352.53z"
			/>
		<path fill="#82D1F4" d="M371.927,890.941c0-5.001-0.1-9.101-0.4-13.102h7.8l0.5,8.001h0.2c2.4-4.601,8-9.101,16.001-9.101
			c6.701,0,17.101,4,17.101,20.602v28.901h-8.8v-27.901c0-7.801-2.9-14.301-11.201-14.301c-5.801,0-10.301,4.1-11.801,9
			c-0.4,1.101-0.6,2.601-0.6,4.101v29.102h-8.801V890.941z"/>
		<path fill="#82D1F4" d="M426.226,917.242c2.6,1.7,7.2,3.501,11.601,3.501c6.4,0,9.4-3.2,9.4-7.201c0-4.2-2.5-6.5-9-8.9
			c-8.701-3.1-12.801-7.9-12.801-13.7c0-7.801,6.3-14.201,16.701-14.201c4.9,0,9.201,1.4,11.9,3l-2.2,6.4
			c-1.9-1.2-5.4-2.8-9.901-2.8c-5.2,0-8.101,3-8.101,6.601c0,4,2.9,5.8,9.201,8.2c8.4,3.2,12.701,7.4,12.701,14.601
			c0,8.501-6.6,14.501-18.101,14.501c-5.3,0-10.201-1.3-13.601-3.3L426.226,917.242z"/>
		<path fill="#82D1F4" d="M475.726,900.042h0.2c1.2-1.7,2.9-3.801,4.3-5.501l14.201-16.701h10.601l-18.701,19.901l21.302,28.502
			h-10.701l-16.701-23.201l-4.5,5v18.201h-8.701v-71.004h8.701V900.042z"/>
		<path fill="#82D1F4" d="M554.827,913.042c0,5.001,0.101,9.401,0.4,13.201h-7.801l-0.5-7.9h-0.2c-2.3,3.9-7.4,9-16.001,9
			c-7.601,0-16.701-4.2-16.701-21.201v-28.302h8.801v26.802c0,9.201,2.801,15.401,10.801,15.401c5.9,0,10.001-4.101,11.601-8.001
			c0.5-1.3,0.8-2.899,0.8-4.5v-29.702h8.801V913.042z"/>
		<path fill="#82D1F4" d="M632.425,855.239v58.503c0,4.301,0.101,9.201,0.4,12.501h-7.9l-0.4-8.4h-0.199
			c-2.7,5.4-8.601,9.5-16.501,9.5c-11.701,0-20.702-9.9-20.702-24.601c-0.1-16.102,9.901-26.002,21.702-26.002
			c7.4,0,12.4,3.5,14.601,7.4h0.2v-28.901H632.425z M623.626,897.541c0-1.1-0.101-2.6-0.4-3.7c-1.3-5.6-6.101-10.2-12.7-10.2
			c-9.101,0-14.501,8-14.501,18.701c0,9.801,4.8,17.901,14.301,17.901c5.9,0,11.301-3.9,12.9-10.501c0.3-1.2,0.4-2.4,0.4-3.8
			V897.541z"/>
		<path fill="#82D1F4" d="M650.223,877.839l10.601,28.603c1.1,3.2,2.3,7,3.1,9.9h0.2c0.9-2.9,1.9-6.601,3.101-10.101l9.601-28.402
			h9.3l-13.2,34.503c-6.301,16.601-10.601,25.101-16.602,30.302c-4.3,3.8-8.601,5.3-10.8,5.7l-2.2-7.4c2.2-0.7,5.1-2.101,7.7-4.301
			c2.4-1.899,5.4-5.3,7.4-9.801c0.4-0.899,0.7-1.6,0.7-2.1s-0.2-1.2-0.601-2.3l-17.9-44.604H650.223z M677.924,856.938l-12.2,14.302
			h-6.301l8.801-14.302H677.924z"/>
		<path fill="#82D1F4" d="M694.123,892.941c0-5.7-0.101-10.601-0.4-15.102h7.7l0.301,9.501h0.399
			c2.2-6.5,7.501-10.601,13.401-10.601c1,0,1.7,0.1,2.5,0.3v8.301c-0.9-0.2-1.801-0.3-3-0.3c-6.201,0-10.601,4.7-11.801,11.301
			c-0.2,1.199-0.4,2.6-0.4,4.1v25.802h-8.7V892.941z"/>
		<path fill="#82D1F4" d="M737.022,864.239c0.101,3-2.1,5.4-5.6,5.4c-3.101,0-5.301-2.4-5.301-5.4c0-3.1,2.301-5.5,5.501-5.5
			C734.922,858.739,737.022,861.139,737.022,864.239z M727.222,926.243v-48.403h8.8v48.403H727.222z"/>
		<path fill="#82D1F4" d="M750.622,890.941c0-5.001-0.101-9.101-0.4-13.102h7.801l0.5,8.001h0.2c2.399-4.601,8-9.101,16.001-9.101
			c6.7,0,17.101,4,17.101,20.602v28.901h-8.801v-27.901c0-7.801-2.9-14.301-11.2-14.301c-5.801,0-10.301,4.1-11.801,9
			c-0.4,1.101-0.601,2.601-0.601,4.101v29.102h-8.8V890.941z"/>
	</g>
	<g>
		
			<ellipse transform="matrix(0.7916 -0.611 0.611 0.7916 -183.285 401.5743)" fill="#FCE0E3" cx="497.114" cy="469.505" rx="191.046" ry="191.237"/>
		<path fill="#FAC6CF" d="M413.915,333.755L308.252,469.372c-5.394,6.922-15.08,7.847-21.525,2.054l-52.162-46.88
			c-6.445-5.793-7.306-16.196-1.912-23.119l105.663-135.617c5.394-6.922,15.08-7.847,21.525-2.054l52.162,46.88
			C418.448,316.429,419.309,326.833,413.915,333.755z"/>
		<path fill="#FAC6CF" d="M556.537,575.765H430.313c-15.415,0-28.027-12.612-28.027-28.027v-31.253
			c0-15.415,12.612-28.027,28.027-28.027h126.224c15.415,0,28.027,12.612,28.027,28.027v31.253
			C584.564,563.153,571.952,575.765,556.537,575.765z"/>
		<path fill="#AD7088" d="M447.65,560.189h-3.621c-3.642,0-6.623-2.98-6.623-6.622v-42.91c0-3.642,2.98-6.623,6.623-6.623h3.621
			c3.642,0,6.623,2.98,6.623,6.623v42.91C454.272,557.209,451.292,560.189,447.65,560.189z"/>
		<path fill="#AD7088" d="M553.063,560.189h-3.621c-3.642,0-6.622-2.98-6.622-6.622v-42.91c0-3.642,2.98-6.623,6.622-6.623h3.621
			c3.642,0,6.622,2.98,6.622,6.623v42.91C559.685,557.209,556.705,560.189,553.063,560.189z"/>
		<ellipse fill="#414042" cx="440.153" cy="429.067" rx="13.384" ry="14.375"/>
		<ellipse fill="#414042" cx="551.252" cy="429.067" rx="13.614" ry="14.621"/>
		<path fill="#AD7088" d="M537.393,603.356c-4.217,3.993-8.711,8.522-14.756,10.669c-6.713,2.384-15.756,2.115-22.96,2.231
			c-13.054,0.211-29.793-2.321-34.918-13.863c-2.311-5.204-12.478-2.955-10.14,2.309c6.324,14.242,23.982,19.913,41.189,20.24
			c9.283,0.176,20.591,0.193,29.406-2.464c8.107-2.443,14.081-7.741,19.615-12.981C549.26,605.302,541.852,599.135,537.393,603.356z
			"/>
		<path fill="#FAC6CF" d="M683.825,469.637L580.378,332.064c-5.28-7.022-4.251-17.408,2.287-23.079l52.914-45.897
			c6.538-5.671,16.208-4.566,21.489,2.457l103.447,137.573c5.28,7.022,4.251,17.408-2.287,23.079l-52.914,45.897
			C698.775,477.765,689.105,476.66,683.825,469.637z"/>
	</g>
</g>
</svg>
