<?xml version="1.0" encoding="utf-8"?>
<!-- Generator: Adobe Illustrator 27.7.0, SVG Export Plug-In . SVG Version: 6.00 Build 0)  -->
<svg version="1.1" id="Layer_1" xmlns="http://www.w3.org/2000/svg" xmlns:xlink="http://www.w3.org/1999/xlink" x="0px" y="0px"
	 width="1000px" height="1000px" viewBox="0 0 1000 1000" enable-background="new 0 0 1000 1000" xml:space="preserve">
<g opacity="0.75">
	<path fill="#F1FAFE" d="M886.24,799.183h-765.8c-6.6,0-12-5.4-12-12V69.312c0-6.6,5.4-12,12-12h765.8c6.6,0,12,5.4,12,12v717.871
		C898.24,793.783,892.84,799.183,886.24,799.183z"/>
</g>
<g>
	<path fill="#97DAF8" d="M215.243,840.047h10.869v38.999h0.375c2.249-3.12,4.497-6,6.621-8.64l25.734-30.359h13.492l-30.481,34.319
		l32.855,46.558h-12.867l-27.733-39.719l-7.995,8.88v30.839h-10.869V840.047z"/>
	<path fill="#97DAF8" d="M284.826,862.847l11.868,32.639c1.999,5.279,3.623,10.079,4.872,14.879h0.375
		c1.374-4.8,3.123-9.6,5.122-14.879l11.743-32.639h11.493l-23.735,58.077h-10.494l-22.986-58.077H284.826z"/>
	<path fill="#97DAF8" d="M394.133,891.405c0,21.479-15.49,30.839-30.106,30.839c-16.365,0-28.982-11.52-28.982-29.879
		c0-19.439,13.242-30.839,29.982-30.839C382.391,861.526,394.133,873.646,394.133,891.405z M346.163,892.005
		c0,12.72,7.621,22.319,18.364,22.319c10.494,0,18.364-9.479,18.364-22.56c0-9.839-5.122-22.318-18.114-22.318
		S346.163,880.966,346.163,892.005z M346.663,846.407c0-3.36,2.873-6.12,6.371-6.12c3.498,0,6.121,2.64,6.121,6.12
		c0,3.239-2.499,6.119-6.121,6.119C349.286,852.526,346.663,849.646,346.663,846.407z M369.898,846.407
		c0-3.36,2.749-6.12,6.247-6.12c3.498,0,6.121,2.64,6.121,6.12c0,3.239-2.499,6.119-6.121,6.119
		C372.396,852.526,369.898,849.646,369.898,846.407z"/>
	<path fill="#97DAF8" d="M408,835.728h10.993v85.196H408V835.728z"/>
	<path fill="#97DAF8" d="M489.7,835.728v70.197c0,5.159,0.125,11.039,0.499,14.999h-9.869l-0.499-10.079h-0.25
		c-3.373,6.479-10.743,11.399-20.612,11.399c-14.616,0-25.859-11.88-25.859-29.52c-0.125-19.319,12.367-31.198,27.108-31.198
		c9.244,0,15.49,4.199,18.239,8.88h0.25v-34.679H489.7z M478.707,886.485c0-1.32-0.125-3.12-0.5-4.439
		c-1.624-6.721-7.62-12.24-15.865-12.24c-11.368,0-18.114,9.6-18.114,22.439c0,11.76,5.996,21.479,17.864,21.479
		c7.37,0,14.116-4.68,16.115-12.599c0.375-1.44,0.5-2.88,0.5-4.561V886.485z"/>
	<path fill="#97DAF8" d="M507.937,880.966c0-6.84-0.125-12.72-0.499-18.119h9.619l0.374,11.399h0.5
		c2.748-7.8,9.369-12.72,16.74-12.72c1.249,0,2.123,0.12,3.123,0.359v9.96c-1.125-0.24-2.249-0.36-3.748-0.36
		c-7.745,0-13.242,5.641-14.741,13.56c-0.25,1.44-0.499,3.12-0.499,4.92v30.959h-10.869V880.966z"/>
	<path fill="#97DAF8" d="M599.381,905.085c0,5.999,0.125,11.279,0.499,15.839h-9.744l-0.624-9.479h-0.25
		c-2.873,4.68-9.244,10.8-19.988,10.8c-9.494,0-20.861-5.04-20.861-25.439v-33.958h10.993v32.158
		c0,11.039,3.497,18.479,13.491,18.479c7.371,0,12.492-4.92,14.491-9.6c0.625-1.561,1-3.48,1-5.4v-35.638h10.993V905.085z
		 M591.885,837.768l-15.24,17.159h-7.87l10.993-17.159H591.885z"/>
	<path fill="#97DAF8" d="M630.861,846.167v16.68h15.74v8.039h-15.74v31.318c0,7.2,2.124,11.28,8.245,11.28
		c2.873,0,4.997-0.36,6.371-0.72l0.5,7.919c-2.124,0.84-5.497,1.44-9.744,1.44c-5.122,0-9.245-1.561-11.868-4.44
		c-3.123-3.119-4.247-8.279-4.247-15.119v-31.679h-9.369v-8.039h9.369v-13.92L630.861,846.167z"/>
	<path fill="#97DAF8" d="M681.329,837.768l-15.24,17.159h-7.87l10.993-17.159H681.329z M658.968,920.924v-58.077h10.993v58.077
		H658.968z"/>
	<path fill="#97DAF8" d="M688.2,878.565c0-6-0.125-10.92-0.499-15.719h9.744l0.624,9.6h0.25c2.998-5.521,9.994-10.92,19.987-10.92
		c8.37,0,21.362,4.8,21.362,24.719v34.679h-10.993v-33.479c0-9.359-3.623-17.159-13.991-17.159c-7.246,0-12.867,4.92-14.741,10.799
		c-0.5,1.32-0.75,3.12-0.75,4.92v34.919H688.2V878.565z"/>
	<path fill="#97DAF8" d="M791.012,920.924l-0.874-7.319h-0.375c-3.373,4.56-9.869,8.64-18.488,8.64
		c-12.243,0-18.489-8.28-18.489-16.68c0-14.039,12.992-21.719,36.354-21.599v-1.2c0-4.8-1.375-13.439-13.742-13.439
		c-5.621,0-11.493,1.68-15.74,4.319l-2.498-6.959c4.996-3.12,12.242-5.16,19.862-5.16c18.489,0,22.986,12.119,22.986,23.759v21.72
		c0,5.039,0.25,9.959,0.999,13.919H791.012z M789.388,891.285c-11.992-0.24-25.609,1.8-25.609,13.079
		c0,6.84,4.747,10.08,10.369,10.08c7.87,0,12.867-4.8,14.616-9.72c0.375-1.08,0.624-2.28,0.624-3.36V891.285z"/>
</g>
<polygon fill="#97DAF8" stroke="#97DAF8" stroke-width="24" stroke-miterlimit="10" points="269.995,363.737 440.173,338.046 
	516.333,182.419 592.376,337.337 762.536,361.444 639.355,482.88 668.359,653.406 516.186,573.539 363.952,654.823 393.085,484.027 
	"/>
<g>
</g>
<g>
</g>
<g>
</g>
<g>
</g>
<g>
</g>
<g>
</g>
</svg>
