<?xml version="1.0" encoding="utf-8"?>
<!-- Generator: Adobe Illustrator 27.7.0, SVG Export Plug-In . SVG Version: 6.00 Build 0)  -->
<svg version="1.1" id="Layer_1" xmlns="http://www.w3.org/2000/svg" xmlns:xlink="http://www.w3.org/1999/xlink" x="0px" y="0px"
	 width="1000px" height="1000px" viewBox="0 0 1000 1000" enable-background="new 0 0 1000 1000" xml:space="preserve">
<g id="blue_x5F_box" opacity="0.7">
	<g id="Blue" opacity="0.8">
		<g>
			<path fill="#ECE0DF" d="M120.689,792.695c0,12.052,9.498,21.82,21.219,21.82h745.006c11.72,0,21.219-9.768,21.219-21.82V96.887
				c0-12.052-9.498-21.82-21.219-21.82H141.907c-11.72,0-21.219,9.768-21.219,21.82V792.695z"/>
		</g>
	</g>
	<g id="Blue_x5F_outline" display="none">
		<g display="inline">
			<path fill="#ECE0DF" d="M886.913,815.727H141.907c-12.349,0-22.397-10.333-22.397-23.032V96.887
				c0-12.699,10.049-23.032,22.397-23.032h745.006c12.349,0,22.397,10.333,22.397,23.032v695.807
				C909.31,805.393,899.262,815.727,886.913,815.727z M141.907,76.28c-11.05,0-20.04,9.244-20.04,20.608v695.807
				c0,11.363,8.99,20.608,20.04,20.608h745.006c11.05,0,20.04-9.244,20.04-20.608V96.887c0-11.363-8.99-20.608-20.04-20.608H141.907
				z"/>
		</g>
	</g>
</g>
<g>
	<path fill="#80D2F5" d="M528.708,205.845h-32.019c-13.928,0-25.323-11.395-25.323-25.323v-22.42
		c0-13.928,11.395-25.323,25.323-25.323h32.019c13.928,0,25.323,11.395,25.323,25.323v22.42
		C554.031,194.449,542.636,205.845,528.708,205.845z"/>
</g>
<g>
	<path fill="#F7DD77" d="M569.349,466.679h-113.3c-16.463,0-29.932-13.47-29.932-29.932v-71.883
		c0-24.476,20.026-44.502,44.502-44.502h98.73c16.463,0,29.932,13.47,29.932,29.932v86.453
		C599.281,453.209,585.811,466.679,569.349,466.679z"/>
</g>
<g>
	<rect x="143.314" y="847.002" fill="none" width="738.768" height="152.998"/>
	<path fill="#A9519F" d="M358.742,851.325h10.439v72.117h34.559v8.76h-44.998V851.325z"/>
	<path fill="#A9519F" d="M426.779,857.805c0.12,3.601-2.52,6.48-6.72,6.48c-3.72,0-6.36-2.88-6.36-6.48c0-3.72,2.76-6.6,6.6-6.6
		C424.259,851.205,426.779,854.085,426.779,857.805z M415.02,932.202v-58.077h10.56v58.077H415.02z"/>
	<path fill="#A9519F" d="M455.818,857.445v16.68h15.12v8.039h-15.12v31.318c0,7.2,2.04,11.28,7.92,11.28c2.76,0,4.8-0.36,6.12-0.72
		l0.48,7.919c-2.04,0.84-5.28,1.44-9.36,1.44c-4.919,0-8.879-1.561-11.399-4.44c-3-3.119-4.08-8.279-4.08-15.119v-31.679h-9v-8.039
		h9v-13.92L455.818,857.445z"/>
	<path fill="#A9519F" d="M494.578,857.805c0.12,3.601-2.52,6.48-6.72,6.48c-3.72,0-6.359-2.88-6.359-6.48c0-3.72,2.76-6.6,6.6-6.6
		C492.058,851.205,494.578,854.085,494.578,857.805z M482.818,932.202v-58.077h10.56v58.077H482.818z"/>
	<path fill="#A9519F" d="M510.898,892.244c0-6.84-0.12-12.72-0.48-18.119h9.24l0.359,11.399h0.48c2.64-7.8,8.999-12.72,16.079-12.72
		c1.2,0,2.04,0.12,3,0.359v9.96c-1.08-0.24-2.16-0.36-3.6-0.36c-7.439,0-12.72,5.641-14.16,13.56c-0.239,1.44-0.479,3.12-0.479,4.92
		v30.959h-10.439V892.244z"/>
	<path fill="#A9519F" d="M550.617,889.844c0-6-0.12-10.92-0.48-15.719h9.36l0.6,9.6h0.24c2.88-5.521,9.6-10.92,19.199-10.92
		c8.039,0,20.519,4.8,20.519,24.719v34.679h-10.56v-33.479c0-9.359-3.479-17.159-13.439-17.159c-6.959,0-12.359,4.92-14.159,10.799
		c-0.479,1.32-0.72,3.12-0.72,4.92v34.919h-10.56V889.844z"/>
	<path fill="#A9519F" d="M628.977,857.805c0.12,3.601-2.521,6.48-6.72,6.48c-3.721,0-6.36-2.88-6.36-6.48c0-3.72,2.76-6.6,6.6-6.6
		C626.456,851.205,628.977,854.085,628.977,857.805z M617.217,932.202v-58.077h10.56v58.077H617.217z"/>
	<path fill="#A9519F" d="M645.296,892.244c0-6.84-0.12-12.72-0.48-18.119h9.24l0.359,11.399h0.48c2.64-7.8,9-12.72,16.079-12.72
		c1.2,0,2.04,0.12,3,0.359v9.96c-1.08-0.24-2.16-0.36-3.6-0.36c-7.44,0-12.72,5.641-14.159,13.56c-0.24,1.44-0.48,3.12-0.48,4.92
		v30.959h-10.439V892.244z"/>
</g>
<g>
	<rect x="53.87" y="717.696" fill="none" width="2.609" height="2.609"/>
</g>
<g>
	<path fill="#DD5950" d="M593.983,655.246H434.837c-23.702,0-43.094-19.393-43.094-43.094V509.773
		c0-23.702,19.392-43.094,43.094-43.094h159.146c23.702,0,43.094,19.393,43.094,43.094v102.378
		C637.078,635.853,617.685,655.246,593.983,655.246z"/>
</g>
<path opacity="0.8" fill="#97D186" d="M545.251,320.104h-65.104c-15.528,0-28.233-12.705-28.233-28.233v-57.793
	c0-15.528,12.705-28.233,28.233-28.233h65.104c15.528,0,28.233,12.705,28.233,28.233v57.793
	C573.483,307.399,560.779,320.104,545.251,320.104z"/>
<g>
	<path fill="#C5A0CB" d="M728.437,759.976H300.383c-23.702,0-43.094-19.393-43.094-43.094V698.34
		c0-23.702,19.392-43.094,43.094-43.094h428.053c23.702,0,43.094,19.392,43.094,43.094v18.542
		C771.531,740.584,752.139,759.976,728.437,759.976z"/>
</g>
</svg>
