<?xml version="1.0" encoding="utf-8"?>
<!-- Generator: Adobe Illustrator 27.9.0, SVG Export Plug-In . SVG Version: 6.00 Build 0)  -->
<svg version="1.1" id="Layer_1" xmlns="http://www.w3.org/2000/svg" xmlns:xlink="http://www.w3.org/1999/xlink" x="0px" y="0px"
	 width="1000px" height="1000px" viewBox="0 0 1000 1000" enable-background="new 0 0 1000 1000" xml:space="preserve">
<path opacity="0.1" fill="#F6ADCD" d="M902.193,816.865H97.807c-28.67,0-52.126-23.457-52.126-52.126V97.628
	c0-28.67,23.457-52.126,52.126-52.126h804.385c28.669,0,52.126,23.457,52.126,52.126v667.11
	C954.319,793.408,930.862,816.865,902.193,816.865z"/>
<g id="pink_x5F_box">
	<g id="pink_x5F_backround">
		<g>
			<path fill="#F6ADCD" d="M517.298,676.429c0,3.241,2.988,5.869,6.675,5.869h234.359c3.686,0,6.675-2.627,6.675-5.869V457.266
				c0-3.241-2.988-5.869-6.675-5.869H523.973c-3.686,0-6.675,2.627-6.675,5.869V676.429z"/>
		</g>
	</g>
	<g id="pink_x5F_outline" display="none">
		<g display="inline">
			<path fill="#F6ADCD" d="M758.332,682.624H523.973c-3.885,0-7.045-2.779-7.045-6.195V457.266c0-3.416,3.161-6.195,7.045-6.195
				h234.359c3.885,0,7.045,2.779,7.045,6.195V676.43C765.378,679.845,762.217,682.624,758.332,682.624z M523.973,451.723
				c-3.476,0-6.304,2.487-6.304,5.543V676.43c0,3.056,2.828,5.543,6.304,5.543h234.359c3.475,0,6.304-2.487,6.304-5.543V457.266
				c0-3.056-2.828-5.543-6.304-5.543H523.973z"/>
		</g>
	</g>
</g>
<g>
	<rect x="62.687" y="883.3" fill="none" width="874.625" height="231.198"/>
	<path fill="#F6ADCD" d="M327.922,920.561c-0.45-8.46-0.99-18.629-0.9-26.188h-0.27c-2.07,7.109-4.59,14.669-7.649,23.039
		l-10.71,29.429h-5.939l-9.81-28.89c-2.88-8.549-5.31-16.379-7.02-23.578h-0.18c-0.18,7.56-0.63,17.729-1.17,26.818l-1.62,26.009
		h-7.47l4.23-60.657h9.989l10.35,29.339c2.52,7.47,4.59,14.129,6.12,20.429h0.27c1.53-6.119,3.689-12.779,6.39-20.429l10.799-29.339
		h9.99l3.78,60.657h-7.649L327.922,920.561z"/>
	<path fill="#F6ADCD" d="M358.792,891.401c0.09,2.7-1.89,4.86-5.04,4.86c-2.79,0-4.77-2.16-4.77-4.86c0-2.789,2.07-4.949,4.95-4.949
		C356.902,886.452,358.792,888.612,358.792,891.401z M349.973,947.199v-43.558h7.919v43.558H349.973z"/>
	<path fill="#F6ADCD" d="M371.032,915.431c0-4.5-0.09-8.189-0.36-11.789h7.02l0.45,7.199h0.18c2.16-4.14,7.2-8.189,14.4-8.189
		c6.029,0,15.389,3.6,15.389,18.539v26.009h-7.919v-25.108c0-7.021-2.61-12.87-10.08-12.87c-5.22,0-9.27,3.69-10.62,8.1
		c-0.36,0.99-0.54,2.34-0.54,3.69v26.188h-7.919V915.431z"/>
	<path fill="#F6ADCD" d="M420.98,915.431c0-4.5-0.09-8.189-0.359-11.789h7.02l0.45,7.199h0.18c2.16-4.14,7.2-8.189,14.399-8.189
		c6.03,0,15.39,3.6,15.39,18.539v26.009h-7.92v-25.108c0-7.021-2.61-12.87-10.079-12.87c-5.221,0-9.271,3.69-10.62,8.1
		c-0.36,0.99-0.54,2.34-0.54,3.69v26.188h-7.92V915.431z"/>
	<path fill="#F6ADCD" d="M479.75,891.401c0.09,2.7-1.891,4.86-5.04,4.86c-2.79,0-4.77-2.16-4.77-4.86
		c0-2.789,2.069-4.949,4.949-4.949C477.859,886.452,479.75,888.612,479.75,891.401z M470.93,947.199v-43.558h7.92v43.558H470.93z"/>
	<path fill="#F6ADCD" d="M490.91,939.1c2.34,1.53,6.479,3.15,10.439,3.15c5.76,0,8.459-2.88,8.459-6.48c0-3.779-2.25-5.85-8.1-8.01
		c-7.829-2.789-11.52-7.109-11.52-12.329c0-7.02,5.67-12.779,15.029-12.779c4.41,0,8.28,1.26,10.71,2.7l-1.979,5.76
		c-1.71-1.08-4.86-2.521-8.91-2.521c-4.68,0-7.29,2.7-7.29,5.94c0,3.6,2.61,5.22,8.28,7.379c7.56,2.88,11.43,6.66,11.43,13.14
		c0,7.649-5.94,13.05-16.29,13.05c-4.77,0-9.18-1.17-12.239-2.97L490.91,939.1z"/>
	<path fill="#F6ADCD" d="M527.629,883.302h7.92v63.897h-7.92V883.302z"/>
	<path fill="#F6ADCD" d="M553.278,926.86c0.18,10.71,7.02,15.119,14.939,15.119c5.67,0,9.09-0.99,12.06-2.25l1.35,5.67
		c-2.79,1.26-7.56,2.7-14.489,2.7c-13.409,0-21.419-8.82-21.419-21.959c0-13.14,7.739-23.489,20.429-23.489
		c14.22,0,18,12.51,18,20.52c0,1.619-0.181,2.88-0.271,3.689H553.278z M576.497,921.19c0.091-5.04-2.069-12.869-10.979-12.869
		c-8.01,0-11.52,7.38-12.149,12.869H576.497z"/>
	<path fill="#F6ADCD" d="M602.777,891.401c0.09,2.7-1.891,4.86-5.04,4.86c-2.79,0-4.77-2.16-4.77-4.86
		c0-2.789,2.069-4.949,4.949-4.949C600.887,886.452,602.777,888.612,602.777,891.401z M593.957,947.199v-43.558h7.92v43.558H593.957
		z"/>
	<path fill="#F6ADCD" d="M622.847,923.62h0.18c1.08-1.529,2.61-3.42,3.87-4.949l12.779-15.029h9.54l-16.829,17.909l19.169,25.648
		h-9.63l-15.029-20.879l-4.05,4.5v16.379h-7.83v-63.897h7.83V923.62z"/>
	<path fill="#F6ADCD" d="M694.036,935.32c0,4.499,0.09,8.459,0.359,11.879h-7.02l-0.45-7.109h-0.18c-2.07,3.51-6.66,8.1-14.399,8.1
		c-6.84,0-15.029-3.78-15.029-19.079v-25.469h7.92v24.118c0,8.28,2.52,13.86,9.72,13.86c5.31,0,8.999-3.69,10.439-7.2
		c0.449-1.17,0.72-2.609,0.72-4.05v-26.729h7.92V935.32z"/>
	<path fill="#F6ADCD" d="M707.177,917.23c0-5.13-0.09-9.539-0.359-13.589h6.93l0.27,8.549h0.36c1.979-5.85,6.75-9.539,12.06-9.539
		c0.899,0,1.53,0.09,2.25,0.27v7.47c-0.811-0.18-1.62-0.27-2.7-0.27c-5.58,0-9.539,4.229-10.619,10.17
		c-0.181,1.079-0.36,2.34-0.36,3.689v23.219h-7.83V917.23z"/>
</g>
<g id="pink_x5F_box_00000179610763020908596870000000666346591904435084_">
	<g id="pink_x5F_backround_00000005968532941358086490000007982631167635873155_">
		<g>
			<path fill="#F6ADCD" d="M234.622,676.429c0,3.241,2.988,5.869,6.675,5.869h234.359c3.686,0,6.675-2.627,6.675-5.869V457.266
				c0-3.241-2.988-5.869-6.675-5.869H241.298c-3.686,0-6.675,2.627-6.675,5.869V676.429z"/>
		</g>
	</g>
	<g id="pink_x5F_outline_00000135655310979359241010000015181372014378253953_" display="none">
		<g display="inline">
			<path fill="#F6ADCD" d="M475.657,682.624H241.298c-3.885,0-7.045-2.779-7.045-6.195V457.266c0-3.416,3.161-6.195,7.045-6.195
				h234.359c3.885,0,7.045,2.779,7.045,6.195V676.43C482.702,679.845,479.541,682.624,475.657,682.624z M241.298,451.723
				c-3.476,0-6.304,2.487-6.304,5.543V676.43c0,3.056,2.828,5.543,6.304,5.543h234.359c3.476,0,6.304-2.487,6.304-5.543V457.266
				c0-3.056-2.828-5.543-6.304-5.543H241.298z"/>
		</g>
	</g>
</g>
<g id="pink_x5F_box_00000011004988082750353210000001240938016101336721_">
	<g id="pink_x5F_backround_00000160192793536208084410000001931077592220250016_">
		<g>
			<path fill="#F6ADCD" d="M234.622,405.1c0,3.241,2.988,5.869,6.675,5.869h234.359c3.686,0,6.675-2.627,6.675-5.869V185.938
				c0-3.241-2.988-5.869-6.675-5.869H241.298c-3.686,0-6.675,2.627-6.675,5.869V405.1z"/>
		</g>
	</g>
	<g id="pink_x5F_outline_00000167391008514102807490000016148418980148602763_" display="none">
		<g display="inline">
			<path fill="#F6ADCD" d="M475.657,411.295H241.298c-3.885,0-7.045-2.779-7.045-6.195V185.938c0-3.416,3.161-6.195,7.045-6.195
				h234.359c3.885,0,7.045,2.779,7.045,6.195v219.163C482.702,408.516,479.541,411.295,475.657,411.295z M241.298,180.395
				c-3.476,0-6.304,2.487-6.304,5.543v219.163c0,3.056,2.828,5.543,6.304,5.543h234.359c3.476,0,6.304-2.487,6.304-5.543V185.938
				c0-3.056-2.828-5.543-6.304-5.543H241.298z"/>
		</g>
	</g>
</g>
<g id="pink_x5F_box_00000124862686861156798660000001044426818247980979_">
	<g id="pink_x5F_backround_00000148642043124585126150000002673881083308394918_">
		<g>
			<path fill="#F6ADCD" d="M517.668,405.427c0,3.241,2.988,5.869,6.675,5.869h234.359c3.686,0,6.675-2.627,6.675-5.869V186.264
				c0-3.241-2.988-5.869-6.675-5.869H524.343c-3.686,0-6.675,2.627-6.675,5.869V405.427z"/>
		</g>
	</g>
	<g id="pink_x5F_outline_00000129884892836639321890000016160217893798434947_" display="none">
		<g display="inline">
			<path fill="#F6ADCD" d="M758.702,411.622H524.343c-3.885,0-7.045-2.779-7.045-6.195V186.264c0-3.416,3.161-6.195,7.045-6.195
				h234.359c3.885,0,7.045,2.779,7.045,6.195v219.163C765.748,408.843,762.587,411.622,758.702,411.622z M524.343,180.721
				c-3.476,0-6.304,2.487-6.304,5.543v219.163c0,3.056,2.828,5.543,6.304,5.543h234.359c3.476,0,6.304-2.487,6.304-5.543V186.264
				c0-3.056-2.828-5.543-6.304-5.543H524.343z"/>
		</g>
	</g>
</g>
<polygon fill="#FFFFFF" points="422.626,377.606 359.655,347.465 297.584,379.217 308.571,313.518 257.316,267.75 327.077,257.287 
	357.471,197.249 389.599,256.481 459.638,265.143 409.732,312.214 "/>
<polygon fill="#FFFFFF" points="705.672,656.22 642.701,626.08 580.63,657.831 591.617,592.132 540.362,546.365 610.123,535.901 
	640.517,475.864 672.644,535.096 742.684,543.758 692.778,590.829 "/>
<g>
</g>
<g>
</g>
<g>
</g>
<g>
</g>
<g>
</g>
<g>
</g>
</svg>
