<?xml version="1.0" encoding="utf-8"?>
<!-- Generator: Adobe Illustrator 27.7.0, SVG Export Plug-In . SVG Version: 6.00 Build 0)  -->
<svg version="1.1" id="Layer_1" xmlns="http://www.w3.org/2000/svg" xmlns:xlink="http://www.w3.org/1999/xlink" x="0px" y="0px"
	 width="1000px" height="1000px" viewBox="0 0 1000 1000" enable-background="new 0 0 1000 1000" xml:space="preserve">
<g id="blue_x5F_box" opacity="0.7">
	<g id="Blue" opacity="0.8">
		<g>
			<path fill="#BDDEAA" d="M98.155,764.571c0,12.052,9.498,21.82,21.219,21.82H864.38c11.72,0,21.219-9.768,21.219-21.82V68.764
				c0-12.052-9.498-21.82-21.219-21.82H119.374c-11.72,0-21.219,9.768-21.219,21.82V764.571z"/>
		</g>
	</g>
	<g id="Blue_x5F_outline" display="none">
		<g display="inline">
			<path fill="#BDDEAA" d="M864.38,787.603H119.374c-12.349,0-22.397-10.333-22.397-23.032V68.764
				c0-12.699,10.049-23.032,22.397-23.032H864.38c12.349,0,22.397,10.333,22.397,23.032v695.807
				C886.777,777.27,876.728,787.603,864.38,787.603z M119.374,48.157c-11.05,0-20.04,9.244-20.04,20.608v695.807
				c0,11.363,8.99,20.608,20.04,20.608H864.38c11.05,0,20.04-9.244,20.04-20.608V68.764c0-11.363-8.99-20.608-20.04-20.608H119.374z
				"/>
		</g>
	</g>
</g>
<g>
	<g>
		<path fill="#80D2F5" d="M459.88,281.543h-188.5c-6.6,0-12-5.4-12-12V103.209c0-6.6,5.4-12,12-12h188.5c6.6,0,12,5.4,12,12v166.335
			C471.88,276.143,466.48,281.543,459.88,281.543z"/>
	</g>
	<g>
		<path fill="#FEE37D" d="M459.88,510.298h-188.5c-6.6,0-12-5.4-12-12V328.141c0-6.6,5.4-12,12-12h188.5c6.6,0,12,5.4,12,12v170.157
			C471.88,504.898,466.48,510.298,459.88,510.298z"/>
	</g>
	<g>
		<path fill="#BDDEAA" d="M459.88,738.679h-188.5c-6.6,0-12-5.4-12-12V556.522c0-6.6,5.4-12,12-12h188.5c6.6,0,12,5.4,12,12v170.157
			C471.88,733.279,466.48,738.679,459.88,738.679z"/>
	</g>
	<g>
		<path fill="#FEE37D" d="M716.849,283.267h-188.5c-6.6,0-12-5.4-12-12V104.933c0-6.6,5.4-12,12-12h188.5c6.6,0,12,5.4,12,12
			v166.335C728.849,277.867,723.449,283.267,716.849,283.267z"/>
	</g>
	<g>
		<path fill="#BDDEAA" d="M716.849,512.022h-188.5c-6.6,0-12-5.4-12-12V329.865c0-6.6,5.4-12,12-12h188.5c6.6,0,12,5.4,12,12
			v170.157C728.849,506.622,723.449,512.022,716.849,512.022z"/>
	</g>
	<g>
		<path fill="#80D2F5" d="M716.849,740.403h-188.5c-6.6,0-12-5.4-12-12V558.246c0-6.6,5.4-12,12-12h188.5c6.6,0,12,5.4,12,12
			v170.157C728.849,735.003,723.449,740.403,716.849,740.403z"/>
	</g>
	<g>
		<path fill="#BDDEAA" d="M247.141,898.61c-0.6-11.279-1.32-24.839-1.2-34.919h-0.36c-2.76,9.48-6.12,19.56-10.2,30.719
			l-14.279,39.238h-7.919l-13.08-38.518c-3.84-11.4-7.08-21.84-9.359-31.439h-0.24c-0.24,10.08-0.84,23.64-1.56,35.759l-2.16,34.679
			h-9.96l5.64-80.877h13.319l13.799,39.119c3.36,9.959,6.12,18.839,8.16,27.238h0.36c2.04-8.159,4.92-17.039,8.52-27.238
			l14.399-39.119h13.319l5.04,80.877h-10.199L247.141,898.61z"/>
		<path fill="#BDDEAA" d="M288.301,859.732c0.12,3.6-2.52,6.479-6.72,6.479c-3.72,0-6.36-2.88-6.36-6.479
			c0-3.721,2.76-6.601,6.6-6.601C285.781,853.131,288.301,856.011,288.301,859.732z M276.541,934.128V876.05h10.56v58.078H276.541z"
			/>
		<path fill="#BDDEAA" d="M304.62,891.77c0-6-0.12-10.919-0.48-15.72h9.359l0.6,9.6h0.24c2.88-5.52,9.6-10.919,19.199-10.919
			c8.04,0,20.519,4.8,20.519,24.719v34.679h-10.56V900.65c0-9.359-3.48-17.159-13.439-17.159c-6.96,0-12.36,4.92-14.16,10.8
			c-0.48,1.319-0.72,3.119-0.72,4.919v34.919h-10.56V891.77z"/>
		<path fill="#BDDEAA" d="M371.219,891.77c0-6-0.12-10.919-0.48-15.72h9.359l0.6,9.6h0.24c2.88-5.52,9.6-10.919,19.199-10.919
			c8.039,0,20.519,4.8,20.519,24.719v34.679h-10.56V900.65c0-9.359-3.479-17.159-13.439-17.159c-6.96,0-12.36,4.92-14.16,10.8
			c-0.48,1.319-0.72,3.119-0.72,4.919v34.919h-10.56V891.77z"/>
		<path fill="#BDDEAA" d="M449.578,859.732c0.12,3.6-2.521,6.479-6.72,6.479c-3.721,0-6.36-2.88-6.36-6.479
			c0-3.721,2.76-6.601,6.6-6.601C447.058,853.131,449.578,856.011,449.578,859.732z M437.819,934.128V876.05h10.56v58.078H437.819z"
			/>
		<path fill="#BDDEAA" d="M464.457,923.328c3.12,2.04,8.64,4.2,13.92,4.2c7.68,0,11.279-3.84,11.279-8.64c0-5.04-3-7.8-10.8-10.68
			c-10.439-3.72-15.359-9.479-15.359-16.439c0-9.359,7.561-17.039,20.039-17.039c5.88,0,11.04,1.68,14.28,3.6l-2.641,7.68
			c-2.279-1.439-6.479-3.359-11.879-3.359c-6.24,0-9.72,3.6-9.72,7.919c0,4.8,3.479,6.96,11.039,9.84
			c10.08,3.84,15.24,8.88,15.24,17.52c0,10.199-7.92,17.399-21.72,17.399c-6.359,0-12.239-1.561-16.319-3.96L464.457,923.328z"/>
		<path fill="#BDDEAA" d="M538.856,848.932h10.56v85.196h-10.56V848.932z"/>
		<path fill="#BDDEAA" d="M573.055,907.009c0.239,14.279,9.359,20.159,19.919,20.159c7.56,0,12.119-1.319,16.079-3l1.8,7.56
			c-3.72,1.681-10.079,3.601-19.318,3.601c-17.88,0-28.56-11.76-28.56-29.279c0-17.519,10.319-31.318,27.239-31.318
			c18.959,0,23.999,16.679,23.999,27.358c0,2.16-0.24,3.84-0.36,4.92H573.055z M604.013,899.449
			c0.12-6.72-2.76-17.159-14.639-17.159c-10.68,0-15.359,9.84-16.199,17.159H604.013z"/>
		<path fill="#BDDEAA" d="M639.054,859.732c0.119,3.6-2.521,6.479-6.72,6.479c-3.72,0-6.36-2.88-6.36-6.479
			c0-3.721,2.76-6.601,6.6-6.601C636.534,853.131,639.054,856.011,639.054,859.732z M627.294,934.128V876.05h10.56v58.078H627.294z"
			/>
		<path fill="#BDDEAA" d="M665.813,902.69h0.24c1.439-2.04,3.479-4.56,5.159-6.6l17.04-20.04h12.719l-22.438,23.88l25.559,34.198
			h-12.84l-20.039-27.839l-5.399,6v21.839h-10.439v-85.196h10.439V902.69z"/>
		<path fill="#BDDEAA" d="M760.73,918.288c0,6,0.12,11.28,0.48,15.84h-9.359l-0.601-9.479h-0.24c-2.76,4.68-8.879,10.8-19.199,10.8
			c-9.119,0-20.039-5.04-20.039-25.439V876.05h10.56v32.159c0,11.04,3.36,18.479,12.96,18.479c7.079,0,11.999-4.92,13.919-9.6
			c0.601-1.561,0.96-3.48,0.96-5.4V876.05h10.56V918.288z"/>
		<path fill="#BDDEAA" d="M778.251,894.17c0-6.84-0.12-12.72-0.48-18.12h9.24l0.359,11.4h0.48c2.64-7.8,9-12.72,16.079-12.72
			c1.2,0,2.04,0.12,3,0.36v9.959c-1.08-0.24-2.16-0.359-3.6-0.359c-7.44,0-12.72,5.64-14.159,13.559c-0.24,1.44-0.48,3.12-0.48,4.92
			v30.959h-10.439V894.17z"/>
	</g>
</g>
<g>
</g>
<g>
</g>
<g>
</g>
<g>
</g>
<g>
</g>
<g>
</g>
</svg>
