<?xml version="1.0" encoding="utf-8"?>
<!-- Generator: Adobe Illustrator 27.7.0, SVG Export Plug-In . SVG Version: 6.00 Build 0)  -->
<svg version="1.1" id="Layer_1" xmlns="http://www.w3.org/2000/svg" xmlns:xlink="http://www.w3.org/1999/xlink" x="0px" y="0px"
	 width="1000px" height="1000px" viewBox="0 0 1000 1000" enable-background="new 0 0 1000 1000" xml:space="preserve">
<g opacity="0.75">
	<path fill="#82D1F4" d="M918.626,791.628H81.292c-6.6,0-12-5.4-12-12V57.541c0-6.6,5.4-12,12-12h837.334c6.6,0,12,5.4,12,12
		v722.087C930.626,786.228,925.226,791.628,918.626,791.628z"/>
	<g>
		<path fill="#82D1F4" d="M918.626,786.628c-6.631,0-13.261,0-19.892,0c-18.076,0-36.152,0-54.229,0c-27.07,0-54.14,0-81.211,0
			c-33.288,0-66.577,0-99.865,0c-37.169,0-74.338,0-111.508,0c-38.199,0-76.397,0-114.596,0c-36.796,0-73.591,0-110.387,0
			c-32.939,0-65.878,0-98.817,0c-26.345,0-52.691,0-79.036,0c-17.113,0-34.226,0-51.34,0c-4.325,0-8.649,0-12.974,0
			c-4.871,0-10.032-0.507-10.48-7.001c-0.527-7.642,0-15.507,0-23.161c0-20.493,0-40.986,0-61.479c0-29.814,0-59.628,0-89.442
			c0-35.824,0-71.648,0-107.472c0-38.247,0-76.493,0-114.74c0-37.046,0-74.092,0-111.138c0-32.534,0-65.068,0-97.602
			c0-24.643,0-49.286,0-73.929c0-13.105,0-26.211,0-39.316c0-4.964,0.309-10.346,7.008-10.807c1.819-0.125,3.69,0,5.512,0
			c12.867,0,25.733,0,38.6,0c23.088,0,46.176,0,69.264,0c30.563,0,61.126,0,91.689,0c35.541,0,71.082,0,106.623,0
			c38.097,0,76.193,0,114.29,0c37.932,0,75.864,0,113.796,0c35.05,0,70.099,0,105.149,0c29.745,0,59.49,0,89.235,0
			c21.938,0,43.876,0,65.814,0c11.394,0,22.788,0,34.181,0c4.797,0,9.749,0.73,10.175,7.017c0.144,2.126,0,4.312,0,6.441
			c0,14.783,0,29.566,0,44.348c0,25.854,0,51.709,0,77.563c0,33.3,0,66.601,0,99.901c0,37.373,0,74.746,0,112.118
			c0,38.133,0,76.265,0,114.398c0,35.267,0,70.534,0,105.801c0,28.819,0,57.638,0,86.457c0,19.058,0,38.116,0,57.174
			c0,4.664,0,9.327,0,13.99C925.626,780.677,925.384,786.304,918.626,786.628c-6.406,0.307-6.444,10.309,0,10
			c9.581-0.459,16.654-7.558,17-17.165c0.03-0.825,0-1.657,0-2.482c0-4.501,0-9.003,0-13.504c0-18.809,0-37.619,0-56.428
			c0-28.91,0-57.82,0-86.729c0-35.441,0-70.881,0-106.322c0-38.259,0-76.518,0-114.776c0-37.803,0-75.605,0-113.408
			c0-33.638,0-67.277,0-100.915c0-25.904,0-51.809,0-77.713c0-14.572,0-29.144,0-43.717c0-2.346,0.125-4.735-0.055-7.078
			c-0.808-10.476-9.715-15.849-19.285-15.849c-10.916,0-21.833,0-32.749,0c-21.716,0-43.433,0-65.15,0c-29.863,0-59.727,0-89.59,0
			c-35.357,0-70.713,0-106.07,0c-38.053,0-76.107,0-114.16,0c-38.388,0-76.775,0-115.163,0c-35.931,0-71.862,0-107.793,0
			c-30.719,0-61.439,0-92.158,0c-23.091,0-46.182,0-69.273,0c-12.684,0-25.368,0-38.052,0c-2.609,0-5.301-0.16-7.879,0.315
			c-9.936,1.831-13.959,10.583-13.959,19.634c0,12.673,0,25.346,0,38.02c0,24.492,0,48.984,0,73.477c0,32.742,0,65.484,0,98.225
			c0,37.279,0,74.558,0,111.837c0,38.535,0,77.07,0,115.604c0,36.089,0,72.178,0,108.267c0,29.978,0,59.956,0,89.934
			c0,20.531,0,41.062,0,61.593c0,5.561,0,11.121,0,16.682c0,2.975-0.242,6.179,0.396,9.102c3.398,15.578,19.53,13.398,31.39,13.398
			c16.848,0,33.695,0,50.543,0c26.272,0,52.544,0,78.816,0c32.911,0,65.823,0,98.734,0c37.15,0,74.3,0,111.45,0
			c38.624,0,77.248,0,115.873,0c37.312,0,74.623,0,111.935,0c33.631,0,67.263,0,100.894,0c27.155,0,54.311,0,81.466,0
			c18.026,0,36.052,0,54.077,0c6.253,0,12.506,0,18.759,0C925.06,796.628,925.071,786.628,918.626,786.628z"/>
	</g>
</g>
<rect x="112.567" y="820.654" fill="none" width="774.783" height="120"/>
<g>
	<path opacity="0.65" fill="#B9E5FB" d="M347.62,843.456c5.28-1.08,12.839-1.68,20.039-1.68c11.16,0,18.359,2.04,23.399,6.6
		c4.08,3.6,6.36,9.12,6.36,15.359c0,10.68-6.72,17.759-15.239,20.64v0.359c6.24,2.16,9.959,7.92,11.879,16.319
		c2.64,11.279,4.56,19.079,6.24,22.199h-10.799c-1.32-2.28-3.12-9.239-5.4-19.319c-2.4-11.159-6.72-15.359-16.199-15.719h-9.84
		v35.038H347.62V843.456z M358.06,880.295h10.68c11.16,0,18.239-6.12,18.239-15.359c0-10.439-7.56-15-18.599-15.119
		c-5.04,0-8.64,0.479-10.32,0.959V880.295z"/>
	<path opacity="0.65" fill="#B9E5FB" d="M460.417,907.414c0,5.999,0.12,11.279,0.48,15.839h-9.36l-0.6-9.479h-0.24
		c-2.76,4.68-8.88,10.8-19.199,10.8c-9.12,0-20.04-5.04-20.04-25.439v-33.958h10.56v32.158c0,11.039,3.36,18.479,12.96,18.479
		c7.08,0,11.999-4.92,13.919-9.6c0.6-1.561,0.96-3.48,0.96-5.4v-35.638h10.56V907.414z M453.218,840.097l-14.64,17.159h-7.56
		l10.56-17.159H453.218z"/>
	<path opacity="0.65" fill="#B9E5FB" d="M490.658,848.496v16.68h15.12v8.039h-15.12v31.318c0,7.2,2.04,11.28,7.92,11.28
		c2.76,0,4.8-0.36,6.12-0.72l0.479,7.919c-2.04,0.84-5.28,1.44-9.36,1.44c-4.919,0-8.879-1.561-11.399-4.44
		c-3-3.119-4.08-8.279-4.08-15.119v-31.679h-9v-8.039h9v-13.92L490.658,848.496z"/>
	<path opacity="0.65" fill="#B9E5FB" d="M539.138,840.097l-14.64,17.159h-7.56l10.56-17.159H539.138z M517.658,923.253v-58.077
		h10.56v58.077H517.658z"/>
	<path opacity="0.65" fill="#B9E5FB" d="M545.737,880.895c0-6-0.12-10.92-0.479-15.719h9.359l0.6,9.6h0.24
		c2.88-5.521,9.6-10.92,19.199-10.92c8.04,0,20.52,4.8,20.52,24.719v34.679h-10.56v-33.479c0-9.359-3.48-17.159-13.439-17.159
		c-6.96,0-12.359,4.92-14.16,10.799c-0.479,1.32-0.72,3.12-0.72,4.92v34.919h-10.56V880.895z"/>
	<path opacity="0.65" fill="#B9E5FB" d="M644.495,923.253l-0.84-7.319h-0.359c-3.24,4.56-9.479,8.64-17.76,8.64
		c-11.76,0-17.759-8.28-17.759-16.68c0-14.039,12.479-21.719,34.918-21.599v-1.2c0-4.8-1.319-13.439-13.199-13.439
		c-5.399,0-11.039,1.68-15.119,4.319l-2.4-6.959c4.8-3.12,11.76-5.16,19.079-5.16c17.76,0,22.079,12.119,22.079,23.759v21.72
		c0,5.039,0.24,9.959,0.96,13.919H644.495z M642.936,893.614c-11.52-0.24-24.599,1.8-24.599,13.079c0,6.84,4.56,10.08,9.959,10.08
		c7.56,0,12.359-4.8,14.04-9.72c0.359-1.08,0.6-2.28,0.6-3.36V893.614z"/>
</g>
<path fill="#C0DEA7" d="M263.58,185.445c-1.753-0.298-3.447-0.666-5.063-1.095c0.578-0.155,1.169-0.298,1.765-0.433
	C261.439,184.402,262.542,184.913,263.58,185.445z"/>
<path fill="#C0DEA7" d="M313.859,183.992c-0.514,0.477-1.028,0.965-1.521,1.474c-0.319-0.13-0.648-0.271-0.966-0.401
	C312.214,184.718,313.047,184.36,313.859,183.992z"/>
<path fill="#41A2AE" d="M275.58,618.254h14.441c6.6,0,12-5.4,12-12V259.32c0-6.6-5.4-12-12-12H275.58c-6.6,0-12,5.4-12,12v346.935
	C263.58,612.854,268.98,618.254,275.58,618.254z"/>
<path fill="#FFFFFF" d="M283.171,333.918h-0.742c-6.6,0-12-5.4-12-12v-56.412c0-6.6,5.4-12,12-12h0.742c6.6,0,12,5.4,12,12v56.412
	C295.171,328.518,289.771,333.918,283.171,333.918z"/>
<path fill="#FFFFFF" d="M369.553,609.116L332.872,342.09c-0.594-4.321,2.764-8.172,7.126-8.172h73.361
	c4.362,0,7.72,3.851,7.126,8.172l-36.681,267.026C382.667,617.401,370.691,617.401,369.553,609.116z"/>
<path fill="#FFFFFF" d="M382.978,338.041H370.38c-6.6,0-12-5.4-12-12v-33.106c0-6.6,5.4-12,12-12h12.598c6.6,0,12,5.4,12,12v33.106
	C394.978,332.641,389.578,338.041,382.978,338.041z"/>
<path fill="#6AB2BD" d="M534.713,582.635l83.918,66.197c9.009,7.106,22.193,5.55,29.299-3.459l157.906-200.178
	c7.106-9.009,5.55-22.193-3.459-29.299l-83.918-66.197c-9.009-7.106-22.193-5.55-29.299,3.459L531.254,553.335
	C524.148,562.344,525.704,575.529,534.713,582.635z"/>
<path fill="#41A2AE" d="M794.972,398.276l-57.653-45.478c-5.903-4.657-6.923-13.297-2.267-19.2l25.526-32.359
	c4.657-5.903,13.297-6.923,19.2-2.267l57.653,45.478c5.903,4.657,6.923,13.297,2.266,19.2l-25.526,32.359
	C809.516,401.913,800.876,402.933,794.972,398.276z"/>
<line stroke="#0095A3" stroke-width="0.75" stroke-miterlimit="10" x1="334.346" y1="352.817" x2="419.028" y2="352.7"/>
<line fill="none" stroke="#0095A3" stroke-width="0.75" stroke-miterlimit="10" x1="337.136" y1="373.13" x2="416.258" y2="372.866"/>
<line fill="#D9E8E9" stroke="#0095A3" stroke-width="0.75" stroke-miterlimit="10" x1="339.659" y1="390.936" x2="413.862" y2="390.936"/>
<line fill="#0095A3" stroke="#D3E8EA" stroke-width="0.75" stroke-miterlimit="10" x1="361.762" y1="284.617" x2="362.055" y2="334.663"/>
<line fill="none" stroke="#D3E8EA" stroke-width="0.75" stroke-miterlimit="10" x1="366.345" y1="281.639" x2="366.315" y2="337.327"/>
<line fill="none" stroke="#D3E8EA" stroke-width="0.75" stroke-miterlimit="10" x1="370.38" y1="280.935" x2="370.38" y2="338.041"/>
<line fill="none" stroke="#D3E8EA" stroke-width="0.75" stroke-miterlimit="10" x1="374.783" y1="280.935" x2="374.45" y2="338.041"/>
<line fill="none" stroke="#D3E8EA" stroke-width="0.75" stroke-miterlimit="10" x1="378.94" y1="280.934" x2="378.94" y2="338.042"/>
<line fill="none" stroke="#D3E8EA" stroke-width="0.75" stroke-miterlimit="10" x1="382.978" y1="280.935" x2="382.978" y2="338.041"/>
<line fill="none" stroke="#D3E8EA" stroke-width="0.75" stroke-miterlimit="10" x1="387.377" y1="281.779" x2="386.923" y2="337.368"/>
<line fill="none" stroke="#D3E8EA" stroke-width="0.75" stroke-miterlimit="10" x1="392.002" y1="285.063" x2="391.997" y2="333.918"/>
<path opacity="0.75" fill="#D3E8EA" d="M278.013,263.985c-3.217,0-3.223,5,0,5C281.231,268.985,281.236,263.985,278.013,263.985z"/>
<path opacity="0.75" fill="#D3E8EA" d="M287.325,263.985c-3.217,0-3.223,5,0,5C290.542,268.985,290.547,263.985,287.325,263.985z"/>
<path opacity="0.75" fill="#D3E8EA" d="M278.145,273.579c-3.217,0-3.223,5,0,5C281.362,278.579,281.367,273.579,278.145,273.579z"/>
<path opacity="0.75" fill="#D3E8EA" d="M287.456,273.579c-3.217,0-3.223,5,0,5C290.673,278.579,290.678,273.579,287.456,273.579z"/>
<path opacity="0.75" fill="#D3E8EA" d="M278.145,283.174c-3.217,0-3.223,5,0,5C281.362,288.174,281.367,283.174,278.145,283.174z"/>
<path opacity="0.75" fill="#D3E8EA" d="M287.456,283.174c-3.217,0-3.223,5,0,5C290.673,288.174,290.678,283.174,287.456,283.174z"/>
<path opacity="0.75" fill="#D3E8EA" d="M278.145,292.768c-3.217,0-3.223,5,0,5C281.362,297.768,281.367,292.768,278.145,292.768z"/>
<path opacity="0.75" fill="#D3E8EA" d="M287.456,292.768c-3.217,0-3.223,5,0,5C290.673,297.768,290.678,292.768,287.456,292.768z"/>
<path opacity="0.75" fill="#D3E8EA" d="M278.145,302.362c-3.217,0-3.223,5,0,5C281.362,307.362,281.367,302.362,278.145,302.362z"/>
<path opacity="0.75" fill="#D3E8EA" d="M287.456,302.362c-3.217,0-3.223,5,0,5C290.673,307.362,290.678,302.362,287.456,302.362z"/>
<path opacity="0.75" fill="#D3E8EA" d="M278.145,311.956c-3.217,0-3.223,5,0,5C281.362,316.956,281.367,311.956,278.145,311.956z"/>
<path opacity="0.75" fill="#D3E8EA" d="M287.456,311.956c-3.217,0-3.223,5,0,5C290.673,316.956,290.678,311.956,287.456,311.956z"/>
<path opacity="0.75" fill="#D3E8EA" d="M278.145,321.551c-3.217,0-3.223,5,0,5C281.362,326.551,281.367,321.551,278.145,321.551z"/>
<path opacity="0.75" fill="#D3E8EA" d="M287.456,321.551c-3.217,0-3.223,5,0,5C290.673,326.551,290.678,321.551,287.456,321.551z"/>
<line fill="#B3D8DE" stroke="#41A2AE" stroke-width="2" stroke-miterlimit="10" x1="718.459" y1="349.699" x2="535.24" y2="574.259"/>
<line fill="#B3D8DE" stroke="#41A2AE" stroke-width="2" stroke-miterlimit="10" x1="733.046" y1="361.205" x2="546.163" y2="590.943"/>
<line fill="#B3D8DE" stroke="#41A2AE" stroke-width="2" stroke-miterlimit="10" x1="746.747" y1="372.013" x2="560.729" y2="602.874"/>
<line fill="#B3D8DE" stroke="#41A2AE" stroke-width="2" stroke-miterlimit="10" x1="780.137" y1="474.913" x2="707.188" y2="421.109"/>
<line fill="#B3D8DE" stroke="#41A2AE" stroke-width="2" stroke-miterlimit="10" x1="764.968" y1="495.48" x2="692.018" y2="441.676"/>
<line fill="#B3D8DE" stroke="#41A2AE" stroke-width="2" stroke-miterlimit="10" x1="797.793" y1="454.607" x2="724.844" y2="400.803"/>
<line fill="#B3D8DE" stroke="#41A2AE" stroke-width="2" stroke-miterlimit="10" x1="733.207" y1="535.486" x2="658.2" y2="480.024"/>
<line fill="#B3D8DE" stroke="#41A2AE" stroke-width="2" stroke-miterlimit="10" x1="718.062" y1="556.073" x2="643.055" y2="500.611"/>
<line fill="#B3D8DE" stroke="#41A2AE" stroke-width="2" stroke-miterlimit="10" x1="750.886" y1="515.198" x2="675.879" y2="459.736"/>
<line fill="#B3D8DE" stroke="#41A2AE" stroke-width="2" stroke-miterlimit="10" x1="810.21" y1="434.159" x2="740.495" y2="382.741"/>
<line fill="#B3D8DE" stroke="#41A2AE" stroke-width="2" stroke-miterlimit="10" x1="659.243" y1="512.58" x2="576.035" y2="614.869"/>
<line fill="#B3D8DE" stroke="#41A2AE" stroke-width="2" stroke-miterlimit="10" x1="677.257" y1="524.695" x2="594.05" y2="626.984"/>
<line fill="#B3D8DE" stroke="#41A2AE" stroke-width="2" stroke-miterlimit="10" x1="696.805" y1="540.597" x2="613.598" y2="642.885"/>
<g>
</g>
<g>
</g>
<g>
</g>
<g>
</g>
<g>
</g>
<g>
</g>
</svg>
