<?xml version="1.0" encoding="utf-8"?>
<!-- Generator: Adobe Illustrator 27.7.0, SVG Export Plug-In . SVG Version: 6.00 Build 0)  -->
<svg version="1.1" id="Layer_1" xmlns="http://www.w3.org/2000/svg" xmlns:xlink="http://www.w3.org/1999/xlink" x="0px" y="0px"
	 width="1000px" height="1000px" viewBox="0 0 1000 1000" enable-background="new 0 0 1000 1000" xml:space="preserve">
<g id="blue_x5F_box" opacity="0.7">
	<g id="Blue" opacity="0.8">
		<g>
			<path fill="#D1D3D4" d="M105.443,796.196c0,12.052,9.498,21.82,21.219,21.82h745.005c11.72,0,21.219-9.768,21.219-21.82V100.389
				c0-12.052-9.498-21.82-21.219-21.82H126.662c-11.72,0-21.219,9.768-21.219,21.82V796.196z"/>
		</g>
	</g>
	<g id="Blue_x5F_outline" display="none">
		<g display="inline">
			<path fill="#D1D3D4" d="M866.604,818.15H121.599c-12.349,0-22.397-10.333-22.397-23.032V99.311
				c0-12.699,10.049-23.032,22.397-23.032h745.005c12.349,0,22.397,10.333,22.397,23.032v695.807
				C889.001,807.817,878.953,818.15,866.604,818.15z M121.599,78.703c-11.05,0-20.04,9.244-20.04,20.608v695.807
				c0,11.363,8.99,20.608,20.04,20.608h745.005c11.05,0,20.04-9.244,20.04-20.608V99.311c0-11.363-8.99-20.608-20.04-20.608H121.599
				z"/>
		</g>
	</g>
</g>
<g>
	<rect x="129.78" y="857.288" fill="none" width="738.768" height="152.998"/>
	<path fill="#A7A9AC" d="M188.249,843.252l-15.359,14.04h-8.52l11.04-14.04H188.249z M175.889,861.611v80.877h-10.439v-80.877
		H175.889z"/>
	<path fill="#A7A9AC" d="M192.329,931.688c3.12,2.04,8.64,4.2,13.919,4.2c7.68,0,11.279-3.84,11.279-8.64c0-5.04-3-7.8-10.799-10.68
		c-10.44-3.72-15.359-9.479-15.359-16.439c0-9.359,7.56-17.039,20.039-17.039c5.88,0,11.04,1.68,14.279,3.6l-2.64,7.68
		c-2.28-1.439-6.48-3.359-11.879-3.359c-6.24,0-9.72,3.6-9.72,7.919c0,4.8,3.479,6.96,11.04,9.84
		c10.08,3.84,15.239,8.88,15.239,17.52c0,10.199-7.919,17.399-21.719,17.399c-6.359,0-12.239-1.561-16.319-3.96L192.329,931.688z"/>
	<path fill="#A7A9AC" d="M241.289,857.292h10.56v85.196h-10.56V857.292z"/>
	<path fill="#A7A9AC" d="M275.488,915.369c0.24,14.279,9.359,20.159,19.919,20.159c7.56,0,12.12-1.319,16.079-3l1.8,7.561
		c-3.72,1.68-10.08,3.6-19.319,3.6c-17.879,0-28.559-11.76-28.559-29.279s10.32-31.318,27.239-31.318
		c18.959,0,23.999,16.68,23.999,27.358c0,2.16-0.24,3.84-0.36,4.92H275.488z M306.446,907.81c0.12-6.72-2.76-17.159-14.639-17.159
		c-10.68,0-15.359,9.84-16.2,17.159H306.446z"/>
	<path fill="#A7A9AC" d="M329.727,900.13c0-6-0.12-10.92-0.48-15.719h9.359l0.6,9.6h0.24c2.88-5.521,9.6-10.92,19.199-10.92
		c8.04,0,20.519,4.8,20.519,24.719v34.679h-10.56V909.01c0-9.359-3.48-17.159-13.439-17.159c-6.96,0-12.36,4.92-14.16,10.799
		c-0.48,1.32-0.72,3.12-0.72,4.92v34.919h-10.56V900.13z"/>
	<path fill="#A7A9AC" d="M394.886,931.688c3.12,2.04,8.64,4.2,13.919,4.2c7.68,0,11.279-3.84,11.279-8.64c0-5.04-3-7.8-10.799-10.68
		c-10.439-3.72-15.359-9.479-15.359-16.439c0-9.359,7.56-17.039,20.039-17.039c5.88,0,11.04,1.68,14.279,3.6l-2.64,7.68
		c-2.28-1.439-6.48-3.359-11.88-3.359c-6.239,0-9.719,3.6-9.719,7.919c0,4.8,3.48,6.96,11.04,9.84
		c10.08,3.84,15.239,8.88,15.239,17.52c0,10.199-7.92,17.399-21.719,17.399c-6.36,0-12.239-1.561-16.319-3.96L394.886,931.688z"/>
	<path fill="#A7A9AC" d="M454.285,911.05h0.24c1.44-2.04,3.48-4.561,5.16-6.6l17.039-20.039h12.72l-22.439,23.879l25.56,34.198
		h-12.84l-20.039-27.839l-5.4,6v21.839h-10.439v-85.196h10.439V911.05z"/>
	<path fill="#A7A9AC" d="M549.202,926.649c0,5.999,0.12,11.279,0.48,15.839h-9.36l-0.6-9.479h-0.24
		c-2.76,4.68-8.879,10.8-19.199,10.8c-9.119,0-20.04-5.04-20.04-25.439v-33.958h10.56v32.158c0,11.039,3.36,18.479,12.96,18.479
		c7.079,0,11.999-4.92,13.919-9.6c0.601-1.561,0.96-3.48,0.96-5.4v-35.638h10.56V926.649z"/>
	<path fill="#A7A9AC" d="M642.32,857.292v70.197c0,5.159,0.119,11.039,0.479,14.999h-9.479l-0.48-10.079h-0.239
		c-3.24,6.479-10.319,11.399-19.8,11.399c-14.039,0-24.839-11.88-24.839-29.52c-0.12-19.319,11.88-31.198,26.039-31.198
		c8.88,0,14.88,4.199,17.52,8.88h0.24v-34.679H642.32z M631.761,908.05c0-1.32-0.12-3.12-0.48-4.439
		c-1.56-6.721-7.319-12.24-15.239-12.24c-10.92,0-17.399,9.6-17.399,22.439c0,11.76,5.76,21.479,17.159,21.479
		c7.08,0,13.56-4.68,15.479-12.599c0.36-1.44,0.48-2.88,0.48-4.561V908.05z"/>
	<path fill="#A7A9AC" d="M663.682,884.411l12.72,34.318c1.319,3.84,2.76,8.399,3.72,11.879h0.24
		c1.079-3.479,2.279-7.919,3.72-12.119l11.52-34.078h11.159l-15.84,41.397c-7.56,19.92-12.719,30.119-19.919,36.358
		c-5.159,4.561-10.319,6.36-12.959,6.84l-2.64-8.879c2.64-0.84,6.119-2.521,9.239-5.16c2.88-2.28,6.479-6.359,8.88-11.76
		c0.479-1.08,0.84-1.92,0.84-2.52s-0.24-1.44-0.721-2.76l-21.479-53.518H663.682z M696.92,859.332l-14.639,17.159h-7.561
		l10.56-17.159H696.92z"/>
	<path fill="#A7A9AC" d="M716.361,902.53c0-6.84-0.12-12.72-0.48-18.119h9.24l0.359,11.399h0.48c2.64-7.8,9-12.72,16.079-12.72
		c1.2,0,2.04,0.12,3,0.359v9.96c-1.08-0.24-2.16-0.36-3.6-0.36c-7.44,0-12.72,5.641-14.159,13.56c-0.24,1.44-0.48,3.12-0.48,4.92
		v30.959h-10.439V902.53z"/>
	<path fill="#A7A9AC" d="M767.84,868.091c0.119,3.601-2.521,6.48-6.72,6.48c-3.72,0-6.36-2.88-6.36-6.48c0-3.72,2.76-6.6,6.6-6.6
		C765.319,861.491,767.84,864.371,767.84,868.091z M756.08,942.488v-58.077h10.56v58.077H756.08z"/>
	<path fill="#A7A9AC" d="M784.16,900.13c0-6-0.12-10.92-0.48-15.719h9.36l0.6,9.6h0.24c2.88-5.521,9.6-10.92,19.199-10.92
		c8.039,0,20.519,4.8,20.519,24.719v34.679h-10.56V909.01c0-9.359-3.479-17.159-13.439-17.159c-6.959,0-12.359,4.92-14.159,10.799
		c-0.479,1.32-0.72,3.12-0.72,4.92v34.919h-10.56V900.13z"/>
</g>
<g>
</g>
<g id="sheep">
	<g>
		<path fill="#EFEFEF" d="M768.749,502.298c2.339,5.816,3.625,12.16,3.625,18.812c0,25.268-18.555,46.207-42.756,49.785
			c0.025,0.652,0.037,1.303,0.037,1.955c0,26.928-21.041,48.9-47.52,50.265c-3.111,24.8-24.201,43.969-49.737,43.969
			c-2.878,0-5.707-0.246-8.463-0.726c-9.002,13.464-24.311,22.329-41.678,22.329c-5.928,0-11.623-1.033-16.901-2.927
			c-9.063,13.046-24.115,21.591-41.163,21.591c-12.615,0-24.14-4.672-32.945-12.406c-9.186,11.288-23.172,18.493-38.824,18.493
			c-19.069,0-35.652-10.685-44.127-26.411c-1.347,0.11-2.694,0.16-4.066,0.16c-23.76,0-43.662-16.611-48.818-38.891h-0.012
			c-5.592,1.734-11.603,2.52-17.846,2.147c-26.933-1.608-47.955-24.876-47.061-51.948c0.134-4.054,0.743-7.986,1.784-11.739
			c-21.849-5.41-38.065-25.243-38.065-48.851c0-11.853,4.078-22.759,10.912-31.354c-20.637-6.222-35.664-25.44-35.664-48.199
			c0-13.882,5.597-26.46,14.66-35.559c-11.476-9.209-18.812-23.386-18.812-39.285c0-19.55,11.096-36.493,27.312-44.83
			c-1.298-4.463-1.996-9.185-1.996-14.078c0-26.399,20.233-48.052,45.989-50.166c-0.759-3.48-1.164-7.107-1.164-10.82
			c0-27.8,22.437-50.326,50.128-50.326c0.38,0,0.747,0,1.127,0.012c4.862-22.685,24.96-39.69,49.002-39.69
			c10.937,0,21.065,3.517,29.308,9.492c9.186-10.365,22.572-16.882,37.465-16.882c14.072,0,26.797,5.816,35.897,15.198
			c9.1-9.382,21.813-15.198,35.885-15.198c16.889,0,31.831,8.386,40.918,21.235c7.961-5.361,17.55-8.484,27.863-8.484
			c23.588,0,43.356,16.341,48.696,38.375c2.687-0.489,5.447-0.758,8.27-0.795c25.042-0.33,46.809,18.285,50.31,43.181
			c0.716,5.091,0.638,10.005-0.062,14.74h0.107c24.696,0,46.205,17.796,49.978,42.299c2.338,15.182-2.092,29.378-10.771,39.947
			c13.729,8.976,22.805,24.53,22.805,42.199c0,12.296-4.397,23.571-11.696,32.313c11.647,9.222,19.118,23.509,19.118,39.543
			C779.796,482.699,775.656,493.667,768.749,502.298z"/>
		<path fill="#AEAFAE" d="M452.424,714.939c-18.668,0-35.812-10.07-44.978-26.347c-1.042,0.064-2.103,0.096-3.216,0.096
			c-23.617,0-43.915-15.758-49.898-38.515c-5.473,1.517-11.138,2.111-16.868,1.768c-27.646-1.65-49.39-25.648-48.47-53.495
			c0.119-3.605,0.607-7.17,1.453-10.619c-22.294-6.214-37.734-26.526-37.734-49.92c0-10.987,3.516-21.764,9.938-30.581
			c-20.531-7.156-34.69-26.989-34.69-48.973c0-13.289,4.943-25.809,13.957-35.437c-11.53-9.859-18.109-24.128-18.109-39.407
			c0-19.145,10.331-36.502,27.043-45.592c-1.147-4.325-1.728-8.799-1.728-13.316c0-26.223,19.937-48.52,45.691-51.495
			c-0.575-3.12-0.866-6.305-0.866-9.491c0-28.555,23.124-51.789,51.561-51.826c5.523-23.065,26.437-39.679,50.196-39.679
			c10.476,0,20.505,3.108,29.091,9.003c9.743-10.435,23.399-16.393,37.682-16.393c13.544,0,26.23,5.163,35.897,14.575
			c9.666-9.412,22.349-14.575,35.885-14.575c16.224,0,31.551,7.712,41.291,20.7c8.217-5.205,17.689-7.949,27.49-7.949
			c23.424,0,43.707,15.625,49.806,38.168c2.343-0.358,4.738-0.557,7.141-0.588c0.228-0.003,0.456-0.005,0.684-0.005
			c25.634,0,47.549,19.008,51.131,44.477c0.626,4.452,0.679,8.977,0.159,13.473c24.833,0.763,46.116,19.227,49.86,43.546
			c2.225,14.444-1.349,28.526-10.07,39.842c13.884,9.709,22.122,25.486,22.122,42.532c0,11.646-3.928,22.983-11.09,32.096
			c11.785,9.891,18.512,24.296,18.512,39.761c0,11.476-3.843,22.726-10.837,31.778c2.267,5.919,3.415,12.158,3.415,18.56
			c0,25.069-18.274,46.784-42.724,51.059c0.003,0.227,0.005,0.454,0.005,0.682c0,27.193-20.853,49.659-47.701,51.685
			c-3.773,25.199-25.506,44.05-51.056,44.05c-2.607,0-5.213-0.198-7.763-0.591c-9.681,13.916-25.449,22.194-42.378,22.194
			c-5.59,0-11.078-0.889-16.33-2.642c-9.724,13.363-25.239,21.307-41.734,21.307c-11.987,0-23.562-4.174-32.768-11.784
			C481.604,708.446,467.476,714.939,452.424,714.939z M408.297,685.528c0.549,0,1.058,0.3,1.32,0.788
			c8.517,15.805,24.919,25.623,42.807,25.623c14.656,0,28.383-6.538,37.661-17.939c0.257-0.315,0.632-0.514,1.038-0.548
			c0.406-0.029,0.809,0.1,1.115,0.368c8.835,7.76,20.184,12.033,31.955,12.033c15.892,0,30.819-7.831,39.932-20.947
			c0.387-0.558,1.1-0.785,1.738-0.557c5.251,1.884,10.768,2.839,16.395,2.839c16.247,0,31.361-8.099,40.431-21.663
			c0.329-0.493,0.917-0.751,1.504-0.644c2.683,0.467,5.443,0.703,8.206,0.703c24.456,0,45.198-18.338,48.249-42.655
			c0.091-0.722,0.686-1.274,1.411-1.312c25.849-1.333,46.097-22.754,46.097-48.768c0-0.633-0.013-1.266-0.036-1.897
			c-0.028-0.765,0.522-1.429,1.279-1.54c23.646-3.497,41.476-24.263,41.476-48.303c0-6.309-1.184-12.45-3.517-18.252
			c-0.202-0.502-0.118-1.074,0.221-1.497c6.911-8.637,10.718-19.5,10.718-30.589c0-15.05-6.761-29.034-18.549-38.367
			c-0.317-0.251-0.52-0.619-0.562-1.022c-0.041-0.402,0.081-0.804,0.341-1.114c7.317-8.766,11.348-19.899,11.348-31.353
			c0-16.58-8.271-31.886-22.126-40.942c-0.356-0.233-0.597-0.607-0.661-1.028s0.053-0.85,0.323-1.18
			c8.915-10.856,12.625-24.624,10.447-38.767c-3.602-23.39-24.449-41.027-48.495-41.027h-0.107c-0.437,0-0.851-0.189-1.136-0.521
			c-0.285-0.33-0.412-0.768-0.348-1.199c0.705-4.769,0.726-9.583,0.061-14.311c-3.373-23.989-24.019-41.894-48.16-41.894
			c-0.216,0-0.428,0.001-0.645,0.004c-2.71,0.035-5.408,0.295-8.021,0.771c-0.789,0.141-1.539-0.351-1.727-1.122
			c-5.312-21.92-24.736-37.229-47.237-37.229c-9.687,0-19.032,2.846-27.025,8.229c-0.676,0.453-1.591,0.288-2.062-0.378
			c-9.123-12.9-23.961-20.602-39.693-20.602c-13.226,0-25.587,5.235-34.808,14.742c-0.566,0.584-1.588,0.584-2.154,0
			c-9.221-9.507-21.587-14.742-34.82-14.742c-13.872,0-27.118,5.969-36.341,16.377c-0.513,0.577-1.377,0.671-2.004,0.22
			c-8.309-6.023-18.139-9.207-28.428-9.207c-22.762,0-42.753,16.193-47.534,38.505c-0.152,0.708-0.8,1.231-1.513,1.185
			c-0.365-0.012-0.714-0.019-1.081-0.011c-26.814,0-48.629,21.903-48.629,48.826c0,3.535,0.38,7.067,1.13,10.5
			c0.092,0.423-0.003,0.864-0.26,1.213c-0.258,0.348-0.652,0.567-1.083,0.603c-25.017,2.054-44.612,23.433-44.612,48.671
			c0,4.646,0.652,9.241,1.937,13.659c0.201,0.689-0.115,1.425-0.754,1.753c-16.344,8.403-26.498,25.07-26.498,43.496
			c0,14.914,6.652,28.807,18.251,38.115c0.332,0.267,0.535,0.661,0.559,1.087c0.024,0.425-0.134,0.84-0.435,1.142
			c-9.171,9.207-14.223,21.46-14.223,34.5c0,21.392,14.227,40.622,34.597,46.763c0.477,0.144,0.851,0.514,0.999,0.989
			c0.148,0.475,0.052,0.991-0.258,1.381c-6.926,8.71-10.586,19.229-10.586,30.421c0,22.522,15.185,42.012,36.925,47.395
			c0.394,0.098,0.73,0.35,0.935,0.699c0.205,0.351,0.259,0.768,0.15,1.158c-1.02,3.673-1.603,7.504-1.73,11.387
			c-0.867,26.236,19.612,48.846,45.651,50.401c5.897,0.351,11.722-0.349,17.312-2.083c0.808-0.255,1.727,0.267,1.918,1.095
			c5.141,22.215,24.614,37.729,47.356,37.729c1.379,0,2.669-0.051,3.944-0.155C408.216,685.53,408.257,685.528,408.297,685.528z"/>
	</g>
	<g>
		<circle fill="#C8CCCD" cx="506.489" cy="452.267" r="170.901"/>
		<path fill="#C8CCCD" d="M506.488,624.669c-95.062,0-172.4-77.339-172.4-172.401s77.339-172.401,172.4-172.401
			c95.062,0,172.401,77.339,172.401,172.401S601.551,624.669,506.488,624.669z M506.488,282.866
			c-93.407,0-169.4,75.993-169.4,169.401s75.993,169.401,169.4,169.401c93.408,0,169.401-75.993,169.401-169.401
			S599.897,282.866,506.488,282.866z"/>
	</g>
	<g>
		<path fill="#EFEFEF" d="M679.146,343.708c-0.809-11.472-10.118-20.89-23.27-25.344c5.08-6.559,7.833-14.674,7.226-23.273
			c-1.393-19.754-19.997-34.534-41.555-33.014c-9.853,0.695-18.621,4.679-25.097,10.677c-9.054-11.906-25.952-19.273-44.719-17.949
			c-15.952,1.125-29.684,8.279-37.928,18.419c-7.559-4.076-17.146-6.189-27.402-5.466c-16.117,1.137-29.611,8.956-35.772,19.426
			c-8.041-5.876-19.248-9.126-31.397-8.269c-18.504,1.305-33.51,11.74-37.944,24.992c-4.716-1.191-9.788-1.667-15.023-1.298
			c-22.907,1.616-40.358,18.787-38.979,38.345c1.253,17.763,17.591,31.384,37.733,32.541c-2.174,4.595-3.227,9.718-2.852,15.035
			c1.256,17.815,18.038,31.148,37.472,29.777c5.926-0.418,11.413-2.154,16.143-4.868c1.887,18.658,24.57,32.165,51.149,30.291
			c9.663-0.681,18.536-3.308,25.876-7.267c8.506,9.891,24.458,15.914,42.246,14.659c23.475-1.656,41.995-15.401,43.925-31.675
			c9.485,5.115,21.883,7.78,35.234,6.839c28.11-1.982,49.786-19.179,48.43-38.405c-0.373-5.295-2.456-10.196-5.868-14.466
			C670.818,367.422,680.017,356.055,679.146,343.708z"/>
		<path fill="#AEAFAE" d="M530.426,452.785c-15.398,0-29.537-5.335-37.958-14.449c-7.549,3.87-16.312,6.247-25.432,6.891
			c-26.562,1.876-49.02-10.934-52.436-29.454c-4.57,2.279-9.663,3.665-14.856,4.031c-20.245,1.424-37.761-12.557-39.073-31.168
			c-0.33-4.677,0.408-9.41,2.14-13.812c-20.036-2.032-35.785-16.242-37.02-33.765c-0.699-9.904,3.146-19.52,10.826-27.075
			c7.616-7.494,18.108-12.065,29.543-12.871c4.822-0.342,9.584,0.005,14.172,1.025c5.264-13.574,20.647-23.439,38.795-24.72
			c11.382-0.806,22.604,1.969,31.066,7.631c6.957-10.547,20.616-17.696,36.103-18.788c9.677-0.683,19.257,1.117,27.131,5.074
			c8.928-10.39,22.773-16.939,38.199-18.027c18.058-1.273,35.134,5.316,45.014,17.271c6.805-5.81,15.549-9.345,24.803-9.998
			c22.35-1.569,41.709,13.858,43.156,34.405c0.561,7.95-1.679,15.917-6.33,22.648c13.08,5.04,21.59,14.851,22.374,25.968l0,0
			c0.85,12.045-7.554,23.82-21.543,30.412c2.999,4.244,4.691,8.865,5.037,13.761c1.412,20.023-20.938,37.97-49.821,40.007
			c-12.351,0.874-24.396-1.275-34.188-6.059c-3.304,16.18-22.15,29.286-44.971,30.895
			C533.57,452.73,531.991,452.785,530.426,452.785z M492.806,434.963c0.427,0,0.846,0.182,1.139,0.521
			c8.519,9.906,24.23,15.325,41.002,14.142c22.388-1.579,40.676-14.629,42.541-30.355c0.059-0.493,0.357-0.926,0.798-1.154
			c0.441-0.228,0.967-0.226,1.403,0.011c9.612,5.185,21.842,7.548,34.416,6.663c27.233-1.921,48.335-18.431,47.04-36.804
			c-0.345-4.874-2.21-9.462-5.544-13.635c-0.293-0.366-0.397-0.849-0.282-1.303c0.114-0.455,0.435-0.829,0.865-1.014
			c13.833-5.902,22.259-16.98,21.467-28.222l0,0c-0.735-10.422-9.264-19.629-22.256-24.028c-0.459-0.155-0.814-0.523-0.955-0.988
			c-0.14-0.464-0.046-0.968,0.251-1.352c5.015-6.475,7.471-14.376,6.916-22.248c-1.333-18.896-19.26-33.097-39.953-31.624
			c-9.133,0.645-17.721,4.296-24.184,10.281c-0.311,0.287-0.732,0.429-1.149,0.394c-0.422-0.036-0.808-0.249-1.064-0.586
			c-9.091-11.957-25.727-18.598-43.419-17.361c-15.062,1.062-28.501,7.575-36.869,17.869c-0.454,0.558-1.241,0.716-1.876,0.374
			c-7.577-4.086-17.018-5.967-26.585-5.29c-15.179,1.07-28.431,8.232-34.585,18.691c-0.215,0.365-0.574,0.622-0.989,0.708
			c-0.414,0.089-0.846-0.007-1.188-0.258c-8.033-5.869-19.113-8.773-30.406-7.984c-17.523,1.236-32.243,10.87-36.627,23.972
			c-0.249,0.745-1.029,1.172-1.79,0.979c-4.687-1.185-9.584-1.606-14.55-1.256c-10.723,0.756-20.542,5.024-27.65,12.018
			c-7.044,6.93-10.573,15.711-9.938,24.726c1.173,16.636,16.788,30.026,36.322,31.149c0.498,0.028,0.949,0.303,1.204,0.731
			s0.279,0.956,0.065,1.407c-2.117,4.477-3.056,9.417-2.712,14.288c1.196,16.963,17.279,29.687,35.87,28.387
			c5.487-0.388,10.849-2.003,15.503-4.673c0.441-0.254,0.979-0.267,1.432-0.033c0.452,0.232,0.756,0.678,0.807,1.183
			c1.797,17.76,24.009,30.742,49.551,28.946c9.123-0.644,17.861-3.096,25.27-7.092C492.319,435.021,492.564,434.963,492.806,434.963
			z"/>
	</g>
	<g>
		<path fill="#6B6D6C" d="M473.326,568.777c0.611-1.084,2.298-1.735,3.406-0.951c5.318,3.763,12.414,4.782,18.464,2.16
			c5.793-2.511,9.872-8.025,10.966-14.178c0.085-0.477,0.346-0.88,0.698-1.19c-2.373-0.61-4.556-2.099-5.984-4.486l-6.542-10.93
			c-3.871-6.467,0.632-14.713,8.165-14.953l13.098-0.417c7.746-0.247,12.748,8.111,8.871,14.821L517.912,550
			c-1.68,2.908-4.478,4.526-7.405,4.863c0.461,0.595,0.639,1.398,0.497,2.197c-1.338,7.526-6.575,14.232-13.552,17.351
			c-7.436,3.324-16.511,2.485-23.175-2.23C473.176,571.405,472.614,570.039,473.326,568.777z"/>
	</g>
	<g>
		<circle fill="#6B6D6C" cx="441.217" cy="466.309" r="15.023"/>
	</g>
	<g>
		<circle fill="#6B6D6C" cx="579.852" cy="465.328" r="14.042"/>
	</g>
	<g>
		<path fill="#6B6D6C" d="M543.68,569.457c-0.584-1.099-2.253-1.792-3.381-1.036c-5.41,3.628-12.53,4.47-18.513,1.697
			c-5.728-2.655-9.668-8.269-10.607-14.448c-0.073-0.479-0.324-0.888-0.668-1.207c2.388-0.55,4.607-1.984,6.095-4.335l6.813-10.763
			c4.031-6.368-0.263-14.724-7.788-15.152l-13.084-0.745c-7.737-0.441-12.947,7.79-9.239,14.595l6.27,11.508
			c1.607,2.949,4.363,4.637,7.281,5.047c-0.475,0.584-0.674,1.381-0.552,2.184c1.149,7.557,6.217,14.392,13.114,17.685
			c7.35,3.509,16.443,2.898,23.223-1.649C543.764,572.087,544.36,570.736,543.68,569.457z"/>
	</g>
	<g opacity="0.8">
		<circle fill="#F2D9E4" cx="393.608" cy="523.828" r="15.023"/>
	</g>
	<g opacity="0.8">
		<circle fill="#F2D9E4" cx="616.592" cy="509.347" r="15.023"/>
	</g>
</g>
<g>
</g>
<g>
</g>
<g>
</g>
<g>
</g>
<g>
</g>
<g>
</g>
</svg>
