<?xml version="1.0" encoding="utf-8"?>
<!-- Generator: Adobe Illustrator 27.7.0, SVG Export Plug-In . SVG Version: 6.00 Build 0)  -->
<svg version="1.1" id="Layer_1" xmlns="http://www.w3.org/2000/svg" xmlns:xlink="http://www.w3.org/1999/xlink" x="0px" y="0px"
	 width="1000px" height="1000px" viewBox="0 0 1000 1000" enable-background="new 0 0 1000 1000" xml:space="preserve">
<g>
	<g id="blue_x5F_box" opacity="0.7">
		<g id="Blue" opacity="0.8">
			<g>
				<path fill="#FEE37D" d="M105.8,773.851c0,12.052,9.498,21.82,21.219,21.82h745.005c11.72,0,21.219-9.768,21.219-21.82V78.043
					c0-12.052-9.498-21.82-21.219-21.82H127.019c-11.72,0-21.219,9.768-21.219,21.82V773.851z"/>
			</g>
		</g>
		<g id="Blue_x5F_outline" display="none">
			<g display="inline">
				<path fill="#FEE37D" d="M872.024,796.883H127.019c-12.349,0-22.397-10.333-22.397-23.032V78.043
					c0-12.699,10.049-23.032,22.397-23.032h745.005c12.349,0,22.397,10.333,22.397,23.032v695.807
					C894.422,786.549,884.373,796.883,872.024,796.883z M127.019,57.436c-11.05,0-20.04,9.244-20.04,20.608v695.807
					c0,11.363,8.99,20.608,20.04,20.608h745.005c11.05,0,20.04-9.244,20.04-20.608V78.043c0-11.363-8.99-20.608-20.04-20.608
					H127.019z"/>
			</g>
		</g>
	</g>
	<g>
		<path fill="#80D2F5" d="M467.525,290.822h-188.5c-6.6,0-12-5.4-12-12V112.488c0-6.6,5.4-12,12-12h188.5c6.6,0,12,5.4,12,12
			v166.335C479.525,285.422,474.125,290.822,467.525,290.822z"/>
	</g>
	<g>
		<path fill="#BDDEAA" d="M279.025,553.801h188.5c6.6,0,12,5.4,12,12v170.157c0,6.6-5.4,12-12,12h-188.5c-6.6,0-12-5.4-12-12
			V565.801C267.025,559.201,272.425,553.801,279.025,553.801z"/>
	</g>
	<g>
		<path fill="#BDDEAA" d="M724.494,521.301h-188.5c-6.6,0-12-5.4-12-12V339.144c0-6.6,5.4-12,12-12h188.5c6.6,0,12,5.4,12,12
			v170.157C736.494,515.901,731.094,521.301,724.494,521.301z"/>
	</g>
	<g>
		<rect x="136.84" y="829.87" fill="none" width="738.768" height="152.998"/>
		<path fill="#C0DEA7" d="M144.52,902.35c4.68,2.88,11.52,5.28,18.719,5.28c10.68,0,16.919-5.64,16.919-13.8
			c0-7.56-4.32-11.879-15.24-16.079c-13.199-4.68-21.359-11.52-21.359-22.919c0-12.6,10.439-21.959,26.159-21.959
			c8.28,0,14.28,1.92,17.879,3.959l-2.88,8.521c-2.64-1.44-8.04-3.84-15.359-3.84c-11.04,0-15.239,6.6-15.239,12.119
			c0,7.56,4.92,11.279,16.08,15.6c13.679,5.279,20.639,11.879,20.639,23.759c0,12.479-9.239,23.279-28.318,23.279
			c-7.8,0-16.319-2.28-20.64-5.16L144.52,902.35z"/>
		<path fill="#C0DEA7" d="M211.359,887.95c0.24,14.279,9.359,20.159,19.919,20.159c7.56,0,12.12-1.319,16.079-3l1.8,7.561
			c-3.72,1.68-10.08,3.6-19.319,3.6c-17.879,0-28.559-11.76-28.559-29.279s10.32-31.318,27.239-31.318
			c18.959,0,23.999,16.68,23.999,27.358c0,2.16-0.24,3.84-0.36,4.92H211.359z M242.318,880.391c0.12-6.72-2.76-17.159-14.639-17.159
			c-10.68,0-15.359,9.84-16.2,17.159H242.318z"/>
		<path fill="#C0DEA7" d="M315.637,856.992c-0.24,4.199-0.48,8.879-0.48,15.959v33.719c0,13.319-2.64,21.479-8.279,26.519
			c-5.64,5.28-13.8,6.96-21.119,6.96c-6.96,0-14.64-1.68-19.319-4.8l2.64-8.04c3.84,2.4,9.84,4.561,17.04,4.561
			c10.799,0,18.719-5.641,18.719-20.279v-6.48h-0.24c-3.24,5.4-9.479,9.72-18.479,9.72c-14.399,0-24.719-12.239-24.719-28.318
			c0-19.68,12.84-30.839,26.159-30.839c10.08,0,15.6,5.279,18.119,10.079h0.24l0.48-8.759H315.637z M304.717,879.911
			c0-1.8-0.12-3.36-0.6-4.8c-1.92-6.12-7.08-11.16-14.76-11.16c-10.08,0-17.279,8.52-17.279,21.959c0,11.4,5.76,20.88,17.159,20.88
			c6.48,0,12.36-4.08,14.64-10.8c0.6-1.8,0.84-3.84,0.84-5.64V879.911z"/>
		<path fill="#C0DEA7" d="M318.518,931.869c4.8-0.36,9-1.681,11.52-4.44c2.88-3.359,3.96-7.92,3.96-21.839v-48.598h10.56v52.678
			c0,11.279-1.8,18.599-6.959,23.879c-4.68,4.68-12.36,6.6-18,6.6L318.518,931.869z M345.757,840.672c0.12,3.48-2.399,6.48-6.6,6.48
			c-3.96,0-6.479-3-6.479-6.48c0-3.72,2.76-6.6,6.72-6.6C343.237,834.072,345.757,836.952,345.757,840.672z"/>
		<path fill="#C0DEA7" d="M410.436,899.23c0,5.999,0.12,11.279,0.479,15.839h-9.359l-0.6-9.479h-0.24
			c-2.76,4.68-8.88,10.8-19.199,10.8c-9.12,0-20.039-5.04-20.039-25.439v-33.958h10.56v32.158c0,11.039,3.359,18.479,12.959,18.479
			c7.08,0,12-4.92,13.92-9.6c0.6-1.561,0.96-3.48,0.96-5.4v-35.638h10.56V899.23z"/>
		<path fill="#C0DEA7" d="M427.957,872.711c0-6-0.12-10.92-0.48-15.719h9.24l0.479,9.359h0.36c3.24-5.52,8.64-10.68,18.239-10.68
			c7.919,0,13.919,4.8,16.439,11.64h0.24c1.8-3.24,4.08-5.76,6.48-7.56c3.479-2.641,7.319-4.08,12.839-4.08
			c7.679,0,19.08,5.04,19.08,25.199v34.198h-10.32V882.19c0-11.159-4.08-17.879-12.599-17.879c-6,0-10.68,4.439-12.479,9.6
			c-0.48,1.439-0.84,3.359-0.84,5.279v35.879h-10.319v-34.799c0-9.239-4.08-15.959-12.12-15.959c-6.6,0-11.399,5.279-13.08,10.56
			c-0.6,1.56-0.84,3.359-0.84,5.16v35.038h-10.319V872.711z"/>
		<path fill="#C0DEA7" d="M552.035,904.27c3.12,2.04,8.64,4.2,13.92,4.2c7.68,0,11.279-3.84,11.279-8.64c0-5.04-3-7.8-10.8-10.68
			c-10.439-3.72-15.359-9.479-15.359-16.439c0-9.359,7.561-17.039,20.039-17.039c5.88,0,11.04,1.68,14.28,3.6l-2.641,7.68
			c-2.279-1.439-6.479-3.359-11.879-3.359c-6.24,0-9.72,3.6-9.72,7.919c0,4.8,3.479,6.96,11.039,9.84
			c10.08,3.84,15.24,8.88,15.24,17.52c0,10.199-7.92,17.399-21.72,17.399c-6.359,0-12.239-1.561-16.319-3.96L552.035,904.27z"/>
		<path fill="#C0DEA7" d="M633.153,915.069l-0.84-7.319h-0.359c-3.24,4.56-9.48,8.64-17.76,8.64c-11.76,0-17.759-8.28-17.759-16.68
			c0-14.039,12.479-21.719,34.918-21.599v-1.2c0-4.8-1.319-13.439-13.199-13.439c-5.399,0-11.04,1.68-15.119,4.319l-2.4-6.959
			c4.8-3.12,11.76-5.16,19.079-5.16c17.76,0,22.079,12.119,22.079,23.759v21.72c0,5.039,0.24,9.959,0.96,13.919H633.153z
			 M631.594,885.431c-11.52-0.24-24.599,1.8-24.599,13.079c0,6.84,4.56,10.08,9.959,10.08c7.56,0,12.359-4.8,14.04-9.72
			c0.359-1.08,0.6-2.28,0.6-3.36V885.431z"/>
		<path fill="#C0DEA7" d="M658.834,872.711c0-6-0.12-10.92-0.48-15.719h9.24l0.479,9.359h0.36c3.239-5.52,8.64-10.68,18.239-10.68
			c7.92,0,13.919,4.8,16.439,11.64h0.24c1.8-3.24,4.079-5.76,6.479-7.56c3.479-2.641,7.319-4.08,12.839-4.08
			c7.68,0,19.08,5.04,19.08,25.199v34.198h-10.32V882.19c0-11.159-4.08-17.879-12.6-17.879c-5.999,0-10.68,4.439-12.479,9.6
			c-0.479,1.439-0.84,3.359-0.84,5.279v35.879h-10.319v-34.799c0-9.239-4.08-15.959-12.119-15.959c-6.6,0-11.4,5.279-13.08,10.56
			c-0.6,1.56-0.84,3.359-0.84,5.16v35.038h-10.319V872.711z"/>
		<path fill="#C0DEA7" d="M791.072,915.069l-0.84-7.319h-0.359c-3.24,4.56-9.479,8.64-17.76,8.64c-11.76,0-17.759-8.28-17.759-16.68
			c0-14.039,12.479-21.719,34.918-21.599v-1.2c0-4.8-1.319-13.439-13.199-13.439c-5.399,0-11.039,1.68-15.119,4.319l-2.4-6.959
			c4.8-3.12,11.76-5.16,19.079-5.16c17.76,0,22.079,12.119,22.079,23.759v21.72c0,5.039,0.24,9.959,0.96,13.919H791.072z
			 M789.513,885.431c-11.52-0.24-24.599,1.8-24.599,13.079c0,6.84,4.56,10.08,9.959,10.08c7.56,0,12.359-4.8,14.04-9.72
			c0.359-1.08,0.6-2.28,0.6-3.36V885.431z"/>
		<path fill="#C0DEA7" d="M816.754,872.711c0-6-0.12-10.92-0.48-15.719h9.36l0.6,9.6h0.24c2.88-5.521,9.6-10.92,19.199-10.92
			c8.039,0,20.519,4.8,20.519,24.719v34.679h-10.56v-33.479c0-9.359-3.479-17.159-13.439-17.159c-6.959,0-12.359,4.92-14.159,10.799
			c-0.479,1.32-0.72,3.12-0.72,4.92v34.919h-10.56V872.711z"/>
	</g>
	<g>
		<rect x="53.87" y="717.696" fill="none" width="2.609" height="2.609"/>
	</g>
	<path opacity="0.7" fill="#FEE37D" d="M730.876,432.789L537.52,521.426c-6.324,2.899-13.526-1.722-13.526-8.679V335.473
		c0-6.957,7.202-11.578,13.526-8.679l193.356,88.637C738.301,418.835,738.301,429.385,730.876,432.789z"/>
	<path opacity="0.7" fill="#FEE37D" d="M272.961,187.798l192.886-85.56c6.313-2.8,13.419,1.821,13.419,8.727l0,171.12
		c0,6.906-7.106,11.528-13.419,8.727l-192.886-85.56C265.393,201.895,265.393,191.155,272.961,187.798z"/>
	<path opacity="0.7" fill="#FFE896" d="M275.24,642.431l187.999-86.082c7.413-3.394,15.852,2.023,15.852,10.176l0,172.164
		c0,8.153-8.438,13.57-15.852,10.176L275.24,662.783C266.53,658.794,266.53,646.419,275.24,642.431z"/>
	<g>
		<path fill="#80D2F5" d="M737.809,746.991h-188.5c-6.6,0-12-5.4-12-12V568.657c0-6.6,5.4-12,12-12h188.5c6.6,0,12,5.4,12,12
			v166.335C749.809,741.591,744.409,746.991,737.809,746.991z"/>
	</g>
	<path opacity="0.8" fill="#F6ADCD" d="M729.424,294.645h-188.5c-6.6,0-12-5.4-12-12V112.488c0-6.6,5.4-12,12-12h188.5
		c6.6,0,12,5.4,12,12v170.157C741.424,289.245,736.024,294.645,729.424,294.645z"/>
	<path opacity="0.8" fill="#F6ADCD" d="M474.52,521.189h-188.5c-6.6,0-12-5.4-12-12V339.032c0-6.6,5.4-12,12-12h188.5
		c6.6,0,12,5.4,12,12v170.157C486.52,515.789,481.12,521.189,474.52,521.189z"/>
	<path opacity="0.7" fill="#FEE37D" d="M743.613,661.115l-192.886,85.56c-6.313,2.8-13.419-1.821-13.419-8.727v-171.12
		c0-6.906,7.106-11.528,13.419-8.727l192.886,85.56C751.182,647.018,751.182,657.758,743.613,661.115z"/>
	<path opacity="0.7" fill="#FEE37D" d="M735.488,206.294l-192.886,85.56c-6.313,2.8-13.419-1.821-13.419-8.727v-171.12
		c0-6.906,7.106-11.528,13.419-8.727l192.886,85.56C743.056,192.196,743.056,202.937,735.488,206.294z"/>
	<path opacity="0.7" fill="#FEE37D" d="M283.52,412.888l186.545-86.088c7.684-3.546,16.455,2.066,16.455,10.529v172.176
		c0,8.462-8.771,14.075-16.455,10.529L283.52,433.945C274.537,429.8,274.537,417.033,283.52,412.888z"/>
</g>
</svg>
