<?xml version="1.0" encoding="utf-8"?>
<!-- Generator: Adobe Illustrator 27.9.0, SVG Export Plug-In . SVG Version: 6.00 Build 0)  -->
<svg version="1.1" id="Layer_1" xmlns="http://www.w3.org/2000/svg" xmlns:xlink="http://www.w3.org/1999/xlink" x="0px" y="0px"
	 width="1000px" height="1000px" viewBox="0 0 1000 1000" enable-background="new 0 0 1000 1000" xml:space="preserve">
<path opacity="0.1" fill="#FEE37E" enable-background="new    " d="M914.5,812.7H85.4c-18.7,0-34-15.3-34-34V64.6
	c0-18.7,15.3-34,34-34h829.1c18.7,0,34,15.3,34,34v714.1C948.4,797.4,933.1,812.7,914.5,812.7z"/>
<g id="yellow_x5F_box">
	<g id="yellow_x5F_backround">
		<g>
			<path fill="#FEE37E" d="M128.448,560.521c0,4.835,3.762,8.704,8.331,8.704h291.942c4.569,0,8.331-3.868,8.331-8.704V282.779
				c0-4.835-3.762-8.704-8.331-8.704H136.779c-4.569,0-8.331,3.868-8.331,8.704V560.521L128.448,560.521z"/>
		</g>
	</g>
	<g id="Yellow_x5F_outline" display="none">
		<g display="inline">
			<path fill="#FEE37E" d="M428.721,569.708H136.779c-4.837,0-8.779-4.158-8.779-9.187V282.779c0-5.029,3.942-9.187,8.779-9.187
				h291.942c4.837,0,8.779,4.158,8.779,9.187v277.741C437.5,565.646,433.558,569.708,428.721,569.708z M136.779,274.559
				c-4.3,0-7.883,3.675-7.883,8.22v277.741c0,4.545,3.494,8.22,7.883,8.22h291.942c4.3,0,7.883-3.675,7.883-8.22V282.779
				c0-4.545-3.494-8.22-7.883-8.22H136.779L136.779,274.559z"/>
		</g>
	</g>
</g>
<g>
	<rect x="140" y="862.279" fill="none" width="782" height="96"/>
	<path fill="#FEE37E" d="M147.68,934.759c4.68,2.88,11.52,5.28,18.719,5.28c10.68,0,16.919-5.64,16.919-13.8
		c0-7.56-4.32-11.88-15.239-16.079c-13.2-4.68-21.359-11.52-21.359-22.919c0-12.6,10.439-21.959,26.159-21.959
		c8.279,0,14.279,1.92,17.879,3.96l-2.88,8.52c-2.64-1.44-8.04-3.84-15.359-3.84c-11.04,0-15.239,6.6-15.239,12.119
		c0,7.56,4.92,11.279,16.079,15.6c13.68,5.279,20.64,11.879,20.64,23.759c0,12.479-9.24,23.279-28.319,23.279
		c-7.799,0-16.319-2.28-20.639-5.16L147.68,934.759z"/>
	<path fill="#FEE37E" d="M214.519,920.359c0.24,14.279,9.36,20.159,19.919,20.159c7.56,0,12.12-1.319,16.08-3l1.8,7.56
		c-3.72,1.681-10.08,3.601-19.319,3.601c-17.879,0-28.559-11.76-28.559-29.279c0-17.519,10.319-31.318,27.239-31.318
		c18.959,0,23.999,16.679,23.999,27.358c0,2.16-0.24,3.84-0.36,4.92H214.519z M245.478,912.8c0.12-6.72-2.76-17.159-14.64-17.159
		c-10.679,0-15.359,9.84-16.199,17.159H245.478z"/>
	<path fill="#FEE37E" d="M318.796,889.4c-0.24,4.2-0.479,8.88-0.479,15.96v33.719c0,13.319-2.64,21.479-8.28,26.519
		c-5.64,5.28-13.799,6.96-21.119,6.96c-6.96,0-14.64-1.68-19.319-4.8l2.64-8.04c3.84,2.4,9.839,4.56,17.039,4.56
		c10.8,0,18.719-5.64,18.719-20.278v-6.48h-0.24c-3.24,5.4-9.48,9.72-18.479,9.72c-14.399,0-24.719-12.239-24.719-28.318
		c0-19.68,12.839-30.839,26.159-30.839c10.08,0,15.599,5.279,18.119,10.079h0.24l0.48-8.76H318.796z M307.876,912.32
		c0-1.801-0.12-3.36-0.6-4.8c-1.92-6.12-7.08-11.16-14.759-11.16c-10.08,0-17.279,8.52-17.279,21.959
		c0,11.399,5.76,20.88,17.16,20.88c6.479,0,12.359-4.08,14.639-10.8c0.6-1.8,0.84-3.84,0.84-5.64V912.32z"/>
	<path fill="#FEE37E" d="M321.677,964.277c4.8-0.359,9-1.68,11.52-4.439c2.88-3.359,3.96-7.92,3.96-21.839V889.4h10.56v52.679
		c0,11.279-1.8,18.599-6.959,23.879c-4.68,4.68-12.36,6.6-18,6.6L321.677,964.277z M348.916,873.082
		c0.12,3.479-2.399,6.479-6.6,6.479c-3.96,0-6.479-3-6.479-6.479c0-3.721,2.76-6.601,6.72-6.601
		C346.396,866.481,348.916,869.361,348.916,873.082z"/>
	<path fill="#FEE37E" d="M413.595,931.639c0,6,0.12,11.28,0.479,15.84h-9.359l-0.6-9.479h-0.24c-2.76,4.68-8.88,10.8-19.199,10.8
		c-9.12,0-20.039-5.04-20.039-25.439V889.4h10.56v32.159c0,11.04,3.359,18.479,12.959,18.479c7.08,0,12-4.92,13.92-9.6
		c0.6-1.561,0.96-3.48,0.96-5.4V889.4h10.56V931.639z"/>
	<path fill="#FEE37E" d="M431.116,905.12c0-6-0.12-10.919-0.48-15.72h9.24l0.479,9.36h0.36c3.24-5.521,8.64-10.68,18.239-10.68
		c7.919,0,13.919,4.8,16.439,11.64h0.24c1.8-3.24,4.08-5.76,6.48-7.56c3.479-2.641,7.319-4.08,12.839-4.08
		c7.679,0,19.08,5.04,19.08,25.199v34.198h-10.32V914.6c0-11.159-4.08-17.879-12.599-17.879c-6,0-10.68,4.439-12.479,9.6
		c-0.48,1.439-0.84,3.359-0.84,5.279v35.879h-10.319V912.68c0-9.239-4.08-15.959-12.12-15.959c-6.6,0-11.399,5.279-13.08,10.56
		c-0.6,1.56-0.84,3.359-0.84,5.159v35.039h-10.319V905.12z"/>
	<path fill="#FEE37E" d="M555.195,936.679c3.119,2.04,8.64,4.2,13.92,4.2c7.68,0,11.279-3.84,11.279-8.64c0-5.04-3-7.8-10.8-10.68
		c-10.439-3.72-15.359-9.479-15.359-16.439c0-9.359,7.56-17.039,20.039-17.039c5.88,0,11.04,1.68,14.279,3.6l-2.64,7.68
		c-2.28-1.439-6.48-3.359-11.88-3.359c-6.239,0-9.72,3.6-9.72,7.919c0,4.8,3.48,6.96,11.04,9.84
		c10.079,3.84,15.239,8.88,15.239,17.52c0,10.199-7.92,17.399-21.719,17.399c-6.36,0-12.24-1.561-16.32-3.96L555.195,936.679z"/>
	<path fill="#FEE37E" d="M636.313,947.479l-0.84-7.319h-0.36c-3.24,4.56-9.479,8.64-17.76,8.64c-11.759,0-17.759-8.28-17.759-16.68
		c0-14.039,12.479-21.719,34.919-21.6v-1.199c0-4.8-1.32-13.439-13.199-13.439c-5.4,0-11.04,1.68-15.12,4.319l-2.399-6.96
		c4.8-3.119,11.76-5.159,19.079-5.159c17.759,0,22.079,12.119,22.079,23.759v21.719c0,5.04,0.24,9.96,0.96,13.92H636.313z
		 M634.754,917.84c-11.52-0.24-24.6,1.8-24.6,13.079c0,6.84,4.561,10.08,9.96,10.08c7.56,0,12.359-4.8,14.039-9.72
		c0.36-1.08,0.601-2.28,0.601-3.36V917.84z"/>
	<path fill="#FEE37E" d="M661.994,905.12c0-6-0.12-10.919-0.48-15.72h9.24l0.479,9.36h0.36c3.24-5.521,8.64-10.68,18.239-10.68
		c7.92,0,13.919,4.8,16.439,11.64h0.239c1.801-3.24,4.08-5.76,6.48-7.56c3.479-2.641,7.319-4.08,12.839-4.08
		c7.68,0,19.079,5.04,19.079,25.199v34.198h-10.319V914.6c0-11.159-4.079-17.879-12.6-17.879c-5.999,0-10.679,4.439-12.479,9.6
		c-0.479,1.439-0.84,3.359-0.84,5.279v35.879h-10.319V912.68c0-9.239-4.08-15.959-12.119-15.959c-6.601,0-11.399,5.279-13.08,10.56
		c-0.6,1.56-0.84,3.359-0.84,5.159v35.039h-10.319V905.12z"/>
	<path fill="#FEE37E" d="M794.232,947.479l-0.84-7.319h-0.359c-3.24,4.56-9.48,8.64-17.76,8.64c-11.76,0-17.759-8.28-17.759-16.68
		c0-14.039,12.479-21.719,34.918-21.6v-1.199c0-4.8-1.319-13.439-13.199-13.439c-5.399,0-11.04,1.68-15.119,4.319l-2.4-6.96
		c4.8-3.119,11.76-5.159,19.079-5.159c17.76,0,22.079,12.119,22.079,23.759v21.719c0,5.04,0.24,9.96,0.96,13.92H794.232z
		 M792.673,917.84c-11.52-0.24-24.599,1.8-24.599,13.079c0,6.84,4.56,10.08,9.959,10.08c7.56,0,12.359-4.8,14.04-9.72
		c0.359-1.08,0.6-2.28,0.6-3.36V917.84z"/>
	<path fill="#FEE37E" d="M819.913,905.12c0-6-0.12-10.919-0.48-15.72h9.36l0.6,9.6h0.24c2.88-5.52,9.6-10.919,19.199-10.919
		c8.039,0,20.519,4.8,20.519,24.719v34.679h-10.56V914c0-9.359-3.479-17.159-13.439-17.159c-6.959,0-12.359,4.92-14.159,10.8
		c-0.479,1.319-0.72,3.119-0.72,4.919v34.919h-10.56V905.12z"/>
</g>
<g id="yellow_x5F_box_00000008114795661761181090000002004329652990037126_">
	<g id="yellow_x5F_backround_00000110428466406700200370000015751373739559012229_">
		<g>
			<path fill="#BDDEA9" d="M565.698,560.521c0,4.835,3.762,8.704,8.331,8.704h291.942c4.569,0,8.331-3.868,8.331-8.704V282.779
				c0-4.835-3.762-8.704-8.331-8.704H574.029c-4.569,0-8.331,3.868-8.331,8.704V560.521L565.698,560.521z"/>
		</g>
	</g>
	<g id="Yellow_x5F_outline_00000060027604975324307770000016791051763203901357_" display="none">
		<g display="inline">
			<path fill="#BDDEA9" d="M865.971,569.708H574.029c-4.837,0-8.779-4.158-8.779-9.187V282.779c0-5.029,3.942-9.187,8.779-9.187
				h291.942c4.837,0,8.779,4.158,8.779,9.187v277.741C874.75,565.646,870.808,569.708,865.971,569.708z M574.029,274.559
				c-4.3,0-7.883,3.675-7.883,8.22v277.741c0,4.545,3.494,8.22,7.883,8.22h291.942c4.3,0,7.883-3.675,7.883-8.22V282.779
				c0-4.545-3.494-8.22-7.883-8.22H574.029L574.029,274.559z"/>
		</g>
	</g>
</g>
<ellipse fill="#FFFFFF" cx="298.674" cy="416.825" rx="92.326" ry="83.175"/>
<polygon fill="#FFFFFF" points="176.284,493.163 227.678,442.039 248.322,485.071 "/>
<ellipse fill="#FFFFFF" cx="743.819" cy="416.825" rx="89.369" ry="65.929"/>
<ellipse fill="#FFFFFF" cx="659.201" cy="480.776" rx="20.412" ry="12.386"/>
<ellipse fill="#FFFFFF" cx="626.895" cy="504" rx="11.895" ry="8.378"/>
<g>
</g>
<g>
</g>
<g>
</g>
<g>
</g>
<g>
</g>
<g>
</g>
</svg>
