<?xml version="1.0" encoding="utf-8"?>
<!-- Generator: Adobe Illustrator 27.7.0, SVG Export Plug-In . SVG Version: 6.00 Build 0)  -->
<svg version="1.1" id="Layer_1" xmlns="http://www.w3.org/2000/svg" xmlns:xlink="http://www.w3.org/1999/xlink" x="0px" y="0px"
	 width="1000px" height="1000px" viewBox="0 0 1000 1000" enable-background="new 0 0 1000 1000" xml:space="preserve">
<g id="yellow_x5F_box">
	<g id="yellow_x5F_backround">
		<path fill="#FFE37C" d="M174,405.5c0,4.971,4.029,9,9,9h316c4.971,0,9-4.029,9-9v-287c0-4.971-4.029-9-9-9H183
			c-4.971,0-9,4.029-9,9V405.5z"/>
	</g>
	<g id="Yellow_x5F_outline" display="none">
		<path display="inline" fill="#FFE37C" d="M499,415H183c-5.238,0-9.5-4.262-9.5-9.5v-287c0-5.238,4.262-9.5,9.5-9.5h316
			c5.238,0,9.5,4.262,9.5,9.5v287C508.5,410.738,504.238,415,499,415z M183,110c-4.687,0-8.5,3.813-8.5,8.5v287
			c0,4.687,3.813,8.5,8.5,8.5h316c4.687,0,8.5-3.813,8.5-8.5v-287c0-4.687-3.813-8.5-8.5-8.5H183z"/>
	</g>
</g>
<g id="pink_x5F_box">
	<g id="pink_x5F_backround">
		<path fill="#F8ADD2" d="M535,454.605c0,4.971,4.029,9,9,9h316c4.971,0,9-4.029,9-9V118.5c0-4.971-4.029-9-9-9H544
			c-4.971,0-9,4.029-9,9V454.605z"/>
	</g>
	<g id="pink_x5F_outline" display="none">
		<path display="inline" fill="#F8ADD2" d="M860,464.105H544c-5.238,0-9.5-4.262-9.5-9.5V118.5c0-5.238,4.262-9.5,9.5-9.5h316
			c5.238,0,9.5,4.262,9.5,9.5v336.105C869.5,459.843,865.238,464.105,860,464.105z M544,110c-4.687,0-8.5,3.813-8.5,8.5v336.105
			c0,4.687,3.813,8.5,8.5,8.5h316c4.687,0,8.5-3.813,8.5-8.5V118.5c0-4.687-3.813-8.5-8.5-8.5H544z"/>
	</g>
</g>
<g id="blue_x5F_box">
	<g id="Blue">
		<path fill="#7BD3FC" d="M535,778c0,4.971,4.029,9,9,9h316c4.971,0,9-4.029,9-9V491c0-4.971-4.029-9-9-9H544c-4.971,0-9,4.029-9,9
			V778z"/>
	</g>
	<g id="Blue_x5F_outline" display="none">
		<path display="inline" fill="#7BD3FC" d="M860,787.5H544c-5.238,0-9.5-4.262-9.5-9.5V491c0-5.238,4.262-9.5,9.5-9.5h316
			c5.238,0,9.5,4.262,9.5,9.5v287C869.5,783.238,865.238,787.5,860,787.5z M544,482.5c-4.687,0-8.5,3.813-8.5,8.5v287
			c0,4.687,3.813,8.5,8.5,8.5h316c4.687,0,8.5-3.813,8.5-8.5V491c0-4.687-3.813-8.5-8.5-8.5H544z"/>
	</g>
</g>
<g id="yellowbox_x5F_circle">
	<g id="yellowbox_x5F_circle_x5F_white">
		<circle fill="#FFFFFF" cx="341" cy="262" r="84.866"/>
	</g>
	<g>
		<path fill="#FFE37C" d="M341,347.366c-47.071,0-85.366-38.295-85.366-85.366s38.295-85.366,85.366-85.366
			s85.366,38.295,85.366,85.366S388.071,347.366,341,347.366z M341,177.634c-46.52,0-84.366,37.847-84.366,84.366
			S294.48,346.366,341,346.366S425.366,308.52,425.366,262S387.52,177.634,341,177.634z"/>
	</g>
</g>
<g id="pinkbox_x5F_triangle">
	<polyline id="pinkbox_x5F_triangle_x5F_white" fill="#FFFFFF" points="612.622,419.5 701.622,149.5 807.622,419.5 	"/>
	<polygon fill="#F8ADD2" points="807.156,419.683 701.663,150.973 613.097,419.657 612.147,419.343 701.581,148.027 
		702.088,149.317 808.088,419.317 	"/>
</g>
<g id="bluebox_x5F_box">
	<rect id="bluebox_x5F_box_x5F_white" x="620.689" y="572.5" fill="#FFFFFF" width="162.622" height="124"/>
	<path fill="#7BD3FC" d="M783.811,697H620.189V572h163.621V697z M621.189,696h161.621V573H621.189V696z"/>
</g>
<g id="spilaleiki_x5F_txt">
	<path fill="#F8ADD2" d="M285.151,911.497c4.641,2.856,11.424,5.236,18.564,5.236c10.591,0,16.779-5.594,16.779-13.686
		c0-7.497-4.284-11.781-15.113-15.946c-13.09-4.642-21.183-11.425-21.183-22.729c0-12.496,10.354-21.778,25.943-21.778
		c8.211,0,14.161,1.904,17.731,3.928l-2.856,8.449c-2.618-1.429-7.973-3.809-15.232-3.809c-10.948,0-15.113,6.545-15.113,12.02
		c0,7.497,4.879,11.187,15.946,15.471c13.566,5.236,20.468,11.781,20.468,23.562c0,12.376-9.163,23.087-28.084,23.087
		c-7.735,0-16.185-2.262-20.469-5.117L285.151,911.497z"/>
	<path fill="#F8ADD2" d="M344.889,885.316c0-7.378-0.238-13.328-0.476-18.803h9.401l0.476,9.877h0.238
		c4.284-7.021,11.067-11.186,20.468-11.186c13.923,0,24.396,11.781,24.396,29.274c0,20.707-12.615,30.94-26.181,30.94
		c-7.616,0-14.281-3.332-17.732-9.044h-0.238v31.298h-10.354V885.316z M355.242,900.667c0,1.547,0.238,2.975,0.476,4.284
		c1.904,7.259,8.211,12.257,15.708,12.257c11.067,0,17.493-9.044,17.493-22.254c0-11.543-6.069-21.42-17.136-21.42
		c-7.14,0-13.804,5.117-15.828,12.971c-0.357,1.31-0.714,2.856-0.714,4.284V900.667z"/>
	<path fill="#F8ADD2" d="M424.26,850.329c0.119,3.57-2.499,6.427-6.664,6.427c-3.689,0-6.307-2.856-6.307-6.427
		c0-3.688,2.737-6.545,6.545-6.545C421.761,843.784,424.26,846.64,424.26,850.329z M412.598,924.111v-57.598h10.473v57.598H412.598z
		"/>
	<path fill="#F8ADD2" d="M440.443,839.619h10.473v84.492h-10.473V839.619z"/>
	<path fill="#F8ADD2" d="M500.419,924.111l-0.833-7.259h-0.357c-3.213,4.521-9.401,8.567-17.612,8.567
		c-11.663,0-17.613-8.211-17.613-16.541c0-13.924,12.376-21.54,34.63-21.421v-1.189c0-4.761-1.309-13.329-13.09-13.329
		c-5.355,0-10.948,1.667-14.994,4.284l-2.38-6.901c4.76-3.095,11.663-5.117,18.922-5.117c17.612,0,21.896,12.019,21.896,23.562
		v21.539c0,4.998,0.238,9.878,0.952,13.805H500.419z M498.872,894.717c-11.424-0.238-24.396,1.785-24.396,12.971
		c0,6.783,4.522,9.997,9.877,9.997c7.497,0,12.258-4.761,13.924-9.64c0.356-1.071,0.595-2.261,0.595-3.332V894.717z"/>
	<path fill="#F8ADD2" d="M551.11,839.619h10.472v84.492H551.11V839.619z"/>
	<path fill="#F8ADD2" d="M585.024,897.216c0.238,14.161,9.282,19.992,19.755,19.992c7.497,0,12.019-1.309,15.946-2.975l1.785,7.497
		c-3.689,1.666-9.997,3.57-19.16,3.57c-17.731,0-28.322-11.663-28.322-29.037c0-17.375,10.234-31.06,27.014-31.06
		c18.803,0,23.801,16.541,23.801,27.133c0,2.142-0.238,3.808-0.357,4.879H585.024z M615.728,889.719
		c0.118-6.664-2.737-17.018-14.519-17.018c-10.592,0-15.232,9.758-16.065,17.018H615.728z"/>
	<path fill="#F8ADD2" d="M650.474,850.329c0.119,3.57-2.499,6.427-6.664,6.427c-3.689,0-6.308-2.856-6.308-6.427
		c0-3.688,2.737-6.545,6.546-6.545C647.975,843.784,650.474,846.64,650.474,850.329z M638.812,924.111v-57.598h10.472v57.598
		H638.812z"/>
	<path fill="#F8ADD2" d="M677.01,892.932h0.238c1.429-2.023,3.451-4.522,5.117-6.545l16.898-19.874h12.614l-22.253,23.682
		l25.348,33.916h-12.733l-19.874-27.608l-5.355,5.95v21.658h-10.353v-84.492h10.353V892.932z"/>
	<path fill="#F8ADD2" d="M736.152,850.329c0.119,3.57-2.499,6.427-6.664,6.427c-3.689,0-6.308-2.856-6.308-6.427
		c0-3.688,2.737-6.545,6.546-6.545C733.653,843.784,736.152,846.64,736.152,850.329z M724.49,924.111v-57.598h10.472v57.598H724.49z
		"/>
</g>
<g id="green_x5F_box">
	<rect id="green_x5F_backround" x="173.75" y="436.5" fill="#BCE3A9" width="334.5" height="351"/>
	<path id="green_x5F_outline" fill="#BCE3A9" d="M508.75,788h-335.5V436h335.5V788z M174.25,787h333.5V437h-333.5V787z"/>
</g>
<g id="greenbox_x5F_box">
	<rect id="greenbox_x5F_box_x5F_white" x="341" y="629.999" fill="#FFFFFF" width="138.122" height="122.646"/>
	<path fill="#FFFFFF" d="M479.622,753.145H340.5V629.499h139.122V753.145z M341.5,752.145h137.122V630.499H341.5V752.145z"/>
</g>
<g id="greenbox_x5F_triangle_x5F_white_00000078747178024941643440000011094814069295201671_">
	<polyline id="greenbox_x5F_triangle_x5F_white" fill="#FFFFFF" points="208,752.645 265.051,460.5 333,752.645 	"/>
	<polygon fill="#FFFFFF" points="332.513,752.758 265.094,462.891 208.491,752.74 207.509,752.549 265.009,458.109 333.487,752.531 
			"/>
</g>
<g id="greenbox_x5F_circle_x5F_white">
	<g>
		<circle fill="#FFFFFF" cx="392.009" cy="533.693" r="79.278"/>
	</g>
	<g>
		<path fill="#FFFFFF" d="M392.009,613.471c-43.99,0-79.778-35.788-79.778-79.778c0-43.989,35.788-79.777,79.778-79.777
			s79.778,35.788,79.778,79.777C471.787,577.683,435.999,613.471,392.009,613.471z M392.009,454.915
			c-43.438,0-78.778,35.339-78.778,78.777c0,43.438,35.339,78.778,78.778,78.778s78.778-35.34,78.778-78.778
			C470.787,490.254,435.448,454.915,392.009,454.915z"/>
	</g>
</g>
</svg>
