<?xml version="1.0" encoding="utf-8"?>
<!-- Generator: Adobe Illustrator 27.7.0, SVG Export Plug-In . SVG Version: 6.00 Build 0)  -->
<svg version="1.1" id="Layer_1" xmlns="http://www.w3.org/2000/svg" xmlns:xlink="http://www.w3.org/1999/xlink" x="0px" y="0px"
	 width="1000px" height="1000px" viewBox="0 0 1000 1000" enable-background="new 0 0 1000 1000" xml:space="preserve">
<g id="yellow_x5F_box">
	<g id="yellow_x5F_backround">
		<g>
			<path fill="#FFE37C" d="M169.732,392.845c0,4.767,3.93,8.631,8.779,8.631h308.228c4.848,0,8.779-3.864,8.779-8.631V117.611
				c0-4.767-3.93-8.631-8.779-8.631H178.51c-4.848,0-8.779,3.864-8.779,8.631V392.845z"/>
		</g>
	</g>
	<g id="Yellow_x5F_outline" display="none">
		<g display="inline">
			<path fill="#FFE37C" d="M486.738,401.955H178.51c-5.109,0-9.266-4.087-9.266-9.111V117.611c0-5.024,4.157-9.111,9.266-9.111
				h308.228c5.109,0,9.266,4.087,9.266,9.111v275.234C496.004,397.868,491.847,401.955,486.738,401.955z M178.51,109.459
				c-4.572,0-8.291,3.657-8.291,8.152v275.234c0,4.495,3.719,8.152,8.291,8.152h308.228c4.571,0,8.291-3.657,8.291-8.152V117.611
				c0-4.495-3.72-8.152-8.291-8.152H178.51z"/>
		</g>
	</g>
</g>
<g id="pink_x5F_box">
	<g id="pink_x5F_backround">
		<g>
			<path fill="#F8ADD2" d="M521.852,439.936c0,4.767,3.93,8.631,8.779,8.631h308.228c4.848,0,8.779-3.864,8.779-8.631V117.611
				c0-4.767-3.93-8.631-8.779-8.631H530.631c-4.848,0-8.779,3.864-8.779,8.631V439.936z"/>
		</g>
	</g>
	<g id="pink_x5F_outline" display="none">
		<g display="inline">
			<path fill="#F8ADD2" d="M838.859,449.047H530.631c-5.109,0-9.266-4.087-9.266-9.111V117.611c0-5.024,4.157-9.111,9.266-9.111
				h308.228c5.109,0,9.266,4.087,9.266,9.111v322.326C848.125,444.96,843.968,449.047,838.859,449.047z M530.631,109.459
				c-4.571,0-8.291,3.657-8.291,8.152v322.326c0,4.495,3.72,8.152,8.291,8.152h308.228c4.571,0,8.291-3.657,8.291-8.152V117.611
				c0-4.495-3.72-8.152-8.291-8.152H530.631z"/>
		</g>
	</g>
</g>
<g id="blue_x5F_box">
	<g id="Blue">
		<g>
			<path fill="#7BD3FC" d="M521.852,750.073c0,4.767,3.93,8.631,8.779,8.631h308.228c4.848,0,8.779-3.864,8.779-8.631V474.839
				c0-4.767-3.93-8.631-8.779-8.631H530.631c-4.848,0-8.779,3.864-8.779,8.631V750.073z"/>
		</g>
	</g>
	<g id="Blue_x5F_outline" display="none">
		<g display="inline">
			<path fill="#7BD3FC" d="M838.859,759.184H530.631c-5.109,0-9.266-4.087-9.266-9.111V474.839c0-5.024,4.157-9.111,9.266-9.111
				h308.228c5.109,0,9.266,4.087,9.266,9.111v275.234C848.125,755.097,843.968,759.184,838.859,759.184z M530.631,466.688
				c-4.571,0-8.291,3.657-8.291,8.152v275.234c0,4.494,3.72,8.152,8.291,8.152h308.228c4.571,0,8.291-3.657,8.291-8.152V474.839
				c0-4.495-3.72-8.152-8.291-8.152H530.631z"/>
		</g>
	</g>
</g>
<g id="green_x5F_box">
	<g id="green_x5F_backround">
		<rect x="169.488" y="422.574" fill="#BCE3A9" width="326.273" height="336.61"/>
	</g>
	<g id="green_x5F_outline">
		<path fill="#BCE3A9" d="M496.248,759.663H169V422.094h327.248V759.663z M169.975,758.704h325.297V423.053H169.975V758.704z"/>
	</g>
</g>
<g>
	<path fill="#FFFFFF" d="M318.052,193.977h-0.504l-28.476,15.372l-4.284-16.884l35.784-19.152h18.9v163.799h-21.42V193.977z"/>
</g>
<g>
	<path fill="#FFFFFF" d="M621.102,343.435c7.75,4.96,25.729,12.709,44.64,12.709c35.03,0,45.88-22.319,45.569-39.06
		c-0.311-28.209-25.729-40.3-52.08-40.3h-15.189v-20.459h15.189c19.84,0,44.95-10.23,44.95-34.1
		c0-16.12-10.229-30.379-35.339-30.379c-16.121,0-31.621,7.13-40.301,13.33l-7.129-19.84c10.539-7.75,30.999-15.5,52.699-15.5
		c39.68,0,57.659,23.56,57.659,48.049c0,20.77-12.399,38.44-37.2,47.43v0.62c24.801,4.96,44.95,23.56,44.95,51.77
		c0,32.24-25.11,60.45-73.47,60.45c-22.629,0-42.469-7.13-52.389-13.64L621.102,343.435z"/>
</g>
<g>
	<path fill="#FFFFFF" d="M401.757,491.779v17.98l-87.729,183.519h-28.21l87.419-178.248v-0.62h-98.579v-22.63H401.757z"/>
</g>
<g>
	<path fill="#FFFFFF" d="M618.064,661.836c0-25.42,15.19-43.399,39.99-53.939l-0.311-0.93c-22.319-10.54-31.93-27.9-31.93-45.26
		c0-31.93,26.97-53.63,62.31-53.63c39.06,0,58.59,24.49,58.59,49.6c0,17.05-8.37,35.34-33.17,47.12v0.93
		c25.11,9.92,40.61,27.59,40.61,52.079c0,35.03-30.07,58.59-68.51,58.59C643.484,716.396,618.064,691.286,618.064,661.836z
		 M726.564,660.596c0-24.489-17.05-36.27-44.33-44.02c-23.56,6.82-36.27,22.32-36.27,41.54c-0.93,20.46,14.569,38.439,40.3,38.439
		C710.754,696.556,726.564,681.366,726.564,660.596z M651.545,559.847c0,20.15,15.189,31,38.439,37.2
		c17.359-5.891,30.689-18.29,30.689-36.58c0-16.12-9.609-32.859-34.1-32.859C663.944,527.607,651.545,542.487,651.545,559.847z"/>
</g>
<g>
	<path fill="#7BD3FC" d="M271.027,820.028h-25.215v-9.102h61.377v9.102h-25.338v73.801h-10.824V820.028z"/>
	<path fill="#7BD3FC" d="M341.137,893.829l-0.861-7.503h-0.369c-3.321,4.674-9.717,8.855-18.204,8.855
		c-12.054,0-18.204-8.486-18.204-17.097c0-14.392,12.792-22.264,35.793-22.141v-1.229c0-4.92-1.353-13.776-13.53-13.776
		c-5.535,0-11.316,1.722-15.498,4.428l-2.46-7.134c4.92-3.198,12.054-5.289,19.558-5.289c18.204,0,22.632,12.423,22.632,24.354
		v22.263c0,5.166,0.246,10.21,0.984,14.269H341.137z M339.538,863.448c-11.808-0.246-25.215,1.845-25.215,13.406
		c0,7.012,4.674,10.333,10.209,10.333c7.749,0,12.669-4.921,14.391-9.964c0.369-1.106,0.615-2.337,0.615-3.443V863.448z"/>
	<path fill="#7BD3FC" d="M367.458,806.498h10.824v87.331h-10.824V806.498z"/>
	<path fill="#7BD3FC" d="M396.485,850.41c0-6.15-0.123-11.193-0.492-16.113h9.594l0.615,9.84h0.246
		c2.952-5.658,9.84-11.193,19.68-11.193c8.241,0,21.033,4.92,21.033,25.339v35.547h-10.824v-34.317
		c0-9.594-3.567-17.589-13.776-17.589c-7.134,0-12.669,5.043-14.514,11.07c-0.492,1.353-0.738,3.197-0.738,5.043v35.793h-10.824
		V850.41z"/>
	<path fill="#7BD3FC" d="M497.713,893.829l-0.861-7.503h-0.369c-3.321,4.674-9.717,8.855-18.204,8.855
		c-12.054,0-18.204-8.486-18.204-17.097c0-14.392,12.792-22.264,35.793-22.141v-1.229c0-4.92-1.353-13.776-13.53-13.776
		c-5.535,0-11.316,1.722-15.498,4.428l-2.46-7.134c4.92-3.198,12.054-5.289,19.558-5.289c18.204,0,22.632,12.423,22.632,24.354
		v22.263c0,5.166,0.246,10.21,0.984,14.269H497.713z M496.114,863.448c-11.808-0.246-25.215,1.845-25.215,13.406
		c0,7.012,4.674,10.333,10.209,10.333c7.749,0,12.669-4.921,14.391-9.964c0.369-1.106,0.615-2.337,0.615-3.443V863.448z"/>
	<path fill="#7BD3FC" d="M550.111,806.498h10.823v87.331h-10.823V806.498z"/>
	<path fill="#7BD3FC" d="M585.165,866.031c0.246,14.637,9.595,20.664,20.418,20.664c7.75,0,12.424-1.354,16.482-3.075l1.846,7.749
		c-3.813,1.722-10.333,3.69-19.804,3.69c-18.327,0-29.274-12.055-29.274-30.013s10.578-32.104,27.922-32.104
		c19.434,0,24.6,17.098,24.6,28.045c0,2.214-0.246,3.936-0.369,5.043H585.165z M616.899,858.282
		c0.123-6.889-2.829-17.59-15.006-17.59c-10.947,0-15.744,10.086-16.605,17.59H616.899z"/>
	<path fill="#7BD3FC" d="M652.814,817.568c0.123,3.69-2.583,6.643-6.888,6.643c-3.813,0-6.52-2.952-6.52-6.643
		c0-3.812,2.829-6.765,6.766-6.765C650.231,810.804,652.814,813.756,652.814,817.568z M640.761,893.829v-59.532h10.823v59.532
		H640.761z"/>
	<path fill="#7BD3FC" d="M680.243,861.603h0.245c1.477-2.091,3.567-4.674,5.289-6.765l17.467-20.541h13.038l-23.001,24.477
		l26.199,35.056h-13.161l-20.542-28.536l-5.534,6.15v22.386h-10.701v-87.331h10.701V861.603z"/>
	<path fill="#7BD3FC" d="M741.373,817.568c0.123,3.69-2.583,6.643-6.888,6.643c-3.813,0-6.52-2.952-6.52-6.643
		c0-3.812,2.829-6.765,6.766-6.765C738.79,810.804,741.373,813.756,741.373,817.568z M729.319,893.829v-59.532h10.823v59.532
		H729.319z"/>
	<path fill="#7BD3FC" d="M758.101,852.87c0-7.012-0.123-13.038-0.492-18.573h9.471l0.369,11.685h0.492
		c2.706-7.995,9.225-13.038,16.482-13.038c1.229,0,2.091,0.123,3.074,0.369v10.209c-1.106-0.246-2.214-0.369-3.689-0.369
		c-7.626,0-13.038,5.781-14.515,13.899c-0.246,1.476-0.491,3.198-0.491,5.043v31.734h-10.701V852.87z"/>
</g>
</svg>
