<?xml version="1.0" encoding="utf-8"?>
<!-- Generator: Adobe Illustrator 27.7.0, SVG Export Plug-In . SVG Version: 6.00 Build 0)  -->
<svg version="1.1" id="Layer_1" xmlns="http://www.w3.org/2000/svg" xmlns:xlink="http://www.w3.org/1999/xlink" x="0px" y="0px"
	 width="1000px" height="1000px" viewBox="0 0 1000 1000" style="enable-background:new 0 0 1000 1000;" xml:space="preserve">
<style type="text/css">
	.st0{fill:#FEE9EE;}
	.st1{fill:#FED6E9;}
	.st2{fill:none;}
	.st3{fill:#FEFEFE;}
	.st4{fill:#B5B7B5;}
</style>
<path class="st0" d="M907.2,900H102.7c-11.2,0-20.4-9.2-20.4-20.4V120.4c0-11.2,9.2-20.4,20.4-20.4h804.5c11.2,0,20.4,9.2,20.4,20.4
	v759.3C927.6,890.8,918.4,900,907.2,900z"/>
<path class="st1" d="M450.3,441.2H232.6c-6.6,0-12-5.4-12-12V228.8c0-6.6,5.4-12,12-12h217.7c6.6,0,12,5.4,12,12v200.3
	C462.3,435.8,456.9,441.2,450.3,441.2z"/>
<path class="st1" d="M450.3,776.5H232.6c-6.6,0-12-5.4-12-12V564.2c0-6.6,5.4-12,12-12h217.7c6.6,0,12,5.4,12,12v200.3
	C462.3,771.1,456.9,776.5,450.3,776.5z"/>
<path class="st1" d="M793.8,776.5H576.1c-6.6,0-12-5.4-12-12V564.2c0-6.6,5.4-12,12-12h217.7c6.6,0,12,5.4,12,12v200.3
	C805.8,771.1,800.4,776.5,793.8,776.5z"/>
<path class="st1" d="M787.3,441.2H569.6c-6.6,0-12-5.4-12-12V228.8c0-6.6,5.4-12,12-12h217.7c6.6,0,12,5.4,12,12v200.3
	C799.3,435.8,793.9,441.2,787.3,441.2z"/>
<rect x="265" y="896" class="st2" width="540.9" height="90.4"/>
<circle class="st3" cx="284.3" cy="279.7" r="27.2"/>
<circle class="st3" cx="388.7" cy="319.7" r="28.9"/>
<ellipse class="st3" cx="316.4" cy="393.8" rx="32.1" ry="29.1"/>
<polygon class="st3" points="318.5,660.3 297.9,648.6 276.6,658.9 281.4,635.7 265,618.6 288.5,616 299.7,595.1 309.5,616.7 
	332.8,620.9 315.3,636.8 "/>
<polygon class="st3" points="405,740.3 386,727.8 364.9,736.4 370.9,714.4 356.2,697 378.9,696 390.9,676.6 399,697.9 421.1,703.3 
	403.4,717.6 "/>
<polygon class="st4" points="660.4,321.6 639.8,309.9 618.5,320.2 623.3,297 606.9,279.9 630.4,277.3 641.6,256.4 651.4,278 
	674.7,282.2 657.2,298.1 "/>
<polygon class="st4" points="746.9,401.6 727.9,389.1 706.8,397.7 712.8,375.8 698.1,358.4 720.9,357.3 732.9,337.9 740.9,359.2 
	763,364.6 745.3,378.9 "/>
<circle class="st4" cx="641.5" cy="602.3" r="27.2"/>
<circle class="st4" cx="745.8" cy="642.3" r="28.9"/>
<ellipse class="st4" cx="673.5" cy="716.4" rx="32.1" ry="29.1"/>
</svg>
