<?xml version="1.0" encoding="utf-8"?>
<!-- Generator: Adobe Illustrator 27.7.0, SVG Export Plug-In . SVG Version: 6.00 Build 0)  -->
<svg version="1.1" id="Layer_1" xmlns="http://www.w3.org/2000/svg" xmlns:xlink="http://www.w3.org/1999/xlink" x="0px" y="0px"
	 width="1000px" height="1000px" viewBox="0 0 1000 1000" enable-background="new 0 0 1000 1000" xml:space="preserve">
<g opacity="0.65">
	<path fill="#FCFCEA" d="M886.24,799.183h-765.8c-6.6,0-12-5.4-12-12V69.312c0-6.6,5.4-12,12-12h765.8c6.6,0,12,5.4,12,12v717.871
		C898.24,793.783,892.84,799.183,886.24,799.183z"/>
</g>
<g>
	<path fill="#DBD86F" d="M201.196,846.696h-25.609v-8.88h62.337v8.88h-25.734v71.997h-10.993V846.696z"/>
	<path fill="#DBD86F" d="M244.169,891.574c0.25,14.279,9.744,20.159,20.737,20.159c7.87,0,12.617-1.319,16.74-3l1.874,7.561
		c-3.873,1.68-10.494,3.6-20.113,3.6c-18.614,0-29.732-11.76-29.732-29.279s10.744-31.318,28.358-31.318
		c19.738,0,24.984,16.68,24.984,27.358c0,2.16-0.25,3.84-0.375,4.92H244.169z M276.4,884.015c0.125-6.72-2.874-17.159-15.241-17.159
		c-11.118,0-15.99,9.84-16.865,17.159H276.4z"/>
	<path fill="#DBD86F" d="M300.634,876.335c0-6-0.125-10.92-0.5-15.719h9.744l0.625,9.6h0.25c2.998-5.521,9.994-10.92,19.988-10.92
		c8.37,0,21.362,4.8,21.362,24.719v34.679h-10.993v-33.479c0-9.359-3.623-17.159-13.992-17.159c-7.245,0-12.867,4.92-14.741,10.799
		c-0.5,1.32-0.75,3.12-0.75,4.92v34.919h-10.993V876.335z"/>
	<path fill="#DBD86F" d="M422.059,860.616c-0.25,4.199-0.499,8.879-0.499,15.959v33.719c0,13.319-2.749,21.479-8.62,26.519
		c-5.871,5.28-14.366,6.96-21.987,6.96c-7.246,0-15.241-1.68-20.113-4.8l2.749-8.04c3.998,2.4,10.244,4.561,17.739,4.561
		c11.243,0,19.488-5.641,19.488-20.279v-6.48h-0.25c-3.372,5.4-9.868,9.72-19.238,9.72c-14.991,0-25.734-12.239-25.734-28.318
		c0-19.68,13.367-30.839,27.234-30.839c10.493,0,16.239,5.279,18.863,10.079h0.25l0.499-8.759H422.059z M410.691,883.535
		c0-1.8-0.125-3.36-0.624-4.8c-1.999-6.12-7.371-11.16-15.366-11.16c-10.493,0-17.989,8.52-17.989,21.959
		c0,11.4,5.997,20.88,17.864,20.88c6.746,0,12.867-4.08,15.241-10.8c0.624-1.8,0.874-3.84,0.874-5.64V883.535z"/>
	<path fill="#DBD86F" d="M425.057,935.493c4.996-0.36,9.369-1.681,11.992-4.44c2.998-3.359,4.122-7.92,4.122-21.839v-48.598h10.994
		v52.678c0,11.279-1.874,18.599-7.246,23.879c-4.872,4.68-12.867,6.6-18.738,6.6L425.057,935.493z M453.415,844.296
		c0.125,3.48-2.499,6.48-6.871,6.48c-4.122,0-6.746-3-6.746-6.48c0-3.72,2.874-6.6,6.996-6.6
		C450.791,837.696,453.415,840.576,453.415,844.296z"/>
	<path fill="#DBD86F" d="M503.633,918.693l-0.874-7.319h-0.375c-3.373,4.56-9.869,8.64-18.488,8.64
		c-12.243,0-18.489-8.28-18.489-16.68c0-14.039,12.992-21.719,36.353-21.599v-1.2c0-4.8-1.375-13.439-13.742-13.439
		c-5.621,0-11.493,1.68-15.74,4.319l-2.498-6.959c4.996-3.12,12.242-5.16,19.862-5.16c18.489,0,22.986,12.119,22.986,23.759v21.72
		c0,5.039,0.25,9.959,0.999,13.919H503.633z M502.009,889.055c-11.992-0.24-25.609,1.8-25.609,13.079
		c0,6.84,4.747,10.08,10.369,10.08c7.87,0,12.867-4.8,14.616-9.72c0.375-1.08,0.624-2.28,0.624-3.36V889.055z"/>
	<path fill="#DBD86F" d="M555.35,907.894c3.248,2.04,8.995,4.2,14.491,4.2c7.995,0,11.743-3.84,11.743-8.64
		c0-5.04-3.123-7.8-11.243-10.68c-10.868-3.72-15.99-9.479-15.99-16.439c0-9.359,7.87-17.039,20.862-17.039
		c6.121,0,11.493,1.68,14.866,3.6l-2.749,7.68c-2.373-1.439-6.746-3.359-12.367-3.359c-6.496,0-10.119,3.6-10.119,7.919
		c0,4.8,3.623,6.96,11.493,9.84c10.494,3.84,15.865,8.88,15.865,17.52c0,10.199-8.245,17.399-22.611,17.399
		c-6.621,0-12.742-1.561-16.989-3.96L555.35,907.894z"/>
	<path fill="#DBD86F" d="M639.798,918.693l-0.874-7.319h-0.375c-3.373,4.56-9.869,8.64-18.488,8.64
		c-12.243,0-18.489-8.28-18.489-16.68c0-14.039,12.992-21.719,36.354-21.599v-1.2c0-4.8-1.375-13.439-13.742-13.439
		c-5.621,0-11.493,1.68-15.74,4.319l-2.498-6.959c4.996-3.12,12.242-5.16,19.862-5.16c18.489,0,22.986,12.119,22.986,23.759v21.72
		c0,5.039,0.25,9.959,0.999,13.919H639.798z M638.174,889.055c-11.992-0.24-25.609,1.8-25.609,13.079
		c0,6.84,4.747,10.08,10.369,10.08c7.87,0,12.867-4.8,14.616-9.72c0.375-1.08,0.624-2.28,0.624-3.36V889.055z"/>
	<path fill="#DBD86F" d="M666.531,876.335c0-6-0.125-10.92-0.499-15.719h9.619l0.499,9.359h0.375
		c3.373-5.52,8.994-10.68,18.988-10.68c8.245,0,14.491,4.8,17.114,11.64h0.25c1.874-3.24,4.248-5.76,6.746-7.56
		c3.623-2.641,7.62-4.08,13.367-4.08c7.995,0,19.862,5.04,19.862,25.199v34.198H742.11v-32.879c0-11.159-4.247-17.879-13.117-17.879
		c-6.246,0-11.118,4.439-12.992,9.6c-0.499,1.439-0.874,3.359-0.874,5.279v35.879h-10.743v-34.799
		c0-9.239-4.248-15.959-12.617-15.959c-6.871,0-11.868,5.279-13.617,10.56c-0.625,1.56-0.874,3.359-0.874,5.16v35.038h-10.744
		V876.335z"/>
	<path fill="#DBD86F" d="M804.197,918.693l-0.874-7.319h-0.375c-3.373,4.56-9.869,8.64-18.488,8.64
		c-12.243,0-18.489-8.28-18.489-16.68c0-14.039,12.992-21.719,36.354-21.599v-1.2c0-4.8-1.375-13.439-13.742-13.439
		c-5.621,0-11.493,1.68-15.74,4.319l-2.498-6.959c4.996-3.12,12.242-5.16,19.862-5.16c18.489,0,22.986,12.119,22.986,23.759v21.72
		c0,5.039,0.25,9.959,0.999,13.919H804.197z M802.573,889.055c-11.992-0.24-25.609,1.8-25.609,13.079
		c0,6.84,4.747,10.08,10.369,10.08c7.87,0,12.867-4.8,14.616-9.72c0.375-1.08,0.624-2.28,0.624-3.36V889.055z"/>
	<path fill="#DBD86F" d="M830.931,876.335c0-6-0.125-10.92-0.499-15.719h9.744l0.624,9.6h0.25c2.998-5.521,9.994-10.92,19.987-10.92
		c8.37,0,21.362,4.8,21.362,24.719v34.679h-10.993v-33.479c0-9.359-3.623-17.159-13.991-17.159c-7.246,0-12.867,4.92-14.741,10.799
		c-0.5,1.32-0.75,3.12-0.75,4.92v34.919h-10.993V876.335z"/>
</g>
<path fill="#8DA97E" d="M447.173,329.668h-188.5c-6.6,0-12-5.4-12-12V151.334c0-6.6,5.4-12,12-12h188.5c6.6,0,12,5.4,12,12v166.335
	C459.173,324.268,453.773,329.668,447.173,329.668z"/>
<path opacity="0.65" fill="#FCFCEA" stroke="#8DA97E" stroke-width="12" stroke-miterlimit="10" d="M785.505,640.492H574.657
	c-7.382,0-13.423-6.022-13.423-13.381V441.629c0-7.36,6.04-13.381,13.423-13.381h210.848c7.382,0,13.423,6.022,13.423,13.381
	v185.483C798.928,634.471,792.888,640.492,785.505,640.492z"/>
<circle opacity="0.65" fill="#FCFCEA" stroke="#A8D2E7" stroke-width="15" stroke-miterlimit="10" cx="685.784" cy="248.093" r="113.144"/>
<circle opacity="0.65" fill="#A8D2E7" cx="346.028" cy="527.348" r="113.144"/>
<g>
</g>
<g>
</g>
<g>
</g>
<g>
</g>
<g>
</g>
<g>
</g>
</svg>
