<?xml version="1.0" encoding="utf-8"?>
<!-- Generator: Adobe Illustrator 27.7.0, SVG Export Plug-In . SVG Version: 6.00 Build 0)  -->
<svg version="1.1" id="Layer_1" xmlns="http://www.w3.org/2000/svg" xmlns:xlink="http://www.w3.org/1999/xlink" x="0px" y="0px"
	 width="1000px" height="1000px" viewBox="0 0 1000 1000" enable-background="new 0 0 1000 1000" xml:space="preserve">
<g opacity="0.65">
	<path fill="#84B8E3" d="M886.24,799.183h-765.8c-6.6,0-12-5.4-12-12V69.312c0-6.6,5.4-12,12-12h765.8c6.6,0,12,5.4,12,12v717.871
		C898.24,793.783,892.84,799.183,886.24,799.183z"/>
</g>
<g>
	<path fill="#5BA7DC" d="M321.814,846.696h-25.609v-8.88h62.337v8.88h-25.734v71.997h-10.993V846.696z"/>
	<path fill="#5BA7DC" d="M413.383,889.175c0,21.479-15.49,30.839-30.106,30.839c-16.365,0-28.982-11.52-28.982-29.879
		c0-19.439,13.242-30.839,29.982-30.839C401.641,859.296,413.383,871.415,413.383,889.175z M365.413,889.774
		c0,12.72,7.621,22.319,18.364,22.319c10.494,0,18.364-9.479,18.364-22.56c0-9.839-5.122-22.318-18.114-22.318
		S365.413,878.735,365.413,889.774z M365.913,844.177c0-3.36,2.873-6.12,6.371-6.12c3.498,0,6.121,2.64,6.121,6.12
		c0,3.239-2.499,6.119-6.121,6.119C368.536,850.296,365.913,847.416,365.913,844.177z M389.148,844.177
		c0-3.36,2.749-6.12,6.247-6.12c3.498,0,6.121,2.64,6.121,6.12c0,3.239-2.499,6.119-6.121,6.119
		C391.646,850.296,389.148,847.416,389.148,844.177z"/>
	<path fill="#5BA7DC" d="M427.25,833.497h10.993v85.196H427.25V833.497z"/>
	<path fill="#5BA7DC" d="M507.324,902.854c0,5.999,0.125,11.279,0.5,15.839h-9.744l-0.625-9.479h-0.25
		c-2.873,4.68-9.244,10.8-19.988,10.8c-9.494,0-20.862-5.04-20.862-25.439v-33.958h10.993v32.158
		c0,11.039,3.498,18.479,13.492,18.479c7.371,0,12.493-4.92,14.491-9.6c0.625-1.561,1-3.48,1-5.4v-35.638h10.993V902.854z"/>
	<path fill="#5BA7DC" d="M525.563,878.735c0-6.84-0.125-12.72-0.499-18.119h9.619l0.374,11.399h0.5
		c2.748-7.8,9.369-12.72,16.74-12.72c1.249,0,2.123,0.12,3.123,0.359v9.96c-1.125-0.24-2.249-0.36-3.748-0.36
		c-7.745,0-13.242,5.641-14.741,13.56c-0.25,1.44-0.499,3.12-0.499,4.92v30.959h-10.869V878.735z"/>
	<path fill="#5BA7DC" d="M566.912,876.335c0-6-0.125-10.92-0.499-15.719h9.744l0.624,9.6h0.25c2.998-5.521,9.994-10.92,19.987-10.92
		c8.37,0,21.362,4.8,21.362,24.719v34.679h-10.993v-33.479c0-9.359-3.623-17.159-13.991-17.159c-7.246,0-12.867,4.92-14.741,10.799
		c-0.5,1.32-0.75,3.12-0.75,4.92v34.919h-10.993V876.335z"/>
	<path fill="#5BA7DC" d="M669.724,918.693l-0.874-7.319h-0.375c-3.373,4.56-9.869,8.64-18.488,8.64
		c-12.243,0-18.489-8.28-18.489-16.68c0-14.039,12.992-21.719,36.354-21.599v-1.2c0-4.8-1.375-13.439-13.742-13.439
		c-5.621,0-11.493,1.68-15.74,4.319l-2.498-6.959c4.996-3.12,12.242-5.16,19.862-5.16c18.489,0,22.986,12.119,22.986,23.759v21.72
		c0,5.039,0.25,9.959,0.999,13.919H669.724z M668.1,889.055c-11.992-0.24-25.609,1.8-25.609,13.079c0,6.84,4.747,10.08,10.369,10.08
		c7.87,0,12.867-4.8,14.616-9.72c0.375-1.08,0.624-2.28,0.624-3.36V889.055z"/>
	<path fill="#5BA7DC" d="M696.457,878.735c0-6.84-0.125-12.72-0.499-18.119h9.619l0.374,11.399h0.5
		c2.748-7.8,9.369-12.72,16.74-12.72c1.249,0,2.123,0.12,3.123,0.359v9.96c-1.125-0.24-2.249-0.36-3.748-0.36
		c-7.745,0-13.242,5.641-14.741,13.56c-0.25,1.44-0.5,3.12-0.5,4.92v30.959h-10.868V878.735z"/>
</g>
<line fill="none" x1="723.67" y1="176.186" x2="639.3" y2="354.536"/>
<path fill="#5BA7DC" d="M447.173,360.528h-188.5c-6.6,0-12-5.4-12-12V182.194c0-6.6,5.4-12,12-12h188.5c6.6,0,12,5.4,12,12v166.335
	C459.173,355.128,453.773,360.528,447.173,360.528z"/>
<path fill="#5BA7DC" d="M743.569,360.528h-188.5c-6.6,0-12-5.4-12-12V182.194c0-6.6,5.4-12,12-12h188.5c6.6,0,12,5.4,12,12v166.335
	C755.569,355.128,750.169,360.528,743.569,360.528z"/>
<path fill="#5BA7DC" d="M743.569,629.6h-188.5c-6.6,0-12-5.4-12-12V451.266c0-6.6,5.4-12,12-12h188.5c6.6,0,12,5.4,12,12v166.335
	C755.569,624.2,750.169,629.6,743.569,629.6z"/>
<path fill="#5BA7DC" d="M447.173,629.6h-188.5c-6.6,0-12-5.4-12-12V451.266c0-6.6,5.4-12,12-12h188.5c6.6,0,12,5.4,12,12v166.335
	C459.173,624.2,453.773,629.6,447.173,629.6z"/>
<g>
	<g>
		<path fill="#FCDCE1" d="M343.474,219.259h-0.5l-28.239,11.638l-4.249-12.783l35.487-14.499h18.743v124.007h-21.242V219.259z"/>
	</g>
</g>
<g>
	<g>
		<path fill="#CBE2A2" d="M652.488,591.974V559.69H593.66v-10.578l56.49-75.69h18.506v73.685h17.725v12.584h-17.725v32.283H652.488z
			 M652.488,547.106v-39.578c0-6.201,0.193-12.402,0.584-18.604h-0.584c-3.896,6.931-7.014,12.038-10.52,17.509l-30.973,40.308
			v0.365H652.488z"/>
	</g>
</g>
<circle fill="#AED5E9" cx="612.776" cy="232.857" r="29.562"/>
<circle fill="#AED5E9" cx="686.381" cy="304.003" r="32.064"/>
<path fill="#F9F3CF" d="M329.446,596.312h-32.717c-6.6,0-12-5.4-12-12v-32.717c0-6.6,5.4-12,12-12h32.717c6.6,0,12,5.4,12,12v32.717
	C341.446,590.912,336.046,596.312,329.446,596.312z"/>
<path fill="#F9F3CF" d="M414.923,596.82h-32.717c-6.6,0-12-5.4-12-12v-32.717c0-6.6,5.4-12,12-12h32.717c6.6,0,12,5.4,12,12v32.717
	C426.923,591.42,421.523,596.82,414.923,596.82z"/>
<path fill="#F9F3CF" d="M369.281,516.247h-32.717c-6.6,0-12-5.4-12-12V471.53c0-6.6,5.4-12,12-12h32.717c6.6,0,12,5.4,12,12v32.717
	C381.281,510.847,375.881,516.247,369.281,516.247z"/>
<g>
</g>
<g>
</g>
<g>
</g>
<g>
</g>
<g>
</g>
<g>
</g>
</svg>
