<?xml version="1.0" encoding="utf-8"?>
<!-- Generator: Adobe Illustrator 27.9.0, SVG Export Plug-In . SVG Version: 6.00 Build 0)  -->
<svg version="1.1" id="Layer_1" xmlns="http://www.w3.org/2000/svg" xmlns:xlink="http://www.w3.org/1999/xlink" x="0px" y="0px"
	 width="1000px" height="1000px" viewBox="0 0 1000 1000" enable-background="new 0 0 1000 1000" xml:space="preserve">
<path opacity="0.1" fill="#80D2F5" enable-background="new    " d="M907,822.1H77.9c-18.7,0-34-15.3-34-34V74c0-18.7,15.3-34,34-34
	H907c18.7,0,34,15.3,34,34v714.1C940.9,806.8,925.6,822.1,907,822.1z"/>
<g id="yellow_x5F_box">
	<g id="yellow_x5F_backround">
		<g>
			<path fill="#FEE37D" d="M143.3,388c0,5,4.2,9,9.3,9h325.9c5.1,0,9.3-4,9.3-9V100.8c0-5-4.2-9-9.3-9H152.6c-5.1,0-9.3,4-9.3,9
				L143.3,388L143.3,388z"/>
		</g>
	</g>
	<g id="Yellow_x5F_outline" display="none">
		<g display="inline">
			<path fill="#FEE37D" d="M478.5,397.5H152.6c-5.4,0-9.8-4.3-9.8-9.5V100.8c0-5.2,4.4-9.5,9.8-9.5h325.9c5.4,0,9.8,4.3,9.8,9.5V388
				C488.3,393.3,483.9,397.5,478.5,397.5z M152.6,92.3c-4.8,0-8.8,3.8-8.8,8.5V388c0,4.7,3.9,8.5,8.8,8.5h325.9
				c4.8,0,8.8-3.8,8.8-8.5V100.8c0-4.7-3.9-8.5-8.8-8.5L152.6,92.3L152.6,92.3z"/>
		</g>
	</g>
</g>
<g id="pink_x5F_box">
	<g id="pink_x5F_backround">
		<g>
			<path fill="#F6ADCD" d="M511,437.2c0,5,4.2,9,9.3,9h325.9c5.1,0,9.3-4,9.3-9V100.8c0-5-4.2-9-9.3-9H520.2c-5.1,0-9.3,4-9.3,9
				V437.2z"/>
		</g>
	</g>
	<g id="pink_x5F_outline" display="none">
		<g display="inline">
			<path fill="#F6ADCD" d="M846.1,446.7H520.2c-5.4,0-9.8-4.3-9.8-9.5V100.8c0-5.2,4.4-9.5,9.8-9.5h325.9c5.4,0,9.8,4.3,9.8,9.5
				v336.4C855.9,442.4,851.5,446.7,846.1,446.7z M520.2,92.3c-4.8,0-8.8,3.8-8.8,8.5v336.4c0,4.7,3.9,8.5,8.8,8.5h325.9
				c4.8,0,8.8-3.8,8.8-8.5V100.8c0-4.7-3.9-8.5-8.8-8.5H520.2z"/>
		</g>
	</g>
</g>
<g id="blue_x5F_box">
	<g id="Blue">
		<g>
			<path fill="#80D2F5" d="M511,760.9c0,5,4.2,9,9.3,9h325.9c5.1,0,9.3-4,9.3-9V473.6c0-5-4.2-9-9.3-9H520.2c-5.1,0-9.3,4-9.3,9
				V760.9z"/>
		</g>
	</g>
	<g id="Blue_x5F_outline" display="none">
		<g display="inline">
			<path fill="#80D2F5" d="M846.1,770.4H520.2c-5.4,0-9.8-4.3-9.8-9.5V473.6c0-5.2,4.4-9.5,9.8-9.5h325.9c5.4,0,9.8,4.3,9.8,9.5
				v287.3C855.9,766.1,851.5,770.4,846.1,770.4z M520.2,465.1c-4.8,0-8.8,3.8-8.8,8.5v287.3c0,4.7,3.9,8.5,8.8,8.5h325.9
				c4.8,0,8.8-3.8,8.8-8.5V473.6c0-4.7-3.9-8.5-8.8-8.5L520.2,465.1L520.2,465.1z"/>
		</g>
	</g>
</g>
<g id="green_x5F_box">
	<path fill="#BDDEAA" d="M162.3,418.6h302.4c10.5,0,19,8.6,19,19.2v312.9c0,10.6-8.5,19.2-19,19.2H162.3c-10.5,0-19-8.6-19-19.2
		V437.8C143.3,427.2,151.8,418.6,162.3,418.6z"/>
</g>
<g>
	<rect x="55.1" y="868.6" fill="none" width="874.6" height="231.2"/>
	<path fill="#80D2F5" d="M359.1,872.2v39.9c0,15.1,6.7,21.5,15.7,21.5c10,0,16.4-6.6,16.4-21.5v-39.9h8.8v39.3
		c0,20.7-10.9,29.2-25.5,29.2c-13.8,0-24.2-7.9-24.2-28.8v-39.7H359.1z M390.1,856.9l-12.8,11.7h-7.1l9.2-11.7H390.1z"/>
	<path fill="#80D2F5" d="M425.8,877.3v13.9h12.6v6.7h-12.6V924c0,6,1.7,9.4,6.6,9.4c2.3,0,4-0.3,5.1-0.6l0.4,6.6
		c-1.7,0.7-4.4,1.2-7.8,1.2c-4.1,0-7.4-1.3-9.5-3.7c-2.5-2.6-3.4-6.9-3.4-12.6v-26.4h-7.5v-6.7h7.5v-11.6L425.8,877.3z"/>
	<path fill="#80D2F5" d="M458.1,877.6c0.1,3-2.1,5.4-5.6,5.4c-3.1,0-5.3-2.4-5.3-5.4c0-3.1,2.3-5.5,5.5-5.5
		C456,872.1,458.1,874.5,458.1,877.6z M448.3,939.6v-48.4h8.8v48.4H448.3z"/>
	<path fill="#80D2F5" d="M475.1,891.2l9.5,27.2c1.6,4.4,2.9,8.4,3.9,12.4h0.3c1.1-4,2.5-8,4.1-12.4l9.4-27.2h9.2l-19,48.4h-8.4
		l-18.4-48.4H475.1z"/>
	<path fill="#80D2F5" d="M523.7,917c0.2,11.9,7.8,16.8,16.6,16.8c6.3,0,10.1-1.1,13.4-2.5l1.5,6.3c-3.1,1.4-8.4,3-16.1,3
		c-14.9,0-23.8-9.8-23.8-24.4s8.6-26.1,22.7-26.1c15.8,0,20,13.9,20,22.8c0,1.8-0.2,3.2-0.3,4.1L523.7,917L523.7,917z M549.5,910.7
		c0.1-5.6-2.3-14.3-12.2-14.3c-8.9,0-12.8,8.2-13.5,14.3H549.5z"/>
	<path fill="#80D2F5" d="M568.9,906.3c0-5.7-0.1-10.6-0.4-15.1h7.7l0.3,9.5h0.4c2.2-6.5,7.5-10.6,13.4-10.6c1,0,1.7,0.1,2.5,0.3v8.3
		c-0.9-0.2-1.8-0.3-3-0.3c-6.2,0-10.6,4.7-11.8,11.3c-0.2,1.2-0.4,2.6-0.4,4.1v25.8h-8.7L568.9,906.3L568.9,906.3z"/>
	<path fill="#80D2F5" d="M627.9,939.6l-0.7-6.1h-0.3c-2.7,3.8-7.9,7.2-14.8,7.2c-9.8,0-14.8-6.9-14.8-13.9c0-11.7,10.4-18.1,29.1-18
		v-1c0-4-1.1-11.2-11-11.2c-4.5,0-9.2,1.4-12.6,3.6l-2-5.8c4-2.6,9.8-4.3,15.9-4.3c14.8,0,18.4,10.1,18.4,19.8V928
		c0,4.2,0.2,8.3,0.8,11.6L627.9,939.6L627.9,939.6z M626.6,914.9c-9.6-0.2-20.5,1.5-20.5,10.9c0,5.7,3.8,8.4,8.3,8.4
		c6.3,0,10.3-4,11.7-8.1c0.3-0.9,0.5-1.9,0.5-2.8L626.6,914.9L626.6,914.9z"/>
</g>
<circle fill="#FFFFFF" stroke="#FFFFFF" stroke-width="5" stroke-miterlimit="10" cx="310.9" cy="240.8" r="46.8"/>
<g>
	<line fill="none" stroke="#FFFFFF" stroke-width="11" stroke-miterlimit="10" x1="343.9" y1="186.2" x2="371.5" y2="130.3"/>
	<line fill="none" stroke="#FFFFFF" stroke-width="11" stroke-miterlimit="10" x1="367" y1="208.1" x2="417.3" y2="171.4"/>
	<line fill="none" stroke="#FFFFFF" stroke-width="11" stroke-miterlimit="10" x1="372.2" y1="244.4" x2="434.5" y2="244.4"/>
	<line fill="none" stroke="#FFFFFF" stroke-width="11" stroke-miterlimit="10" x1="415.1" y1="310.5" x2="364.3" y2="274.4"/>
	<line fill="none" stroke="#FFFFFF" stroke-width="11" stroke-miterlimit="10" x1="310.9" y1="179" x2="310.9" y2="116.7"/>
	<line fill="none" stroke="#FFFFFF" stroke-width="11" stroke-miterlimit="10" x1="368.2" y1="351.8" x2="337" y2="297.8"/>
	<line fill="none" stroke="#FFFFFF" stroke-width="11" stroke-miterlimit="10" x1="310.9" y1="364.9" x2="310.9" y2="302.6"/>
</g>
<g>
	<line fill="none" stroke="#FFFFFF" stroke-width="11" stroke-miterlimit="10" x1="278.2" y1="295.4" x2="250.6" y2="351.2"/>
	<line fill="none" stroke="#FFFFFF" stroke-width="11" stroke-miterlimit="10" x1="255.2" y1="273.5" x2="204.8" y2="310.2"/>
	<line fill="none" stroke="#FFFFFF" stroke-width="11" stroke-miterlimit="10" x1="249.9" y1="237.2" x2="187.6" y2="237.2"/>
	<line fill="none" stroke="#FFFFFF" stroke-width="11" stroke-miterlimit="10" x1="207.1" y1="171.1" x2="257.8" y2="207.2"/>
	<line fill="none" stroke="#FFFFFF" stroke-width="11" stroke-miterlimit="10" x1="311.2" y1="302.6" x2="311.2" y2="364.9"/>
	<line fill="none" stroke="#FFFFFF" stroke-width="11" stroke-miterlimit="10" x1="253.9" y1="129.8" x2="285.1" y2="183.8"/>
	<line fill="none" stroke="#FFFFFF" stroke-width="11" stroke-miterlimit="10" x1="311.2" y1="116.7" x2="311.2" y2="179"/>
</g>
<path fill="#FFFFFF" stroke="#FFFFFF" stroke-width="4" stroke-miterlimit="10" d="M714,653c0,16.9-13.8,30.6-30.9,30.6
	s-30.9-13.7-30.9-30.6s30.9-124.2,30.9-124.2S714,636.1,714,653z"/>
</svg>
