<?xml version="1.0" encoding="utf-8"?>
<!-- Generator: Adobe Illustrator 27.7.0, SVG Export Plug-In . SVG Version: 6.00 Build 0)  -->
<svg version="1.1" id="Layer_1" xmlns="http://www.w3.org/2000/svg" xmlns:xlink="http://www.w3.org/1999/xlink" x="0px" y="0px"
	 width="1000px" height="1000px" viewBox="0 0 1000 1000" enable-background="new 0 0 1000 1000" xml:space="preserve">
<g id="blue_x5F_box" opacity="0.7">
	<g id="Blue" opacity="0.8">
		<g>
			<path fill="#97D186" d="M96.242,793.953c0,12.052,9.498,21.82,21.219,21.82h745.005c11.72,0,21.219-9.768,21.219-21.82V98.146
				c0-12.052-9.498-21.82-21.219-21.82H117.46c-11.72,0-21.219,9.768-21.219,21.82V793.953z"/>
		</g>
	</g>
	<g id="Blue_x5F_outline" display="none">
		<g display="inline">
			<path fill="#97D186" d="M857.403,815.908H112.397c-12.349,0-22.397-10.333-22.397-23.032V97.068
				c0-12.699,10.049-23.032,22.397-23.032h745.005c12.349,0,22.397,10.333,22.397,23.032v695.807
				C879.8,805.574,869.752,815.908,857.403,815.908z M112.397,76.461c-11.05,0-20.04,9.244-20.04,20.608v695.807
				c0,11.363,8.99,20.608,20.04,20.608h745.005c11.05,0,20.04-9.244,20.04-20.608V97.068c0-11.363-8.99-20.608-20.04-20.608H112.397
				z"/>
		</g>
	</g>
</g>
<g>
	<rect x="108" y="864" fill="none" width="738.768" height="152.998"/>
	<path fill="#97D186" d="M335.426,868.322V916.2c0,18.119,8.04,25.799,18.839,25.799c12,0,19.679-7.919,19.679-25.799v-47.878h10.56
		v47.158c0,24.839-13.08,35.039-30.599,35.039c-16.56,0-29.039-9.479-29.039-34.559v-47.639H335.426z M372.625,849.963
		l-15.359,14.04h-8.52l11.039-14.04H372.625z"/>
	<path fill="#97D186" d="M415.464,874.442v16.68h15.12v8.039h-15.12v31.318c0,7.2,2.04,11.28,7.92,11.28c2.76,0,4.8-0.36,6.12-0.72
		l0.48,7.919c-2.04,0.84-5.28,1.44-9.36,1.44c-4.919,0-8.879-1.561-11.399-4.44c-3-3.119-4.08-8.279-4.08-15.119v-31.679h-9v-8.039
		h9v-13.92L415.464,874.442z"/>
	<path fill="#97D186" d="M454.224,874.802c0.12,3.601-2.52,6.48-6.72,6.48c-3.72,0-6.36-2.88-6.36-6.48c0-3.72,2.76-6.6,6.6-6.6
		C451.704,868.202,454.224,871.082,454.224,874.802z M442.465,949.199v-58.077h10.56v58.077H442.465z"/>
	<path fill="#97D186" d="M474.624,891.122l11.399,32.639c1.92,5.279,3.479,10.079,4.68,14.879h0.36
		c1.319-4.8,2.999-9.6,4.919-14.879l11.28-32.639h11.039l-22.799,58.077h-10.08l-22.079-58.077H474.624z"/>
	<path fill="#97D186" d="M532.942,922.08c0.24,14.279,9.359,20.159,19.919,20.159c7.56,0,12.119-1.319,16.079-3l1.8,7.561
		c-3.72,1.68-10.079,3.6-19.319,3.6c-17.879,0-28.559-11.76-28.559-29.279s10.32-31.318,27.239-31.318
		c18.959,0,23.999,16.68,23.999,27.358c0,2.16-0.24,3.84-0.36,4.92H532.942z M563.901,914.521c0.119-6.72-2.761-17.159-14.64-17.159
		c-10.68,0-15.359,9.84-16.199,17.159H563.901z"/>
	<path fill="#97D186" d="M587.182,909.241c0-6.84-0.12-12.72-0.48-18.119h9.24l0.359,11.399h0.48c2.64-7.8,8.999-12.72,16.079-12.72
		c1.2,0,2.04,0.12,3,0.359v9.96c-1.08-0.24-2.16-0.36-3.6-0.36c-7.439,0-12.72,5.641-14.16,13.56c-0.239,1.44-0.479,3.12-0.479,4.92
		v30.959h-10.439V909.241z"/>
	<path fill="#97D186" d="M657.98,949.199l-0.84-7.319h-0.359c-3.24,4.56-9.479,8.64-17.76,8.64c-11.76,0-17.759-8.28-17.759-16.68
		c0-14.039,12.479-21.719,34.918-21.599v-1.2c0-4.8-1.319-13.439-13.199-13.439c-5.399,0-11.039,1.68-15.119,4.319l-2.4-6.959
		c4.8-3.12,11.76-5.16,19.079-5.16c17.76,0,22.079,12.119,22.079,23.759v21.72c0,5.039,0.24,9.959,0.96,13.919H657.98z
		 M656.421,919.561c-11.52-0.24-24.599,1.8-24.599,13.079c0,6.84,4.56,10.08,9.959,10.08c7.56,0,12.359-4.8,14.04-9.72
		c0.359-1.08,0.6-2.28,0.6-3.36V919.561z"/>
</g>
<g>
</g>
<line fill="none" stroke="#C49A6C" stroke-width="11" stroke-miterlimit="10" x1="235.684" y1="632.036" x2="334.684" y2="281.036"/>
<line fill="none" stroke="#C49A6C" stroke-width="11" stroke-miterlimit="10" x1="769.993" y1="632.036" x2="667.684" y2="279.665"/>
<line fill="none" stroke="#C49A6C" stroke-width="11" stroke-miterlimit="10" x1="676.685" y1="281.037" x2="325.685" y2="281.037"/>
<g>
	<path fill="#C5A0CB" d="M650.399,582.372H548.352c-3.667,0-6.668-3-6.668-6.668l0,0c0-3.667,3-6.668,6.668-6.668h102.047
		c3.667,0,6.668,3,6.668,6.668l0,0C657.066,579.371,654.066,582.372,650.399,582.372z"/>
</g>
<g>
	<path fill="#C5A0CB" d="M454.017,582.372H351.97c-3.667,0-6.668-3-6.668-6.668l0,0c0-3.667,3-6.668,6.668-6.668h102.047
		c3.667,0,6.668,3,6.668,6.668l0,0C460.684,579.371,457.684,582.372,454.017,582.372z"/>
</g>
<line fill="none" stroke="#A7A9AC" stroke-width="5" stroke-miterlimit="10" x1="358.209" y1="570.257" x2="361.684" y2="281.036"/>
<line fill="none" stroke="#A7A9AC" stroke-width="5" stroke-miterlimit="10" x1="451.684" y1="572.893" x2="452.337" y2="281.036"/>
<line fill="none" stroke="#A7A9AC" stroke-width="5" stroke-miterlimit="10" x1="550.684" y1="569.036" x2="550.684" y2="281.036"/>
<line fill="none" stroke="#A7A9AC" stroke-width="5" stroke-miterlimit="10" x1="649.198" y1="571.126" x2="649.684" y2="281.036"/>
<g>
</g>
<g>
</g>
<g>
</g>
<g>
</g>
<g>
</g>
<g>
</g>
</svg>
