<?xml version="1.0" encoding="utf-8"?>
<!-- Generator: Adobe Illustrator 27.9.0, SVG Export Plug-In . SVG Version: 6.00 Build 0)  -->
<svg version="1.1" id="Layer_1" xmlns="http://www.w3.org/2000/svg" xmlns:xlink="http://www.w3.org/1999/xlink" x="0px" y="0px"
	 width="1000px" height="1000px" viewBox="0 0 1000 1000" enable-background="new 0 0 1000 1000" xml:space="preserve">
<path opacity="0.2" fill="#80D2F5" d="M928.918,822.082h-873c-6.6,0-12-5.4-12-12v-758c0-6.6,5.4-12,12-12h873c6.6,0,12,5.4,12,12
	v758C940.918,816.682,935.518,822.082,928.918,822.082z"/>
<g id="yellow_x5F_box">
	<g id="yellow_x5F_backround">
		<g>
			<path fill="#FEE37D" d="M143.335,388.041c0,4.976,4.155,9.009,9.282,9.009H478.5c5.126,0,9.282-4.033,9.282-9.009v-287.28
				c0-4.976-4.155-9.009-9.282-9.009H152.616c-5.126,0-9.282,4.033-9.282,9.009v287.28H143.335z"/>
		</g>
	</g>
	<g id="Yellow_x5F_outline" display="none">
		<g display="inline">
			<path fill="#FEE37D" d="M478.499,397.55H152.616c-5.402,0-9.797-4.266-9.797-9.51V100.761c0-5.244,4.395-9.51,9.797-9.51h325.883
				c5.402,0,9.797,4.266,9.797,9.51v287.28C488.295,393.284,483.9,397.55,478.499,397.55z M152.616,92.252
				c-4.834,0-8.766,3.817-8.766,8.509v287.28c0,4.692,3.932,8.509,8.766,8.509h325.883c4.833,0,8.766-3.817,8.766-8.509v-287.28
				c0-4.692-3.933-8.509-8.766-8.509H152.616z"/>
		</g>
	</g>
</g>
<g id="pink_x5F_box">
	<g id="pink_x5F_backround">
		<g>
			<path fill="#F6ADCD" d="M510.968,437.193c0,4.976,4.155,9.009,9.282,9.009h325.883c5.126,0,9.282-4.033,9.282-9.009V100.76
				c0-4.976-4.155-9.009-9.282-9.009H520.25c-5.126,0-9.282,4.033-9.282,9.009V437.193z"/>
		</g>
	</g>
	<g id="pink_x5F_outline" display="none">
		<g display="inline">
			<path fill="#F6ADCD" d="M846.133,446.702H520.25c-5.402,0-9.797-4.266-9.797-9.51V100.76c0-5.244,4.395-9.51,9.797-9.51h325.883
				c5.402,0,9.797,4.266,9.797,9.51v336.433C855.93,442.437,851.535,446.702,846.133,446.702z M520.25,92.251
				c-4.833,0-8.766,3.817-8.766,8.509v336.433c0,4.692,3.933,8.509,8.766,8.509h325.883c4.833,0,8.766-3.817,8.766-8.509V100.76
				c0-4.692-3.933-8.509-8.766-8.509H520.25z"/>
		</g>
	</g>
</g>
<g id="blue_x5F_box">
	<g id="Blue">
		<g>
			<path fill="#80D2F5" d="M510.968,760.904c0,4.976,4.155,9.009,9.282,9.009h325.883c5.126,0,9.282-4.033,9.282-9.009v-287.28
				c0-4.976-4.155-9.009-9.282-9.009H520.25c-5.126,0-9.282,4.033-9.282,9.009V760.904z"/>
		</g>
	</g>
	<g id="Blue_x5F_outline" display="none">
		<g display="inline">
			<path fill="#80D2F5" d="M846.133,770.413H520.25c-5.402,0-9.797-4.266-9.797-9.51v-287.28c0-5.244,4.395-9.51,9.797-9.51h325.883
				c5.402,0,9.797,4.266,9.797,9.51v287.28C855.93,766.148,851.535,770.413,846.133,770.413z M520.25,465.116
				c-4.833,0-8.766,3.817-8.766,8.509v287.28c0,4.691,3.933,8.509,8.766,8.509h325.883c4.833,0,8.766-3.817,8.766-8.509V473.623
				c0-4.692-3.933-8.509-8.766-8.509H520.25V465.116z"/>
		</g>
	</g>
</g>
<g id="green_x5F_box">
	<g id="green_x5F_backround">
		<rect x="138.421" y="419.071" fill="#BDDEAA" width="344.962" height="351.343"/>
	</g>
	<g id="green_x5F_outline">
		<path fill="#BDDEAA" d="M483.898,770.913H137.905V418.57h345.993V770.913z M138.936,769.912h343.93V419.571h-343.93V769.912z"/>
	</g>
</g>
<g>
	<rect x="55.105" y="868.583" fill="none" width="874.625" height="231.198"/>
	<path fill="#80D2F5" d="M359.12,872.178v39.903c0,15.101,6.701,21.501,15.701,21.501c10,0,16.401-6.601,16.401-21.501v-39.903
		h8.801v39.303c0,20.701-10.9,29.202-25.501,29.202c-13.801,0-24.202-7.9-24.202-28.802v-39.703H359.12z M390.123,856.877
		l-12.801,11.701h-7.1l9.2-11.701H390.123z"/>
	<path fill="#80D2F5" d="M425.819,877.278v13.901h12.601v6.7h-12.601v26.102c0,6,1.7,9.4,6.601,9.4c2.3,0,4-0.3,5.1-0.6l0.4,6.6
		c-1.7,0.7-4.4,1.2-7.801,1.2c-4.1,0-7.4-1.3-9.5-3.7c-2.501-2.6-3.4-6.9-3.4-12.601V897.88h-7.501v-6.7h7.501v-11.602
		L425.819,877.278z"/>
	<path fill="#80D2F5" d="M458.118,877.578c0.101,3.001-2.1,5.4-5.6,5.4c-3.101,0-5.301-2.399-5.301-5.4c0-3.1,2.301-5.5,5.501-5.5
		C456.018,872.078,458.118,874.479,458.118,877.578z M448.318,939.582V891.18h8.8v48.402H448.318z"/>
	<path fill="#80D2F5" d="M475.117,891.18l9.501,27.201c1.601,4.4,2.9,8.4,3.9,12.4h0.3c1.101-4,2.5-8,4.101-12.4l9.401-27.201h9.2
		l-19.001,48.402h-8.4l-18.401-48.402H475.117z"/>
	<path fill="#80D2F5" d="M523.718,916.98c0.199,11.901,7.8,16.802,16.601,16.802c6.301,0,10.101-1.101,13.4-2.5l1.501,6.3
		c-3.101,1.4-8.401,3-16.102,3c-14.9,0-23.802-9.801-23.802-24.401s8.601-26.102,22.702-26.102
		c15.801,0,20.001,13.901,20.001,22.802c0,1.8-0.2,3.2-0.3,4.1H523.718z M549.519,910.681c0.101-5.601-2.3-14.301-12.2-14.301
		c-8.9,0-12.801,8.2-13.501,14.301H549.519z"/>
	<path fill="#80D2F5" d="M568.917,906.28c0-5.7-0.101-10.601-0.4-15.101h7.7l0.301,9.5h0.399c2.2-6.5,7.501-10.601,13.401-10.601
		c1,0,1.699,0.101,2.5,0.3v8.301c-0.9-0.2-1.801-0.3-3-0.3c-6.201,0-10.602,4.7-11.801,11.301c-0.2,1.2-0.4,2.6-0.4,4.1v25.802h-8.7
		V906.28z"/>
	<path fill="#80D2F5" d="M627.919,939.582l-0.7-6.101h-0.301c-2.699,3.801-7.9,7.201-14.801,7.201c-9.8,0-14.801-6.9-14.801-13.901
		c0-11.7,10.4-18.101,29.102-18.001v-1c0-4-1.1-11.2-11-11.2c-4.501,0-9.201,1.399-12.601,3.6l-2.001-5.8
		c4.001-2.601,9.801-4.301,15.901-4.301c14.801,0,18.401,10.101,18.401,19.802v18.101c0,4.2,0.2,8.301,0.8,11.601H627.919z
		 M626.618,914.881c-9.601-0.2-20.501,1.5-20.501,10.9c0,5.7,3.8,8.4,8.301,8.4c6.3,0,10.301-4,11.7-8.101
		c0.3-0.899,0.5-1.899,0.5-2.8V914.881z"/>
</g>
<circle fill="#FFFFFF" stroke="#FFFFFF" stroke-width="5" stroke-miterlimit="10" cx="310.902" cy="240.792" r="46.803"/>
<g>
	
		<line fill="none" stroke="#FFFFFF" stroke-width="11" stroke-miterlimit="10" x1="343.921" y1="186.212" x2="371.489" y2="130.345"/>
	
		<line fill="none" stroke="#FFFFFF" stroke-width="11" stroke-miterlimit="10" x1="366.971" y1="208.105" x2="417.305" y2="171.396"/>
	<line fill="none" stroke="#FFFFFF" stroke-width="11" stroke-miterlimit="10" x1="372.249" y1="244.4" x2="434.548" y2="244.4"/>
	
		<line fill="none" stroke="#FFFFFF" stroke-width="11" stroke-miterlimit="10" x1="415.081" y1="310.46" x2="364.291" y2="274.383"/>
	
		<line fill="none" stroke="#FFFFFF" stroke-width="11" stroke-miterlimit="10" x1="310.902" y1="179.03" x2="310.902" y2="116.731"/>
	
		<line fill="none" stroke="#FFFFFF" stroke-width="11" stroke-miterlimit="10" x1="368.184" y1="351.783" x2="337.035" y2="297.831"/>
	
		<line fill="none" stroke="#FFFFFF" stroke-width="11" stroke-miterlimit="10" x1="310.902" y1="364.852" x2="310.902" y2="302.553"/>
</g>
<g>
	
		<line fill="none" stroke="#FFFFFF" stroke-width="11" stroke-miterlimit="10" x1="278.213" y1="295.372" x2="250.645" y2="351.238"/>
	
		<line fill="none" stroke="#FFFFFF" stroke-width="11" stroke-miterlimit="10" x1="255.163" y1="273.478" x2="204.829" y2="310.187"/>
	
		<line fill="none" stroke="#FFFFFF" stroke-width="11" stroke-miterlimit="10" x1="249.885" y1="237.183" x2="187.586" y2="237.183"/>
	<line fill="none" stroke="#FFFFFF" stroke-width="11" stroke-miterlimit="10" x1="207.053" y1="171.123" x2="257.842" y2="207.2"/>
	
		<line fill="none" stroke="#FFFFFF" stroke-width="11" stroke-miterlimit="10" x1="311.232" y1="302.553" x2="311.232" y2="364.852"/>
	<line fill="none" stroke="#FFFFFF" stroke-width="11" stroke-miterlimit="10" x1="253.95" y1="129.8" x2="285.099" y2="183.753"/>
	
		<line fill="none" stroke="#FFFFFF" stroke-width="11" stroke-miterlimit="10" x1="311.232" y1="116.731" x2="311.232" y2="179.03"/>
</g>
<line fill="none" stroke="#FFFFFF" stroke-width="8" stroke-miterlimit="10" x1="595.506" y1="534.957" x2="564.058" y2="677.734"/>
<line fill="none" stroke="#FFFFFF" stroke-width="8" stroke-miterlimit="10" x1="787.493" y1="540.151" x2="815.306" y2="681.984"/>
<line fill="none" stroke="#FFFFFF" stroke-width="8" stroke-miterlimit="10" x1="590.959" y1="538.2" x2="787.493" y2="538.2"/>
<path fill="#FFFFFF" d="M792.105,540.838c-0.103-2.649-0.256-6.284-3.699-6.448c-0.454-0.022-0.99,0.077-1.461,0.258
	c-0.124-0.008-0.236-0.035-0.365-0.035c-3.326,0-4.931,2.671-4.82,5.253c-0.672,0.393-1.06,1.091-0.354,1.673
	c2.192,1.802,3.543,4.725,3.488,7.59c-0.014,0.716,0.709,1.078,1.357,1.016c0.602-0.058,1.572-0.464,1.586-1.208
	c0.029-1.505-0.255-2.974-0.784-4.346c0.888-0.072,1.623-0.361,2.24-0.772l0.334,8.599c0.018,0.451,2.928,0.003,2.898-0.776
	C792.385,548.039,792.245,544.438,792.105,540.838z"/>
<path fill="#FFFFFF" d="M610.488,534.049c-4.841-0.003-9.682-0.006-14.522-0.008c-0.536-0.198-1.138-0.315-1.817-0.315
	c-0.853,0-1.584,0.185-2.211,0.49c-0.544,0.123-1.058,0.354-1.241,0.651c-0.595,0.454-0.855,1.041-0.972,1.76
	c-0.313,0.774-0.436,1.627-0.383,2.468c-0.012,0.042-0.033,0.076-0.045,0.119c-0.353,1.331-0.495,2.748-0.609,4.117
	c-0.018,0.212-0.019,0.425-0.033,0.638c-0.655,3.51-1.173,7.046-1.557,10.599c-0.184,0.151-0.294,0.323-0.272,0.509
	c0.037,0.311,0.073,0.622,0.11,0.933c0.087,0.743,2.818,0.079,2.886-0.613c0.086-0.869,0.204-1.733,0.307-2.599
	c0.875-0.021,1.919-0.635,1.784-1.518c-0.31-2.024-0.431-4.062-0.381-6.106c0.121-0.106,0.203-0.221,0.215-0.343
	c0.052-0.534,0.104-1.069,0.156-1.603c0.634,0.313,1.38,0.499,2.247,0.499c4.753,0,5.996-5.452,3.727-8.304
	c3.805,0.002,7.609,0.004,11.414,0.007c0.565,0,1.596-0.218,1.927-0.736C611.564,534.148,610.917,534.049,610.488,534.049z"/>
<line fill="none" stroke="#FFFFFF" stroke-width="3" stroke-miterlimit="10" x1="629.62" y1="539.55" x2="629.62" y2="635.003"/>
<line fill="none" stroke="#FFFFFF" stroke-width="3" stroke-miterlimit="10" x1="664.204" y1="539.55" x2="664.204" y2="635.003"/>
<line fill="none" stroke="#FFFFFF" stroke-width="3" stroke-miterlimit="10" x1="716.948" y1="539.55" x2="716.948" y2="635.003"/>
<line fill="none" stroke="#FFFFFF" stroke-width="3" stroke-miterlimit="10" x1="751.108" y1="539.55" x2="751.108" y2="635.003"/>
<line fill="none" stroke="#FFFFFF" stroke-width="3" stroke-miterlimit="10" x1="622.526" y1="635.003" x2="669.082" y2="635.003"/>
<line fill="none" stroke="#FFFFFF" stroke-width="3" stroke-miterlimit="10" x1="711.203" y1="635.003" x2="756.872" y2="635.003"/>
<g>
</g>
<g>
</g>
<g>
</g>
<g>
</g>
<g>
</g>
<g>
</g>
</svg>
