<?xml version="1.0" encoding="utf-8"?>
<!-- Generator: Adobe Illustrator 27.7.0, SVG Export Plug-In . SVG Version: 6.00 Build 0)  -->
<svg version="1.1" id="Layer_1" xmlns="http://www.w3.org/2000/svg" xmlns:xlink="http://www.w3.org/1999/xlink" x="0px" y="0px"
	 width="1000px" height="1000px" viewBox="0 0 1000 1000" enable-background="new 0 0 1000 1000" xml:space="preserve">
<g opacity="0.65">
	<path fill="#97CE85" d="M918.667,809.846H81.333c-6.6,0-12-5.4-12-12V75.76c0-6.6,5.4-12,12-12h837.334c6.6,0,12,5.4,12,12v722.087
		C930.667,804.446,925.267,809.846,918.667,809.846z"/>
	<g>
		<path fill="#97CE85" d="M918.667,803.846c-6.581,0-13.162,0-19.743,0c-18.133,0-36.266,0-54.399,0c-26.954,0-53.907,0-80.861,0
			c-33.42,0-66.84,0-100.26,0c-37.023,0-74.045,0-111.068,0c-38.194,0-76.387,0-114.581,0c-36.8,0-73.599,0-110.399,0
			c-32.971,0-65.943,0-98.914,0c-26.284,0-52.567,0-78.851,0c-17.236,0-34.471,0-51.707,0c-4.352,0-8.703,0-13.055,0
			c-4.35,0-8.98-0.126-9.497-6.002c-0.664-7.552,0-15.464,0-23.035c0-20.565,0-41.131,0-61.696c0-29.813,0-59.626,0-89.439
			c0-35.676,0-71.352,0-107.027c0-38.256,0-76.512,0-114.767c0-37.043,0-74.087,0-111.13c0-32.545,0-65.09,0-97.635
			c0-24.682,0-49.365,0-74.047c0-13.145,0-26.29,0-39.436c0-4.449-0.071-9.347,6.006-9.873c1.786-0.154,3.654,0,5.445,0
			c12.906,0,25.812,0,38.718,0c22.99,0,45.98,0,68.97,0c30.539,0,61.079,0,91.618,0c35.686,0,71.371,0,107.057,0
			c37.949,0,75.897,0,113.846,0c37.793,0,75.585,0,113.378,0c35.215,0,70.429,0,105.644,0c29.758,0,59.515,0,89.273,0
			c21.896,0,43.792,0,65.688,0c11.493,0,22.986,0,34.479,0c4.278,0,8.722,0.296,9.212,6.017c0.182,2.126,0,4.349,0,6.481
			c0,14.809,0,29.618,0,44.427c0,25.75,0,51.5,0,77.249c0,33.277,0,66.554,0,99.831c0,37.355,0,74.711,0,112.066
			c0,38.147,0,76.293,0,114.44c0,35.146,0,70.293,0,105.439c0,28.971,0,57.941,0,86.912c0,19.083,0,38.165,0,57.248
			c0,4.674,0,9.348,0,14.022C924.667,798.28,924.814,803.513,918.667,803.846c-7.681,0.417-7.73,12.42,0,12
			c11.615-0.631,18-9.622,18-20.466c0-4.453,0-8.907,0-13.36c0-18.742,0-37.484,0-56.227c0-28.758,0-57.516,0-86.273
			c0-35.449,0-70.897,0-106.346c0-38.449,0-76.899,0-115.348c0-37.708,0-75.417,0-113.125c0-33.72,0-67.44,0-101.16
			c0-25.98,0-51.96,0-77.94c0-14.621,0-29.241,0-43.862c0-2.203,0.1-4.431-0.035-6.632c-0.686-11.128-9.796-17.349-20.156-17.349
			c-10.811,0-21.622,0-32.433,0c-21.559,0-43.118,0-64.677,0c-29.836,0-59.672,0-89.508,0c-35.375,0-70.749,0-106.124,0
			c-38.081,0-76.161,0-114.242,0c-38.458,0-76.916,0-115.374,0c-36.009,0-72.018,0-108.027,0c-30.776,0-61.551,0-92.327,0
			c-23.151,0-46.301,0-69.452,0c-12.714,0-25.428,0-38.142,0c-2.577,0-5.182-0.126-7.735,0.285
			c-10.437,1.681-15.102,10.881-15.102,20.452c0,12.526,0,25.052,0,37.578c0,24.421,0,48.841,0,73.262c0,32.73,0,65.461,0,98.191
			c0,37.289,0,74.577,0,111.866c0,38.596,0,77.192,0,115.788c0,36.165,0,72.329,0,108.494c0,30.036,0,60.073,0,90.109
			c0,20.595,0,41.189,0,61.784c0,8.23-1.271,17.65,0.389,25.808c3.343,16.429,19.655,14.471,32.086,14.471
			c16.69,0,33.379,0,50.069,0c26.225,0,52.449,0,78.674,0c33.045,0,66.09,0,99.135,0c37.034,0,74.069,0,111.103,0
			c38.686,0,77.372,0,116.059,0c37.519,0,75.038,0,112.557,0c33.553,0,67.105,0,100.658,0c27.219,0,54.437,0,81.656,0
			c18.064,0,36.127,0,54.191,0c6.253,0,12.505,0,18.758,0C926.388,815.846,926.401,803.846,918.667,803.846z"/>
	</g>
</g>
<line fill="none" stroke="#FFFFFF" stroke-width="9" stroke-miterlimit="10" x1="998.098" y1="197.382" x2="998.098" y2="271.15"/>
<rect id="_x3C_Slice_x3E_" x="1778.217" y="1116.478" fill="none" width="10" height="16"/>
<g>
	<rect x="112.609" y="838.872" fill="none" width="774.783" height="120"/>
	<path fill="#C0DEA7" d="M380.181,941.472l-26.399-80.877h11.28l12.599,39.839c3.48,10.919,6.48,20.759,8.64,30.238h0.24
		c2.28-9.359,5.64-19.559,9.24-30.118l13.679-39.959h11.16L391.7,941.472H380.181z"/>
	<path fill="#C0DEA7" d="M430.942,914.353c0.24,14.279,9.359,20.159,19.919,20.159c7.56,0,12.12-1.319,16.079-3l1.8,7.561
		c-3.72,1.68-10.08,3.6-19.319,3.6c-17.879,0-28.559-11.76-28.559-29.279s10.32-31.318,27.239-31.318
		c18.959,0,23.999,16.68,23.999,27.358c0,2.16-0.24,3.84-0.36,4.92H430.942z M461.901,906.793c0.12-6.72-2.76-17.159-14.639-17.159
		c-10.68,0-15.359,9.84-16.2,17.159H461.901z"/>
	<path fill="#C0DEA7" d="M488.062,875.475l13.92-6.6c-3.601-2.641-8.04-5.04-12.48-7.2l4.56-6.6c5.76,2.64,11.76,6,16.919,9.72
		l15.359-7.32l2.52,5.28l-12.719,6c6.6,5.399,11.879,11.879,15.359,19.079c3.239,6.72,5.039,14.399,5.039,23.279
		c0.12,22.318-14.159,31.679-28.078,31.679c-15.72,0-27.479-11.52-27.479-29.64c0-18.839,13.2-29.758,26.999-29.758
		c4.439,0,8.76,0.84,13.319,5.159l0.24-0.36c-3.479-5.76-8.04-10.919-14.159-15.479l-17.04,7.919L488.062,875.475z M525.74,912.312
		c0-7.56-1.08-12.359-4.08-16.079c-2.64-3-6.6-5.64-12.72-5.64c-12.479,0-17.279,12.84-17.279,22.439
		c0,12.239,7.08,21.839,16.8,21.839C519.021,934.872,525.74,925.513,525.74,912.312z"/>
	<path fill="#C0DEA7" d="M598.697,925.633c0,5.999,0.12,11.279,0.48,15.839h-9.359l-0.601-9.479h-0.24
		c-2.76,4.68-8.879,10.8-19.199,10.8c-9.119,0-20.039-5.04-20.039-25.439v-33.958h10.56v32.158c0,11.039,3.36,18.479,12.96,18.479
		c7.079,0,11.999-4.92,13.919-9.6c0.601-1.561,0.96-3.48,0.96-5.4v-35.638h10.56V925.633z"/>
	<path fill="#C0DEA7" d="M616.219,901.514c0-6.84-0.12-12.72-0.48-18.119h9.24l0.359,11.399h0.48c2.64-7.8,9-12.72,16.079-12.72
		c1.2,0,2.04,0.12,3,0.359v9.96c-1.08-0.24-2.16-0.36-3.6-0.36c-7.44,0-12.72,5.641-14.159,13.56c-0.24,1.44-0.48,3.12-0.48,4.92
		v30.959h-10.439V901.514z"/>
</g>
<path fill="#C0DEA7" d="M263.621,206.188c-3.022-0.791-5.942-1.767-8.728-2.905c0.997-0.412,2.015-0.791,3.043-1.149
	C259.93,203.425,261.832,204.779,263.621,206.188z"/>
<path fill="#C0DEA7" d="M263.621,206.188c-3.022-0.791-5.942-1.767-8.728-2.905c0.997-0.412,2.015-0.791,3.043-1.149
	C259.93,203.425,261.832,204.779,263.621,206.188z"/>
<path fill="#C0DEA7" d="M263.621,206.188c-3.022-0.791-5.942-1.767-8.728-2.905c0.997-0.412,2.015-0.791,3.043-1.149
	C259.93,203.425,261.832,204.779,263.621,206.188z"/>
<path fill="#FFFFFF" d="M500,255.008c0,33.69-34.17,60.99-76.33,60.99c-19.59,0-37.48-5.91-50.99-15.62
	c-10.51,6.47-23.66,10.32-37.95,10.32c-13.88,0-26.7-3.63-37.05-9.76c-13.72,6.16-30.33,9.76-48.23,9.76
	c-47.1,0-85.27-24.94-85.27-55.69c0-25.84,26.97-47.59,63.53-53.86c4.82-18.72,22.79-33.6,45.85-38.19
	c5.47-23.02,30.78-40.42,61.17-40.42c29.74,0,54.6,16.66,60.77,38.94c0.49-0.01,0.99-0.01,1.48-0.01c29.75,0,54.63,16.67,60.8,38.96
	C482.81,210.438,500,231.118,500,255.008z"/>
<path fill="#C0DEA7" d="M313.9,202.211c-0.514,0.477-1.028,0.965-1.521,1.474c-0.319-0.13-0.648-0.271-0.966-0.401
	C312.255,202.937,313.088,202.579,313.9,202.211z"/>
<path fill="#C0DEA7" d="M263.621,206.188c-3.022-0.791-5.942-1.767-8.728-2.905c0.997-0.412,2.015-0.791,3.043-1.149
	C259.93,203.425,261.832,204.779,263.621,206.188z"/>
<path fill="#FFFFFF" stroke="#FFFFFF" stroke-miterlimit="10" d="M422.572,631.282c0,25.793-23.282,46.7-51.993,46.7
	c-7.92,0-15.426-1.595-22.147-4.44c-7.107,3.054-15.084,5.159-23.603,6.057c-13.307,1.394-25.922-0.388-36.432-4.548
	c-6.736,4.332-14.734,6.84-23.325,6.84c-23.988,0-43.424-19.578-43.424-43.726c0-24.155,19.436-43.726,43.424-43.726
	c2.319,0,4.595,0.18,6.814,0.539c5.737-16.453,25.272-28.566,48.483-28.566c18.209,0,34.163,7.458,42.96,18.615
	c2.369-0.302,4.788-0.453,7.249-0.453C399.29,584.574,422.572,605.489,422.572,631.282z"/>
<path fill="#FFFFFF" stroke="#FFFFFF" stroke-miterlimit="10" d="M881.355,447.619c0,39.124-37.804,70.838-84.425,70.838
	c-12.86,0-25.048-2.419-35.962-6.735c-11.539,4.632-24.492,7.825-38.325,9.187c-21.607,2.114-42.091-0.588-59.156-6.898
	c-10.937,6.572-23.924,10.375-37.874,10.375c-38.951,0-70.51-29.698-70.51-66.326c0-36.64,31.559-66.326,70.51-66.326
	c3.765,0,7.461,0.272,11.064,0.817c9.315-24.957,41.036-43.331,78.725-43.331c29.567,0,55.472,11.312,69.757,28.237
	c3.846-0.458,7.774-0.687,11.771-0.687C843.551,376.77,881.355,408.495,881.355,447.619z"/>
<g>
</g>
<g>
</g>
<g>
</g>
<g>
</g>
<g>
</g>
<g>
</g>
</svg>
