<?xml version="1.0" encoding="utf-8"?>
<!-- Generator: Adobe Illustrator 27.7.0, SVG Export Plug-In . SVG Version: 6.00 Build 0)  -->
<svg version="1.1" id="Layer_1" xmlns="http://www.w3.org/2000/svg" xmlns:xlink="http://www.w3.org/1999/xlink" x="0px" y="0px"
	 width="1000px" height="1000px" viewBox="0 0 1000 1000" enable-background="new 0 0 1000 1000" xml:space="preserve">
<g>
	<path fill="#006A4E" d="M137.707,340.246h-1.295l-73.175,33.55l-11.008-36.85l91.955-41.8h48.567v357.502h-55.043V340.246z"/>
	<path fill="#006A4E" d="M625.965,470.047c0,121.55-53.101,188.65-146.351,188.65c-82.24,0-137.932-65.45-139.227-183.701
		c0-119.9,60.871-185.9,146.351-185.9C575.455,289.096,625.965,356.196,625.965,470.047z M397.374,475.547
		c0,92.95,33.673,145.75,85.479,145.75c58.281,0,86.127-57.75,86.127-149.051c0-88-26.551-145.75-85.479-145.75
		C433.638,326.496,397.374,378.196,397.374,475.547z"/>
	<path fill="#006A4E" d="M958.158,470.047c0,121.55-53.101,188.65-146.351,188.65c-82.24,0-137.932-65.45-139.227-183.701
		c0-119.9,60.871-185.9,146.351-185.9C907.648,289.096,958.158,356.196,958.158,470.047z M729.567,475.547
		c0,92.95,33.673,145.75,85.479,145.75c58.281,0,86.127-57.75,86.127-149.051c0-88-26.551-145.75-85.479-145.75
		C765.831,326.496,729.567,378.196,729.567,475.547z"/>
</g>
<g>
	<rect x="41" y="-36" fill="none" width="5" height="0"/>
</g>
<g>
</g>
<g>
</g>
<g>
</g>
<g>
</g>
<g>
</g>
<g>
</g>
</svg>
