<?xml version="1.0" encoding="utf-8"?>
<!-- Generator: Adobe Illustrator 27.7.0, SVG Export Plug-In . SVG Version: 6.00 Build 0)  -->
<svg version="1.1" id="Layer_1" xmlns="http://www.w3.org/2000/svg" xmlns:xlink="http://www.w3.org/1999/xlink" x="0px" y="0px"
	 width="1000px" height="1000px" viewBox="0 0 1000 1000" enable-background="new 0 0 1000 1000" xml:space="preserve">
<g>
	<path fill="#2B621D" d="M223.541,287.719h-1.845l-104.218,47.783l-15.679-52.483l130.965-59.532h69.171v509.161h-78.394V287.719z"
		/>
	<path fill="#2B621D" d="M520.503,732.647v-42.3l63.638-52.482C737.24,514.1,806.412,448.3,807.334,371.535
		c0-51.7-29.513-99.482-118.975-99.482c-54.415,0-99.607,23.5-127.275,43.083l-25.824-48.566
		c41.503-29.766,100.529-51.699,169.7-51.699c129.12,0,183.535,75.199,183.535,148.048c0,93.999-80.238,169.981-206.592,273.381
		l-47.959,37.6v1.566h269.308v57.183H520.503z"/>
</g>
<g>
	<rect x="41" y="-36" fill="none" width="5" height="0"/>
</g>
<g>
</g>
<g>
</g>
<g>
</g>
<g>
</g>
<g>
</g>
<g>
</g>
</svg>
