<?xml version="1.0" encoding="utf-8"?>
<!-- Generator: Adobe Illustrator 27.7.0, SVG Export Plug-In . SVG Version: 6.00 Build 0)  -->
<svg version="1.1" id="Layer_1" xmlns="http://www.w3.org/2000/svg" xmlns:xlink="http://www.w3.org/1999/xlink" x="0px" y="0px"
	 width="1000px" height="1000px" viewBox="0 0 1000 1000" enable-background="new 0 0 1000 1000" xml:space="preserve">
<g>
	<path fill="#088A97" d="M47.384,732.647v-42.3l63.638-52.482C264.121,514.1,333.293,448.3,334.215,371.535
		c0-51.7-29.513-99.482-118.975-99.482c-54.415,0-99.607,23.5-127.276,43.083L62.14,266.569
		c41.503-29.766,100.529-51.699,169.701-51.699c129.12,0,183.535,75.199,183.535,148.048c0,93.999-80.238,169.981-206.592,273.381
		l-47.959,37.6v1.566h269.308v57.183H47.384z"/>
	<path fill="#088A97" d="M918.931,472.583c0,173.115-75.627,268.68-208.437,268.68c-117.131,0-196.447-93.215-198.292-261.63
		c0-170.765,86.695-264.764,208.438-264.764C846.992,214.87,918.931,310.435,918.931,472.583z M593.363,480.417
		c0,132.382,47.959,207.581,121.742,207.581c83.006,0,122.664-82.249,122.664-212.281c0-125.332-37.813-207.581-121.742-207.581
		C645.012,268.136,593.363,341.768,593.363,480.417z"/>
</g>
<g>
	<rect x="41" y="-36" fill="none" width="5" height="0"/>
</g>
<g>
</g>
<g>
</g>
<g>
</g>
<g>
</g>
<g>
</g>
<g>
</g>
</svg>
