<?xml version="1.0" encoding="utf-8"?>
<!-- Generator: Adobe Illustrator 27.7.0, SVG Export Plug-In . SVG Version: 6.00 Build 0)  -->
<svg version="1.1" id="Layer_1" xmlns="http://www.w3.org/2000/svg" xmlns:xlink="http://www.w3.org/1999/xlink" x="0px" y="0px"
	 width="1000px" height="1000px" viewBox="0 0 1000 1000" enable-background="new 0 0 1000 1000" xml:space="preserve">
<g>
	<path fill="#70346E" d="M66.752,653.531c23.057,12.533,76.55,32.117,132.809,32.117c104.218,0,136.499-56.4,135.577-98.699
		c-0.923-71.283-76.55-101.832-154.945-101.832h-45.192v-51.7h45.192c59.027,0,133.732-25.85,133.732-86.166
		c0-40.733-30.436-76.766-105.141-76.766c-47.959,0-94.073,18.017-119.897,33.683l-21.212-50.133
		c31.357-19.583,92.229-39.166,156.789-39.166c118.053,0,171.545,59.533,171.545,121.416c0,52.482-36.891,97.132-110.674,119.849
		v1.566c73.783,12.533,133.731,59.533,133.731,130.815c0,81.466-74.705,152.748-218.582,152.748
		c-67.327,0-126.354-18.016-155.867-34.466L66.752,653.531z"/>
	<path fill="#70346E" d="M918.931,472.583c0,173.115-75.627,268.68-208.437,268.68c-117.131,0-196.447-93.215-198.292-261.63
		c0-170.765,86.695-264.764,208.438-264.764C846.992,214.87,918.931,310.435,918.931,472.583z M593.363,480.417
		c0,132.382,47.959,207.581,121.742,207.581c83.006,0,122.664-82.249,122.664-212.281c0-125.332-37.813-207.581-121.742-207.581
		C645.012,268.136,593.363,341.768,593.363,480.417z"/>
</g>
<g>
	<rect x="41" y="-36" fill="none" width="5" height="0"/>
</g>
<g>
</g>
<g>
</g>
<g>
</g>
<g>
</g>
<g>
</g>
<g>
</g>
</svg>
