<?xml version="1.0" encoding="utf-8"?>
<!-- Generator: Adobe Illustrator 27.7.0, SVG Export Plug-In . SVG Version: 6.00 Build 0)  -->
<svg version="1.1" id="Layer_1" xmlns="http://www.w3.org/2000/svg" xmlns:xlink="http://www.w3.org/1999/xlink" x="0px" y="0px"
	 width="1000px" height="1000px" viewBox="0 0 1000 1000" enable-background="new 0 0 1000 1000" xml:space="preserve">
<g>
	<path fill="#B05882" d="M298.246,732.647V593.999H19.715v-45.433l267.463-325.08h87.617v316.463h83.928v54.05h-83.928v138.648
		H298.246z M298.246,539.949V369.968c0-26.633,0.922-53.266,2.767-79.899h-2.767c-18.446,29.766-33.202,51.699-49.804,75.199
		L101.799,538.383v1.566H298.246z"/>
	<path fill="#B05882" d="M918.931,472.583c0,173.115-75.627,268.68-208.437,268.68c-117.131,0-196.447-93.215-198.292-261.63
		c0-170.765,86.695-264.764,208.438-264.764C846.992,214.87,918.931,310.435,918.931,472.583z M593.363,480.417
		c0,132.382,47.959,207.581,121.742,207.581c83.006,0,122.664-82.249,122.664-212.281c0-125.332-37.813-207.581-121.742-207.581
		C645.012,268.136,593.363,341.768,593.363,480.417z"/>
</g>
<g>
	<rect x="41" y="-36" fill="none" width="5" height="0"/>
</g>
<g>
</g>
<g>
</g>
<g>
</g>
<g>
</g>
<g>
</g>
<g>
</g>
</svg>
