<?xml version="1.0" encoding="utf-8"?>
<!-- Generator: Adobe Illustrator 27.7.0, SVG Export Plug-In . SVG Version: 6.00 Build 0)  -->
<svg version="1.1" id="Layer_1" xmlns="http://www.w3.org/2000/svg" xmlns:xlink="http://www.w3.org/1999/xlink" x="0px" y="0px"
	 width="1000px" height="1000px" viewBox="0 0 1000 1000" enable-background="new 0 0 1000 1000" xml:space="preserve">
<g>
	<path fill="#B04941" d="M405.231,281.452H176.504l-23.057,130.815c13.834-1.567,26.746-3.133,48.881-3.133
		c46.114,0,92.229,8.617,129.12,27.417c47.036,22.716,85.772,66.582,85.772,130.815c0,99.481-93.15,173.897-223.193,173.897
		c-65.482,0-120.819-15.666-149.411-31.333l20.291-52.482c24.902,12.533,73.783,28.2,128.198,28.2
		c76.55,0,142.033-42.3,142.033-110.449c-0.923-65.8-52.57-112.799-172.468-112.799c-34.125,0-60.871,3.133-83.005,5.483
		L118.4,223.486h286.832V281.452z"/>
	<path fill="#B04941" d="M918.931,472.583c0,173.115-75.627,268.68-208.437,268.68c-117.131,0-196.447-93.215-198.292-261.63
		c0-170.765,86.695-264.764,208.438-264.764C846.992,214.87,918.931,310.435,918.931,472.583z M593.363,480.417
		c0,132.382,47.959,207.581,121.742,207.581c83.006,0,122.664-82.249,122.664-212.281c0-125.332-37.813-207.581-121.742-207.581
		C645.012,268.136,593.363,341.768,593.363,480.417z"/>
</g>
<g>
	<rect x="41" y="-36" fill="none" width="5" height="0"/>
</g>
<g>
</g>
<g>
</g>
<g>
</g>
<g>
</g>
<g>
</g>
<g>
</g>
</svg>
