<?xml version="1.0" encoding="utf-8"?>
<!-- Generator: Adobe Illustrator 27.7.0, SVG Export Plug-In . SVG Version: 6.00 Build 0)  -->
<svg version="1.1" id="Layer_1" xmlns="http://www.w3.org/2000/svg" xmlns:xlink="http://www.w3.org/1999/xlink" x="0px" y="0px"
	 width="1000px" height="1000px" viewBox="0 0 1000 1000" enable-background="new 0 0 1000 1000" xml:space="preserve">
<g>
	<path fill="#DBA510" d="M664.553,272.052c-16.602-0.783-37.814,0-60.871,3.133c-127.276,18.017-194.603,97.132-208.437,180.948
		h2.767c28.591-32.116,78.395-58.75,144.799-58.75c106.062,0,180.768,65.016,180.768,164.499
		c0,93.216-74.705,179.381-199.214,179.381c-128.198,0-212.125-84.599-212.125-216.98c0-100.266,42.425-179.382,101.452-229.515
		c49.803-41.516,116.208-67.366,191.835-75.199c23.979-3.133,44.271-3.917,59.027-3.917V272.052z M641.495,565.799
		c0-72.849-48.881-116.715-123.587-116.715c-48.881,0-94.073,25.85-116.208,62.666c-5.534,7.833-9.223,18.017-9.223,30.55
		c1.845,83.815,47.037,145.698,131.887,145.698C594.458,687.998,641.495,638.648,641.495,565.799z"/>
</g>
<g>
	<rect x="41" y="-36" fill="none" width="5" height="0"/>
</g>
<g>
</g>
<g>
</g>
<g>
</g>
<g>
</g>
<g>
</g>
<g>
</g>
</svg>
