<?xml version="1.0" encoding="utf-8"?>
<!-- Generator: Adobe Illustrator 27.7.0, SVG Export Plug-In . SVG Version: 6.00 Build 0)  -->
<svg version="1.1" id="Layer_1" xmlns="http://www.w3.org/2000/svg" xmlns:xlink="http://www.w3.org/1999/xlink" x="0px" y="0px"
	 width="1000px" height="1000px" viewBox="0 0 1000 1000" enable-background="new 0 0 1000 1000" xml:space="preserve">
<g>
	<path fill="#0079A9" d="M40.005,603.398c0-64.232,45.192-109.665,118.975-136.298l-0.922-2.35
		c-66.405-26.633-94.996-70.499-94.996-114.365c0-80.683,80.239-135.515,185.38-135.515c116.208,0,174.312,61.882,174.312,125.332
		c0,43.083-24.902,89.299-98.685,119.065v2.35c74.705,25.066,120.819,69.716,120.819,131.599
		c0,88.516-89.462,148.048-203.825,148.048C115.633,741.264,40.005,677.814,40.005,603.398z M362.806,600.266
		c0-61.883-50.726-91.649-131.887-111.232c-70.094,17.233-107.908,56.399-107.908,104.966
		c-2.767,51.699,43.348,97.132,119.897,97.132C315.77,691.131,362.806,652.748,362.806,600.266z M139.612,345.685
		c0,50.917,45.192,78.333,114.363,93.999c51.648-14.883,91.307-46.216,91.307-92.432c0-40.733-28.591-83.033-101.451-83.033
		C176.504,264.219,139.612,301.818,139.612,345.685z"/>
	<path fill="#0079A9" d="M918.931,472.583c0,173.115-75.627,268.68-208.437,268.68c-117.131,0-196.447-93.215-198.292-261.63
		c0-170.765,86.695-264.764,208.438-264.764C846.992,214.87,918.931,310.435,918.931,472.583z M593.363,480.417
		c0,132.382,47.959,207.581,121.742,207.581c83.006,0,122.664-82.249,122.664-212.281c0-125.332-37.813-207.581-121.742-207.581
		C645.012,268.136,593.363,341.768,593.363,480.417z"/>
</g>
<g>
	<rect x="41" y="-36" fill="none" width="5" height="0"/>
</g>
<g>
</g>
<g>
</g>
<g>
</g>
<g>
</g>
<g>
</g>
<g>
</g>
</svg>
