<?xml version="1.0" encoding="utf-8"?>
<!-- Generator: Adobe Illustrator 27.7.0, SVG Export Plug-In . SVG Version: 6.00 Build 0)  -->
<svg version="1.1" id="Layer_1" xmlns="http://www.w3.org/2000/svg" xmlns:xlink="http://www.w3.org/1999/xlink" x="0px" y="0px"
	 width="1000px" height="1000px" viewBox="0 0 1000 1000" enable-background="new 0 0 1000 1000" xml:space="preserve">
<g>
	<path fill="#85439A" d="M369.42,684.081c17.523,1.567,37.814,0,65.482-2.35c47.037-5.483,91.306-21.934,125.431-49.35
		c39.658-30.55,68.249-75.199,79.316-135.516h-2.767c-33.202,34.467-81.161,54.833-141.11,54.833
		c-107.908,0-177.079-68.933-177.079-155.882c0-96.349,82.083-180.948,204.748-180.948S721.734,299.469,721.734,429.5
		c0,112.015-44.271,190.348-103.297,238.915c-46.114,38.383-109.752,61.883-174.312,68.149c-29.513,3.916-55.337,4.699-74.705,3.916
		V684.081z M398.934,391.118c0,63.449,45.192,108.099,115.286,108.099c54.415,0,96.84-22.717,118.053-53.267
		c4.611-6.267,7.378-14.1,7.378-25.066c0-86.949-37.813-153.531-122.664-153.531C447.815,267.353,398.934,319.052,398.934,391.118z"
		/>
</g>
<g>
	<rect x="41" y="-36" fill="none" width="5" height="0"/>
</g>
<g>
</g>
<g>
</g>
<g>
</g>
<g>
</g>
<g>
</g>
<g>
</g>
</svg>
