<?xml version="1.0" encoding="utf-8"?>
<!-- Generator: Adobe Illustrator 27.7.0, SVG Export Plug-In . SVG Version: 6.00 Build 0)  -->
<svg version="1.1" id="Layer_1" xmlns="http://www.w3.org/2000/svg" xmlns:xlink="http://www.w3.org/1999/xlink" x="0px" y="0px"
	 width="1000px" height="1000px" viewBox="0 0 1000 1000" enable-background="new 0 0 1000 1000" xml:space="preserve">
<path fill="#FFE100" stroke="#FFE100" stroke-miterlimit="10" d="M314.816,339.171c-0.14,0.099-0.276,0.204-0.415,0.304
	c-1.866,1.458-3.738,2.908-5.614,4.354C310.796,342.277,312.806,340.724,314.816,339.171z"/>
<path fill="#FFE100" d="M430.288,771.986c-1.369-7.829-3.461-15.567-4.914-23.381c-1.686-9.07-2.405-18.197-3.506-27.312
	c-1.825-9.926-6.497-18.881-10.05-28.33c0.036,0.081,0.071,0.161,0.107,0.242c-0.809-1.925-1.529-3.872-1.997-5.935
	c-0.772-3.4-1.168-6.888-1.572-10.339c-0.391-3.338-0.561-6.693-0.885-10.036c-0.233-1.17-0.518-2.325-0.877-3.463
	c-0.647-1.158-1.359-2.277-2.131-3.364c-7.113-7.985-15.862-14.531-21.245-23.912c-3.185-5.551-4.929-11.347-6.144-17.497
	c-0.531-2.69-1.006-5.398-1.827-8.015c-0.119-0.201-0.242-0.399-0.367-0.596c-1.173-1.189-2.434-2.29-3.756-3.336
	c-0.073-0.053-0.145-0.106-0.218-0.159c-0.083-0.058-0.169-0.112-0.253-0.169c-7.363,2.766-14.989,4.51-23.114,5.32
	c-29.588,2.95-53.888-15.587-81.884-20.305c-4.124-0.367-8.261-0.394-12.387-0.07c-3.028,0.591-5.963,1.463-8.849,2.521
	c-7.942,3.44-15.686,7.459-24.083,9.78c-10.182,2.814-20.852,4.168-31.435,4.427c-10.044,0.246-20.11-0.528-30.166-0.935
	c-0.951,0.733-1.915,1.46-2.915,2.174c-9.283,6.632-20.325,10.247-30.911,14.42c-3.987,1.801-7.814,3.851-11.411,6.327
	c-5.157,4.096-9.762,8.79-13.953,13.837c-5.349,7.229-9.921,14.978-13.662,23.133c-2.554,6.498-4.552,13.185-5.779,20.048
	c-0.377,4.041-0.446,8.089-0.132,12.132c0.631,3.134,1.526,6.194,2.727,9.178c0.489,0.904,1.018,1.781,1.599,2.633
	c4.512,5.463,9.078,10.689,11.917,17.336c4.111,9.627,5.027,20.258,2.548,30.445c-1.6,6.576-5.061,12.701-9.098,18.104
	c-2.494,3.338-5.023,6.62-7.088,10.212c-0.288,0.976-0.537,1.961-0.756,2.953c-0.095,2.019-0.063,4.029,0.082,6.045
	c1.975,10.453,5.957,20.75,10.063,30.612c0.851,1.862,1.779,3.684,2.852,5.424c0.144,0.081,0.293,0.154,0.438,0.233
	c6.304,2.014,12.956,2.744,19.364,4.418c9.016,2.356,17.572,6.025,24.951,11.66c1,0.763,1.951,1.552,2.867,2.36
	c7.729,2.856,14.633,7.317,21.148,12.458c13.845,10.925,22.316,26.616,32.645,40.539c1.77,2.109,3.646,4.119,5.692,5.964
	c0.752,0.479,1.521,0.929,2.306,1.352c0.857,0.258,1.72,0.487,2.593,0.682c2.739,0.144,5.477,0.068,8.211-0.168
	c6.405-1.177,12.684-3.16,18.997-4.708c7.99-1.96,15.996-3.279,24.173-4.26c7.746-0.93,15.473-0.861,23.257-1.045
	c7.024-0.167,14.032-0.653,21.009-1.459c14.425-2.189,28.517-5.913,42.079-11.248c-0.03-3.659,1.037-7.51,2.81-10.412
	c2.649-4.339,7.247-7.616,12.249-9.026c4.222-1.191,8.465-2.364,12.59-3.841c1.15-0.539,2.27-1.127,3.355-1.774
	c0.168-0.155,0.333-0.312,0.496-0.471c0.186-0.296,0.367-0.595,0.54-0.897c0.924-2.85,1.457-5.777,2.157-8.709
	c1.068-4.472,2.417-8.876,3.992-13.207c2.772-7.625,6.179-15.02,9.353-22.494c3.467-8.164,6.805-14.952,13.207-21.438
	c6.529-6.615,14.923-10.7,22.546-15.88c0.71-0.595,1.385-1.224,2.036-1.875c0.071-0.114,0.146-0.226,0.215-0.341
	c0.122-0.402,0.233-0.807,0.334-1.215C430.505,775.546,430.447,773.765,430.288,771.986z"/>
<path fill="#EF3E2D" d="M928.896,771.986c-1.369-7.829-3.461-15.567-4.914-23.381c-1.686-9.07-2.405-18.197-3.506-27.312
	c-1.825-9.926-6.497-18.881-10.05-28.33c0.036,0.081,0.071,0.161,0.107,0.242c-0.809-1.925-1.529-3.872-1.997-5.935
	c-0.772-3.4-1.168-6.888-1.572-10.339c-0.391-3.338-0.561-6.693-0.885-10.036c-0.233-1.17-0.518-2.325-0.877-3.463
	c-0.647-1.158-1.359-2.277-2.131-3.364c-7.113-7.985-15.862-14.531-21.245-23.912c-3.185-5.551-4.929-11.347-6.144-17.497
	c-0.531-2.69-1.006-5.398-1.827-8.015c-0.119-0.201-0.242-0.399-0.367-0.596c-1.173-1.189-2.434-2.29-3.756-3.336
	c-0.073-0.053-0.145-0.106-0.218-0.159c-0.083-0.058-0.169-0.112-0.253-0.169c-7.363,2.766-14.989,4.51-23.114,5.32
	c-29.588,2.95-53.888-15.587-81.884-20.305c-4.124-0.367-8.26-0.394-12.386-0.07c-3.028,0.591-5.963,1.463-8.849,2.521
	c-7.942,3.44-15.686,7.459-24.083,9.78c-10.182,2.814-20.852,4.168-31.435,4.427c-10.044,0.246-20.11-0.528-30.166-0.935
	c-0.951,0.733-1.915,1.46-2.915,2.174c-9.283,6.632-20.325,10.247-30.911,14.42c-3.987,1.801-7.814,3.851-11.411,6.327
	c-5.157,4.096-9.762,8.79-13.953,13.837c-5.349,7.229-9.92,14.978-13.662,23.133c-2.554,6.498-4.552,13.185-5.779,20.048
	c-0.377,4.041-0.446,8.089-0.133,12.132c0.631,3.134,1.526,6.194,2.727,9.178c0.489,0.904,1.018,1.781,1.599,2.633
	c4.512,5.463,9.078,10.689,11.917,17.336c4.111,9.627,5.027,20.258,2.548,30.445c-1.6,6.576-5.061,12.701-9.098,18.104
	c-2.494,3.338-5.023,6.62-7.088,10.212c-0.288,0.976-0.537,1.961-0.756,2.953c-0.095,2.019-0.063,4.029,0.082,6.045
	c1.975,10.453,5.957,20.75,10.063,30.612c0.851,1.862,1.779,3.684,2.852,5.424c0.144,0.081,0.293,0.154,0.438,0.233
	c6.304,2.014,12.956,2.744,19.364,4.418c9.016,2.356,17.572,6.025,24.951,11.66c1,0.763,1.951,1.552,2.867,2.36
	c7.729,2.856,14.633,7.317,21.148,12.458c13.845,10.925,22.316,26.616,32.645,40.539c1.77,2.109,3.646,4.119,5.692,5.964
	c0.752,0.479,1.521,0.929,2.306,1.352c0.857,0.258,1.72,0.487,2.593,0.682c2.739,0.144,5.477,0.068,8.211-0.168
	c6.405-1.177,12.684-3.16,18.997-4.708c7.99-1.96,15.996-3.279,24.173-4.26c7.746-0.93,15.473-0.861,23.257-1.045
	c7.024-0.167,14.032-0.653,21.008-1.459c14.425-2.189,28.517-5.913,42.079-11.248c-0.03-3.659,1.037-7.51,2.81-10.412
	c2.649-4.339,7.247-7.616,12.249-9.026c4.222-1.191,8.465-2.364,12.59-3.841c1.15-0.539,2.27-1.127,3.355-1.774
	c0.168-0.155,0.333-0.312,0.496-0.471c0.186-0.296,0.367-0.595,0.54-0.897c0.924-2.85,1.457-5.777,2.157-8.709
	c1.068-4.472,2.417-8.876,3.992-13.207c2.772-7.625,6.179-15.02,9.353-22.494c3.467-8.164,6.805-14.952,13.207-21.438
	c6.529-6.615,14.923-10.7,22.546-15.88c0.71-0.595,1.385-1.224,2.036-1.875c0.071-0.114,0.146-0.226,0.216-0.341
	c0.122-0.402,0.233-0.807,0.334-1.215C929.114,775.546,929.055,773.765,928.896,771.986z"/>
<path fill="#F37223" d="M795.365,320.683c-2.083-12.608-5.266-25.07-7.476-37.653c-2.565-14.607-3.659-29.304-5.333-43.984
	c-2.777-15.985-9.884-30.407-15.29-45.623c0.054,0.13,0.108,0.26,0.162,0.39c-1.231-3.101-2.326-6.235-3.039-9.559
	c-1.175-5.475-1.777-11.092-2.392-16.65c-0.594-5.375-0.853-10.779-1.347-16.162c-0.355-1.884-0.788-3.744-1.335-5.577
	c-0.984-1.865-2.068-3.667-3.242-5.417c-10.821-12.858-24.131-23.401-32.321-38.509c-4.846-8.94-7.499-18.274-9.347-28.178
	c-0.808-4.333-1.53-8.693-2.78-12.907c-0.181-0.323-0.368-0.643-0.558-0.96c-1.784-1.914-3.703-3.688-5.715-5.372
	c-0.11-0.085-0.221-0.17-0.331-0.256c-0.127-0.094-0.258-0.18-0.385-0.273c-11.201,4.455-22.804,7.262-35.165,8.567
	c-45.015,4.751-81.984-25.101-124.576-32.7c-6.273-0.59-12.567-0.634-18.844-0.113c-4.606,0.951-9.071,2.356-13.462,4.06
	c-12.083,5.54-23.864,12.013-36.639,15.75c-15.491,4.531-31.723,6.712-47.825,7.13c-15.281,0.397-30.594-0.85-45.893-1.505
	c-1.446,1.181-2.914,2.352-4.434,3.502c-14.123,10.681-30.922,16.502-47.026,23.222c-6.065,2.901-11.889,6.202-17.36,10.189
	c-7.845,6.596-14.852,14.156-21.227,22.284c-8.138,11.641-15.093,24.121-20.785,37.253c-3.885,10.465-6.925,21.233-8.792,32.286
	c-0.574,6.507-0.679,13.027-0.202,19.538c0.96,5.047,2.322,9.974,4.148,14.78c0.744,1.455,1.549,2.868,2.433,4.24
	c6.865,8.797,13.811,17.214,18.13,27.918c6.254,15.504,7.649,32.623,3.877,49.028c-2.435,10.591-7.7,20.454-13.842,29.156
	c-3.794,5.376-7.642,10.661-10.784,16.446c-0.438,1.572-0.818,3.158-1.151,4.755c-0.144,3.251-0.096,6.489,0.124,9.735
	c3.005,16.833,9.063,33.416,15.31,49.299c1.294,2.999,2.707,5.933,4.34,8.735c0.219,0.131,0.446,0.247,0.667,0.374
	c9.59,3.243,19.711,4.419,29.46,7.115c13.717,3.794,26.733,9.702,37.96,18.777c1.521,1.229,2.968,2.499,4.361,3.8
	c11.759,4.599,22.262,11.783,32.174,20.062c21.064,17.594,33.951,42.863,49.665,65.285c2.693,3.397,5.547,6.634,8.659,9.604
	c1.144,0.772,2.314,1.497,3.509,2.177c1.303,0.415,2.617,0.783,3.945,1.098c4.167,0.233,8.333,0.11,12.492-0.27
	c9.744-1.895,19.297-5.089,28.901-7.582c12.156-3.156,24.335-5.28,36.776-6.861c11.785-1.497,23.54-1.386,35.383-1.683
	c10.687-0.268,21.348-1.051,31.962-2.35c21.945-3.525,43.385-9.522,64.017-18.114c-0.046-5.892,1.578-12.094,4.275-16.768
	c4.031-6.987,11.026-12.265,18.635-14.536c6.424-1.917,12.878-3.806,19.154-6.186c1.75-0.868,3.454-1.814,5.105-2.858
	c0.255-0.249,0.507-0.502,0.755-0.758c0.282-0.476,0.558-0.957,0.821-1.445c1.406-4.59,2.216-9.304,3.281-14.025
	c1.625-7.201,3.677-14.294,6.073-21.269c4.217-12.279,9.4-24.188,14.229-36.224c5.275-13.147,10.354-24.079,20.092-34.524
	c9.933-10.653,22.704-17.232,34.301-25.574c1.079-0.959,2.107-1.971,3.098-3.02c0.108-0.183,0.223-0.364,0.328-0.549
	c0.185-0.648,0.354-1.3,0.508-1.957C795.696,326.416,795.607,323.548,795.365,320.683z"/>
</svg>
