<?xml version="1.0" encoding="utf-8"?>
<!-- Generator: Adobe Illustrator 27.7.0, SVG Export Plug-In . SVG Version: 6.00 Build 0)  -->
<svg version="1.1" id="Layer_1" xmlns="http://www.w3.org/2000/svg" xmlns:xlink="http://www.w3.org/1999/xlink" x="0px" y="0px"
	 width="1000px" height="1000px" viewBox="0 0 1000 1000" enable-background="new 0 0 1000 1000" xml:space="preserve">
<path fill="#FFE100" stroke="#FFE100" stroke-miterlimit="10" d="M314.816,339.171c-0.14,0.099-0.276,0.204-0.415,0.304
	c-1.866,1.458-3.738,2.908-5.614,4.354C310.796,342.277,312.806,340.724,314.816,339.171z"/>
<path fill="#8C3C1F" d="M795.365,352.605c-2.083-12.608-5.266-25.07-7.476-37.653c-2.565-14.607-3.659-29.304-5.333-43.984
	c-2.777-15.985-9.884-30.407-15.29-45.623c0.054,0.13,0.108,0.26,0.162,0.39c-1.231-3.101-2.326-6.235-3.039-9.559
	c-1.175-5.475-1.777-11.092-2.392-16.65c-0.594-5.375-0.853-10.779-1.347-16.162c-0.355-1.884-0.788-3.744-1.335-5.577
	c-0.984-1.865-2.068-3.667-3.242-5.417c-10.821-12.859-24.131-23.401-32.321-38.509c-4.846-8.94-7.499-18.274-9.347-28.178
	c-0.808-4.333-1.53-8.693-2.78-12.907c-0.181-0.323-0.368-0.643-0.558-0.96c-1.784-1.914-3.703-3.688-5.715-5.372
	c-0.11-0.085-0.221-0.17-0.331-0.256c-0.127-0.094-0.258-0.18-0.385-0.273c-11.201,4.455-22.804,7.262-35.165,8.567
	c-45.015,4.751-81.984-25.101-124.576-32.7c-6.273-0.59-12.567-0.634-18.844-0.113c-4.606,0.951-9.071,2.356-13.462,4.06
	c-12.083,5.54-23.864,12.013-36.639,15.75c-15.491,4.531-31.723,6.712-47.825,7.13c-15.281,0.397-30.594-0.85-45.893-1.505
	c-1.446,1.181-2.914,2.352-4.434,3.502c-14.123,10.681-30.922,16.502-47.026,23.222c-6.065,2.901-11.889,6.202-17.36,10.189
	c-7.845,6.596-14.852,14.156-21.227,22.284c-8.138,11.641-15.093,24.121-20.785,37.253c-3.885,10.465-6.925,21.233-8.792,32.286
	c-0.574,6.507-0.679,13.027-0.202,19.538c0.96,5.047,2.322,9.974,4.148,14.78c0.744,1.455,1.549,2.868,2.433,4.24
	c6.865,8.797,13.811,17.214,18.13,27.918c6.254,15.504,7.649,32.623,3.877,49.028c-2.435,10.591-7.7,20.454-13.842,29.156
	c-3.794,5.376-7.642,10.661-10.784,16.446c-0.438,1.572-0.818,3.158-1.151,4.755c-0.144,3.251-0.096,6.489,0.124,9.735
	c3.005,16.833,9.063,33.416,15.31,49.299c1.294,2.999,2.707,5.933,4.34,8.735c0.219,0.131,0.446,0.247,0.667,0.374
	c9.59,3.243,19.711,4.419,29.46,7.115c13.717,3.794,26.733,9.702,37.96,18.777c1.521,1.229,2.968,2.499,4.361,3.8
	c11.759,4.599,22.262,11.783,32.174,20.062c21.064,17.594,33.951,42.863,49.665,65.285c2.693,3.397,5.547,6.633,8.659,9.604
	c1.144,0.772,2.314,1.497,3.509,2.177c1.303,0.415,2.617,0.783,3.945,1.098c4.167,0.233,8.333,0.11,12.492-0.27
	c9.744-1.895,19.297-5.089,28.901-7.582c12.156-3.156,24.335-5.28,36.776-6.861c11.785-1.497,23.54-1.386,35.383-1.683
	c10.687-0.268,21.348-1.051,31.962-2.35c21.945-3.525,43.385-9.522,64.017-18.114c-0.046-5.892,1.578-12.094,4.275-16.768
	c4.031-6.987,11.026-12.265,18.635-14.536c6.424-1.917,12.878-3.806,19.154-6.186c1.75-0.868,3.454-1.814,5.105-2.858
	c0.255-0.249,0.507-0.502,0.755-0.758c0.282-0.476,0.558-0.957,0.821-1.445c1.406-4.59,2.216-9.304,3.281-14.025
	c1.625-7.201,3.677-14.294,6.073-21.269c4.217-12.279,9.4-24.188,14.229-36.224c5.275-13.147,10.354-24.079,20.092-34.524
	c9.933-10.653,22.704-17.232,34.301-25.574c1.079-0.959,2.107-1.971,3.098-3.02c0.108-0.184,0.223-0.364,0.328-0.549
	c0.185-0.648,0.354-1.3,0.508-1.957C795.696,358.338,795.607,355.47,795.365,352.605z"/>
<path fill="#00AC4E" d="M464.126,776.435c-0.77-4.391-1.948-8.73-2.765-13.113c-0.949-5.087-1.353-10.205-1.973-15.317
	c-1.027-5.567-3.656-10.589-5.655-15.888c0.02,0.045,0.04,0.091,0.06,0.136c-0.455-1.08-0.86-2.171-1.124-3.329
	c-0.435-1.907-0.657-3.863-0.885-5.798c-0.22-1.872-0.316-3.754-0.498-5.629c-0.131-0.656-0.291-1.304-0.494-1.942
	c-0.364-0.649-0.765-1.277-1.199-1.886c-4.003-4.478-8.926-8.149-11.955-13.411c-1.792-3.113-2.774-6.364-3.457-9.813
	c-0.299-1.509-0.566-3.027-1.028-4.495c-0.067-0.112-0.136-0.224-0.207-0.334c-0.66-0.667-1.37-1.284-2.114-1.871
	c-0.041-0.03-0.082-0.059-0.122-0.089c-0.047-0.033-0.095-0.063-0.143-0.095c-4.143,1.551-8.434,2.529-13.007,2.983
	c-16.65,1.655-30.323-8.741-46.077-11.388c-2.32-0.206-4.648-0.221-6.97-0.039c-1.704,0.331-3.355,0.821-4.979,1.414
	c-4.469,1.929-8.827,4.183-13.552,5.485c-5.73,1.578-11.733,2.337-17.689,2.483c-5.652,0.138-11.316-0.296-16.974-0.524
	c-0.535,0.411-1.078,0.819-1.64,1.219c-5.224,3.719-11.437,5.747-17.394,8.087c-2.243,1.01-4.397,2.16-6.421,3.548
	c-2.902,2.297-5.493,4.93-7.851,7.76c-3.01,4.054-5.582,8.4-7.688,12.973c-1.437,3.644-2.561,7.394-3.252,11.243
	c-0.212,2.266-0.251,4.537-0.075,6.804c0.355,1.758,0.859,3.474,1.534,5.147c0.275,0.507,0.573,0.999,0.9,1.477
	c2.539,3.064,5.108,5.995,6.706,9.722c2.313,5.399,2.829,11.361,1.434,17.074c-0.901,3.688-2.848,7.123-5.12,10.153
	c-1.403,1.872-2.827,3.713-3.989,5.727c-0.162,0.547-0.302,1.1-0.426,1.656c-0.053,1.132-0.035,2.26,0.046,3.39
	c1.112,5.862,3.352,11.637,5.663,17.168c0.479,1.044,1.001,2.066,1.605,3.042c0.081,0.046,0.165,0.086,0.247,0.13
	c3.547,1.13,7.291,1.539,10.896,2.478c5.073,1.321,9.888,3.379,14.04,6.539c0.562,0.428,1.098,0.87,1.613,1.323
	c4.349,1.602,8.234,4.103,11.9,6.987c7.791,6.127,12.557,14.927,18.37,22.735c0.996,1.183,2.052,2.31,3.203,3.345
	c0.423,0.269,0.856,0.521,1.298,0.758c0.482,0.145,0.968,0.273,1.459,0.382c1.541,0.081,3.082,0.038,4.62-0.094
	c3.604-0.66,7.137-1.772,10.689-2.64c4.496-1.099,9.001-1.839,13.602-2.389c4.359-0.521,8.707-0.483,13.087-0.586
	c3.953-0.093,7.896-0.366,11.822-0.818c8.117-1.228,16.047-3.316,23.678-6.308c-0.017-2.052,0.584-4.212,1.581-5.839
	c1.491-2.433,4.078-4.271,6.893-5.062c2.376-0.668,4.763-1.326,7.085-2.154c0.647-0.302,1.277-0.632,1.888-0.995
	c0.094-0.087,0.187-0.175,0.279-0.264c0.104-0.166,0.206-0.333,0.304-0.503c0.52-1.599,0.82-3.24,1.214-4.884
	c0.601-2.508,1.36-4.978,2.246-7.407c1.56-4.276,3.477-8.423,5.263-12.615c1.951-4.579,3.829-8.386,7.432-12.023
	c3.674-3.71,8.397-6.001,12.687-8.906c0.399-0.334,0.779-0.686,1.146-1.052c0.04-0.064,0.082-0.127,0.121-0.191
	c0.069-0.226,0.131-0.453,0.188-0.681C464.248,778.432,464.215,777.433,464.126,776.435z"/>
<path fill="#FFF200" d="M231.128,775.003c-0.751-4.344-1.898-8.637-2.695-12.972c-0.925-5.032-1.319-10.095-1.923-15.153
	c-1.001-5.507-3.564-10.475-5.513-15.717c0.019,0.045,0.039,0.09,0.058,0.134c-0.444-1.068-0.838-2.148-1.096-3.293
	c-0.424-1.886-0.641-3.821-0.862-5.736c-0.214-1.852-0.308-3.713-0.485-5.568c-0.128-0.649-0.284-1.29-0.481-1.921
	c-0.355-0.642-0.745-1.263-1.169-1.866c-3.901-4.43-8.7-8.062-11.653-13.266c-1.747-3.08-2.704-6.295-3.37-9.707
	c-0.291-1.493-0.552-2.995-1.002-4.447c-0.065-0.111-0.133-0.222-0.201-0.331c-0.643-0.659-1.335-1.271-2.06-1.851
	c-0.04-0.029-0.08-0.059-0.119-0.088c-0.046-0.032-0.093-0.062-0.139-0.094c-4.038,1.535-8.221,2.502-12.678,2.951
	c-16.229,1.637-29.557-8.647-44.913-11.265c-2.262-0.203-4.531-0.218-6.794-0.039c-1.661,0.328-3.27,0.812-4.854,1.399
	c-4.356,1.909-8.604,4.138-13.209,5.426c-5.585,1.561-11.437,2.312-17.242,2.456c-5.509,0.137-11.03-0.293-16.546-0.519
	c-0.521,0.407-1.051,0.81-1.599,1.206c-5.092,3.679-11.148,5.685-16.954,8c-2.187,0.999-4.286,2.137-6.259,3.51
	c-2.828,2.272-5.354,4.877-7.653,7.677c-2.934,4.01-5.441,8.31-7.494,12.834c-1.401,3.605-2.497,7.315-3.17,11.123
	c-0.207,2.242-0.245,4.488-0.073,6.731c0.346,1.739,0.837,3.436,1.496,5.092c0.268,0.501,0.558,0.988,0.877,1.461
	c2.475,3.031,4.979,5.93,6.536,9.618c2.255,5.341,2.758,11.239,1.398,16.89c-0.878,3.648-2.776,7.046-4.99,10.044
	c-1.368,1.852-2.755,3.673-3.888,5.666c-0.158,0.542-0.295,1.088-0.415,1.638c-0.052,1.12-0.035,2.235,0.045,3.354
	c1.083,5.799,3.268,11.512,5.52,16.984c0.467,1.033,0.976,2.044,1.565,3.009c0.079,0.045,0.161,0.085,0.24,0.129
	c3.457,1.117,7.106,1.522,10.621,2.451c4.945,1.307,9.638,3.343,13.686,6.469c0.548,0.423,1.07,0.861,1.572,1.309
	c4.24,1.584,8.026,4.059,11.599,6.912c7.594,6.061,12.24,14.766,17.906,22.491c0.971,1.17,2,2.285,3.122,3.309
	c0.412,0.266,0.834,0.516,1.265,0.75c0.47,0.143,0.944,0.27,1.422,0.378c1.502,0.08,3.004,0.038,4.504-0.093
	c3.513-0.653,6.957-1.753,10.419-2.612c4.383-1.087,8.774-1.819,13.259-2.364c4.249-0.516,8.487-0.477,12.756-0.58
	c3.853-0.092,7.697-0.362,11.523-0.81c7.912-1.214,15.642-3.28,23.08-6.24c-0.016-2.03,0.569-4.166,1.541-5.777
	c1.453-2.407,3.975-4.225,6.718-5.008c2.316-0.661,4.643-1.311,6.906-2.131c0.631-0.299,1.245-0.625,1.84-0.984
	c0.092-0.086,0.183-0.173,0.272-0.261c0.102-0.164,0.201-0.33,0.296-0.498c0.507-1.581,0.799-3.205,1.183-4.832
	c0.586-2.481,1.326-4.924,2.189-7.327c1.52-4.23,3.389-8.333,5.13-12.479c1.902-4.529,3.733-8.295,7.244-11.894
	c3.581-3.67,8.185-5.936,12.367-8.81c0.389-0.33,0.759-0.679,1.117-1.04c0.039-0.063,0.08-0.125,0.118-0.189
	c0.067-0.223,0.128-0.448,0.183-0.674C231.247,776.978,231.215,775.99,231.128,775.003z"/>
<path fill="#ED1C24" d="M718.714,775.381c-0.805-4.488-2.034-8.924-2.888-13.403c-0.991-5.199-1.414-10.431-2.061-15.657
	c-1.073-5.69-3.819-10.824-5.907-16.24c0.021,0.046,0.042,0.093,0.063,0.139c-0.476-1.104-0.898-2.22-1.174-3.403
	c-0.454-1.949-0.687-3.948-0.924-5.927c-0.23-1.913-0.33-3.837-0.52-5.753c-0.137-0.671-0.304-1.333-0.516-1.985
	c-0.38-0.664-0.799-1.305-1.252-1.928c-4.181-4.577-9.323-8.33-12.487-13.708c-1.872-3.182-2.897-6.505-3.611-10.03
	c-0.312-1.542-0.591-3.095-1.074-4.595c-0.07-0.115-0.142-0.229-0.216-0.342c-0.689-0.681-1.431-1.313-2.208-1.912
	c-0.043-0.03-0.085-0.061-0.128-0.091c-0.049-0.033-0.1-0.064-0.149-0.097c-4.328,1.586-8.81,2.585-13.586,3.05
	c-17.391,1.691-31.674-8.935-48.13-11.64c-2.424-0.21-4.855-0.226-7.281-0.04c-1.78,0.339-3.505,0.839-5.201,1.445
	c-4.668,1.972-9.22,4.276-14.155,5.606c-5.985,1.613-12.256,2.389-18.477,2.538c-5.904,0.141-11.82-0.302-17.731-0.536
	c-0.559,0.42-1.126,0.837-1.713,1.246c-5.456,3.802-11.947,5.874-18.169,8.266c-2.343,1.033-4.593,2.208-6.707,3.627
	c-3.031,2.348-5.738,5.039-8.201,7.932c-3.144,4.144-5.831,8.586-8.03,13.261c-1.501,3.725-2.675,7.558-3.397,11.493
	c-0.222,2.316-0.262,4.637-0.078,6.955c0.371,1.797,0.897,3.551,1.603,5.261c0.287,0.518,0.598,1.021,0.94,1.509
	c2.652,3.132,5.336,6.128,7.004,9.938c2.416,5.519,2.955,11.613,1.498,17.452c-0.941,3.77-2.975,7.281-5.348,10.378
	c-1.466,1.914-2.952,3.795-4.166,5.854c-0.169,0.56-0.316,1.124-0.445,1.693c-0.056,1.157-0.037,2.31,0.048,3.465
	c1.161,5.992,3.502,11.895,5.915,17.549c0.5,1.068,1.046,2.112,1.677,3.109c0.085,0.047,0.172,0.088,0.258,0.133
	c3.705,1.155,7.615,1.573,11.382,2.533c5.299,1.35,10.328,3.454,14.666,6.684c0.588,0.438,1.147,0.889,1.685,1.353
	c4.543,1.637,8.601,4.194,12.43,7.142c8.138,6.263,13.117,15.258,19.188,23.239c1.04,1.209,2.143,2.361,3.346,3.419
	c0.442,0.275,0.894,0.533,1.356,0.775c0.503,0.148,1.011,0.279,1.524,0.391c1.61,0.083,3.219,0.039,4.826-0.096
	c3.765-0.674,7.455-1.811,11.166-2.699c4.697-1.123,9.402-1.88,14.208-2.442c4.553-0.533,9.094-0.493,13.67-0.599
	c4.129-0.096,8.248-0.374,12.348-0.837c8.479-1.255,16.762-3.389,24.733-6.448c-0.018-2.097,0.61-4.305,1.652-5.969
	c1.557-2.487,4.26-4.366,7.2-5.174c2.482-0.682,4.975-1.355,7.4-2.202c0.676-0.309,1.334-0.646,1.972-1.017
	c0.099-0.089,0.196-0.179,0.292-0.27c0.109-0.17,0.216-0.341,0.317-0.514c0.543-1.634,0.856-3.312,1.268-4.992
	c0.628-2.563,1.421-5.088,2.346-7.571c1.629-4.371,3.632-8.61,5.497-12.895c2.038-4.68,4-8.571,7.763-12.29
	c3.838-3.792,8.772-6.134,13.252-9.104c0.417-0.341,0.814-0.702,1.197-1.075c0.042-0.065,0.086-0.13,0.127-0.195
	c0.072-0.231,0.137-0.463,0.196-0.697C718.842,777.422,718.807,776.401,718.714,775.381z"/>
<path fill="#00B7F1" d="M950.871,776.69c-0.805-4.488-2.034-8.924-2.888-13.403c-0.991-5.199-1.414-10.431-2.061-15.657
	c-1.073-5.69-3.819-10.824-5.907-16.24c0.021,0.046,0.042,0.093,0.063,0.139c-0.476-1.104-0.898-2.22-1.174-3.403
	c-0.454-1.949-0.687-3.948-0.924-5.927c-0.23-1.913-0.33-3.837-0.52-5.753c-0.137-0.671-0.304-1.333-0.516-1.985
	c-0.38-0.664-0.799-1.305-1.252-1.928c-4.181-4.577-9.323-8.33-12.487-13.708c-1.872-3.182-2.897-6.505-3.611-10.03
	c-0.312-1.542-0.591-3.095-1.074-4.595c-0.07-0.115-0.142-0.229-0.216-0.342c-0.689-0.681-1.431-1.313-2.208-1.912
	c-0.043-0.03-0.085-0.061-0.128-0.091c-0.049-0.033-0.1-0.064-0.149-0.097c-4.328,1.586-8.81,2.585-13.586,3.05
	c-17.391,1.691-31.674-8.935-48.13-11.64c-2.424-0.21-4.855-0.226-7.281-0.04c-1.78,0.339-3.505,0.839-5.201,1.445
	c-4.668,1.972-9.22,4.276-14.155,5.606c-5.985,1.613-12.256,2.389-18.477,2.538c-5.904,0.141-11.82-0.303-17.731-0.536
	c-0.559,0.42-1.126,0.837-1.713,1.246c-5.457,3.802-11.947,5.874-18.169,8.266c-2.343,1.033-4.593,2.208-6.707,3.627
	c-3.031,2.348-5.738,5.039-8.201,7.932c-3.144,4.144-5.831,8.586-8.03,13.261c-1.501,3.725-2.676,7.558-3.397,11.493
	c-0.222,2.316-0.262,4.637-0.078,6.955c0.371,1.797,0.897,3.551,1.603,5.261c0.287,0.518,0.598,1.021,0.94,1.509
	c2.652,3.132,5.336,6.127,7.004,9.938c2.416,5.519,2.955,11.613,1.498,17.452c-0.941,3.77-2.975,7.281-5.348,10.378
	c-1.466,1.914-2.952,3.795-4.166,5.854c-0.169,0.56-0.316,1.124-0.445,1.693c-0.056,1.157-0.037,2.31,0.048,3.465
	c1.161,5.992,3.502,11.895,5.915,17.549c0.5,1.068,1.046,2.112,1.677,3.109c0.084,0.047,0.172,0.088,0.258,0.133
	c3.705,1.155,7.615,1.573,11.382,2.533c5.3,1.35,10.328,3.454,14.666,6.684c0.588,0.438,1.147,0.889,1.685,1.353
	c4.543,1.637,8.601,4.194,12.43,7.141c8.138,6.263,13.117,15.258,19.188,23.239c1.041,1.209,2.143,2.361,3.346,3.419
	c0.442,0.275,0.894,0.533,1.356,0.775c0.503,0.148,1.011,0.279,1.524,0.391c1.61,0.083,3.219,0.039,4.826-0.096
	c3.764-0.674,7.455-1.811,11.166-2.699c4.696-1.123,9.402-1.88,14.208-2.442c4.553-0.533,9.094-0.493,13.67-0.599
	c4.129-0.096,8.248-0.374,12.348-0.837c8.479-1.255,16.762-3.389,24.733-6.448c-0.018-2.097,0.61-4.305,1.652-5.969
	c1.557-2.487,4.26-4.366,7.2-5.174c2.482-0.682,4.975-1.355,7.4-2.202c0.676-0.309,1.334-0.646,1.972-1.017
	c0.099-0.089,0.196-0.179,0.292-0.27c0.109-0.17,0.216-0.341,0.317-0.514c0.543-1.634,0.856-3.312,1.268-4.992
	c0.628-2.563,1.421-5.088,2.346-7.571c1.629-4.371,3.632-8.61,5.497-12.895c2.038-4.68,4-8.571,7.763-12.29
	c3.838-3.792,8.772-6.134,13.252-9.104c0.417-0.341,0.814-0.702,1.197-1.075c0.042-0.065,0.086-0.13,0.127-0.195
	c0.072-0.231,0.137-0.463,0.196-0.696C950.999,778.731,950.964,777.71,950.871,776.69z"/>
</svg>
