<?xml version="1.0" encoding="utf-8"?>
<!-- Generator: Adobe Illustrator 27.9.0, SVG Export Plug-In . SVG Version: 6.00 Build 0)  -->
<svg version="1.1" id="Layer_1" xmlns="http://www.w3.org/2000/svg" xmlns:xlink="http://www.w3.org/1999/xlink" x="0px" y="0px"
	 width="1000px" height="1000px" viewBox="0 0 1000 1000" enable-background="new 0 0 1000 1000" xml:space="preserve">
<g>
	<path fill="#B98BBF" d="M780.3,794.9c10.6-3.9,19.2-8.6,27.1-13.6c15.1-15.4,29.1-31.9,41.9-49.4c1.2-2.8,2.5-5.6,3.6-8.6
		c11.9-32.1,18.3-66.1,30.6-98.2c11.8-30.6,26.8-58.2,45.1-85.1c0-0.1,0-0.1,0.1-0.2c3.8-23.8,5.9-48.2,5.9-73.1
		c0-50.3-8.1-98.5-23-143.4c-10.6-21.4-19-43-27.4-65.2c-31.3-60.5-75.8-112.4-129.5-151.5c-3.7-2-7.4-3.9-11.2-5.7
		c-17.2-4.9-34.5-9.5-52-13.3c-27.2-5.9-54-6.9-81.5-9.8c-16.6-1.8-31.8-6.5-46.8-12.6c-16.8,3.3-33.5,6.4-50.3,9.4
		C458.8,100,405.7,127.7,352,153.7c-52.5,25.4-105.1,46.6-160.1,61.6c-26.7,31.8-39.6,64.3-50.5,105c-7.8,29.1-15.9,58.1-25,86.9
		c7.1,24,14.9,47.8,20.9,72c18.5,74.6,19.3,154.3,46.9,226.4c10.5,27.4,24.7,53.4,42,77.1c75.6,76.2,178.3,123.1,291.5,122.6
		c0.3,0,0.6,0,0.8-0.1c72.3-10.1,143.7-41.3,206-82.5C741.9,811,760.7,802.1,780.3,794.9z"/>
	<g>
		<path fill="#B98BBF" d="M788.2,823.8c10.4-3.9,20.7-8.4,30.3-14.1c9.5-5.7,16.7-13.8,24-22c6.6-7.4,12.9-15,19-22.7
			c3.9-4.9,7.7-9.9,11.4-15c4.1-5.6,6.4-12.4,8.8-18.8c13.6-36.1,20.4-74.3,35.4-109.9c-1,2.4-2,4.8-3,7.2
			c8.4-19.7,18.3-38.6,29.6-56.8c2.8-4.6,5.8-9.1,8.7-13.5c4.4-6.6,5.5-12.3,6.5-19.7c1.9-13.5,3.5-26.9,4.5-40.5
			c3.3-47-0.9-94.8-11.3-140.8c-2.7-11.8-5.8-23.5-9.4-35c-4.5-14.5-12-28-17.9-41.9c1,2.4,2,4.8,3,7.2
			c-6.3-15.1-11.2-31.3-18.5-45.9c-5.5-10.9-11.8-21.5-18.3-31.8c-14-22.1-30-43.2-47.4-62.8c-16.1-18.2-33.8-35-52.8-50.1
			c-13.4-10.7-26.3-21.1-43-25.8c-13.5-3.8-27.1-7.4-40.8-10.6c-33.2-7.6-67-8.7-100.6-13c2.7,0.4,5.3,0.7,8,1.1
			c-10.4-1.5-20.6-4-30.6-7.4c-6.5-2.2-13.5-6.1-20.6-5.8c-7.5,0.3-15.1,2.5-22.5,3.9c-11.3,2.2-22.7,3.9-33.9,6.2
			c-6.7,1.4-13.4,5.4-19.7,8.4c-5.3,2.5-10.5,5-15.8,7.6c-40.4,19.5-80.3,40-120.5,59.7c-22.4,11-44.9,21.5-67.8,31.2
			c2.4-1,4.8-2,7.2-3c-21.7,9.1-43.6,17.5-65.9,24.9c-11,3.6-22,7.1-33.1,10.2c-4.7,1.3-10.3,2.4-14.4,5c-3.7,2.4-6.6,5.2-9.3,8.6
			c-4.7,5.8-9.2,11.7-13.5,17.8c-25.1,35.8-36.2,77.8-47.7,119.3c-3.2,11.7-6.5,23.4-9.9,35c-1.6,5.3-3.2,10.7-4.8,16
			c-3.2,10.4-6.5,19.9-3.5,30.9c6.2,23.2,14.3,45.9,20.1,69.2c11,44.1,15.7,89.3,23.3,134c8,46.9,20.2,92.5,42.3,134.9
			c10.8,20.6,23.2,41.4,40.1,57.5c15.8,15.1,32.9,28.9,50.6,41.7c67.4,48.6,148.9,76.4,231.8,80.5c4.9,0.2,9.9,0.4,14.8,0.5
			c7.6,0.1,14.9-1,22.4-2.1c10.7-1.7,21.4-3.8,32-6.4c21.7-5.2,43-12.2,63.7-20.5c22.5-9,44.5-19.1,65.8-30.7
			c19.8-10.8,38.2-23.7,57.7-34.9c9.6-5.5,19.5-10.2,29.6-14.5c-2.4,1-4.8,2-7.2,3C779.4,827.2,783.8,825.5,788.2,823.8
			c7.5-2.8,13.8-6.7,17.9-13.8c3.8-6.4,5.4-15.9,3-23.1c-4.7-14.4-21.1-26.8-36.9-21c-15.2,5.6-30.3,12-44.6,19.7
			c-12.6,6.8-24.4,15.1-36.6,22.6c-24.6,15.1-50.3,28.4-76.9,39.6c2.4-1,4.8-2,7.2-3c-35.6,14.9-72.7,25.9-110.9,31.3
			c2.7-0.4,5.3-0.7,8-1.1c-18.5,1.3-38-1.1-56.2-3.6c2.7,0.4,5.3,0.7,8,1.1c-35.2-4.8-69.6-14.3-102.3-28c2.4,1,4.8,2,7.2,3
			c-27.1-11.5-53-25.9-77.1-43c-2.8-2-5.5-3.9-8.2-6c-1.5-1.1-2.9-2.2-4.4-3.3c-2.9-2.2,5.2,4.1,2.4,1.8c-0.8-0.6-1.6-1.3-2.5-1.9
			c-5.7-4.5-11.3-9.2-16.8-14.1c-5.7-5-11.2-10.2-16.7-15.5c-1-1-2.1-2.6-3.3-3.3c3,1.8,3.5,4.9,1.5,2.1c-0.5-0.7-1-1.5-1.6-2.2
			c-2.6-3.7-5.1-7.4-7.5-11.2C230.4,735,221.5,718,214,700.3c1,2.4,2,4.8,3,7.2c-31.7-75.9-31.5-159.4-51.4-238.3
			c-5.9-23.6-13.5-46.8-20.4-70.1c0,5.3,0,10.6,0,16c7.7-24.4,14.7-49,21.4-73.6c5.7-21,11.3-41.9,19.8-62.1c-1,2.4-2,4.8-3,7.2
			c4.1-9.7,8.8-19.1,14.2-28.1c2.7-4.5,5.6-8.9,8.6-13.2c0.8-1.1,1.6-2.2,2.3-3.3c0.7-0.9,3.7-4.9,0.6-0.9c-3.2,4.1,0,0.1,0.7-0.8
			c1-1.3,2.1-2.6,3.2-3.9c-4.4,2.6-8.8,5.1-13.2,7.7c90.5-24.9,173.6-67.6,257.2-109.2c23.6-11.7,47.2-23.3,71-34.6
			c-2.4,1-4.8,2-7.2,3c16.8-3,33.6-6.1,50.3-9.4c-5.3,0-10.6,0-16,0c18.8,7.5,37.5,11.9,57.7,14c18.6,1.9,37.3,3.1,55.9,5.6
			c-2.7-0.4-5.3-0.7-8-1.1c25.3,3.5,50.1,10.2,74.7,17.3c-2.4-1-4.8-2-7.2-3c4.2,2,8.6,4,12.5,6.6c1.8,1.2,3.5,2.6,5.2,3.9
			c2.5,1.9,1.7,1.3-2.2-1.7c0.9,0.7,1.7,1.3,2.6,2c6.8,5.4,13.5,11,20,16.8c12.8,11.5,25,23.7,36.3,36.7
			c5.6,6.4,10.8,13.2,16.3,19.7c-6.2-7.4-1-1.2,0.3,0.5c1.3,1.8,2.6,3.5,3.9,5.3c2.6,3.6,5.1,7.2,7.6,10.8
			c10,14.7,19.1,30,27.3,45.8c-1-2.4-2-4.8-3-7.2c9.3,24.5,18.9,48.8,30.5,72.3c-1-2.4-2-4.8-3-7.2c8.7,26.6,15,53.9,18.8,81.6
			c-0.4-2.7-0.7-5.3-1.1-8c5.5,41.1,5.4,82.6-0.1,123.7c0.4-2.7,0.7-5.3,1.1-8c-0.5,3.5-0.5,8.2-1.7,11.5c1-2.4,2-4.8,3-7.2
			c-20,29.7-36.5,61.3-49.1,94.8c-12.3,33-18.1,68.3-31.7,100.8c1-2.4,2-4.8,3-7.2c-1.6,3.8-3.9,6.8-6.4,10.1
			c-0.6,0.7-1.1,1.5-1.7,2.2c2.6-3.4,3.2-4.2,1.8-2.4c-1.2,1.5-2.3,2.9-3.5,4.4c-4.8,6-9.8,11.9-15,17.6c-2.5,2.8-5,5.5-7.5,8.2
			c-1.3,1.3-2.6,2.6-3.8,4c-4.1,4.6,5.3-2.9,0.8-0.4c-6.4,3.5-12.6,7.1-19.3,9.9c2.4-1,4.8-2,7.2-3c-1.7,0.7-3.4,1.4-5.2,2
			c-7.5,2.8-13.8,6.7-17.9,13.8c-3.8,6.4-5.4,15.9-3,23.1C756,817.2,772.5,829.7,788.2,823.8z"/>
	</g>
</g>
</svg>
