<?xml version="1.0" encoding="utf-8"?>
<!-- Generator: Adobe Illustrator 27.7.0, SVG Export Plug-In . SVG Version: 6.00 Build 0)  -->
<svg version="1.1" id="Layer_1" xmlns="http://www.w3.org/2000/svg" xmlns:xlink="http://www.w3.org/1999/xlink" x="0px" y="0px"
	 width="841.89px" height="595.276px" viewBox="0 0 841.89 595.276" enable-background="new 0 0 841.89 595.276"
	 xml:space="preserve">
<g>
	<path fill="#00AEEF" d="M166.26,328.529c-7.449,2.425-22.157,6.409-39.539,6.409c-19.483,0-35.528-4.504-48.135-15.415
		c-11.078-9.699-17.955-25.288-17.955-43.474c0.191-34.814,26.55-60.274,69.718-60.274c14.899,0,26.55,2.944,32.09,5.369
		l-4.011,12.297c-6.876-2.771-15.472-5.023-28.46-5.023c-31.326,0-51.764,17.667-51.764,46.938
		c0,29.618,19.674,47.111,49.663,47.111c10.887,0,18.337-1.386,22.157-3.118v-34.813h-26.168v-12.124h42.404V328.529z"/>
	<path fill="#00AEEF" d="M191.086,276.049c0-9.873-0.191-18.36-0.764-26.154h14.708l0.573,16.454h0.764
		c4.202-11.258,14.326-18.359,25.595-18.359c1.91,0,3.247,0.173,4.775,0.52v14.376c-1.719-0.346-3.438-0.52-5.73-0.52
		c-11.843,0-20.247,8.141-22.539,19.572c-0.382,2.079-0.764,4.503-0.764,7.102v44.686h-16.618V276.049z"/>
	<path fill="#00AEEF" d="M330.902,310.863c0,8.66,0.191,16.281,0.764,22.862h-14.898l-0.955-13.683h-0.382
		c-4.393,6.755-14.134,15.588-30.562,15.588c-14.517,0-31.898-7.274-31.898-36.719v-49.017h16.809v46.418
		c0,15.935,5.348,26.673,20.629,26.673c11.27,0,19.101-7.102,22.157-13.856c0.955-2.251,1.528-5.022,1.528-7.794v-51.441h16.809
		V310.863z"/>
	<path fill="#00AEEF" d="M358.785,272.585c0-8.66-0.191-15.761-0.764-22.689h14.899l0.955,13.856h0.382
		c4.584-7.967,15.281-15.762,30.562-15.762c12.797,0,32.662,6.928,32.662,35.68v50.056h-16.809v-48.324
		c0-13.51-5.539-24.768-21.393-24.768c-11.078,0-19.674,7.101-22.539,15.588c-0.764,1.905-1.146,4.503-1.146,7.102v50.402h-16.809
		V272.585z"/>
	<path fill="#00AEEF" d="M464.789,272.585c0-8.66-0.19-15.761-0.764-22.689h14.898l0.955,13.856h0.382
		c4.585-7.967,15.281-15.762,30.562-15.762c12.798,0,32.663,6.928,32.663,35.68v50.056h-16.809v-48.324
		c0-13.51-5.539-24.768-21.394-24.768c-11.078,0-19.674,7.101-22.539,15.588c-0.764,1.905-1.146,4.503-1.146,7.102v50.402h-16.81
		V272.585z"/>
	<path fill="#00AEEF" d="M570.794,210.752h16.81v122.974h-16.81V210.752z"/>
	<path fill="#00AEEF" d="M634.589,226.34c0.19,5.196-4.012,9.353-10.697,9.353c-5.921,0-10.123-4.157-10.123-9.353
		c0-5.369,4.393-9.526,10.505-9.526C630.577,216.814,634.589,220.971,634.589,226.34z M615.869,333.726v-83.83h16.81v83.83H615.869z
		"/>
	<path fill="#00AEEF" d="M680.81,225.82v24.075h24.067V261.5H680.81v45.206c0,10.393,3.247,16.281,12.606,16.281
		c4.394,0,7.641-0.52,9.742-1.039l0.764,11.431c-3.247,1.213-8.404,2.079-14.898,2.079c-7.832,0-14.135-2.252-18.146-6.409
		c-4.774-4.503-6.494-11.95-6.494-21.823V261.5h-14.325v-11.604h14.325v-20.091L680.81,225.82z"/>
	<path fill="#00AEEF" d="M742.503,226.34c0.19,5.196-4.012,9.353-10.697,9.353c-5.921,0-10.123-4.157-10.123-9.353
		c0-5.369,4.393-9.526,10.505-9.526C738.491,216.814,742.503,220.971,742.503,226.34z M723.783,333.726v-83.83h16.81v83.83H723.783z
		"/>
	<path fill="#00AEEF" d="M768.477,276.049c0-9.873-0.19-18.36-0.764-26.154h14.708l0.572,16.454h0.765
		c4.202-11.258,14.325-18.359,25.595-18.359c1.91,0,3.248,0.173,4.775,0.52v14.376c-1.719-0.346-3.438-0.52-5.73-0.52
		c-11.842,0-20.246,8.141-22.539,19.572c-0.382,2.079-0.764,4.503-0.764,7.102v44.686h-16.618V276.049z"/>
</g>
<g>
</g>
<g>
</g>
<g>
</g>
<g>
</g>
<g>
</g>
<g>
</g>
</svg>
