<?xml version="1.0" encoding="utf-8"?>
<!-- Generator: Adobe Illustrator 27.9.0, SVG Export Plug-In . SVG Version: 6.00 Build 0)  -->
<svg version="1.1" id="Layer_1" xmlns="http://www.w3.org/2000/svg" xmlns:xlink="http://www.w3.org/1999/xlink" x="0px" y="0px"
	 width="1000px" height="1000px" viewBox="0 0 1000 1000" enable-background="new 0 0 1000 1000" xml:space="preserve">
<g>
	<path fill="#FFFEF4" d="M740.8,773.4c9.4-3.5,17-7.7,23.9-12.2c13.3-13.8,25.7-28.6,37-44.4c1.1-2.5,2.2-5,3.2-7.8
		c10.5-28.9,16.1-59.4,27-88.2c10.4-27.5,23.7-52.2,39.8-76.4c0-0.1,0-0.1,0.1-0.1c3.4-21.4,5.2-43.3,5.2-65.7
		c0-45.1-7.2-88.5-20.3-128.8c-9.3-19.2-16.8-38.6-24.2-58.5c-27.7-54.4-67-101-114.4-136.1c-3.2-1.8-6.5-3.5-9.9-5.1
		c-15.2-4.4-30.5-8.6-45.9-12c-24-5.3-47.7-6.2-72-8.8c-14.7-1.6-28.1-5.9-41.4-11.3c-14.8,3-29.6,5.8-44.5,8.4
		c-47.7,22.8-94.6,47.7-142.1,71.1c-46.4,22.8-92.8,41.8-141.4,55.3c-23.6,28.6-35,57.7-44.6,94.3c-6.9,26.1-14.1,52.2-22,78
		c6.2,21.5,13.2,42.9,18.4,64.6c16.3,67,17.1,138.6,41.4,203.4c9.3,24.6,21.8,48,37.1,69.2c66.7,68.5,157.5,110.5,257.5,110.2
		c0.2,0,0.5,0,0.7-0.1c63.9-9,126.9-37.1,181.9-74.1C706.9,787.9,723.6,779.8,740.8,773.4z"/>
	<g>
		<path d="M741.3,775.2c8.1-3.1,15.8-6.9,23.1-11.6c3.5-2.3,6.3-5.9,9.1-9c3.4-3.8,6.8-7.6,10.1-11.5c5.9-7,11.6-14.3,17.1-21.7
			c5.5-7.6,8-17.3,10.8-26.2c6-19.2,10.6-38.8,16.7-57.9c6.1-19.3,14.1-37.9,23.5-55.8c4.5-8.4,9.2-16.7,14.3-24.8
			c2.3-3.7,5.8-7.6,7.4-11.6c1.5-3.6,1.4-8.4,1.9-12.2c2.7-20.5,3.9-41.2,3.5-61.9c-0.7-39.5-7-78.9-18.7-116.6
			c-3-9.6-8-18.6-11.9-28c-4-9.4-7.6-18.9-11.2-28.5c-6.3-16.8-16.1-32.4-26-47.3c-19.3-29.1-42.4-55.7-68.8-78.6
			c-6.3-5.4-12.7-10.7-19.3-15.7c-8-6.1-16.5-8.9-26.1-11.6c-19.5-5.4-39-10.2-59.1-12.8c-20.3-2.6-41.3-2.4-61.2-7
			c-4.6-1.1-9.2-2.4-13.7-3.9c-2.3-0.7-4.5-1.5-6.7-2.4c-2-0.8-4.5-2.3-6.7-2.6c-3.7-0.5-8.9,1.6-12.6,2.3
			c-5.5,1.1-10.9,2.1-16.4,3.1c-4.8,0.9-9.7,1.7-14.5,2.7c-4.8,0.9-9.4,3.9-13.9,6.1c-9.7,4.7-19.4,9.5-29,14.3
			c-18.7,9.4-37.4,18.9-56,28.4c-37.5,19-75,38-114.1,53.5c-18.5,7.3-37.3,14-56.3,19.8c-4.8,1.5-9.5,2.8-14.3,4.2
			c-3.4,1-4.9,3.8-7.1,6.6c-5.3,6.9-10.2,14.2-14.6,21.8c-18.2,31.6-25.6,67.3-35.3,102.1c-2.8,10.2-5.7,20.3-8.7,30.4
			c-0.8,2.5-1.5,5.1-2.3,7.6c-0.5,1.7-1.8,4.4-1.8,6.2c0,1.8,1.2,4.3,1.7,6c0.8,2.8,1.6,5.5,2.5,8.3c5.9,19.8,11.9,39.5,16.4,59.6
			c8.6,38.4,12.6,77.6,19.3,116.2c6.6,38,16.3,75.4,34,109.9c8.4,16.3,17.6,32.9,30.8,45.7c11.9,11.6,24.6,22.4,37.9,32.3
			c53.9,40.2,118.7,65.1,185.9,70.1c8.7,0.7,17.4,1,26.1,1c8.6,0,17.7-2.5,26.1-4.2c18.8-4,37.2-9.5,55.2-16.2
			c35.8-13.3,69.9-31.3,101.7-52.5C706.3,790.7,723.2,782,741.3,775.2c2.2-0.8,1.3-4.5-1-3.6c-17.2,6.5-33.7,14.4-49,24.6
			c-15.5,10.3-31.3,20-47.8,28.8c-33.2,17.7-68.5,31.7-105.2,40.2c-8.8,2-17.7,3.8-26.7,5.1c-8.3,1.2-17.3,0.2-25.7-0.3
			c-17.2-1.1-34.3-3.4-51.2-7c-32.4-7-63.7-18.6-92.9-34.3c-29-15.7-55.8-35.3-79.7-58.2c-6.7-6.4-12.2-13-17.3-20.8
			c-5.2-8-10-16.3-14.4-24.7c-8.8-16.9-15.9-34.7-21.4-52.9c-10.9-36.5-15.9-74.3-21.5-111.9c-2.8-18.7-5.7-37.3-9.6-55.8
			c-4.1-19.5-9.6-38.5-15.3-57.6c-1.4-4.6-2.8-9.2-4.1-13.8c-0.6-2.1-1.6-4.3-1.9-6.5c-0.4-3.1,1.2-6.4,2.1-9.4
			c3-9.8,5.8-19.6,8.6-29.4c5.3-19,9.9-38.1,15.6-57c4.8-15.8,10.7-31.3,18.6-45.9c3.9-7.1,8.2-14,13-20.6c3-4.1,5.6-8.9,10.5-10.6
			c4.7-1.6,9.6-2.8,14.3-4.2c76.1-23.5,146-61.4,216.8-97.1c9.1-4.6,18.1-9.1,27.2-13.6c9.6-4.7,18.8-10,29.3-11.9
			c10-1.8,20-3.7,30-5.7c3-0.6,5.2-1.2,8.3-0.3c2,0.6,3.9,1.5,5.8,2.2c4.5,1.6,9,3.1,13.5,4.3c18.5,5,38,5.4,57,7.3
			c20.5,2.1,40.4,6.3,60.2,11.6c9.8,2.6,19.9,4.8,28.7,10.1c7.4,4.5,14.2,10.7,20.8,16.3c12.8,11,24.9,22.8,36.2,35.3
			c11.8,13.2,22.7,27.2,32.6,41.8c9.8,14.5,20.3,30,26.4,46.4c3.5,9.3,7,18.5,10.8,27.7c3.9,9.4,8.9,18.5,12.3,28.1
			c6.3,17.5,10.3,36.3,13.5,54.6c6.9,39.5,8.1,79.9,3.5,119.7c-0.6,5.2-0.9,10.6-2.1,15.7c-1,4.4-4.6,8.4-7,12.2
			c-5.1,8.1-9.9,16.3-14.3,24.8c-8.6,16.2-16.1,33-22,50.3c-6.3,18.4-10.9,37.4-16.3,56c-2.8,9.7-5.5,19.9-9.8,29.1
			c-4.1,8.5-11.5,16.2-17.5,23.4c-5.7,6.9-11.6,13.9-18,20.2c-6.5,6.4-16.6,10.5-25,13.7C738.1,772.4,739.1,776.1,741.3,775.2z"/>
	</g>
</g>
</svg>
