<?xml version="1.0" encoding="utf-8"?>
<!-- Generator: Adobe Illustrator 27.7.0, SVG Export Plug-In . SVG Version: 6.00 Build 0)  -->
<svg version="1.1" id="Layer_1" xmlns="http://www.w3.org/2000/svg" xmlns:xlink="http://www.w3.org/1999/xlink" x="0px" y="0px"
	 width="1000px" height="1000px" viewBox="0 0 1000 1000" enable-background="new 0 0 1000 1000" xml:space="preserve">
<path fill="#FFE100" stroke="#FFE100" stroke-miterlimit="10" d="M314.816,339.171c-0.14,0.099-0.276,0.204-0.415,0.304
	c-1.866,1.458-3.738,2.908-5.614,4.354C310.796,342.277,312.806,340.724,314.816,339.171z"/>
<path fill="#EF3E2D" d="M849.137,559.381c-2.505-14.948-6.333-29.722-8.991-44.64c-3.085-17.317-4.4-34.742-6.414-52.146
	c-3.34-18.952-11.887-36.049-18.389-54.089c0.065,0.154,0.13,0.308,0.195,0.462c-1.48-3.676-2.797-7.392-3.654-11.332
	c-1.413-6.491-2.138-13.15-2.877-19.74c-0.715-6.373-1.026-12.779-1.619-19.162c-0.427-2.233-0.947-4.439-1.605-6.612
	c-1.184-2.211-2.487-4.347-3.899-6.422c-13.014-15.245-29.021-27.743-38.87-45.655c-5.828-10.599-9.019-21.665-11.241-33.406
	c-0.972-5.137-1.84-10.307-3.343-15.303c-0.218-0.383-0.442-0.762-0.671-1.139c-2.146-2.269-4.454-4.373-6.873-6.369
	c-0.133-0.101-0.266-0.202-0.398-0.303c-0.153-0.111-0.31-0.214-0.464-0.323c-13.471,5.281-27.425,8.61-42.291,10.157
	c-54.136,5.633-98.596-29.759-149.819-38.768c-7.545-0.7-15.114-0.752-22.663-0.134c-5.54,1.128-10.909,2.794-16.19,4.814
	c-14.532,6.569-28.7,14.242-44.063,18.672c-18.63,5.372-38.151,7.957-57.516,8.453c-18.377,0.47-36.794-1.008-55.193-1.785
	c-1.74,1.4-3.504,2.788-5.333,4.151c-16.985,12.662-37.188,19.564-56.556,27.531c-7.294,3.439-14.298,7.353-20.878,12.08
	c-9.435,7.82-17.861,16.783-25.529,26.419c-9.787,13.801-18.151,28.597-24.997,44.166c-4.672,12.407-8.328,25.173-10.573,38.277
	c-0.69,7.715-0.817,15.444-0.242,23.164c1.154,5.984,2.793,11.825,4.989,17.522c0.894,1.725,1.862,3.4,2.926,5.027
	c8.256,10.43,16.61,20.408,21.803,33.099c7.521,18.38,9.198,38.677,4.663,58.126c-2.928,12.556-9.26,24.249-16.647,34.566
	c-4.563,6.373-9.19,12.639-12.969,19.497c-0.527,1.864-0.983,3.743-1.384,5.638c-0.173,3.855-0.115,7.693,0.15,11.541
	c3.614,19.956,10.9,39.617,18.412,58.447c1.556,3.555,3.256,7.034,5.219,10.356c0.263,0.155,0.536,0.293,0.802,0.444
	c11.533,3.845,23.706,5.239,35.43,8.435c16.496,4.498,32.15,11.503,45.652,22.261c1.829,1.457,3.57,2.962,5.245,4.505
	c14.142,5.453,26.773,13.97,38.693,23.785c25.332,20.859,40.83,50.817,59.729,77.399c3.239,4.027,6.672,7.864,10.414,11.387
	c1.375,0.915,2.782,1.775,4.22,2.581c1.567,0.492,3.148,0.929,4.745,1.302c5.012,0.276,10.021,0.13,15.023-0.32
	c11.718-2.246,23.207-6.033,34.757-8.989c14.619-3.742,29.267-6.26,44.228-8.134c14.173-1.775,28.309-1.643,42.553-1.996
	c12.852-0.318,25.674-1.246,38.438-2.786c26.392-4.179,52.177-11.289,76.989-21.475c-0.055-6.985,1.898-14.338,5.141-19.88
	c4.847-8.283,13.26-14.541,22.411-17.234c7.726-2.273,15.488-4.513,23.036-7.333c2.104-1.029,4.154-2.151,6.139-3.388
	c0.307-0.295,0.609-0.595,0.908-0.899c0.34-0.565,0.671-1.135,0.988-1.713c1.691-5.442,2.665-11.03,3.946-16.627
	c1.954-8.538,4.422-16.946,7.303-25.216c5.072-14.557,11.305-28.676,17.113-42.946c6.344-15.587,12.451-28.547,24.164-40.931
	c11.946-12.63,27.304-20.429,41.252-30.32c1.298-1.137,2.533-2.337,3.725-3.58c0.13-0.218,0.268-0.431,0.394-0.651
	c0.223-0.768,0.426-1.542,0.611-2.32C849.535,566.178,849.428,562.778,849.137,559.381z"/>
</svg>
