<?xml version="1.0" encoding="utf-8"?>
<!-- Generator: Adobe Illustrator 27.7.0, SVG Export Plug-In . SVG Version: 6.00 Build 0)  -->
<svg version="1.1" id="Layer_1" xmlns="http://www.w3.org/2000/svg" xmlns:xlink="http://www.w3.org/1999/xlink" x="0px" y="0px"
	 width="822.485px" height="877.908px" viewBox="0 0 822.485 877.908" enable-background="new 0 0 822.485 877.908"
	 xml:space="preserve">
<g id="dog">
	<g id="pig_00000036939212004047249030000006446360800853371058_">
		<path fill="#FFE9A1" d="M660.257,553.809v15.898c0,44.731-38.345,81.327-85.214,81.327H288.008
			c-46.869,0-85.214-36.595-85.214-81.327v-15.898c0-19.816,7.525-38.036,19.992-52.183c9.763-11.1,22.577-19.692,37.172-24.584
			c8.796-2.954,18.233-4.56,28.05-4.56h287.035c10.914,0,21.371,1.99,30.982,5.607C637.691,489.966,660.257,519.493,660.257,553.809
			z"/>
	</g>
	<g id="pig_00000155138013911743557600000014247457681268823705_">
		<path fill="#FFE9A1" d="M596.189,351.809v101.544c0,6.313-0.41,12.533-1.2,18.639c-8.85,68.471-65.71,121.709-133.97,121.709
			h-50.96c-52.25-0.145-97.79-31.484-120.13-76.945c-6.93-14.091-11.63-29.521-13.62-45.814c-0.7-5.763-1.06-11.63-1.06-17.59
			V351.809c0-74.722,57-136.298,128.07-140.161c2.35-0.135,4.72-0.197,7.1-0.197h50.6
			C535.359,211.45,596.189,274.615,596.189,351.809z"/>
	</g>
	<path fill="#F9C3D2" d="M434.72,610.502L434.72,610.502c-14.584,0-26.517-11.932-26.517-26.517v-29.51
		c0-14.584,11.932-11.255,26.517-11.255l0,0c14.584,0,26.517-3.329,26.517,11.255v29.51
		C461.236,598.57,449.304,610.502,434.72,610.502z"/>
	<path fill="#C49A6C" d="M480.822,514.687c0,12.767-20.641,31.207-46.102,31.207s-46.102-18.44-46.102-31.207
		c0-12.767,20.641-14.953,46.102-14.953S480.822,501.92,480.822,514.687z"/>
	<path fill="#C49A6C" d="M498.178,543.373c-1.501,13.894-13.363,25.55-27.444,26.023c-6.96,0.234-13.981-1.832-19.501-6.14
		c-5.662-4.418-11.908-12.643-13.548-19.731c-1.449-6.267-11.094-3.615-9.643,2.658c2.187,9.457,9.975,19.575,17.617,25.343
		c7.47,5.638,17.192,8.501,26.534,7.79c19.331-1.471,33.937-16.989,35.984-35.943C508.868,536.983,498.863,537.032,498.178,543.373z
		"/>
	<path fill="#C49A6C" d="M424.686,544.415c-1.501,13.894-13.363,25.55-27.444,26.023c-6.96,0.234-13.981-1.832-19.501-6.14
		c-5.662-4.418-11.908-12.643-13.548-19.731c-1.449-6.267-11.094-3.615-9.643,2.658c2.187,9.457,9.975,19.575,17.617,25.343
		c7.47,5.638,17.192,8.501,26.534,7.79c19.331-1.471,33.937-16.989,35.984-35.943C435.376,538.025,425.371,538.073,424.686,544.415z
		"/>
	<path fill="#FFE9A1" d="M471.962,549.87c0-3.935-3.434-7.666-7.5-7.5c-2.787,0.114-5.567,0.341-8.335,0.664
		c1.447-0.419,2.894-0.839,4.336-1.275c0.281-0.085,1.447-0.396,1.321-0.865c-0.121-0.45-1.348-0.158-1.577-0.089
		c-3.119,0.943-6.249,1.847-9.391,2.707c-0.966,0.264-1.934,0.518-2.902,0.774c-0.211,0.039-0.423,0.07-0.633,0.11
		c-0.423,0.081-0.817,0.217-1.196,0.375c-0.691,0.179-1.382,0.357-2.074,0.531c-0.013,0.003-0.028,0.008-0.041,0.012
		c-0.086-0.044-0.172-0.088-0.258-0.131c-0.23-0.079-0.466-0.108-0.709-0.088h-0.252c-0.204,0.01-0.398,0.055-0.583,0.137
		c-0.185,0.055-0.354,0.143-0.507,0.264c-0.033,0.022-0.047,0.059-0.077,0.084c-0.232-0.111-0.745-0.111-1.275-0.015
		c-1.004-0.275-2.63,0.427-2.242,1.282c1.228,2.703,2.645,5.339,4.304,7.807c0.356,0.852,0.879,1.635,1.6,2.277
		c0.037,0.033,0.075,0.062,0.112,0.095c0.887,1.134,1.834,2.221,2.858,3.241c1.828,1.822,3.875,3.449,6.125,4.72
		c2.801,1.581,5.87,2.53,8.94,3.435c0.67,0.197,1.58-0.014,2.049-0.549c0.423-0.483,0.303-1.087-0.342-1.277
		c-0.444-0.131-0.888-0.263-1.332-0.397c4.822-0.304,7.421-5.766,6.083-10.084C470.544,554.792,471.962,552.54,471.962,549.87z"/>
	<path fill="#FFE9A1" d="M424.669,544.943c-0.006-0.036,0.003-0.074-0.006-0.109c-0.034-0.073-0.09-0.114-0.167-0.123
		c-0.106-0.043-0.218-0.06-0.335-0.051c-0.164-0.002-0.327,0.012-0.489,0.041c-0.012,0.001-0.024,0.006-0.036,0.007l-3.735-0.824
		c-0.015-0.057-0.042-0.112-0.094-0.161c-0.208-0.194-0.509-0.224-0.778-0.24c-0.044-0.002-0.087-0.005-0.131-0.008
		c-0.049-0.005-0.099-0.011-0.145-0.017c-0.161-0.022-0.322-0.05-0.481-0.083c-0.16-0.033-0.318-0.071-0.475-0.114
		c-0.048-0.013-0.096-0.027-0.144-0.042c0.04,0.012,0.081,0.024,0.121,0.036c-0.086-0.002-0.203-0.069-0.284-0.098
		c-0.351-0.127-0.753-0.129-1.135-0.056c-0.23-0.173-0.457-0.348-0.65-0.563c-0.173-0.192-0.546-0.234-0.778-0.239
		c-0.367-0.008-0.801,0.079-1.135,0.229c-0.318,0.142-1.062,0.567-0.853,1.009c-0.722,0.157-1.44,0.421-2.135,0.8
		c-4.684,2.554-7.79,6.693-9.686,11.586c-0.662,1.708-0.132,4.261,0.756,5.779c0.91,1.556,2.694,3.039,4.482,3.447
		c0.585,0.133,1.153,0.201,1.703,0.217c-0.541,0.273-1.091,0.531-1.655,0.763c-0.574,0.236-1.062,0.952-0.673,1.535
		c0.421,0.631,1.398,0.477,1.975,0.24c8.894-3.655,15.473-12.167,16.671-21.716c0.013-0.107,0.007-0.202-0.01-0.29
		c0.055-0.047,0.122-0.082,0.165-0.142c0.067-0.115,0.102-0.239,0.128-0.366C424.863,545.225,424.983,545.036,424.669,544.943z"/>
	<path fill="#FFFFFF" d="M286.546,352.47v97.79c0,5.74,0.36,11.39,1.06,16.94c-13.44,4.72-25.24,13.01-34.23,23.72
		c-41.55-29.33-69.57-84.76-69.57-148.32c0-94.17,61.53-170.51,137.43-170.51c36.05,0,68.86,17.22,93.38,45.4
		C343.546,221.21,286.546,280.51,286.546,352.47z"/>
	<path fill="#F3A368" d="M468.053,343.219c0,49.396-18.225,94.126-47.712,126.597c-29.726,32.734-70.916,52.998-116.419,52.998
		c-8.121,0-16.099-0.642-23.898-1.896c-20.53-3.275-39.817-10.711-57.147-21.486c10.737-11.28,24.829-20.011,40.88-24.982
		c-0.836-5.845-1.266-11.796-1.266-17.842V353.614c0-75.79,68.074-138.246,152.951-142.164
		C447.798,244.247,468.053,291.147,468.053,343.219z"/>
	<circle fill="#A97C50" cx="382.806" cy="438.954" r="11.755"/>
	<circle fill="#A97C50" cx="485.459" cy="438.954" r="11.755"/>
	<path fill="#A97C50" d="M650.479,360.817L535.24,406.483c-14.906,5.907-30.362-7.227-26.939-22.89l29.551-135.238
		c3.423-15.664,22.949-21.153,34.032-9.567l85.687,89.571C667.396,338.63,663.692,355.581,650.479,360.817z"/>
	<path fill="#A97C50" d="M331.201,396.173l-122.778-45.492c-15.708-5.82-19.21-26.47-6.301-37.144l101.163-83.646
		c12.91-10.674,32.533-3.354,35.299,13.167l21.615,129.139C362.957,388.676,346.869,401.979,331.201,396.173z"/>
</g>
</svg>
