<?xml version="1.0" encoding="utf-8"?>
<!-- Generator: Adobe Illustrator 27.7.0, SVG Export Plug-In . SVG Version: 6.00 Build 0)  -->
<svg version="1.1" id="Layer_1" xmlns="http://www.w3.org/2000/svg" xmlns:xlink="http://www.w3.org/1999/xlink" x="0px" y="0px"
	 width="720px" height="708.333px" viewBox="0 0 720 708.333" enable-background="new 0 0 720 708.333" xml:space="preserve">
<g id="pig">
	
		<ellipse transform="matrix(0.0068 -1 1 0.0068 -15.5423 707.2784)" fill="#FCE0E3" cx="348.279" cy="361.463" rx="139.777" ry="150.086"/>
	<path fill="#FAC6CF" d="M282.943,262.205l-82.978,99.161c-4.236,5.062-11.842,5.737-16.904,1.502l-40.963-34.278
		c-5.062-4.236-5.737-11.842-1.502-16.904l82.978-99.161c4.236-5.062,11.842-5.737,16.904-1.502l40.963,34.278
		C286.503,249.537,287.179,257.144,282.943,262.205z"/>
	<path fill="#FAC6CF" d="M388.928,439.159h-87.09c-15.415,0-28.027-12.612-28.027-28.027v-7.783
		c0-15.415,12.612-28.027,28.027-28.027h87.09c15.415,0,28.027,12.612,28.027,28.027v7.783
		C416.955,426.547,404.343,439.159,388.928,439.159z"/>
	<path fill="#AD7088" d="M308.013,427.77L308.013,427.77c-3.642,0-6.623-2.98-6.623-6.622v-27.815c0-3.642,2.98-6.622,6.623-6.622
		l0,0c3.642,0,6.623,2.98,6.623,6.622v27.815C314.636,424.79,311.656,427.77,308.013,427.77z"/>
	<path fill="#AD7088" d="M390.795,427.77L390.795,427.77c-3.642,0-6.623-2.98-6.623-6.622v-27.815c0-3.642,2.98-6.622,6.623-6.622
		l0,0c3.642,0,6.622,2.98,6.622,6.622v27.815C397.417,424.79,394.437,427.77,390.795,427.77z"/>
	<circle fill="#414042" cx="303.548" cy="331.896" r="10.511"/>
	<circle fill="#414042" cx="390.795" cy="331.896" r="10.691"/>
	<path fill="#AD7088" d="M379.911,459.333c-3.312,2.92-6.841,6.231-11.588,7.801c-5.271,1.743-12.373,1.546-18.031,1.632
		c-10.251,0.154-23.397-1.697-27.421-10.136c-1.815-3.805-9.799-2.161-7.963,1.688c4.966,10.414,18.833,14.56,32.346,14.799
		c7.29,0.129,16.17,0.141,23.093-1.802c6.366-1.786,11.058-5.66,15.404-9.491C389.23,460.756,383.412,456.247,379.911,459.333z"/>
	<path fill="#FAC6CF" d="M494.905,361.56l-81.237-100.591c-4.147-5.135-3.338-12.729,1.796-16.875l41.554-33.559
		c5.135-4.147,12.728-3.338,16.875,1.796l81.237,100.591c4.147,5.135,3.338,12.728-1.796,16.875l-41.554,33.559
		C506.645,367.503,499.051,366.695,494.905,361.56z"/>
</g>
</svg>
