<?xml version="1.0" encoding="utf-8"?>
<!-- Generator: Adobe Illustrator 27.7.0, SVG Export Plug-In . SVG Version: 6.00 Build 0)  -->
<svg version="1.1" id="Layer_1" xmlns="http://www.w3.org/2000/svg" xmlns:xlink="http://www.w3.org/1999/xlink" x="0px" y="0px"
	 width="1000px" height="1000px" viewBox="0 0 1000 1000" enable-background="new 0 0 1000 1000" xml:space="preserve">
<g opacity="0.75">
	<path fill="#FED7AB" d="M886.24,799.183h-765.8c-6.6,0-12-5.4-12-12V69.312c0-6.6,5.4-12,12-12h765.8c6.6,0,12,5.4,12,12v717.871
		C898.24,793.783,892.84,799.183,886.24,799.183z"/>
</g>
<g>
	<path fill="#FAAB54" d="M325.035,896.804l-8.745,25.438h-11.243l28.607-80.877h13.117l28.732,80.877h-11.618l-8.994-25.438H325.035
		z M352.643,888.644l-8.245-23.279c-1.874-5.279-3.123-10.079-4.373-14.759h-0.25c-1.25,4.8-2.624,9.72-4.248,14.639l-8.245,23.399
		H352.643z"/>
	<path fill="#FAAB54" d="M436.593,906.403c0,5.999,0.125,11.279,0.5,15.839h-9.744l-0.625-9.479h-0.25
		c-2.873,4.68-9.244,10.8-19.988,10.8c-9.494,0-20.862-5.04-20.862-25.439v-33.958h10.993v32.158
		c0,11.039,3.498,18.479,13.492,18.479c7.371,0,12.493-4.92,14.491-9.6c0.625-1.561,1-3.48,1-5.4v-35.638h10.993V906.403z"/>
	<path fill="#FAAB54" d="M457.83,856.245l14.491-6.6c-3.748-2.641-8.37-5.04-12.992-7.2l4.747-6.6c5.997,2.64,12.243,6,17.614,9.72
		l15.99-7.32l2.624,5.28l-13.242,6c6.871,5.399,12.368,11.879,15.99,19.079c3.373,6.72,5.247,14.399,5.247,23.279
		c0.125,22.318-14.741,31.679-29.232,31.679c-16.365,0-28.607-11.52-28.607-29.64c0-18.839,13.742-29.758,28.108-29.758
		c4.622,0,9.12,0.84,13.867,5.159l0.25-0.36c-3.623-5.76-8.37-10.919-14.741-15.479l-17.739,7.919L457.83,856.245z M497.056,893.083
		c0-7.56-1.125-12.359-4.248-16.079c-2.748-3-6.871-5.64-13.242-5.64c-12.992,0-17.989,12.84-17.989,22.439
		c0,12.239,7.371,21.839,17.489,21.839C490.06,915.643,497.056,906.283,497.056,893.083z"/>
	<path fill="#FAAB54" d="M526.661,864.165l11.867,32.639c1.999,5.279,3.623,10.079,4.872,14.879h0.375
		c1.374-4.8,3.123-9.6,5.122-14.879l11.742-32.639h11.493l-23.735,58.077h-10.493l-22.986-58.077H526.661z"/>
	<path fill="#FAAB54" d="M587.373,895.123c0.25,14.279,9.744,20.159,20.737,20.159c7.871,0,12.618-1.319,16.74-3l1.874,7.561
		c-3.873,1.68-10.494,3.6-20.113,3.6c-18.613,0-29.731-11.76-29.731-29.279s10.743-31.318,28.357-31.318
		c19.738,0,24.985,16.68,24.985,27.358c0,2.16-0.25,3.84-0.375,4.92H587.373z M619.604,887.563
		c0.125-6.72-2.873-17.159-15.24-17.159c-11.118,0-15.99,9.84-16.865,17.159H619.604z"/>
	<path fill="#FAAB54" d="M643.838,837.046h10.993v85.196h-10.993V837.046z"/>
	<path fill="#FAAB54" d="M686.562,847.485v16.68h15.74v8.039h-15.74v31.318c0,7.2,2.124,11.28,8.245,11.28
		c2.873,0,4.997-0.36,6.371-0.72l0.5,7.919c-2.124,0.84-5.497,1.44-9.744,1.44c-5.122,0-9.245-1.561-11.868-4.44
		c-3.123-3.119-4.247-8.279-4.247-15.119v-31.679h-9.369v-8.039h9.369v-13.92L686.562,847.485z"/>
</g>
<path fill="#F99F38" stroke="#F99F38" stroke-width="24" stroke-miterlimit="10" d="M457.031,470.103H323.299c-6.6,0-12-5.4-12-12
	V331.588c0-6.6,5.4-12,12-12h133.732c6.6,0,12,5.4,12,12v126.515C469.031,464.703,463.631,470.103,457.031,470.103z"/>
<path fill="#F99F38" stroke="#F99F38" stroke-width="24" stroke-miterlimit="10" d="M693.113,470.103H559.381c-6.6,0-12-5.4-12-12
	V331.588c0-6.6,5.4-12,12-12h133.732c6.6,0,12,5.4,12,12v126.515C705.113,464.703,699.713,470.103,693.113,470.103z"/>
<g>
</g>
<g>
</g>
<g>
</g>
<g>
</g>
<g>
</g>
<g>
</g>
</svg>
