<?xml version="1.0" encoding="utf-8"?>
<!-- Generator: Adobe Illustrator 27.7.0, SVG Export Plug-In . SVG Version: 6.00 Build 0)  -->
<svg version="1.1" id="Layer_1" xmlns="http://www.w3.org/2000/svg" xmlns:xlink="http://www.w3.org/1999/xlink" x="0px" y="0px"
	 width="1000px" height="1000px" viewBox="0 0 1000 1000" enable-background="new 0 0 1000 1000" xml:space="preserve">
<g opacity="0.75">
	<path fill="#AED5E9" d="M886.24,799.183h-765.8c-6.6,0-12-5.4-12-12V69.312c0-6.6,5.4-12,12-12h765.8c6.6,0,12,5.4,12,12v717.871
		C898.24,793.783,892.84,799.183,886.24,799.183z"/>
</g>
<g>
	<path fill="#006B94" d="M430.053,884.323h-32.73v29.159H433.8v8.76h-47.346v-80.877h45.472v8.76h-34.604v25.56h32.73V884.323z"/>
	<path fill="#006B94" d="M447.541,882.284c0-6.84-0.125-12.72-0.5-18.119h9.619l0.375,11.399h0.5c2.749-7.8,9.369-12.72,16.74-12.72
		c1.25,0,2.124,0.12,3.123,0.359v9.96c-1.124-0.24-2.249-0.36-3.748-0.36c-7.745,0-13.242,5.641-14.741,13.56
		c-0.25,1.44-0.5,3.12-0.5,4.92v30.959h-10.868V882.284z"/>
	<path fill="#006B94" d="M493.262,922.242v-50.038h-8.495v-8.039h8.495v-3.12c0-15.359,9.369-25.319,26.359-25.319
		c5.621,0,12.242,1.68,15.365,3.84l-3.123,8.04c-2.623-1.8-7.37-3.36-12.742-3.36c-11.618,0-14.99,7.8-14.99,17.039v2.881h35.104
		v58.077h-10.869v-50.038h-24.234v50.038H493.262z"/>
	<path fill="#006B94" d="M570.715,847.485v16.68h15.74v8.039h-15.74v31.318c0,7.2,2.123,11.28,8.245,11.28
		c2.873,0,4.996-0.36,6.371-0.72l0.499,7.919c-2.123,0.84-5.496,1.44-9.744,1.44c-5.121,0-9.244-1.561-11.867-4.44
		c-3.123-3.119-4.248-8.279-4.248-15.119v-31.679h-9.369v-8.039h9.369v-13.92L570.715,847.485z"/>
	<path fill="#006B94" d="M612.064,847.485v16.68h15.74v8.039h-15.74v31.318c0,7.2,2.123,11.28,8.244,11.28
		c2.874,0,4.997-0.36,6.371-0.72l0.5,7.919c-2.124,0.84-5.496,1.44-9.744,1.44c-5.122,0-9.244-1.561-11.867-4.44
		c-3.123-3.119-4.248-8.279-4.248-15.119v-31.679h-9.369v-8.039h9.369v-13.92L612.064,847.485z"/>
</g>
<path fill="#006B94" stroke="#006B94" stroke-width="24" stroke-miterlimit="10" d="M349.996,714.33H216.264c-6.6,0-12-5.4-12-12
	V575.814c0-6.6,5.4-12,12-12h133.732c6.6,0,12,5.4,12,12V702.33C361.996,708.93,356.596,714.33,349.996,714.33z"/>
<path fill="#006B94" stroke="#006B94" stroke-width="24" stroke-miterlimit="10" d="M792.689,714.33H658.957c-6.6,0-12-5.4-12-12
	V575.814c0-6.6,5.4-12,12-12h133.732c6.6,0,12,5.4,12,12V702.33C804.689,708.93,799.289,714.33,792.689,714.33z"/>
<path fill="#006B94" stroke="#006B94" stroke-width="24" stroke-miterlimit="10" d="M569.069,714.33H435.337c-6.6,0-12-5.4-12-12
	V575.814c0-6.6,5.4-12,12-12h133.732c6.6,0,12,5.4,12,12V702.33C581.069,708.93,575.669,714.33,569.069,714.33z"/>
<path fill="#006B94" stroke="#006B94" stroke-width="24" stroke-miterlimit="10" d="M349.996,495.773H216.264c-6.6,0-12-5.4-12-12
	V357.258c0-6.6,5.4-12,12-12h133.732c6.6,0,12,5.4,12,12v126.515C361.996,490.373,356.596,495.773,349.996,495.773z"/>
<path fill="#006B94" stroke="#006B94" stroke-width="24" stroke-miterlimit="10" d="M792.689,495.773H658.957c-6.6,0-12-5.4-12-12
	V357.258c0-6.6,5.4-12,12-12h133.732c6.6,0,12,5.4,12,12v126.515C804.689,490.373,799.289,495.773,792.689,495.773z"/>
<path fill="#006B94" stroke="#006B94" stroke-width="24" stroke-miterlimit="10" d="M569.069,495.773H435.337c-6.6,0-12-5.4-12-12
	V357.258c0-6.6,5.4-12,12-12h133.732c6.6,0,12,5.4,12,12v126.515C581.069,490.373,575.669,495.773,569.069,495.773z"/>
<path fill="#006B94" stroke="#006B94" stroke-width="24" stroke-miterlimit="10" d="M347.722,277.216H213.99c-6.6,0-12-5.4-12-12
	V138.701c0-6.6,5.4-12,12-12h133.732c6.6,0,12,5.4,12,12v126.515C359.722,271.816,354.322,277.216,347.722,277.216z"/>
<path fill="#006B94" stroke="#006B94" stroke-width="24" stroke-miterlimit="10" d="M790.415,277.216H656.683c-6.6,0-12-5.4-12-12
	V138.701c0-6.6,5.4-12,12-12h133.732c6.6,0,12,5.4,12,12v126.515C802.415,271.816,797.015,277.216,790.415,277.216z"/>
<path fill="#006B94" stroke="#006B94" stroke-width="24" stroke-miterlimit="10" d="M566.794,277.216H433.063c-6.6,0-12-5.4-12-12
	V138.701c0-6.6,5.4-12,12-12h133.732c6.6,0,12,5.4,12,12v126.515C578.794,271.816,573.395,277.216,566.794,277.216z"/>
<g>
</g>
<g>
</g>
<g>
</g>
<g>
</g>
<g>
</g>
<g>
</g>
</svg>
