<?xml version="1.0" encoding="utf-8"?>
<!-- Generator: Adobe Illustrator 27.7.0, SVG Export Plug-In . SVG Version: 6.00 Build 0)  -->
<svg version="1.1" id="Layer_1" xmlns="http://www.w3.org/2000/svg" xmlns:xlink="http://www.w3.org/1999/xlink" x="0px" y="0px"
	 width="1000px" height="1000px" viewBox="0 0 1000 1000" enable-background="new 0 0 1000 1000" xml:space="preserve">
<path fill="#FFE100" stroke="#FFE100" stroke-miterlimit="10" d="M314.816,339.171c-0.14,0.099-0.276,0.204-0.415,0.304
	c-1.866,1.458-3.738,2.908-5.614,4.354C310.796,342.277,312.806,340.724,314.816,339.171z"/>
<g opacity="0.65">
	<path fill="#A5C7A3" d="M942.249,960.71H53.191c-6.6,0-12-5.4-12-12V48.896c0-6.6,5.4-12,12-12h889.057c6.6,0,12,5.4,12,12V948.71
		C954.249,955.31,948.849,960.71,942.249,960.71z"/>
</g>
<circle fill="#7CB380" cx="162.731" cy="175.867" r="85.501"/>
<circle fill="#7CB380" cx="162.731" cy="391.316" r="85.501"/>
<circle fill="#7CB380" cx="162.731" cy="610.755" r="85.501"/>
<circle fill="#7CB380" cx="162.731" cy="827.481" r="85.501"/>
<circle fill="#7CB380" cx="374.116" cy="175.867" r="85.501"/>
<circle fill="#7CB380" cx="374.116" cy="385.573" r="85.501"/>
<circle fill="#7CB380" cx="374.116" cy="605.012" r="85.501"/>
<circle fill="#7CB380" cx="379.936" cy="824.451" r="85.501"/>
<circle fill="#7CB380" cx="593.982" cy="175.867" r="85.501"/>
<circle fill="#7CB380" cx="591.321" cy="391.316" r="85.501"/>
<circle fill="#7CB380" cx="591.321" cy="609.399" r="85.501"/>
<circle fill="#7CB380" cx="597.142" cy="827.481" r="85.501"/>
<circle fill="#7CB380" cx="813.847" cy="175.867" r="85.501"/>
<circle fill="#7CB380" cx="808.527" cy="385.573" r="85.501"/>
<circle fill="#7CB380" cx="808.527" cy="605.012" r="85.501"/>
<circle fill="#7CB380" cx="808.527" cy="824.451" r="85.501"/>
</svg>
