<?xml version="1.0" encoding="utf-8"?>
<!-- Generator: Adobe Illustrator 27.7.0, SVG Export Plug-In . SVG Version: 6.00 Build 0)  -->
<svg version="1.1" id="Layer_1" xmlns="http://www.w3.org/2000/svg" xmlns:xlink="http://www.w3.org/1999/xlink" x="0px" y="0px"
	 width="1000px" height="1000px" viewBox="0 0 1000 1000" enable-background="new 0 0 1000 1000" xml:space="preserve">
<g opacity="0.75">
	<path fill="#C9E1D6" d="M886.24,799.183h-765.8c-6.6,0-12-5.4-12-12V69.312c0-6.6,5.4-12,12-12h765.8c6.6,0,12,5.4,12,12v717.871
		C898.24,793.783,892.84,799.183,886.24,799.183z"/>
</g>
<g>
	<path fill="#006944" d="M350.651,886.724c-0.625-11.279-1.374-24.839-1.249-34.919h-0.375c-2.873,9.479-6.371,19.56-10.618,30.719
		l-14.866,39.239h-8.245l-13.617-38.519c-3.998-11.399-7.371-21.84-9.744-31.439h-0.25c-0.25,10.08-0.875,23.64-1.624,35.759
		l-2.249,34.679h-10.369l5.872-80.877h13.866l14.366,39.118c3.498,9.96,6.371,18.84,8.495,27.239h0.375
		c2.124-8.159,5.122-17.039,8.87-27.239l14.991-39.118h13.867l5.247,80.877h-10.618L350.651,886.724z"/>
	<path fill="#006944" d="M393.498,847.845c0.125,3.601-2.623,6.48-6.996,6.48c-3.873,0-6.621-2.88-6.621-6.48
		c0-3.72,2.874-6.6,6.871-6.6C390.875,841.245,393.498,844.125,393.498,847.845z M381.255,922.242v-58.077h10.993v58.077H381.255z"
		/>
	<path fill="#006944" d="M413.485,856.245l14.491-6.6c-3.748-2.641-8.37-5.04-12.992-7.2l4.747-6.6c5.997,2.64,12.243,6,17.614,9.72
		l15.99-7.32l2.624,5.28l-13.242,6c6.871,5.399,12.368,11.879,15.99,19.079c3.373,6.72,5.247,14.399,5.247,23.279
		c0.125,22.318-14.741,31.679-29.232,31.679c-16.365,0-28.607-11.52-28.607-29.64c0-18.839,13.742-29.758,28.108-29.758
		c4.622,0,9.12,0.84,13.867,5.159l0.25-0.36c-3.623-5.76-8.37-10.919-14.741-15.479l-17.739,7.919L413.485,856.245z
		 M452.711,893.083c0-7.56-1.125-12.359-4.248-16.079c-2.748-3-6.871-5.64-13.242-5.64c-12.992,0-17.989,12.84-17.989,22.439
		c0,12.239,7.371,21.839,17.489,21.839C445.715,915.643,452.711,906.283,452.711,893.083z"/>
	<path fill="#006944" d="M478.069,837.046h10.993v85.196h-10.993V837.046z"/>
	<path fill="#006944" d="M558.145,906.403c0,5.999,0.125,11.279,0.499,15.839h-9.744l-0.624-9.479h-0.25
		c-2.873,4.68-9.244,10.8-19.988,10.8c-9.494,0-20.861-5.04-20.861-25.439v-33.958h10.993v32.158
		c0,11.039,3.497,18.479,13.491,18.479c7.371,0,12.492-4.92,14.491-9.6c0.625-1.561,1-3.48,1-5.4v-35.638h10.993V906.403z"/>
	<path fill="#006944" d="M576.383,879.884c0-6-0.125-10.92-0.499-15.719h9.744l0.624,9.6h0.25c2.998-5.521,9.994-10.92,19.987-10.92
		c8.37,0,21.362,4.8,21.362,24.719v34.679h-10.993v-33.479c0-9.359-3.623-17.159-13.991-17.159c-7.246,0-12.867,4.92-14.741,10.799
		c-0.5,1.32-0.75,3.12-0.75,4.92v34.919h-10.993V879.884z"/>
	<path fill="#006944" d="M697.809,864.165c-0.25,4.199-0.5,8.879-0.5,15.959v33.719c0,13.319-2.748,21.479-8.62,26.519
		c-5.871,5.28-14.366,6.96-21.986,6.96c-7.245,0-15.24-1.68-20.112-4.8l2.748-8.04c3.998,2.4,10.244,4.561,17.739,4.561
		c11.243,0,19.488-5.641,19.488-20.279v-6.48h-0.25c-3.373,5.4-9.869,9.72-19.238,9.72c-14.991,0-25.734-12.239-25.734-28.318
		c0-19.68,13.367-30.839,27.233-30.839c10.493,0,16.24,5.279,18.863,10.079h0.25l0.5-8.759H697.809z M686.44,887.084
		c0-1.8-0.125-3.36-0.625-4.8c-1.999-6.12-7.37-11.16-15.365-11.16c-10.494,0-17.989,8.52-17.989,21.959
		c0,11.4,5.996,20.88,17.864,20.88c6.746,0,12.867-4.08,15.24-10.8c0.625-1.8,0.875-3.84,0.875-5.64V887.084z"/>
	<path fill="#006944" d="M714.047,911.442c3.248,2.04,8.995,4.2,14.491,4.2c7.995,0,11.743-3.84,11.743-8.64
		c0-5.04-3.123-7.8-11.243-10.68c-10.868-3.72-15.99-9.479-15.99-16.439c0-9.359,7.87-17.039,20.862-17.039
		c6.121,0,11.493,1.68,14.866,3.6l-2.749,7.68c-2.373-1.439-6.746-3.359-12.367-3.359c-6.496,0-10.119,3.6-10.119,7.919
		c0,4.8,3.623,6.96,11.493,9.84c10.494,3.84,15.865,8.88,15.865,17.52c0,10.199-8.245,17.399-22.611,17.399
		c-6.621,0-12.742-1.561-16.989-3.96L714.047,911.442z"/>
</g>
<path fill="#006944" stroke="#006944" stroke-width="24" stroke-miterlimit="10" d="M471.464,587.526H337.732c-6.6,0-12-5.4-12-12
	V449.01c0-6.6,5.4-12,12-12h133.732c6.6,0,12,5.4,12,12v126.515C483.464,582.126,478.064,587.526,471.464,587.526z"/>
<path fill="#006944" stroke="#006944" stroke-width="24" stroke-miterlimit="10" d="M701.361,371.134H567.629c-6.6,0-12-5.4-12-12
	V232.619c0-6.6,5.4-12,12-12h133.732c6.6,0,12,5.4,12,12v126.515C713.361,365.734,707.961,371.134,701.361,371.134z"/>
<path fill="#006944" stroke="#006944" stroke-width="24" stroke-miterlimit="10" d="M701.361,587.526H567.629c-6.6,0-12-5.4-12-12
	V449.01c0-6.6,5.4-12,12-12h133.732c6.6,0,12,5.4,12,12v126.515C713.361,582.126,707.961,587.526,701.361,587.526z"/>
<path fill="#006944" stroke="#006944" stroke-width="24" stroke-miterlimit="10" d="M471.464,371.134H337.732c-6.6,0-12-5.4-12-12
	V232.619c0-6.6,5.4-12,12-12h133.732c6.6,0,12,5.4,12,12v126.515C483.464,365.734,478.064,371.134,471.464,371.134z"/>
<g>
</g>
<g>
</g>
<g>
</g>
<g>
</g>
<g>
</g>
<g>
</g>
</svg>
